<svg width="35" height="35" viewBox="0 0 35 35" fill="none" xmlns="http://www.w3.org/2000/svg">
<g clip-path="url(#clip0_970_928)">
<mask id="path-1-inside-1_970_928" fill="white">
<path d="M17.2533 0.366661C17.289 0.365449 17.3247 0.364555 17.3604 0.363978C17.4994 0.362593 17.6385 0.362902 17.7775 0.364905C17.9166 0.366908 18.0556 0.370604 18.1946 0.375993C18.3335 0.381384 18.4724 0.388466 18.6112 0.397239C18.75 0.406011 18.8886 0.416474 19.0271 0.428626C19.1657 0.440776 19.304 0.454611 19.4422 0.470134C19.5804 0.485656 19.7184 0.50286 19.8562 0.521745C19.994 0.540628 20.1315 0.561187 20.2688 0.583422C20.406 0.605657 20.543 0.62956 20.6797 0.655131C20.8164 0.680704 20.9528 0.707938 21.0888 0.736831C21.2248 0.765724 21.3605 0.79627 21.4958 0.82847C21.6311 0.86067 21.766 0.894512 21.9004 0.929997C22.0349 0.965483 22.1689 1.0026 22.3024 1.04135C22.436 1.0801 22.569 1.12047 22.7016 1.16246C22.8342 1.20446 22.9662 1.24806 23.0978 1.29327C23.2293 1.33847 23.3602 1.38528 23.4906 1.43368C23.6209 1.48208 23.7507 1.53206 23.8799 1.58362C24.009 1.63518 24.1375 1.68831 24.2654 1.743C24.3932 1.79769 24.5204 1.85393 24.6469 1.91172C24.7734 1.96951 24.8991 2.02883 25.0242 2.08968C25.1492 2.15054 25.2735 2.2129 25.397 2.27679C25.5206 2.34067 25.6433 2.40605 25.7652 2.47292C25.8871 2.53979 26.0082 2.60814 26.1285 2.67796C26.2488 2.74778 26.3682 2.81906 26.4867 2.89179C26.6052 2.96452 26.7229 3.03868 26.8396 3.11428C26.9563 3.18988 27.0721 3.26688 27.187 3.3453C27.3018 3.42371 27.4157 3.50352 27.5285 3.58473C27.6415 3.66592 27.7534 3.74848 27.8643 3.8324C27.9751 3.9163 28.085 4.00156 28.1938 4.08817C28.3026 4.17476 28.4104 4.26265 28.517 4.35186C28.6237 4.44109 28.7293 4.5316 28.8337 4.62339C28.9382 4.71519 29.0415 4.80824 29.1437 4.90253C29.2459 4.99684 29.347 5.09239 29.4468 5.18916C29.5474 5.28694 29.6467 5.38595 29.7448 5.48618C29.8429 5.58642 29.9397 5.68786 30.0352 5.79049C30.1308 5.89312 30.2251 5.99691 30.3182 6.10186C30.4112 6.20682 30.5029 6.3129 30.5933 6.42011C30.6837 6.52732 30.7727 6.63564 30.8604 6.74506C30.9482 6.85448 31.0345 6.96497 31.1195 7.07653C31.2045 7.18807 31.2881 7.30065 31.3703 7.41426C31.4525 7.52787 31.5333 7.64249 31.6127 7.75811C31.6921 7.8737 31.77 7.99028 31.8465 8.10783C31.9231 8.22537 31.9981 8.34382 32.0717 8.4632C32.1453 8.5826 32.2173 8.70288 32.2879 8.82404C32.3585 8.94521 32.4277 9.06724 32.4953 9.1901C32.5628 9.31299 32.6289 9.43668 32.6934 9.56119C32.758 9.68569 32.821 9.81097 32.8824 9.93703C32.9439 10.0631 33.0038 10.1899 33.0621 10.3174C33.1204 10.445 33.1771 10.5732 33.2323 10.7021C33.2874 10.8311 33.341 10.9607 33.3929 11.091C33.4449 11.2212 33.4952 11.3521 33.5439 11.4836C33.5926 11.6151 33.6397 11.7472 33.6852 11.8799C33.7306 12.0126 33.7744 12.1458 33.8166 12.2795C33.8588 12.4133 33.8993 12.5475 33.9381 12.6823C33.977 12.817 34.0142 12.9522 34.0497 13.0879C34.0852 13.2236 34.119 13.3597 34.1512 13.4962C34.1834 13.6327 34.2139 13.7696 34.2426 13.9068C34.2713 14.0441 34.2984 14.1817 34.3239 14.3196C34.3492 14.4575 34.3728 14.5957 34.3947 14.7342C34.4168 14.8727 34.437 15.0115 34.4555 15.1505C34.474 15.2895 34.4907 15.4287 34.5057 15.5682C34.521 15.7076 34.5345 15.8472 34.5461 15.9869C34.5577 16.1267 34.5676 16.2666 34.5758 16.4066C34.584 16.5466 34.5905 16.6867 34.5953 16.8268C34.5999 16.967 34.6028 17.1072 34.6042 17.2474C34.6069 17.3889 34.6078 17.5304 34.6069 17.6719C34.6062 17.8134 34.6037 17.9549 34.5994 18.0963C34.5951 18.2378 34.5889 18.3792 34.5809 18.5205C34.5732 18.6617 34.5636 18.8029 34.5522 18.944C34.5408 19.085 34.5276 19.2259 34.5126 19.3667C34.4978 19.5074 34.4811 19.6479 34.4627 19.7882C34.4445 19.9285 34.4243 20.0686 34.4022 20.2084C34.3803 20.3482 34.3567 20.4877 34.3314 20.6269C34.3061 20.7662 34.279 20.905 34.2501 21.0436C34.2214 21.1821 34.1908 21.3203 34.1585 21.4581C34.1262 21.5958 34.0922 21.7332 34.0565 21.8701C34.0208 22.0071 33.9834 22.1435 33.9443 22.2796C33.9052 22.4156 33.8644 22.5511 33.8219 22.6861C33.7795 22.821 33.7353 22.9555 33.6895 23.0893C33.6436 23.2232 33.5962 23.3565 33.547 23.4892C33.4978 23.6219 33.447 23.754 33.3946 23.8855C33.3421 24.0169 33.2881 24.1476 33.2323 24.2777C33.1766 24.4078 33.1193 24.5372 33.0604 24.6658C33.0015 24.7945 32.9409 24.9224 32.8788 25.0495C32.8167 25.1767 32.753 25.303 32.6877 25.4286C32.6224 25.5542 32.5556 25.6789 32.4872 25.8028C32.4189 25.9267 32.349 26.0497 32.2775 26.1719C32.206 26.294 32.1331 26.4152 32.0586 26.5356C31.9842 26.6559 31.9082 26.7753 31.8307 26.8937C31.7533 27.0122 31.6744 27.1296 31.594 27.2461C31.5136 27.3626 31.4318 27.478 31.3486 27.5925C31.2653 27.7069 31.1806 27.8203 31.0946 27.9326C31.0085 28.0449 30.921 28.1561 30.8322 28.2663C30.7433 28.3764 30.6531 28.4855 30.5615 28.5933C30.47 28.7012 30.3771 28.808 30.2828 28.9136C30.1886 29.0191 30.0931 29.1235 29.9962 29.2267C29.8994 29.3299 29.8013 29.4319 29.7019 29.5326C29.6045 29.6317 29.5058 29.7296 29.406 29.8262C29.3062 29.9229 29.2052 30.0184 29.1031 30.1126C29.0009 30.2068 28.8976 30.2998 28.7932 30.3915C28.6888 30.4832 28.5833 30.5736 28.4767 30.6628C28.3701 30.7519 28.2625 30.8398 28.1537 30.9263C28.045 31.0128 27.9352 31.098 27.8244 31.1819C27.7136 31.2658 27.6018 31.3483 27.489 31.4295C27.3762 31.5106 27.2624 31.5904 27.1477 31.6688C27.0329 31.7472 26.9173 31.8242 26.8007 31.8997C26.684 31.9753 26.5665 32.0495 26.4481 32.1222C26.3297 32.1949 26.2104 32.2662 26.0903 32.336C25.9701 32.4059 25.8492 32.4742 25.7273 32.5411C25.6055 32.608 25.4829 32.6734 25.3595 32.7373C25.2361 32.8013 25.112 32.8637 24.9871 32.9246C24.8622 32.9855 24.7366 33.0448 24.6102 33.1027C24.4839 33.1605 24.3568 33.2168 24.2291 33.2716C24.1014 33.3264 23.973 33.3796 23.844 33.4312C23.715 33.4829 23.5854 33.533 23.4551 33.5814C23.3249 33.63 23.1941 33.6769 23.0628 33.7222C22.9314 33.7675 22.7995 33.8112 22.6671 33.8534C22.5346 33.8955 22.4017 33.936 22.2683 33.9749C22.1349 34.0138 22.001 34.051 21.8667 34.0867C21.7324 34.1223 21.5977 34.1563 21.4625 34.1886C21.3274 34.2209 21.1919 34.2517 21.056 34.2809C20.9201 34.31 20.7839 34.3375 20.6473 34.3632C20.5108 34.389 20.3739 34.413 20.2368 34.4354C20.0996 34.4579 19.9622 34.4788 19.8246 34.4979C19.687 34.517 19.5491 34.5345 19.411 34.5502C19.273 34.5659 19.1347 34.5799 18.9963 34.5922C18.8579 34.6048 18.7194 34.6155 18.5807 34.6244C18.442 34.6335 18.3033 34.6409 18.1644 34.6466C18.0256 34.6523 17.8867 34.6563 17.7477 34.6585C16.8934 34.6603 16.0485 34.6257 15.2005 34.5133C15.092 34.4985 14.9837 34.4828 14.8755 34.4661C14.7673 34.4493 14.6592 34.4314 14.5513 34.4125C14.4435 34.3935 14.3358 34.3736 14.2283 34.3526C14.1208 34.3317 14.0136 34.3097 13.9065 34.2867C13.7994 34.2637 13.6926 34.2396 13.586 34.2146C13.4794 34.1894 13.3731 34.1632 13.267 34.1361C13.1609 34.1089 13.0551 34.0808 12.9495 34.0515C12.844 34.0224 12.7387 33.9922 12.6338 33.9609C12.5288 33.9297 12.4242 33.8975 12.3198 33.8642C12.2155 33.831 12.1115 33.7967 12.0078 33.7615C11.9041 33.7262 11.8008 33.69 11.6978 33.6527C11.5948 33.6155 11.4922 33.5772 11.39 33.538C11.2877 33.4988 11.1859 33.4585 11.0844 33.4173C10.983 33.3761 10.8819 33.334 10.7812 33.2908C10.6806 33.2477 10.5804 33.2036 10.4806 33.1585C10.3808 33.1134 10.2814 33.0674 10.1825 33.0203C10.0836 32.9734 9.98516 32.9254 9.88718 32.8765C9.7892 32.8276 9.69169 32.7778 9.59467 32.727C9.49764 32.6762 9.40112 32.6245 9.3051 32.5718C9.20908 32.5192 9.11357 32.4656 9.01857 32.4112C8.92357 32.3567 8.82911 32.3013 8.73519 32.2449C8.64128 32.1886 8.54791 32.1314 8.45508 32.0733C8.36227 32.0152 8.27003 31.9562 8.17836 31.8963C8.08667 31.8364 7.99558 31.7756 7.9051 31.714C7.81459 31.6523 7.72469 31.5898 7.63539 31.5264C7.54609 31.463 7.4574 31.3988 7.36933 31.3337C7.28128 31.2686 7.19386 31.2026 7.10707 31.1358C7.0203 31.069 6.93418 31.0014 6.84871 30.933C6.76321 30.8645 6.6784 30.7953 6.59427 30.7252C6.51012 30.6551 6.42666 30.5842 6.34387 30.5125C6.26111 30.4408 6.17905 30.3683 6.09768 30.295C6.01628 30.2217 5.93562 30.1477 5.85568 30.0728C5.75349 29.9783 5.65246 29.8826 5.55261 29.7856C5.45276 29.6886 5.3541 29.5905 5.25662 29.4911C5.15916 29.3917 5.06292 29.2912 4.9679 29.1895C4.87288 29.0878 4.77911 28.9849 4.6866 28.8809C4.59407 28.7769 4.50283 28.6718 4.41289 28.5656C4.32293 28.4594 4.23427 28.3521 4.1469 28.2437C4.05956 28.1353 3.97354 28.0259 3.88885 27.9154C3.80417 27.805 3.72084 27.6935 3.63886 27.581C3.55689 27.4685 3.47631 27.355 3.3971 27.2406C3.31788 27.1261 3.24008 27.0107 3.16368 26.8944C3.08727 26.778 3.0123 26.6608 2.93875 26.5426C2.8652 26.4244 2.7931 26.3054 2.72245 26.1854C2.6518 26.0655 2.58262 25.9447 2.51491 25.8231C2.44719 25.7015 2.38097 25.5791 2.31624 25.4558C2.2515 25.3326 2.18828 25.2086 2.12657 25.0839C2.06485 24.9591 2.00466 24.8336 1.946 24.7074C1.88734 24.5812 1.83022 24.4542 1.77465 24.3266C1.71908 24.199 1.66507 24.0707 1.61262 23.9418C1.56017 23.8129 1.50929 23.6833 1.45999 23.5531C1.4107 23.423 1.36299 23.2922 1.31687 23.1609C1.27076 23.0296 1.22625 22.8977 1.18334 22.7652C1.14044 22.6328 1.09915 22.4999 1.05948 22.3665C1.01981 22.2331 0.981764 22.0992 0.945351 21.9649C0.908938 21.8305 0.874165 21.6957 0.841031 21.5605C0.807897 21.4254 0.776413 21.2898 0.746579 21.1538C0.716747 21.0179 0.688572 20.8816 0.662056 20.7449C0.635539 20.6083 0.610688 20.4713 0.587503 20.3341C0.56432 20.1968 0.54281 20.0593 0.522972 19.9216C0.503134 19.7838 0.484975 19.6458 0.468496 19.5076C0.452019 19.3694 0.437225 19.231 0.424114 19.0924C0.411003 18.9538 0.39958 18.8151 0.389845 18.6763C0.380109 18.5374 0.372064 18.3985 0.365711 18.2594C0.195523 13.6162 1.74363 9.24086 4.91841 5.83123C5.00454 5.73815 5.09171 5.64603 5.17992 5.55489C5.2681 5.46376 5.3573 5.37363 5.44751 5.28449C5.53772 5.19535 5.62891 5.10722 5.72108 5.02011C5.81328 4.933 5.90642 4.84693 6.0005 4.76192C6.09461 4.67688 6.18965 4.59291 6.28563 4.51001C6.38161 4.42711 6.47849 4.3453 6.57629 4.26457C6.67412 4.18384 6.77282 4.1042 6.87239 4.02565C6.97197 3.94713 7.07242 3.86972 7.17375 3.79343C7.27506 3.71715 7.37722 3.642 7.48021 3.56799C7.5832 3.49398 7.68701 3.42113 7.79162 3.34945C7.89623 3.27777 8.00164 3.20726 8.10785 3.13793C8.21404 3.0686 8.321 3.00046 8.42873 2.93352C8.53644 2.86658 8.64489 2.80085 8.75409 2.73633C8.86326 2.67181 8.97314 2.60852 9.08375 2.54646C9.19436 2.4844 9.30563 2.42358 9.41758 2.364C9.52956 2.30442 9.64217 2.2461 9.75541 2.18904C9.86869 2.13198 9.98257 2.07619 10.0971 2.02168C10.2116 1.96716 10.3267 1.91393 10.4424 1.86199C10.5581 1.81004 10.6744 1.75939 10.7912 1.71005C10.908 1.6607 11.0254 1.61266 11.1433 1.56594C11.2612 1.51921 11.3796 1.47381 11.4985 1.42973C11.6174 1.38565 11.7368 1.34291 11.8567 1.3015C11.9766 1.26008 12.0969 1.22002 12.2177 1.18129C12.3384 1.14257 12.4596 1.1052 12.5812 1.06918C12.7028 1.03317 12.8248 0.998514 12.9472 0.965223C13.0696 0.931932 13.1923 0.900013 13.3154 0.869465C13.4385 0.838915 13.5619 0.809745 13.6856 0.781955C13.8094 0.754165 13.9334 0.727758 14.0577 0.702737C14.1821 0.677717 14.3067 0.65409 14.4315 0.631855C14.5564 0.609618 14.6815 0.588778 14.8068 0.569337C14.9321 0.549895 15.0577 0.531856 15.1834 0.51522C15.3091 0.498584 15.435 0.483353 15.5611 0.469529C16.1226 0.404625 16.6888 0.386527 17.2533 0.366661Z"/>
</mask>
<path d="M17.2533 0.366661C17.289 0.365449 17.3247 0.364555 17.3604 0.363978C17.4994 0.362593 17.6385 0.362902 17.7775 0.364905C17.9166 0.366908 18.0556 0.370604 18.1946 0.375993C18.3335 0.381384 18.4724 0.388466 18.6112 0.397239C18.75 0.406011 18.8886 0.416474 19.0271 0.428626C19.1657 0.440776 19.304 0.454611 19.4422 0.470134C19.5804 0.485656 19.7184 0.50286 19.8562 0.521745C19.994 0.540628 20.1315 0.561187 20.2688 0.583422C20.406 0.605657 20.543 0.62956 20.6797 0.655131C20.8164 0.680704 20.9528 0.707938 21.0888 0.736831C21.2248 0.765724 21.3605 0.79627 21.4958 0.82847C21.6311 0.86067 21.766 0.894512 21.9004 0.929997C22.0349 0.965483 22.1689 1.0026 22.3024 1.04135C22.436 1.0801 22.569 1.12047 22.7016 1.16246C22.8342 1.20446 22.9662 1.24806 23.0978 1.29327C23.2293 1.33847 23.3602 1.38528 23.4906 1.43368C23.6209 1.48208 23.7507 1.53206 23.8799 1.58362C24.009 1.63518 24.1375 1.68831 24.2654 1.743C24.3932 1.79769 24.5204 1.85393 24.6469 1.91172C24.7734 1.96951 24.8991 2.02883 25.0242 2.08968C25.1492 2.15054 25.2735 2.2129 25.397 2.27679C25.5206 2.34067 25.6433 2.40605 25.7652 2.47292C25.8871 2.53979 26.0082 2.60814 26.1285 2.67796C26.2488 2.74778 26.3682 2.81906 26.4867 2.89179C26.6052 2.96452 26.7229 3.03868 26.8396 3.11428C26.9563 3.18988 27.0721 3.26688 27.187 3.3453C27.3018 3.42371 27.4157 3.50352 27.5285 3.58473C27.6415 3.66592 27.7534 3.74848 27.8643 3.8324C27.9751 3.9163 28.085 4.00156 28.1938 4.08817C28.3026 4.17476 28.4104 4.26265 28.517 4.35186C28.6237 4.44109 28.7293 4.5316 28.8337 4.62339C28.9382 4.71519 29.0415 4.80824 29.1437 4.90253C29.2459 4.99684 29.347 5.09239 29.4468 5.18916C29.5474 5.28694 29.6467 5.38595 29.7448 5.48618C29.8429 5.58642 29.9397 5.68786 30.0352 5.79049C30.1308 5.89312 30.2251 5.99691 30.3182 6.10186C30.4112 6.20682 30.5029 6.3129 30.5933 6.42011C30.6837 6.52732 30.7727 6.63564 30.8604 6.74506C30.9482 6.85448 31.0345 6.96497 31.1195 7.07653C31.2045 7.18807 31.2881 7.30065 31.3703 7.41426C31.4525 7.52787 31.5333 7.64249 31.6127 7.75811C31.6921 7.8737 31.77 7.99028 31.8465 8.10783C31.9231 8.22537 31.9981 8.34382 32.0717 8.4632C32.1453 8.5826 32.2173 8.70288 32.2879 8.82404C32.3585 8.94521 32.4277 9.06724 32.4953 9.1901C32.5628 9.31299 32.6289 9.43668 32.6934 9.56119C32.758 9.68569 32.821 9.81097 32.8824 9.93703C32.9439 10.0631 33.0038 10.1899 33.0621 10.3174C33.1204 10.445 33.1771 10.5732 33.2323 10.7021C33.2874 10.8311 33.341 10.9607 33.3929 11.091C33.4449 11.2212 33.4952 11.3521 33.5439 11.4836C33.5926 11.6151 33.6397 11.7472 33.6852 11.8799C33.7306 12.0126 33.7744 12.1458 33.8166 12.2795C33.8588 12.4133 33.8993 12.5475 33.9381 12.6823C33.977 12.817 34.0142 12.9522 34.0497 13.0879C34.0852 13.2236 34.119 13.3597 34.1512 13.4962C34.1834 13.6327 34.2139 13.7696 34.2426 13.9068C34.2713 14.0441 34.2984 14.1817 34.3239 14.3196C34.3492 14.4575 34.3728 14.5957 34.3947 14.7342C34.4168 14.8727 34.437 15.0115 34.4555 15.1505C34.474 15.2895 34.4907 15.4287 34.5057 15.5682C34.521 15.7076 34.5345 15.8472 34.5461 15.9869C34.5577 16.1267 34.5676 16.2666 34.5758 16.4066C34.584 16.5466 34.5905 16.6867 34.5953 16.8268C34.5999 16.967 34.6028 17.1072 34.6042 17.2474C34.6069 17.3889 34.6078 17.5304 34.6069 17.6719C34.6062 17.8134 34.6037 17.9549 34.5994 18.0963C34.5951 18.2378 34.5889 18.3792 34.5809 18.5205C34.5732 18.6617 34.5636 18.8029 34.5522 18.944C34.5408 19.085 34.5276 19.2259 34.5126 19.3667C34.4978 19.5074 34.4811 19.6479 34.4627 19.7882C34.4445 19.9285 34.4243 20.0686 34.4022 20.2084C34.3803 20.3482 34.3567 20.4877 34.3314 20.6269C34.3061 20.7662 34.279 20.905 34.2501 21.0436C34.2214 21.1821 34.1908 21.3203 34.1585 21.4581C34.1262 21.5958 34.0922 21.7332 34.0565 21.8701C34.0208 22.0071 33.9834 22.1435 33.9443 22.2796C33.9052 22.4156 33.8644 22.5511 33.8219 22.6861C33.7795 22.821 33.7353 22.9555 33.6895 23.0893C33.6436 23.2232 33.5962 23.3565 33.547 23.4892C33.4978 23.6219 33.447 23.754 33.3946 23.8855C33.3421 24.0169 33.2881 24.1476 33.2323 24.2777C33.1766 24.4078 33.1193 24.5372 33.0604 24.6658C33.0015 24.7945 32.9409 24.9224 32.8788 25.0495C32.8167 25.1767 32.753 25.303 32.6877 25.4286C32.6224 25.5542 32.5556 25.6789 32.4872 25.8028C32.4189 25.9267 32.349 26.0497 32.2775 26.1719C32.206 26.294 32.1331 26.4152 32.0586 26.5356C31.9842 26.6559 31.9082 26.7753 31.8307 26.8937C31.7533 27.0122 31.6744 27.1296 31.594 27.2461C31.5136 27.3626 31.4318 27.478 31.3486 27.5925C31.2653 27.7069 31.1806 27.8203 31.0946 27.9326C31.0085 28.0449 30.921 28.1561 30.8322 28.2663C30.7433 28.3764 30.6531 28.4855 30.5615 28.5933C30.47 28.7012 30.3771 28.808 30.2828 28.9136C30.1886 29.0191 30.0931 29.1235 29.9962 29.2267C29.8994 29.3299 29.8013 29.4319 29.7019 29.5326C29.6045 29.6317 29.5058 29.7296 29.406 29.8262C29.3062 29.9229 29.2052 30.0184 29.1031 30.1126C29.0009 30.2068 28.8976 30.2998 28.7932 30.3915C28.6888 30.4832 28.5833 30.5736 28.4767 30.6628C28.3701 30.7519 28.2625 30.8398 28.1537 30.9263C28.045 31.0128 27.9352 31.098 27.8244 31.1819C27.7136 31.2658 27.6018 31.3483 27.489 31.4295C27.3762 31.5106 27.2624 31.5904 27.1477 31.6688C27.0329 31.7472 26.9173 31.8242 26.8007 31.8997C26.684 31.9753 26.5665 32.0495 26.4481 32.1222C26.3297 32.1949 26.2104 32.2662 26.0903 32.336C25.9701 32.4059 25.8492 32.4742 25.7273 32.5411C25.6055 32.608 25.4829 32.6734 25.3595 32.7373C25.2361 32.8013 25.112 32.8637 24.9871 32.9246C24.8622 32.9855 24.7366 33.0448 24.6102 33.1027C24.4839 33.1605 24.3568 33.2168 24.2291 33.2716C24.1014 33.3264 23.973 33.3796 23.844 33.4312C23.715 33.4829 23.5854 33.533 23.4551 33.5814C23.3249 33.63 23.1941 33.6769 23.0628 33.7222C22.9314 33.7675 22.7995 33.8112 22.6671 33.8534C22.5346 33.8955 22.4017 33.936 22.2683 33.9749C22.1349 34.0138 22.001 34.051 21.8667 34.0867C21.7324 34.1223 21.5977 34.1563 21.4625 34.1886C21.3274 34.2209 21.1919 34.2517 21.056 34.2809C20.9201 34.31 20.7839 34.3375 20.6473 34.3632C20.5108 34.389 20.3739 34.413 20.2368 34.4354C20.0996 34.4579 19.9622 34.4788 19.8246 34.4979C19.687 34.517 19.5491 34.5345 19.411 34.5502C19.273 34.5659 19.1347 34.5799 18.9963 34.5922C18.8579 34.6048 18.7194 34.6155 18.5807 34.6244C18.442 34.6335 18.3033 34.6409 18.1644 34.6466C18.0256 34.6523 17.8867 34.6563 17.7477 34.6585C16.8934 34.6603 16.0485 34.6257 15.2005 34.5133C15.092 34.4985 14.9837 34.4828 14.8755 34.4661C14.7673 34.4493 14.6592 34.4314 14.5513 34.4125C14.4435 34.3935 14.3358 34.3736 14.2283 34.3526C14.1208 34.3317 14.0136 34.3097 13.9065 34.2867C13.7994 34.2637 13.6926 34.2396 13.586 34.2146C13.4794 34.1894 13.3731 34.1632 13.267 34.1361C13.1609 34.1089 13.0551 34.0808 12.9495 34.0515C12.844 34.0224 12.7387 33.9922 12.6338 33.9609C12.5288 33.9297 12.4242 33.8975 12.3198 33.8642C12.2155 33.831 12.1115 33.7967 12.0078 33.7615C11.9041 33.7262 11.8008 33.69 11.6978 33.6527C11.5948 33.6155 11.4922 33.5772 11.39 33.538C11.2877 33.4988 11.1859 33.4585 11.0844 33.4173C10.983 33.3761 10.8819 33.334 10.7812 33.2908C10.6806 33.2477 10.5804 33.2036 10.4806 33.1585C10.3808 33.1134 10.2814 33.0674 10.1825 33.0203C10.0836 32.9734 9.98516 32.9254 9.88718 32.8765C9.7892 32.8276 9.69169 32.7778 9.59467 32.727C9.49764 32.6762 9.40112 32.6245 9.3051 32.5718C9.20908 32.5192 9.11357 32.4656 9.01857 32.4112C8.92357 32.3567 8.82911 32.3013 8.73519 32.2449C8.64128 32.1886 8.54791 32.1314 8.45508 32.0733C8.36227 32.0152 8.27003 31.9562 8.17836 31.8963C8.08667 31.8364 7.99558 31.7756 7.9051 31.714C7.81459 31.6523 7.72469 31.5898 7.63539 31.5264C7.54609 31.463 7.4574 31.3988 7.36933 31.3337C7.28128 31.2686 7.19386 31.2026 7.10707 31.1358C7.0203 31.069 6.93418 31.0014 6.84871 30.933C6.76321 30.8645 6.6784 30.7953 6.59427 30.7252C6.51012 30.6551 6.42666 30.5842 6.34387 30.5125C6.26111 30.4408 6.17905 30.3683 6.09768 30.295C6.01628 30.2217 5.93562 30.1477 5.85568 30.0728C5.75349 29.9783 5.65246 29.8826 5.55261 29.7856C5.45276 29.6886 5.3541 29.5905 5.25662 29.4911C5.15916 29.3917 5.06292 29.2912 4.9679 29.1895C4.87288 29.0878 4.77911 28.9849 4.6866 28.8809C4.59407 28.7769 4.50283 28.6718 4.41289 28.5656C4.32293 28.4594 4.23427 28.3521 4.1469 28.2437C4.05956 28.1353 3.97354 28.0259 3.88885 27.9154C3.80417 27.805 3.72084 27.6935 3.63886 27.581C3.55689 27.4685 3.47631 27.355 3.3971 27.2406C3.31788 27.1261 3.24008 27.0107 3.16368 26.8944C3.08727 26.778 3.0123 26.6608 2.93875 26.5426C2.8652 26.4244 2.7931 26.3054 2.72245 26.1854C2.6518 26.0655 2.58262 25.9447 2.51491 25.8231C2.44719 25.7015 2.38097 25.5791 2.31624 25.4558C2.2515 25.3326 2.18828 25.2086 2.12657 25.0839C2.06485 24.9591 2.00466 24.8336 1.946 24.7074C1.88734 24.5812 1.83022 24.4542 1.77465 24.3266C1.71908 24.199 1.66507 24.0707 1.61262 23.9418C1.56017 23.8129 1.50929 23.6833 1.45999 23.5531C1.4107 23.423 1.36299 23.2922 1.31687 23.1609C1.27076 23.0296 1.22625 22.8977 1.18334 22.7652C1.14044 22.6328 1.09915 22.4999 1.05948 22.3665C1.01981 22.2331 0.981764 22.0992 0.945351 21.9649C0.908938 21.8305 0.874165 21.6957 0.841031 21.5605C0.807897 21.4254 0.776413 21.2898 0.746579 21.1538C0.716747 21.0179 0.688572 20.8816 0.662056 20.7449C0.635539 20.6083 0.610688 20.4713 0.587503 20.3341C0.56432 20.1968 0.54281 20.0593 0.522972 19.9216C0.503134 19.7838 0.484975 19.6458 0.468496 19.5076C0.452019 19.3694 0.437225 19.231 0.424114 19.0924C0.411003 18.9538 0.39958 18.8151 0.389845 18.6763C0.380109 18.5374 0.372064 18.3985 0.365711 18.2594C0.195523 13.6162 1.74363 9.24086 4.91841 5.83123C5.00454 5.73815 5.09171 5.64603 5.17992 5.55489C5.2681 5.46376 5.3573 5.37363 5.44751 5.28449C5.53772 5.19535 5.62891 5.10722 5.72108 5.02011C5.81328 4.933 5.90642 4.84693 6.0005 4.76192C6.09461 4.67688 6.18965 4.59291 6.28563 4.51001C6.38161 4.42711 6.47849 4.3453 6.57629 4.26457C6.67412 4.18384 6.77282 4.1042 6.87239 4.02565C6.97197 3.94713 7.07242 3.86972 7.17375 3.79343C7.27506 3.71715 7.37722 3.642 7.48021 3.56799C7.5832 3.49398 7.68701 3.42113 7.79162 3.34945C7.89623 3.27777 8.00164 3.20726 8.10785 3.13793C8.21404 3.0686 8.321 3.00046 8.42873 2.93352C8.53644 2.86658 8.64489 2.80085 8.75409 2.73633C8.86326 2.67181 8.97314 2.60852 9.08375 2.54646C9.19436 2.4844 9.30563 2.42358 9.41758 2.364C9.52956 2.30442 9.64217 2.2461 9.75541 2.18904C9.86869 2.13198 9.98257 2.07619 10.0971 2.02168C10.2116 1.96716 10.3267 1.91393 10.4424 1.86199C10.5581 1.81004 10.6744 1.75939 10.7912 1.71005C10.908 1.6607 11.0254 1.61266 11.1433 1.56594C11.2612 1.51921 11.3796 1.47381 11.4985 1.42973C11.6174 1.38565 11.7368 1.34291 11.8567 1.3015C11.9766 1.26008 12.0969 1.22002 12.2177 1.18129C12.3384 1.14257 12.4596 1.1052 12.5812 1.06918C12.7028 1.03317 12.8248 0.998514 12.9472 0.965223C13.0696 0.931932 13.1923 0.900013 13.3154 0.869465C13.4385 0.838915 13.5619 0.809745 13.6856 0.781955C13.8094 0.754165 13.9334 0.727758 14.0577 0.702737C14.1821 0.677717 14.3067 0.65409 14.4315 0.631855C14.5564 0.609618 14.6815 0.588778 14.8068 0.569337C14.9321 0.549895 15.0577 0.531856 15.1834 0.51522C15.3091 0.498584 15.435 0.483353 15.5611 0.469529C16.1226 0.404625 16.6888 0.386527 17.2533 0.366661Z" stroke="#58749A" stroke-width="2" mask="url(#path-1-inside-1_970_928)"/>
<path d="M17.3079 3.00299C17.3382 3.00196 17.3684 3.00121 17.3986 3.00072C17.5163 2.99955 17.634 2.99981 17.7518 3.0015C17.8695 3.0032 17.9872 3.00632 18.1048 3.01088C18.2225 3.01544 18.34 3.02142 18.4575 3.02884C18.575 3.03626 18.6924 3.04511 18.8097 3.05538C18.927 3.06566 19.0441 3.07736 19.1611 3.09048C19.2781 3.10361 19.3949 3.11816 19.5116 3.13412C19.6282 3.15009 19.7446 3.16748 19.8609 3.18628C19.9771 3.20508 20.0931 3.22529 20.2088 3.24692C20.3245 3.26854 20.44 3.29157 20.5551 3.316C20.6703 3.34043 20.7851 3.36626 20.8997 3.39349C21.0142 3.42072 21.1284 3.44933 21.2422 3.47934C21.3561 3.50935 21.4695 3.54073 21.5826 3.5735C21.6957 3.60627 21.8083 3.6404 21.9205 3.67591C22.0328 3.71142 22.1446 3.74829 22.2559 3.78652C22.3673 3.82474 22.4781 3.86432 22.5885 3.90525C22.6989 3.94618 22.8087 3.98844 22.9181 4.03204C23.0274 4.07564 23.1362 4.12056 23.2444 4.16681C23.3527 4.21305 23.4604 4.26061 23.5674 4.30947C23.6745 4.35834 23.781 4.4085 23.8869 4.45996C23.9927 4.51142 24.0979 4.56416 24.2025 4.61817C24.3071 4.67219 24.411 4.72747 24.5142 4.78402C24.6175 4.84057 24.72 4.89836 24.8218 4.9574C24.9236 5.01645 25.0247 5.07672 25.1251 5.13822C25.2254 5.19972 25.325 5.26243 25.4238 5.32635C25.5226 5.39028 25.6206 5.45539 25.7179 5.5217C25.8151 5.58801 25.9115 5.65549 26.0071 5.72417C26.1027 5.79282 26.1974 5.86263 26.2913 5.93359C26.3852 6.00453 26.4782 6.07663 26.5703 6.14986C26.6624 6.22308 26.7536 6.29741 26.8439 6.37284C26.9343 6.4483 27.0236 6.52483 27.1121 6.60244C27.2005 6.68007 27.288 6.75875 27.3745 6.83849C27.461 6.91824 27.5466 6.99903 27.6311 7.08086C27.7162 7.16354 27.8003 7.24726 27.8833 7.33202C27.9664 7.41678 28.0484 7.50255 28.1293 7.58933C28.2102 7.67612 28.29 7.76388 28.3688 7.85263C28.4475 7.94138 28.5252 8.03108 28.6017 8.12174C28.6782 8.21239 28.7536 8.30399 28.8279 8.39651C28.9022 8.48904 28.9753 8.58247 29.0472 8.6768C29.1192 8.77112 29.19 8.86631 29.2596 8.96238C29.3292 9.05845 29.3976 9.15537 29.4648 9.25314C29.532 9.35089 29.598 9.44946 29.6627 9.54887C29.7275 9.64825 29.7911 9.74841 29.8533 9.84936C29.9156 9.95032 29.9767 10.052 30.0364 10.1545C30.0962 10.2569 30.1547 10.3601 30.212 10.464C30.2692 10.5679 30.3251 10.6725 30.3797 10.7778C30.4344 10.8831 30.4877 10.989 30.5397 11.0956C30.5918 11.2022 30.6425 11.3094 30.6918 11.4173C30.7412 11.5251 30.7892 11.6336 30.8359 11.7426C30.8826 11.8516 30.9279 11.9612 30.9719 12.0714C31.0159 12.1815 31.0585 12.2922 31.0998 12.4034C31.141 12.5146 31.1809 12.6263 31.2193 12.7385C31.2578 12.8507 31.2949 12.9633 31.3306 13.0764C31.3663 13.1895 31.4006 13.303 31.4335 13.417C31.4664 13.5309 31.4979 13.6453 31.5279 13.76C31.558 13.8747 31.5866 13.9898 31.6139 14.1052C31.6411 14.2206 31.6669 14.3364 31.6912 14.4524C31.7156 14.5685 31.7385 14.6848 31.7601 14.8015C31.7815 14.9181 31.8015 15.035 31.82 15.1521C31.8387 15.2692 31.8559 15.3866 31.8715 15.5041C31.8871 15.6216 31.9013 15.7394 31.9141 15.8573C31.927 15.9752 31.9384 16.0932 31.9482 16.2114C31.958 16.3296 31.9664 16.4479 31.9734 16.5662C31.9803 16.6846 31.9858 16.8031 31.9899 16.9216C31.9937 17.0401 31.9962 17.1586 31.9974 17.2772C31.9997 17.3969 32.0005 17.5165 31.9997 17.6362C31.9991 17.7558 31.997 17.8755 31.9933 17.9951C31.9897 18.1147 31.9845 18.2342 31.9777 18.3537C31.9712 18.4732 31.9631 18.5926 31.9534 18.7118C31.9438 18.8311 31.9326 18.9502 31.9198 19.0692C31.9073 19.1882 31.8932 19.3071 31.8776 19.4257C31.8622 19.5443 31.8451 19.6628 31.8264 19.781C31.8079 19.8992 31.7879 20.0172 31.7665 20.1349C31.7451 20.2526 31.7221 20.3701 31.6976 20.4872C31.6733 20.6044 31.6475 20.7212 31.6201 20.8377C31.5927 20.9542 31.564 21.0704 31.5337 21.1862C31.5035 21.302 31.4718 21.4174 31.4387 21.5324C31.4056 21.6474 31.3711 21.762 31.3351 21.8761C31.2992 21.9902 31.2618 22.1039 31.223 22.2171C31.1842 22.3303 31.144 22.4431 31.1024 22.5553C31.0607 22.6675 31.0177 22.7791 30.9733 22.8903C30.9289 23.0014 30.8832 23.112 30.836 23.222C30.7888 23.332 30.7403 23.4414 30.6904 23.5502C30.6405 23.659 30.5893 23.7671 30.5367 23.8746C30.4841 23.9822 30.4302 24.089 30.3749 24.1952C30.3196 24.3014 30.2631 24.4068 30.2052 24.5116C30.1473 24.6164 30.0881 24.7204 30.0276 24.8237C29.9671 24.927 29.9053 25.0295 29.8423 25.1312C29.7792 25.233 29.7149 25.3339 29.6494 25.4341C29.5838 25.5342 29.517 25.6336 29.449 25.732C29.3809 25.8305 29.3116 25.9282 29.2412 26.0249C29.1707 26.1217 29.099 26.2176 29.0261 26.3125C28.9532 26.4075 28.8792 26.5016 28.804 26.5947C28.7287 26.6879 28.6524 26.78 28.5749 26.8712C28.4973 26.9625 28.4187 27.0527 28.3389 27.142C28.2591 27.2313 28.1782 27.3196 28.0963 27.4068C28.0143 27.4941 27.9312 27.5803 27.8471 27.6655C27.7646 27.7493 27.6811 27.832 27.5966 27.9138C27.512 27.9955 27.4266 28.0762 27.3401 28.1559C27.2536 28.2356 27.1662 28.3142 27.0778 28.3918C26.9894 28.4693 26.9001 28.5458 26.8098 28.6212C26.7196 28.6965 26.6284 28.7708 26.5364 28.844C26.4443 28.9172 26.3514 28.9892 26.2576 29.0601C26.1638 29.131 26.0691 29.2008 25.9736 29.2695C25.8781 29.3381 25.7818 29.4055 25.6846 29.4718C25.5875 29.5381 25.4896 29.6032 25.3908 29.6671C25.2921 29.731 25.1926 29.7937 25.0924 29.8552C24.9921 29.9167 24.8911 29.977 24.7894 30.0361C24.6877 30.0951 24.5853 30.1529 24.4822 30.2095C24.379 30.266 24.2753 30.3213 24.1708 30.3754C24.0663 30.4294 23.9612 30.4822 23.8555 30.5337C23.7497 30.5852 23.6434 30.6354 23.5364 30.6843C23.4294 30.7332 23.3219 30.7809 23.2137 30.8272C23.1056 30.8735 22.9969 30.9185 22.8877 30.9621C22.7785 31.0058 22.6687 31.0482 22.5585 31.0892C22.4482 31.1302 22.3375 31.1699 22.2263 31.2082C22.1151 31.2465 22.0034 31.2835 21.8913 31.3191C21.7792 31.3547 21.6666 31.389 21.5537 31.4219C21.4408 31.4547 21.3274 31.4863 21.2137 31.5164C21.1 31.5465 20.9859 31.5752 20.8715 31.6025C20.7571 31.6299 20.6424 31.6559 20.5273 31.6806C20.4123 31.7052 20.297 31.7285 20.1814 31.7502C20.0657 31.772 19.9499 31.7923 19.8338 31.8112C19.7177 31.8303 19.6014 31.8479 19.4848 31.8641C19.3683 31.8803 19.2516 31.895 19.1347 31.9083C19.0178 31.9216 18.9008 31.9335 18.7836 31.9439C18.6664 31.9545 18.5491 31.9635 18.4317 31.971C18.3143 31.9788 18.1969 31.985 18.0793 31.9898C17.9617 31.9947 17.8442 31.998 17.7265 32C17.0032 32.0014 16.288 31.9722 15.5701 31.8771C15.4782 31.8646 15.3864 31.8513 15.2948 31.8372C15.2032 31.823 15.1118 31.8078 15.0204 31.7919C14.9291 31.7759 14.8379 31.759 14.7469 31.7413C14.6559 31.7236 14.5651 31.705 14.4745 31.6855C14.3839 31.666 14.2934 31.6457 14.2032 31.6245C14.1129 31.6032 14.0229 31.5811 13.9331 31.5582C13.8433 31.5352 13.7537 31.5114 13.6643 31.4867C13.575 31.462 13.4859 31.4365 13.397 31.4101C13.3081 31.3836 13.2195 31.3564 13.1312 31.3283C13.0429 31.3002 12.9548 31.2712 12.867 31.2414C12.7793 31.2116 12.6918 31.1809 12.6046 31.1494C12.5174 31.1179 12.4306 31.0856 12.344 31.0524C12.2574 31.0192 12.1712 30.9852 12.0853 30.9504C11.9994 30.9156 11.9138 30.8799 11.8286 30.8434C11.7434 30.8069 11.6586 30.7696 11.5741 30.7315C11.4896 30.6934 11.4055 30.6545 11.3217 30.6147C11.238 30.575 11.1546 30.5344 11.0717 30.4931C10.9887 30.4517 10.9062 30.4096 10.8241 30.3666C10.7419 30.3237 10.6602 30.28 10.5789 30.2354C10.4976 30.1909 10.4167 30.1457 10.3363 30.0996C10.2559 30.0535 10.1759 30.0066 10.0964 29.959C10.0169 29.9114 9.93786 29.863 9.85927 29.8139C9.78069 29.7647 9.7026 29.7149 9.62499 29.6642C9.54737 29.6136 9.47025 29.5622 9.39364 29.51C9.31702 29.4579 9.2409 29.405 9.1653 29.3514C9.0897 29.2978 9.01462 29.2435 8.94006 29.1885C8.86552 29.1334 8.7915 29.0776 8.71802 29.0212C8.64456 28.9647 8.57165 28.9075 8.49929 28.8496C8.42691 28.7917 8.35511 28.7332 8.28388 28.6739C8.21264 28.6147 8.14198 28.5547 8.07189 28.4941C8.00183 28.4335 7.93235 28.3722 7.86346 28.3102C7.79455 28.2482 7.72626 28.1856 7.65859 28.1223C7.57206 28.0424 7.48654 27.9614 7.402 27.8794C7.31747 27.7974 7.23394 27.7144 7.15141 27.6304C7.0689 27.5464 6.98742 27.4613 6.90698 27.3753C6.82653 27.2893 6.74715 27.2024 6.66883 27.1144C6.59049 27.0265 6.51324 26.9376 6.4371 26.8478C6.36094 26.758 6.28588 26.6672 6.21191 26.5756C6.13797 26.484 6.06515 26.3914 5.99344 26.298C5.92175 26.2046 5.85121 26.1104 5.7818 26.0152C5.7124 25.9201 5.64418 25.8241 5.57712 25.7274C5.51006 25.6306 5.44418 25.533 5.3795 25.4346C5.31482 25.3362 5.25134 25.2371 5.18908 25.1371C5.12681 25.0372 5.06577 24.9366 5.00596 24.8352C4.94614 24.7337 4.88757 24.6316 4.83025 24.5288C4.77292 24.4259 4.71685 24.3224 4.66205 24.2182C4.60725 24.114 4.55372 24.0092 4.50147 23.9037C4.44922 23.7982 4.39827 23.6921 4.3486 23.5853C4.29894 23.4786 4.25058 23.3713 4.20354 23.2633C4.15649 23.1554 4.11076 23.047 4.06636 22.9379C4.02195 22.8289 3.97888 22.7194 3.93715 22.6093C3.89541 22.4992 3.85502 22.3887 3.81598 22.2776C3.77694 22.1666 3.73925 22.0551 3.70293 21.9431C3.6666 21.8311 3.63165 21.7187 3.59806 21.6059C3.56448 21.4931 3.53227 21.3799 3.50144 21.2663C3.47061 21.1527 3.44118 21.0387 3.41312 20.9244C3.38507 20.8101 3.35842 20.6954 3.33316 20.5805C3.3079 20.4655 3.28405 20.3502 3.2616 20.2347C3.23915 20.1192 3.21811 20.0034 3.19848 19.8873C3.17886 19.7712 3.16065 19.655 3.14385 19.5385C3.12706 19.422 3.11168 19.3053 3.09773 19.1884C3.08378 19.0715 3.07126 18.9545 3.06016 18.8373C3.04906 18.7202 3.03939 18.6029 3.03114 18.4854C3.0229 18.368 3.01609 18.2505 3.01071 18.133C2.86663 14.2067 4.17728 10.5069 6.86508 7.62378C6.938 7.54507 7.0118 7.46718 7.08647 7.39011C7.16113 7.31306 7.23665 7.23684 7.31302 7.16147C7.3894 7.08609 7.4666 7.01157 7.54463 6.93791C7.62268 6.86425 7.70154 6.79147 7.78119 6.71958C7.86086 6.64767 7.94133 6.57667 8.02258 6.50657C8.10384 6.43648 8.18586 6.36729 8.26866 6.29903C8.35148 6.23076 8.43504 6.16342 8.51934 6.097C8.60365 6.0306 8.68869 5.96515 8.77448 5.90064C8.86025 5.83613 8.94673 5.77259 9.03393 5.71C9.12113 5.64742 9.20901 5.58582 9.29757 5.52521C9.38614 5.4646 9.47538 5.40498 9.5653 5.34635C9.65519 5.28772 9.74575 5.23011 9.83696 5.1735C9.92815 5.1169 10.02 5.06132 10.1124 5.00676C10.2048 4.9522 10.2979 4.89869 10.3915 4.84621C10.4851 4.79373 10.5794 4.7423 10.6741 4.69192C10.7689 4.64154 10.8643 4.59223 10.9601 4.54398C11.056 4.49573 11.1525 4.44855 11.2494 4.40246C11.3464 4.35636 11.4438 4.31135 11.5417 4.26742C11.6397 4.2235 11.7381 4.18067 11.837 4.13894C11.936 4.09722 12.0353 4.0566 12.1351 4.01709C12.2349 3.97758 12.3352 3.93919 12.4359 3.90191C12.5365 3.86464 12.6376 3.82849 12.7391 3.79348C12.8406 3.75846 12.9425 3.72458 13.0447 3.69183C13.1469 3.65909 13.2495 3.62749 13.3525 3.59704C13.4554 3.56658 13.5587 3.53728 13.6623 3.50913C13.7659 3.48098 13.8698 3.45399 13.974 3.42815C14.0783 3.40232 14.1827 3.37766 14.2875 3.35416C14.3923 3.33066 14.4973 3.30833 14.6025 3.28717C14.7078 3.26601 14.8133 3.24603 14.919 3.22723C15.0247 3.20843 15.1306 3.19081 15.2367 3.17437C15.3428 3.15793 15.4491 3.14267 15.5555 3.12861C15.662 3.11454 15.7685 3.10166 15.8753 3.08997C16.3507 3.03509 16.83 3.01979 17.3079 3.00299Z" fill="#58749A"/>
<g clip-path="url(#clip1_970_928)">
<path d="M17.5 20.6667C19.2489 20.6667 20.6667 19.2489 20.6667 17.5C20.6667 15.7511 19.2489 14.3333 17.5 14.3333C15.7511 14.3333 14.3333 15.7511 14.3333 17.5C14.3333 19.2489 15.7511 20.6667 17.5 20.6667Z" stroke="white" stroke-width="1.1875" stroke-linecap="round" stroke-linejoin="round"/>
<path d="M25.4167 15.125H25.4088M9.59126 15.125H9.58334M17.504 25.4167H17.4961M13.9818 24.625C12.7822 24.0419 11.7496 23.1645 10.9805 22.0746C10.2114 20.9848 9.73075 19.7179 9.58334 18.3922M21.0182 24.625C22.2179 24.0419 23.2504 23.1645 24.0195 22.0746C24.7886 20.9848 25.2693 19.7179 25.4167 18.3922M12.3985 11.3701C13.814 10.2149 15.585 9.58391 17.4121 9.58391C19.2392 9.58391 21.0103 10.2149 22.4258 11.3701" stroke="white" stroke-width="1.1875" stroke-linecap="round" stroke-linejoin="round"/>
</g>
</g>
<defs>
<clipPath id="clip0_970_928">
<rect width="35" height="35" fill="white"/>
</clipPath>
<clipPath id="clip1_970_928">
<rect width="19" height="19" fill="white" transform="translate(8 8)"/>
</clipPath>
</defs>
</svg>
