<svg viewBox="0 0 46 46" fill="none" xmlns="http://www.w3.org/2000/svg">
<path d="M7.72754 25.4089L20.8631 19.0717H24.1003L17.7092 25.4089H7.72754Z" fill="#81DAFC"/>
<path d="M17.7087 25.7672H7.72673C7.64541 25.7671 7.56652 25.7395 7.50295 25.6888C7.43938 25.6381 7.39489 25.5673 7.37674 25.488C7.35859 25.4088 7.36786 25.3257 7.40304 25.2524C7.43822 25.1791 7.49722 25.1198 7.5704 25.0844L20.707 18.7479C20.7558 18.7244 20.8092 18.7121 20.8633 18.712H24.1002C24.1713 18.7123 24.2407 18.7336 24.2996 18.7734C24.3585 18.8131 24.4044 18.8694 24.4313 18.9352C24.4582 19.001 24.465 19.0733 24.4509 19.1429C24.4367 19.2126 24.4022 19.2765 24.3518 19.3265L17.9617 25.6641C17.8943 25.7304 17.8034 25.7675 17.7087 25.7672ZM9.29936 25.0485H17.5607L23.2273 19.4311H20.9453L9.29936 25.0485Z" fill="#2F3A5A"/>
<path d="M43.0471 22.8724L35.3781 21.7663C35.3781 21.7663 12.6817 21.8339 9.52427 21.7508C6.3668 21.6678 5.47626 21.6675 4.20552 22.4157C3.55433 22.7995 3.20861 23.4126 1.9623 23.7454C0.715984 24.0782 0.133437 24.7516 0.437109 25.7191C1.02577 27.5957 7.86144 27.9831 7.86144 27.9831H27.2637C29.3809 27.9831 31.4902 27.7266 33.5456 27.2191L43.1445 24.8472C43.3734 24.7931 43.576 24.6606 43.7173 24.4726C43.8586 24.2846 43.9296 24.0531 43.918 23.8183C43.9064 23.5834 43.8129 23.36 43.6537 23.1869C43.4946 23.0138 43.2798 22.9019 43.0468 22.8707L43.0471 22.8724Z" fill="#D9E2E9"/>
<path d="M43.3573 22.9716C43.2273 23.1033 43.0634 23.1962 42.8836 23.2401L33.2847 25.6119C31.2289 26.1186 29.1194 26.3749 27.0021 26.3752H7.60091C7.60091 26.3752 2.06043 26.0594 0.527336 24.6287C0.43357 24.7928 0.377016 24.9755 0.361677 25.1638C0.346337 25.3522 0.372588 25.5416 0.43857 25.7187C1.02687 27.595 7.86254 27.9827 7.86254 27.9827H27.2634C29.3809 27.9828 31.4905 27.7258 33.546 27.2173L43.1449 24.8486C43.3448 24.7996 43.5248 24.6905 43.6607 24.536C43.7967 24.3815 43.882 24.189 43.9051 23.9845C43.9283 23.78 43.8882 23.5734 43.7902 23.3924C43.6922 23.2114 43.5412 23.0648 43.3573 22.9723V22.9716Z" fill="#C1CDD3"/>
<path d="M27.2634 28.3414H7.86256C6.65937 28.2738 0.726807 27.8383 0.0957443 25.8258C0.0174239 25.61 -0.0148524 25.3802 0.00099261 25.1512C0.0168376 24.9222 0.0804528 24.699 0.187744 24.4961C0.465182 23.993 1.03192 23.6217 1.87142 23.3978C2.44443 23.2484 2.97206 22.9608 3.4081 22.5601C3.60112 22.3924 3.80735 22.2405 4.02479 22.1059C5.3649 21.3153 6.27304 21.3055 9.53401 21.3914C12.6494 21.4737 35.1503 21.4073 35.377 21.4065C35.3839 21.4011 35.413 21.4065 35.4295 21.4101L43.0986 22.5166C43.4134 22.5606 43.7031 22.713 43.9176 22.9476C44.1321 23.1822 44.258 23.4843 44.2737 23.8018C44.2894 24.1194 44.1938 24.4324 44.0034 24.687C43.813 24.9416 43.5398 25.1218 43.2308 25.1965L33.6319 27.5684C31.548 28.0821 29.4097 28.3417 27.2634 28.3414ZM7.53157 22.0735C5.9302 22.0735 5.26751 22.2076 4.38956 22.7247C4.20498 22.8405 4.02979 22.9707 3.86559 23.1139C3.35083 23.5818 2.72994 23.9174 2.05649 24.0918C1.42256 24.2607 0.994541 24.5202 0.817369 24.8418C0.7578 24.9602 0.723816 25.0899 0.717625 25.2223C0.711433 25.3548 0.733173 25.487 0.781432 25.6105C1.1559 26.8043 5.33615 27.4792 7.88304 27.623H27.2634C29.3516 27.6223 31.4321 27.3689 33.4594 26.8683L43.0583 24.4964C43.2055 24.4617 43.3358 24.3765 43.4267 24.2556C43.5176 24.1348 43.5633 23.9859 43.5558 23.8349C43.5483 23.6839 43.4882 23.5402 43.3858 23.4289C43.2834 23.3176 43.1453 23.2457 42.9954 23.2257L35.3526 22.1253C34.461 22.1282 12.5927 22.1907 9.51353 22.1098C8.71787 22.089 8.07135 22.0735 7.53157 22.0735Z" fill="#2F3A5A"/>
<path d="M35.3779 21.7659L40.5641 15.7133H43.088L41.3662 22.6342L35.3779 21.7659Z" fill="#81DAFC"/>
<path d="M41.3666 22.9932C41.3492 22.9932 41.3318 22.992 41.3145 22.9896L35.3266 22.1217C35.2629 22.1125 35.2028 22.0864 35.1527 22.046C35.1025 22.0057 35.0641 21.9526 35.0415 21.8923C35.0189 21.832 35.0128 21.7668 35.024 21.7034C35.0353 21.64 35.0633 21.5808 35.1052 21.532L40.2913 15.4794C40.3251 15.44 40.367 15.4084 40.4142 15.3867C40.4613 15.3651 40.5126 15.3539 40.5645 15.3539H43.0891C43.1437 15.3539 43.1975 15.3663 43.2466 15.3902C43.2957 15.4141 43.3387 15.4489 43.3723 15.4919C43.4059 15.5348 43.4293 15.5849 43.4407 15.6383C43.4521 15.6917 43.4512 15.747 43.438 15.7999L41.7163 22.7204C41.6969 22.7984 41.6519 22.8677 41.5885 22.9172C41.5251 22.9666 41.447 22.9934 41.3666 22.9932ZM36.0755 21.5039L41.096 22.2313L42.6284 16.0727H40.7294L36.0755 21.5039Z" fill="#2F3A5A"/>
<path d="M13.6855 25.8574L28.4393 30.2867H31.6766L23.6668 25.8574H13.6855Z" fill="#81DAFC"/>
<path d="M31.6767 30.6457H28.4398C28.4048 30.6457 28.3701 30.6407 28.3366 30.6306L13.5825 26.2017C13.4998 26.177 13.4288 26.1233 13.3824 26.0505C13.3361 25.9777 13.3175 25.8907 13.33 25.8053C13.3425 25.7199 13.3853 25.6419 13.4506 25.5855C13.5159 25.5291 13.5993 25.498 13.6856 25.498H23.6666C23.7274 25.4981 23.7872 25.5135 23.8405 25.543L31.8506 29.9719C31.9203 30.0105 31.9752 30.0711 32.0067 30.1443C32.0382 30.2175 32.0445 30.299 32.0246 30.3762C32.0047 30.4533 31.9597 30.5217 31.8967 30.5705C31.8337 30.6192 31.7563 30.6457 31.6767 30.6457ZM28.4926 29.927H30.2841L23.5749 26.2168H16.1326L28.4926 29.927Z" fill="#2F3A5A"/>
<path d="M35.084 24.1633L42.6194 26.3741H45.6406L41.212 24.1633H35.084Z" fill="#81DAFC"/>
<path d="M45.6403 26.7339H42.619C42.5848 26.7339 42.5508 26.7289 42.518 26.7192L34.9826 24.5094C34.8998 24.4849 34.8286 24.4315 34.782 24.3588C34.7354 24.2862 34.7165 24.1992 34.7287 24.1137C34.741 24.0283 34.7836 23.9501 34.8488 23.8935C34.9139 23.8368 34.9973 23.8056 35.0836 23.8054H41.2117C41.2673 23.8054 41.3222 23.8183 41.372 23.8431L45.8005 26.0547C45.8721 26.0913 45.9292 26.1509 45.9629 26.2238C45.9966 26.2967 46.0049 26.3789 45.9865 26.4571C45.968 26.5353 45.9239 26.6051 45.8611 26.6552C45.7984 26.7054 45.7206 26.7331 45.6403 26.7339ZM42.6704 26.0152H44.1158L41.1269 24.5227H37.5845L42.6704 26.0152Z" fill="#2F3A5A"/>
<path d="M10.1242 23.1523C9.98251 23.1523 9.84658 23.2086 9.74636 23.3089C9.64615 23.4091 9.58984 23.545 9.58984 23.6867V24.0134C9.58984 24.1551 9.64615 24.2911 9.74636 24.3913C9.84658 24.4915 9.98251 24.5478 10.1242 24.5478C10.266 24.5478 10.4019 24.4915 10.5021 24.3913C10.6023 24.2911 10.6586 24.1551 10.6586 24.0134V23.6867C10.6586 23.545 10.6023 23.4091 10.5021 23.3089C10.4019 23.2086 10.266 23.1523 10.1242 23.1523Z" fill="#84879C"/>
<path d="M12.3806 23.1523C12.2389 23.1523 12.1029 23.2086 12.0027 23.3089C11.9025 23.4091 11.8462 23.545 11.8462 23.6867V24.0134C11.8462 24.1551 11.9025 24.2911 12.0027 24.3913C12.1029 24.4915 12.2389 24.5478 12.3806 24.5478C12.5223 24.5478 12.6582 24.4915 12.7585 24.3913C12.8587 24.2911 12.915 24.1551 12.915 24.0134V23.6867C12.915 23.545 12.8587 23.4091 12.7585 23.3089C12.6582 23.2086 12.5223 23.1523 12.3806 23.1523Z" fill="#84879C"/>
<path d="M14.6369 23.1523C14.4952 23.1523 14.3593 23.2086 14.2591 23.3089C14.1588 23.4091 14.1025 23.545 14.1025 23.6867V24.0134C14.1025 24.0836 14.1164 24.1531 14.1432 24.2179C14.1701 24.2827 14.2094 24.3417 14.2591 24.3913C14.3087 24.4409 14.3676 24.4803 14.4324 24.5071C14.4973 24.534 14.5668 24.5478 14.6369 24.5478C14.7071 24.5478 14.7766 24.534 14.8414 24.5071C14.9063 24.4803 14.9652 24.4409 15.0148 24.3913C15.0644 24.3417 15.1038 24.2827 15.1306 24.2179C15.1575 24.1531 15.1713 24.0836 15.1713 24.0134V23.6867C15.1713 23.545 15.115 23.4091 15.0148 23.3089C14.9146 23.2086 14.7787 23.1523 14.6369 23.1523Z" fill="#84879C"/>
<path d="M16.8933 23.1523C16.7515 23.1523 16.6156 23.2086 16.5154 23.3089C16.4152 23.4091 16.3589 23.545 16.3589 23.6867V24.0134C16.3589 24.1551 16.4152 24.2911 16.5154 24.3913C16.6156 24.4915 16.7515 24.5478 16.8933 24.5478C17.035 24.5478 17.1709 24.4915 17.2711 24.3913C17.3714 24.2911 17.4277 24.1551 17.4277 24.0134V23.6867C17.4277 23.545 17.3714 23.4091 17.2711 23.3089C17.1709 23.2086 17.035 23.1523 16.8933 23.1523Z" fill="#84879C"/>
<path d="M19.1501 23.1523C19.0084 23.1523 18.8725 23.2086 18.7722 23.3089C18.672 23.4091 18.6157 23.545 18.6157 23.6867V24.0134C18.6157 24.1551 18.672 24.2911 18.7722 24.3913C18.8725 24.4915 19.0084 24.5478 19.1501 24.5478C19.2918 24.5478 19.4278 24.4915 19.528 24.3913C19.6282 24.2911 19.6845 24.1551 19.6845 24.0134V23.6867C19.6845 23.545 19.6282 23.4091 19.528 23.3089C19.4278 23.2086 19.2918 23.1523 19.1501 23.1523Z" fill="#84879C"/>
<path d="M21.4065 23.1523C21.2647 23.1523 21.1288 23.2086 21.0286 23.3089C20.9284 23.4091 20.8721 23.545 20.8721 23.6867V24.0134C20.8721 24.0836 20.8859 24.1531 20.9127 24.2179C20.9396 24.2827 20.979 24.3417 21.0286 24.3913C21.0782 24.4409 21.1371 24.4803 21.202 24.5071C21.2668 24.534 21.3363 24.5478 21.4065 24.5478C21.4766 24.5478 21.5461 24.534 21.611 24.5071C21.6758 24.4803 21.7347 24.4409 21.7843 24.3913C21.834 24.3417 21.8733 24.2827 21.9002 24.2179C21.927 24.1531 21.9409 24.0836 21.9409 24.0134V23.6867C21.9409 23.545 21.8846 23.4091 21.7843 23.3089C21.6841 23.2086 21.5482 23.1523 21.4065 23.1523Z" fill="#84879C"/>
<path d="M23.6633 23.1523C23.5216 23.1523 23.3856 23.2086 23.2854 23.3089C23.1852 23.4091 23.1289 23.545 23.1289 23.6867V24.0134C23.1289 24.1551 23.1852 24.2911 23.2854 24.3913C23.3856 24.4915 23.5216 24.5478 23.6633 24.5478C23.805 24.5478 23.941 24.4915 24.0412 24.3913C24.1414 24.2911 24.1977 24.1551 24.1977 24.0134V23.6867C24.1977 23.545 24.1414 23.4091 24.0412 23.3089C23.941 23.2086 23.805 23.1523 23.6633 23.1523Z" fill="#84879C"/>
<path d="M25.9192 23.1523C25.7774 23.1523 25.6415 23.2086 25.5413 23.3089C25.4411 23.4091 25.3848 23.545 25.3848 23.6867V24.0134C25.3848 24.1551 25.4411 24.2911 25.5413 24.3913C25.6415 24.4915 25.7774 24.5478 25.9192 24.5478C26.0609 24.5478 26.1968 24.4915 26.297 24.3913C26.3972 24.2911 26.4535 24.1551 26.4535 24.0134V23.6867C26.4535 23.545 26.3972 23.4091 26.297 23.3089C26.1968 23.2086 26.0609 23.1523 25.9192 23.1523Z" fill="#84879C"/>
<path d="M28.175 23.1523C28.0333 23.1523 27.8974 23.2086 27.7971 23.3089C27.6969 23.4091 27.6406 23.545 27.6406 23.6867V24.0134C27.6406 24.1551 27.6969 24.2911 27.7971 24.3913C27.8974 24.4915 28.0333 24.5478 28.175 24.5478C28.3167 24.5478 28.4527 24.4915 28.5529 24.3913C28.6531 24.2911 28.7094 24.1551 28.7094 24.0134V23.6867C28.7094 23.545 28.6531 23.4091 28.5529 23.3089C28.4527 23.2086 28.3167 23.1523 28.175 23.1523Z" fill="#84879C"/>
<path d="M30.4319 23.1523C30.2901 23.1523 30.1542 23.2086 30.054 23.3089C29.9538 23.4091 29.8975 23.545 29.8975 23.6867V24.0134C29.8975 24.1551 29.9538 24.2911 30.054 24.3913C30.1542 24.4915 30.2901 24.5478 30.4319 24.5478C30.5736 24.5478 30.7095 24.4915 30.8097 24.3913C30.9099 24.2911 30.9662 24.1551 30.9662 24.0134V23.6867C30.9662 23.545 30.9099 23.4091 30.8097 23.3089C30.7095 23.2086 30.5736 23.1523 30.4319 23.1523Z" fill="#84879C"/>
<path d="M3.63463 22.8386C4.67157 23.1632 5.73301 23.4036 6.80863 23.5574V24.4267C4.93271 25.0222 2.90247 24.8996 1.11182 24.0828C2.03618 23.8646 2.89886 23.4392 3.63463 22.8386Z" fill="#3DBCE9"/>
<path d="M4.46531 25.1562C3.26027 25.1545 2.06889 24.901 0.967512 24.412C0.899844 24.3822 0.84301 24.3323 0.80476 24.269C0.76651 24.2057 0.748706 24.1322 0.753776 24.0584C0.758845 23.9847 0.786541 23.9143 0.833087 23.8568C0.879633 23.7994 0.942764 23.7577 1.01387 23.7374C1.88563 23.5301 2.70013 23.1309 3.39796 22.5688C3.44497 22.5273 3.50201 22.4988 3.56341 22.4862C3.62482 22.4736 3.68845 22.4773 3.748 22.4969C4.7646 22.8143 5.80495 23.0499 6.85911 23.2016C6.94484 23.2137 7.02331 23.2564 7.0801 23.3218C7.13688 23.3871 7.16816 23.4708 7.16817 23.5574V24.4267C7.1682 24.4989 7.14647 24.5695 7.10583 24.6291C7.06519 24.6888 7.00752 24.7349 6.94032 24.7613C6.14441 25.0353 5.30696 25.1689 4.46531 25.1562ZM2.1919 24.0993C3.57677 24.5223 5.05291 24.5457 6.4505 24.1669V23.8675C5.52579 23.7197 4.61202 23.5102 3.71529 23.2404C3.253 23.6008 2.73956 23.8903 2.1919 24.0993Z" fill="#2F3A5A"/>
</svg>
