<svg viewBox="0 0 46 46" fill="none" xmlns="http://www.w3.org/2000/svg">
<g clip-path="url(#clip0)">
<path d="M37.413 23.3978L38.2741 28.3739C33.7362 29.5133 28.8037 28.6978 24.8268 25.9299C24.0385 25.3809 23.2873 24.7557 22.585 24.0524L26.1444 20.4929C29.1951 23.5446 33.5405 24.5122 37.413 23.3978Z" fill="#808080"/>
<path d="M21.0414 29.8337L22.9059 36.2742L19.8129 37.5886L18.0799 33.4769C17.8037 32.8235 17.295 32.2952 16.6514 31.9962L15.2783 31.3591L18.9226 27.7148L21.0414 29.8337Z" fill="#FCBB29"/>
<path d="M30.3825 14.7862L26.5404 18.6283L23.7714 15.8593L23.7148 15.8028L27.5569 11.9607L28.1646 12.5684L28.1081 12.6249L29.9161 14.4329L29.9727 14.3764L30.3825 14.7862Z" fill="#FCBB29"/>
<path d="M22.5851 24.0522L20.6923 25.9461L18.9224 27.7149L15.2782 31.3592L14.9336 31.0145L12.6538 28.7336V26.8647L23.7147 15.8027L23.7712 15.8592L26.5403 18.6282L26.1445 20.4928L22.5851 24.0522Z" fill="#4D4D4D"/>
<path d="M12.6538 28.7336L14.9336 31.0146L8.61929 45.1848L2.55176 41.4319L7.95283 34.4164L10.0576 33.7151L12.6538 28.7336Z" fill="#FCBB29"/>
<path d="M44.0252 1.47659C44.3436 1.15818 44.3436 0.641936 44.0252 0.323528C43.7068 0.00512112 43.1905 0.00512112 42.8722 0.323528L42.5729 0.622799L42.1889 0.238805C41.8706 -0.0796018 41.3543 -0.0796018 41.0358 0.238805C40.7174 0.557213 40.7174 1.07346 41.0358 1.39195L41.4198 1.77595L36.011 7.18483L34.0392 6.28854C33.7299 6.14794 33.3655 6.21397 33.1252 6.45431L28.1643 11.4152L28.1334 11.3843C27.815 11.0659 27.2987 11.0659 26.9804 11.3843L12.0767 26.2877C11.9237 26.4406 11.8379 26.648 11.8379 26.8643V28.5343L9.4869 33.0455L7.69523 33.6427C7.54115 33.694 7.40602 33.7902 7.30701 33.9189L1.90523 40.9341C1.76444 41.117 1.70766 41.3508 1.74908 41.5779C1.7905 41.8049 1.92607 42.0037 2.12229 42.125L8.19045 45.8781C8.32073 45.9587 8.46942 46.0001 8.61946 46.0001C8.70005 46.0001 8.78091 45.9881 8.85952 45.9639C9.08449 45.8946 9.2684 45.7314 9.36417 45.5165L15.2725 32.2554L16.3075 32.7359C16.7682 32.9499 17.1307 33.3255 17.328 33.7937L19.0611 37.9051C19.1452 38.1047 19.3053 38.2627 19.5061 38.344C19.6043 38.3838 19.7084 38.4038 19.8124 38.4038C19.9209 38.4038 20.0293 38.3822 20.1312 38.339L23.2249 37.0253C23.6046 36.864 23.8041 36.4444 23.6893 36.048L21.9586 30.0692L25.0055 27.0223C26.4764 27.9507 28.0834 28.6566 29.7725 29.1052C31.2314 29.4927 32.7344 29.6864 34.2378 29.6864C35.6617 29.6864 37.0861 29.5125 38.4729 29.1643C38.8869 29.0603 39.1506 28.6549 39.0778 28.2343L38.2159 23.2582C38.1764 23.0299 38.0415 22.8293 37.8453 22.7064C37.6488 22.5834 37.4095 22.5498 37.187 22.6138C33.6063 23.6444 29.7583 22.7252 27.0361 20.2176L27.2873 19.0338L30.9586 15.3624C31.1116 15.2096 31.1975 15.0022 31.1975 14.7859C31.1975 14.6503 31.1637 14.5183 31.1008 14.4009L36.7645 8.73724L44.0252 1.47659ZM13.4686 27.2021L23.7146 16.9561L25.6503 18.8918L25.3967 20.0872L15.2782 30.2059L13.4685 28.3965V27.2021H13.4686ZM21.0416 28.6802L20.0758 27.7144L20.6916 27.0985L21.6574 28.0643L21.0416 28.6802ZM8.2546 44.0002L3.74847 41.2133L8.44714 35.1111L10.3154 34.4884C10.5162 34.4216 10.6829 34.2793 10.7807 34.0917L12.8626 30.0967L13.9602 31.1943L8.2546 44.0002ZM20.2465 36.5185L18.8311 33.1604C18.476 32.3179 17.8236 31.6419 16.9945 31.2568L16.6796 31.1106L18.9227 28.8675L20.3168 30.2615L21.922 35.8069L20.2465 36.5185ZM22.8105 26.9113L21.8447 25.9454L22.5997 25.1904C22.9385 25.4985 23.288 25.7933 23.6489 26.0727L22.8105 26.9113ZM36.7586 24.3993L37.3388 27.7488C34.9775 28.2217 32.5221 28.1479 30.1912 27.5289C27.8014 26.8943 25.5911 25.6936 23.7526 24.0375L26.1633 21.6268C29.0612 24.1629 32.9902 25.1894 36.7586 24.3993ZM26.5399 17.475L24.8679 15.8029L27.502 13.1688C27.5118 13.1797 27.521 13.1907 27.5313 13.2012L29.1725 14.8424L26.5399 17.475ZM29.9724 13.2231L29.3174 12.568L33.8786 8.00681L34.7792 8.41614L29.9724 13.2231Z" fill="black"/>
<path d="M16.3026 27.5335C16.5113 27.5335 16.72 27.4539 16.8792 27.2946L18.4541 25.7197C18.7725 25.4013 18.7725 24.8851 18.4541 24.5667C18.1357 24.2483 17.6194 24.2483 17.301 24.5667L15.7261 26.1416C15.4077 26.46 15.4077 26.9762 15.7261 27.2946C15.8854 27.4539 16.094 27.5335 16.3026 27.5335Z" fill="#333333"/>
</g>
<defs>
<clipPath id="clip0">
<rect fill="white"/>
</clipPath>
</defs>
</svg>
