<svg width="46" height="46" viewBox="0 0 46 46" fill="none" xmlns="http://www.w3.org/2000/svg">
<g clip-path="url(#clip0)">
<path d="M0.687823 37.2229L32.2799 5.63088C32.4907 5.42009 32.7766 5.30167 33.0746 5.30168C33.3727 5.30167 33.6586 5.42009 33.8694 5.63087L35.4254 7.18685C35.6362 7.39763 35.7546 7.68351 35.7546 7.9816C35.7546 8.27969 35.6362 8.56558 35.4254 8.77636L3.83356 40.3682C3.72916 40.4726 3.60522 40.5554 3.46881 40.6119C3.3324 40.6684 3.1862 40.6975 3.03855 40.6975C2.8909 40.6975 2.7447 40.6684 2.6083 40.6119C2.47189 40.5554 2.34794 40.4726 2.24354 40.3682L0.687822 38.8125C0.47704 38.6017 0.358623 38.3158 0.358623 38.0177C0.358623 37.7196 0.47704 37.4337 0.687823 37.2229Z" fill="#E1B378"/>
<path d="M35.4344 8.77589L3.83525 40.3693C3.73111 40.474 3.60728 40.5572 3.47089 40.6139C3.33449 40.6707 3.18822 40.6999 3.04049 40.6999C2.89277 40.6999 2.7465 40.6707 2.6101 40.6139C2.4737 40.5572 2.34987 40.474 2.24574 40.3693L0.690001 38.8125C0.585222 38.7083 0.50207 38.5845 0.445328 38.4481C0.388586 38.3117 0.359375 38.1654 0.359375 38.0177C0.359375 37.87 0.388586 37.7237 0.445328 37.5873C0.50207 37.4509 0.585222 37.3271 0.690001 37.2229L1.06303 36.8499L2.24574 38.0326C2.34987 38.1374 2.4737 38.2205 2.6101 38.2773C2.7465 38.334 2.89277 38.3632 3.04049 38.3632C3.18822 38.3632 3.33449 38.334 3.47089 38.2773C3.60728 38.2205 3.73111 38.1374 3.83525 38.0326L35.0599 6.81299L35.4344 7.18746C35.6437 7.39877 35.7612 7.68421 35.7612 7.98168C35.7612 8.27914 35.6437 8.56458 35.4344 8.77589Z" fill="#BD8D5A"/>
<path d="M3.04106 41.0593C2.84617 41.0597 2.65313 41.0215 2.47304 40.947C2.29295 40.8725 2.12936 40.7631 1.99169 40.6252L0.435592 39.0691C0.157895 38.7906 0.00195313 38.4134 0.00195312 38.0201C0.00195312 37.6268 0.157895 37.2496 0.435592 36.9711L32.0326 5.37446L32.2866 5.62854L32.0326 5.37446C32.311 5.09668 32.6883 4.94067 33.0816 4.94067C33.4749 4.94067 33.8521 5.09668 34.1306 5.37446L35.6867 6.93055C35.9644 7.20905 36.1203 7.58629 36.1203 7.97957C36.1203 8.37286 35.9644 8.75009 35.6867 9.02859L4.09008 40.6256C3.95242 40.7634 3.78888 40.8727 3.60886 40.9471C3.42883 41.0216 3.23587 41.0597 3.04106 41.0593ZM33.0816 5.65909C32.9814 5.65911 32.8823 5.67887 32.7898 5.71722C32.6973 5.75557 32.6133 5.81178 32.5425 5.88262L0.943748 37.4796C0.80062 37.6232 0.720252 37.8177 0.720252 38.0204C0.720252 38.2232 0.80062 38.4177 0.943748 38.5613L2.49984 40.1174C2.64342 40.2607 2.83801 40.3412 3.04088 40.3412C3.24375 40.3412 3.43834 40.2607 3.58192 40.1174L35.1785 8.52043C35.3217 8.37686 35.4022 8.18236 35.4022 7.97957C35.4022 7.77679 35.3217 7.58228 35.1785 7.43871L33.6224 5.88262C33.5515 5.81156 33.4671 5.75524 33.3743 5.71688C33.2815 5.67851 33.182 5.65888 33.0816 5.65909Z" fill="#2F3A5A"/>
<path d="M29.9813 6.09778L26.0109 10.0682L22.0405 14.0385C26.7422 17.6341 29.6158 23.5081 32.3905 29.6976C38.4532 27.5133 42.747 22.9305 45.6407 16.4463C39.4508 13.673 33.5768 10.7995 29.9813 6.09778Z" fill="#84879C"/>
<path d="M45.6407 16.4488C42.7456 22.9301 38.4514 27.5125 32.3895 29.7C29.6173 23.5065 26.7433 17.6358 22.042 14.0409L24.2295 11.8488C28.1675 15.482 30.7532 20.8105 33.2541 26.3977C38.3368 24.5706 42.1731 21.0567 44.9838 16.1519C45.2001 16.2536 45.4204 16.3517 45.6407 16.4488Z" fill="#707583"/>
<path d="M32.3889 30.057C32.3197 30.0569 32.2518 30.0368 32.1937 29.9992C32.1356 29.9615 32.0895 29.9078 32.0612 29.8446C29.2987 23.6795 26.437 17.8533 21.8222 14.3239C21.7816 14.2928 21.7481 14.2534 21.724 14.2083C21.6998 14.1632 21.6856 14.1135 21.6822 14.0625C21.6788 14.0115 21.6863 13.9603 21.7043 13.9124C21.7222 13.8645 21.7502 13.821 21.7863 13.7848L29.7285 5.84263C29.7646 5.80624 29.808 5.77807 29.856 5.76002C29.9039 5.74197 29.9552 5.73448 30.0063 5.73805C30.0574 5.74148 30.1072 5.75578 30.1523 5.78002C30.1974 5.80425 30.2368 5.83785 30.2679 5.87857C33.797 10.4933 39.6232 13.3536 45.7886 16.1175C45.8752 16.1567 45.9427 16.2287 45.9764 16.3176C46.0101 16.4065 46.0072 16.5051 45.9683 16.5919C42.9362 23.3873 38.4085 27.91 32.5108 30.035C32.4717 30.0493 32.4305 30.0568 32.3889 30.057ZM22.5816 14.0058C27.0637 17.5942 29.8837 23.2482 32.5794 29.2433C38.1138 27.1539 42.2362 23.0211 45.1644 16.6257C39.1765 13.9332 33.5318 11.1143 29.9481 6.63793L22.5816 14.0058Z" fill="#2F3A5A"/>
<path d="M45.6406 16.4482C42.7484 22.9299 38.4531 27.5148 32.389 29.6998C31.9804 28.7881 31.5664 27.8818 31.1499 26.9884C36.345 24.8008 40.1648 20.7503 42.8609 15.1779C43.7775 15.6072 44.7041 16.0307 45.6406 16.4482Z" fill="#F0F5F9"/>
<path d="M45.6407 16.4487C42.7499 22.9301 38.4514 27.5175 32.3895 29.7C31.9783 28.7886 31.5669 27.8815 31.1475 26.9871C31.7156 26.7495 32.2666 26.4868 32.8006 26.2029C32.9066 26.4318 33.0083 26.6564 33.11 26.8857C38.3368 25.0037 42.2536 21.3327 45.0894 16.199C45.272 16.2834 45.4542 16.3682 45.6407 16.4487Z" fill="#D9E2E9"/>
<path d="M32.3886 30.0591C32.3193 30.059 32.2515 30.039 32.1933 30.0013C32.1352 29.9636 32.0892 29.9099 32.0608 29.8467C31.653 28.9368 31.2397 28.0319 30.8239 27.1402C30.8035 27.0964 30.7921 27.0489 30.7905 27.0006C30.7889 26.9523 30.797 26.9042 30.8144 26.8591C30.8318 26.814 30.8582 26.7729 30.8918 26.7382C30.9255 26.7035 30.9658 26.676 31.0104 26.6572C35.9252 24.5876 39.8032 20.6729 42.537 15.0214C42.5781 14.9363 42.6512 14.8709 42.7402 14.8393C42.8293 14.8077 42.9272 14.8124 43.0128 14.8525C43.8994 15.2679 44.8068 15.6826 45.7872 16.1204C45.8739 16.1596 45.9415 16.2316 45.9751 16.3206C46.0088 16.4096 46.0058 16.5083 45.9668 16.5951C42.9348 23.3894 38.407 27.9125 32.509 30.0382C32.4703 30.052 32.4296 30.0591 32.3886 30.0591ZM31.6314 27.1715C31.9493 27.8572 32.2652 28.5488 32.5791 29.2462C38.0416 27.1787 42.2718 22.9359 45.1644 16.6285C44.4208 16.2947 43.7164 15.9727 43.0282 15.6525C40.2887 21.1649 36.4567 25.0379 31.6314 27.1715Z" fill="#2F3A5A"/>
</g>
<defs>
<clipPath id="clip0">
<rect width="46" height="46" fill="white"/>
</clipPath>
</defs>
</svg>
