<svg width="70" height="70" viewBox="0 0 70 70" fill="none" xmlns="http://www.w3.org/2000/svg">
<g clip-path="url(#clip0)">
<path d="M32.6382 59.5464L24.74 65.896C23.7333 66.6703 23.5784 68.1416 24.3528 69.1483C24.8175 69.6903 25.5144 70 26.1338 70C26.6758 70 27.1404 69.8452 27.6051 69.458L34.9613 63.6505L42.24 69.458C42.7047 69.7678 43.1692 70 43.7113 70C44.4082 70 45.0278 69.6903 45.4923 69.1483C46.2665 68.1416 46.1118 66.6704 45.1051 65.896L37.2844 59.624V55.1328H32.6384V59.5464H32.6382Z" fill="#2B2D35"/>
<path d="M4.76223 19.281V53.5841C4.76223 54.9005 5.76889 55.9071 7.08517 55.9071H32.6382H37.2843H62.76C64.0764 55.9071 65.0829 54.9004 65.0829 53.5841V19.281H4.76223Z" fill="#0182F9"/>
<path d="M41.0011 7.04648V2.32294C41.0011 1.00666 39.9945 0 38.678 0H31.2444C29.928 0 28.9215 1.00666 28.9215 2.32294V7.04633H41.0011V7.04648Z" fill="#01519B"/>
<path d="M66.7864 6.27197H41.0011H28.9215H3.21355C1.89712 6.27197 0.89061 7.27863 0.89061 8.59491V17.7321C0.89061 19.0485 1.89727 20.055 3.21355 20.055H4.76222H65.083H66.7866C68.103 20.055 69.1095 19.0484 69.1095 17.7321V8.59506C69.1095 7.27863 68.1029 6.27197 66.7864 6.27197Z" fill="#D4E1F4"/>
<path d="M16.0674 47.0796H30.6249C31.9413 47.0796 32.9478 46.0729 32.9478 44.7567V26.7919C32.9478 25.4755 31.9412 24.469 30.6249 24.469H16.0674C14.751 24.469 13.7445 25.4757 13.7445 26.7919V44.7565C13.7445 46.0729 14.7512 47.0796 16.0674 47.0796Z" fill="#D4E1F4"/>
<path d="M39.2201 32.9867H52.3064C53.6228 32.9867 54.6293 31.98 54.6293 30.6638C54.6293 29.3475 53.6226 28.3408 52.3064 28.3408H39.2201C37.9036 28.3408 36.8971 29.3475 36.8971 30.6638C36.8971 31.98 37.9038 32.9867 39.2201 32.9867Z" fill="#01519B"/>
<path d="M39.2201 43.2853H52.3064C53.6228 43.2853 54.6293 42.2786 54.6293 40.9623C54.6293 39.6459 53.6226 38.6394 52.3064 38.6394H39.2201C37.9036 38.6394 36.8971 39.6461 36.8971 40.9623C36.8971 42.2786 37.9038 43.2853 39.2201 43.2853Z" fill="#01519B"/>
</g>
<defs>
<clipPath id="clip0">
<rect width="70" height="70" fill="white"/>
</clipPath>
</defs>
</svg>
