<svg width="70" height="90" viewBox="0 0 70 70" fill="none" xmlns="http://www.w3.org/2000/svg">
<path d="M0 35C0 15.67 15.67 0 35 0V0C54.33 0 70 15.67 70 35V35C70 54.33 54.33 70 35 70V70C15.67 70 0 54.33 0 35V35Z" fill="#0F1014"/>
<path d="M35 69.5C15.9462 69.5 0.5 54.0538 0.5 35C0.5 15.9462 15.9462 0.5 35 0.5C54.0538 0.5 69.5 15.9462 69.5 35C69.5 54.0538 54.0538 69.5 35 69.5Z" stroke="white" stroke-opacity="0.1"/>
<path d="M51.667 28.75H18.333C17.7806 28.75 17.2507 28.5305 16.8601 28.1399C16.4695 27.7493 16.25 27.2194 16.25 26.667V18.333C16.25 17.7806 16.4695 17.2507 16.8601 16.8601C17.2507 16.4695 17.7806 16.25 18.333 16.25H51.667C52.2194 16.25 52.7493 16.4695 53.1399 16.8601C53.5305 17.2507 53.75 17.7806 53.75 18.333V26.667C53.75 27.2194 53.5305 27.7493 53.1399 28.1399C52.7493 28.5305 52.2194 28.75 51.667 28.75ZM51.667 53.75H18.333C17.7806 53.75 17.2507 53.5305 16.8601 53.1399C16.4695 52.7493 16.25 52.2194 16.25 51.667V43.333C16.25 42.7806 16.4695 42.2507 16.8601 41.8601C17.2507 41.4695 17.7806 41.25 18.333 41.25H51.667C52.2194 41.25 52.7493 41.4695 53.1399 41.8601C53.5305 42.2507 53.75 42.7806 53.75 43.333V51.667C53.75 52.2194 53.5305 52.7493 53.1399 53.1399C52.7493 53.5305 52.2194 53.75 51.667 53.75Z" stroke="#475569" stroke-width="2" stroke-linecap="round" stroke-linejoin="round"/>
<path d="M51.667 28.75H18.333C17.183 28.75 16.25 29.683 16.25 30.833V39.167C16.25 40.317 17.183 41.25 18.333 41.25H51.667C52.817 41.25 53.75 40.317 53.75 39.167V30.833C53.75 29.683 52.817 28.75 51.667 28.75Z" stroke="white" stroke-width="2" stroke-linecap="round" stroke-linejoin="round"/>
</svg>
