<svg width="36" height="36" viewBox="0 0 36 36" fill="none" xmlns="http://www.w3.org/2000/svg">
<g id="Iconly/Bold/Buy">
<g id="Buy">
<path id="Buy_2" fill-rule="evenodd" clip-rule="evenodd" d="M21.1819 16.8496H25.3337C25.9632 16.8496 26.4578 16.3291 26.4578 15.7015C26.4578 15.0586 25.9632 14.5534 25.3337 14.5534H21.1819C20.5524 14.5534 20.0578 15.0586 20.0578 15.7015C20.0578 16.3291 20.5524 16.8496 21.1819 16.8496ZM30.2649 8.89124C31.1792 8.89124 31.7787 9.2127 32.3782 9.91685C32.9777 10.621 33.0827 11.6313 32.9478 12.5482L31.5239 22.59C31.2541 24.5203 29.6354 25.9424 27.7318 25.9424H11.3796C9.38614 25.9424 7.73742 24.3826 7.57255 22.362L6.19362 5.67511L3.93039 5.27711C3.33086 5.16995 2.91118 4.57296 3.0161 3.96065C3.12102 3.33457 3.70556 2.91973 4.32008 3.01311L7.8948 3.56265C8.4044 3.65603 8.77911 4.08311 8.82407 4.60357L9.10885 8.03248C9.15382 8.52386 9.54351 8.89124 10.0231 8.89124H30.2649ZM11.1395 28.3617C9.88045 28.3617 8.86125 29.4026 8.86125 30.6885C8.86125 31.959 9.88045 32.9999 11.1395 32.9999C12.3835 32.9999 13.4027 31.959 13.4027 30.6885C13.4027 29.4026 12.3835 28.3617 11.1395 28.3617ZM28.0013 28.3617C26.7423 28.3617 25.7231 29.4026 25.7231 30.6885C25.7231 31.959 26.7423 32.9999 28.0013 32.9999C29.2454 32.9999 30.2646 31.959 30.2646 30.6885C30.2646 29.4026 29.2454 28.3617 28.0013 28.3617Z" fill="#F2F2F2"/>
</g>
</g>
</svg>
