<svg viewBox="0 0 46 46" fill="none" xmlns="http://www.w3.org/2000/svg">
<g clip-path="url(#clip0)">
<path d="M44.935 13.1104H42.3461C41.9565 13.1104 41.6406 13.4262 41.6406 13.8158V15.1742C41.6406 15.5639 41.9565 15.8797 42.3461 15.8797H44.935C45.3246 15.8797 45.6405 15.5639 45.6405 15.1742V13.8158C45.6405 13.4262 45.3246 13.1104 44.935 13.1104Z" fill="#707583"/>
<path d="M44.935 16.2387H42.3475C42.0652 16.2383 41.7946 16.126 41.595 15.9264C41.3954 15.7268 41.2831 15.4562 41.2827 15.1739V13.8158C41.2831 13.5335 41.3954 13.2629 41.595 13.0633C41.7946 12.8637 42.0652 12.7514 42.3475 12.751H44.935C45.2173 12.7514 45.4879 12.8637 45.6875 13.0633C45.8872 13.2629 45.9995 13.5335 45.9998 13.8158V15.1739C45.9995 15.4562 45.8872 15.7268 45.6875 15.9264C45.4879 16.126 45.2173 16.2383 44.935 16.2387ZM42.3475 13.4694C42.2558 13.4695 42.1678 13.506 42.1029 13.5708C42.038 13.6357 42.0016 13.7237 42.0015 13.8154V15.1735C42.0016 15.2653 42.038 15.3533 42.1029 15.4181C42.1678 15.483 42.2558 15.5195 42.3475 15.5196H44.935C45.0268 15.5195 45.1147 15.483 45.1796 15.4181C45.2445 15.3533 45.281 15.2653 45.2811 15.1735V13.8158C45.281 13.724 45.2445 13.6361 45.1796 13.5712C45.1147 13.5063 45.0268 13.4698 44.935 13.4697L42.3475 13.4694Z" fill="#2F3A5A"/>
<path d="M38.6805 18.2592C38.6041 18.2592 38.5296 18.2349 38.468 18.1898C38.4063 18.1447 38.3607 18.0811 38.3376 18.0083C38.3145 17.9355 38.3152 17.8572 38.3397 17.7848C38.3641 17.7125 38.411 17.6498 38.4735 17.6058L41.6385 15.3809C41.7165 15.3279 41.8122 15.3077 41.905 15.3246C41.9978 15.3416 42.0802 15.3943 42.1345 15.4715C42.1887 15.5487 42.2104 15.6441 42.195 15.7371C42.1795 15.8302 42.128 15.9134 42.0517 15.9689L38.8867 18.1937C38.8264 18.2364 38.7543 18.2592 38.6805 18.2592Z" fill="#2F3A5A"/>
<path d="M1.06498 15.8793H3.65392C4.04353 15.8793 4.35938 15.5635 4.35938 15.1739V13.8154C4.35938 13.4258 4.04353 13.11 3.65392 13.11H1.06498C0.675374 13.11 0.359531 13.4258 0.359531 13.8154V15.1739C0.359531 15.5635 0.675374 15.8793 1.06498 15.8793Z" fill="#707583"/>
<path d="M3.65377 16.2387H1.06627C0.783723 16.2387 0.512732 16.1266 0.31281 15.9269C0.112887 15.7273 0.000380913 15.4564 0 15.1739L0 13.8158C0.00028524 13.5334 0.112552 13.2627 0.312174 13.063C0.511796 12.8633 0.782473 12.751 1.06483 12.7506H3.65233C3.93462 12.751 4.20524 12.8633 4.40486 13.0629C4.60447 13.2625 4.71678 13.5331 4.71716 13.8154V15.1735C4.71687 15.4556 4.6048 15.7261 4.40549 15.9258C4.20618 16.1254 3.93587 16.2379 3.65377 16.2387ZM1.06627 13.4694C1.02068 13.4692 0.975515 13.4781 0.933359 13.4954C0.891202 13.5128 0.852884 13.5383 0.8206 13.5704C0.788316 13.6026 0.762701 13.6409 0.745224 13.683C0.727746 13.7251 0.71875 13.7702 0.71875 13.8158V15.1739C0.718845 15.2656 0.755337 15.3536 0.820219 15.4185C0.885101 15.4834 0.973072 15.5199 1.06483 15.52H3.65233C3.74408 15.5199 3.83206 15.4834 3.89694 15.4185C3.96182 15.3536 3.99831 15.2656 3.99841 15.1739V13.8158C3.99831 13.724 3.96182 13.6361 3.89694 13.5712C3.83206 13.5063 3.74408 13.4698 3.65233 13.4697L1.06627 13.4694Z" fill="#2F3A5A"/>
<path d="M7.31922 18.2591C7.24535 18.2592 7.17328 18.2363 7.11294 18.1937L3.94792 15.9688C3.90849 15.942 3.87478 15.9076 3.84877 15.8677C3.82275 15.8278 3.80494 15.783 3.79637 15.7361C3.78781 15.6892 3.78866 15.6411 3.79888 15.5945C3.8091 15.548 3.82848 15.5039 3.8559 15.4649C3.88331 15.4259 3.91821 15.3927 3.95857 15.3674C3.99892 15.342 4.04392 15.3249 4.09095 15.3171C4.13798 15.3092 4.18609 15.3109 4.23249 15.3218C4.27889 15.3328 4.32264 15.3528 4.3612 15.3809L7.52622 17.6058C7.58871 17.6497 7.63557 17.7124 7.66 17.7848C7.68443 17.8572 7.68516 17.9354 7.66209 18.0083C7.63902 18.0811 7.59334 18.1447 7.53168 18.1898C7.47003 18.2349 7.39561 18.2592 7.31922 18.2591Z" fill="#2F3A5A"/>
<path d="M40.9423 29.4142L37.0837 29.4219C36.3479 29.4234 35.7527 30.021 35.7541 30.7568L35.7695 38.419C35.7709 39.1548 36.3686 39.75 37.1043 39.7485L40.9629 39.7408C41.6987 39.7394 42.2939 39.1417 42.2925 38.406L42.2771 30.7437C42.2757 30.008 41.678 29.4127 40.9423 29.4142Z" fill="#3A556A"/>
<path d="M37.0878 40.121C36.6396 40.121 36.2098 39.9431 35.8926 39.6264C35.5754 39.3098 35.3969 38.8801 35.3963 38.4319L35.3848 30.7697C35.3844 30.5475 35.4278 30.3275 35.5125 30.1221C35.5971 29.9167 35.7215 29.73 35.8783 29.5726C36.0352 29.4153 36.2215 29.2904 36.4266 29.205C36.6317 29.1197 36.8517 29.0756 37.0738 29.0753L40.9324 29.0688H40.9353C41.3835 29.0688 41.8134 29.2467 42.1305 29.5633C42.4477 29.88 42.6262 30.3096 42.6269 30.7578L42.6395 38.4201C42.6398 38.6422 42.5964 38.8623 42.5118 39.0677C42.4271 39.273 42.3028 39.4597 42.1459 39.617C41.989 39.7744 41.8027 39.8992 41.5976 39.9845C41.3925 40.0698 41.1726 40.1139 40.9504 40.1142L37.0918 40.1206L37.0878 40.121ZM40.9332 29.7879L37.0745 29.7944C36.8167 29.795 36.5696 29.8981 36.3876 30.0808C36.2057 30.2636 36.1038 30.5111 36.1042 30.769L36.1168 38.4312C36.1176 38.6888 36.2204 38.9355 36.4027 39.1174C36.5851 39.2993 36.8321 39.4014 37.0896 39.4015L40.9482 39.3951C41.2061 39.3944 41.4531 39.2914 41.635 39.1087C41.817 38.9261 41.9189 38.6786 41.9186 38.4208L41.906 30.7586C41.9053 30.501 41.8025 30.2542 41.6202 30.0723C41.4378 29.8904 41.1907 29.7883 40.9332 29.7883V29.7879Z" fill="#2F3A5A"/>
<path d="M8.91884 29.425L5.06023 29.4328C4.32447 29.4342 3.72922 30.0319 3.73069 30.7676L3.74602 38.4299C3.74749 39.1656 4.34513 39.7609 5.08088 39.7594L8.93949 39.7517C9.67525 39.7502 10.2705 39.1526 10.269 38.4168L10.2537 30.7546C10.2522 30.0188 9.65459 29.4236 8.91884 29.425Z" fill="#3A556A"/>
<path d="M5.06549 40.121C4.61729 40.121 4.18741 39.9431 3.87025 39.6264C3.55309 39.3098 3.37458 38.8801 3.37391 38.4319L3.36133 30.7697C3.36095 30.5475 3.40434 30.3275 3.48903 30.1221C3.57371 29.9167 3.69803 29.73 3.85488 29.5726C4.01172 29.4153 4.19803 29.2904 4.40316 29.205C4.60829 29.1197 4.82822 29.0756 5.05039 29.0753L8.909 29.0688H8.9126C9.36065 29.0693 9.79025 29.2473 10.1073 29.5639C10.4244 29.8805 10.603 30.3098 10.6042 30.7578L10.6168 38.4201C10.6171 38.6422 10.5737 38.8623 10.489 39.0677C10.4044 39.273 10.28 39.4597 10.1232 39.617C9.96633 39.7744 9.78002 39.8992 9.57489 39.9845C9.36977 40.0698 9.14984 40.1139 8.92769 40.1142L5.06908 40.1206L5.06549 40.121ZM8.9108 29.7879L5.05219 29.7944C4.7943 29.795 4.54724 29.8981 4.36529 30.0808C4.18334 30.2636 4.0814 30.5111 4.08188 30.769L4.09446 38.4312C4.09522 38.6888 4.19803 38.9355 4.38038 39.1174C4.56273 39.2993 4.80974 39.4014 5.06728 39.4015L8.92589 39.3951C9.18372 39.3944 9.43073 39.2914 9.61267 39.1087C9.79461 38.9261 9.89659 38.6786 9.89621 38.4208L9.88291 30.7589C9.88224 30.5014 9.77945 30.2546 9.59709 30.0727C9.41472 29.8908 9.16765 29.7886 8.91008 29.7886L8.9108 29.7879Z" fill="#2F3A5A"/>
<path d="M44.2387 27.1842C44.1519 29.1359 43.8578 31.0728 43.3615 32.9622C43.1927 33.5945 42.8196 34.1532 42.3004 34.5515C41.7812 34.9498 41.1448 35.1653 40.4904 35.1645L23.0356 35.1875H22.9964L5.53401 35.2188C4.88075 35.2231 4.24449 35.0107 3.72485 34.6148C3.2052 34.2189 2.8315 33.6619 2.66225 33.0309C2.14274 31.08 1.83893 29.0781 1.75626 27.0609C1.72033 26.1104 1.74441 25.2774 1.78645 24.5813C1.87333 23.2954 2.2364 22.0434 2.85092 20.9106L5.04311 16.8137C5.04311 16.8137 8.91322 7.90123 10.5527 7.18464C11.348 6.83533 14.2693 6.60281 17.0933 6.45834C19.9065 6.31459 22.6115 6.24703 22.9447 6.2384H22.9838C23.6602 6.25098 33.792 6.45151 35.3769 7.13468C37.0199 7.85703 40.9213 16.7526 40.9213 16.7526L43.1282 20.8387C43.7464 21.9738 44.1121 23.2289 44.2002 24.5184C44.2651 25.4055 44.2779 26.2956 44.2387 27.1842Z" fill="#F14253"/>
<path d="M5.52428 35.5782C4.79276 35.5818 4.08073 35.3425 3.49981 34.8979C2.91889 34.4533 2.50195 33.8285 2.31434 33.1215C1.78826 31.1447 1.48094 29.116 1.39793 27.0721C1.36703 26.234 1.37673 25.4118 1.42848 24.5565C1.5204 23.2189 1.89783 21.9165 2.53536 20.737L4.72754 16.6402C5.11675 15.7417 8.69073 7.60441 10.41 6.85152C11.1194 6.53994 13.3619 6.2855 17.0753 6.09683C19.574 5.96853 21.9926 5.90025 22.9162 5.87689H22.9644C24.804 5.91283 33.9296 6.11731 35.5192 6.80228C37.2442 7.5602 40.8455 15.6821 41.2505 16.6057L43.4427 20.6666C44.0866 21.8468 44.4667 23.1526 44.5567 24.494C44.6216 25.3935 44.6336 26.2962 44.5927 27.1972C44.5048 29.1743 44.207 31.1365 43.7043 33.0507C43.5157 33.76 43.0978 34.3871 42.5157 34.8341C41.9337 35.2812 41.22 35.5232 40.4861 35.5225L23.0363 35.5473H22.9949L5.5347 35.5782H5.52428ZM22.9457 6.23842L22.9349 6.5978C22.0138 6.6208 19.6028 6.68872 17.113 6.81666C12.3582 7.06031 11.054 7.35752 10.6996 7.51313C9.59923 7.99505 6.84965 13.561 5.37514 16.9564L3.16857 21.0803C2.57994 22.1685 2.23131 23.3703 2.14615 24.6046C2.09584 25.4312 2.08614 26.2323 2.11632 27.0484C2.19731 29.0398 2.49691 31.0162 3.00973 32.9421C3.1575 33.4954 3.48462 33.984 3.93986 34.3314C4.39509 34.6788 4.95271 34.8654 5.52536 34.8619H5.5347L23.0003 34.8292H23.0417L40.4933 34.8062C41.0683 34.8074 41.6276 34.6185 42.0841 34.2688C42.5406 33.9191 42.8686 33.4283 43.0172 32.8728C43.5061 31.0074 43.7954 29.0953 43.88 27.1688C43.9193 26.2944 43.9073 25.4184 43.8441 24.5453C43.7606 23.3058 43.4091 22.0991 42.8137 21.0087L40.6072 16.923C39.1075 13.5071 36.3378 7.94869 35.2342 7.46353C34.0206 6.94064 26.9596 6.67291 22.9795 6.5978L22.9457 6.23842Z" fill="#2F3A5A"/>
<path d="M37.8174 16.1291L23.0604 16.1539H23.0245L18.942 16.1589L17.0272 16.1639H15.8183L14.8164 16.169H14.8113L8.26855 16.179L11.3736 9.2643C11.4536 9.08936 11.5811 8.94037 11.7415 8.83428C11.902 8.72818 12.089 8.66924 12.2813 8.66415L20.1876 8.44097H20.1926L21.2046 8.41115L22.4398 8.37521L23.0299 8.36047H23.0446L24.3441 8.3903L33.7809 8.62497C33.9739 8.63001 34.1615 8.6895 34.3222 8.79658C34.4828 8.90366 34.6099 9.05397 34.6887 9.23016L37.8174 16.1291Z" fill="#3DBCE9"/>
<g opacity="0.75">
<path opacity="0.75" d="M21.2059 8.41077L15.8188 16.1636L14.8169 16.1686L20.1888 8.44059H20.1939L21.2059 8.41077Z" fill="white"/>
<path opacity="0.75" d="M26.0475 8.39103L21.206 16.1589L17.0293 16.1636L22.4411 8.37594L23.0312 8.36121H23.0463L26.0475 8.39103Z" fill="white"/>
</g>
<path d="M8.26559 16.5381C8.20559 16.5381 8.14655 16.523 8.09384 16.4943C8.04114 16.4657 7.99646 16.4242 7.96387 16.3739C7.93128 16.3235 7.91183 16.2657 7.90728 16.2059C7.90274 16.1461 7.91324 16.0861 7.93784 16.0313L11.0472 9.11841C11.1545 8.88202 11.3258 8.68037 11.5417 8.53627C11.7576 8.39217 12.0096 8.31136 12.269 8.30299L23.0187 8.00039C23.0306 7.99979 23.0426 7.99979 23.0546 8.00039L33.7891 8.26561C34.0487 8.27306 34.301 8.35297 34.5176 8.4963C34.7342 8.63963 34.9063 8.84068 35.0146 9.07672L38.1455 15.9796C38.1703 16.0343 38.181 16.0943 38.1766 16.1542C38.1722 16.2141 38.1529 16.2719 38.1204 16.3224C38.0879 16.3729 38.0433 16.4145 37.9906 16.4433C37.9379 16.4721 37.8789 16.4873 37.8188 16.4874L8.26559 16.5381ZM23.0316 8.71878L12.2906 9.0203C12.1659 9.02423 12.0447 9.063 11.9409 9.13223C11.837 9.20146 11.7546 9.29838 11.703 9.41202L8.82299 15.8186L37.2614 15.7712L34.3602 9.37428C34.3082 9.26085 34.2255 9.16421 34.1215 9.09531C34.0175 9.0264 33.8962 8.98797 33.7715 8.98436L23.0381 8.71806L23.0316 8.71878Z" fill="#2F3A5A"/>
<path d="M29.8429 26.0109H16.1572C16.0619 26.0109 15.9705 25.973 15.9031 25.9056C15.8357 25.8382 15.7979 25.7468 15.7979 25.6515C15.7979 25.5562 15.8357 25.4648 15.9031 25.3974C15.9705 25.33 16.0619 25.2921 16.1572 25.2921H29.8429C29.9383 25.2921 30.0297 25.33 30.0971 25.3974C30.1645 25.4648 30.2023 25.5562 30.2023 25.6515C30.2023 25.7468 30.1645 25.8382 30.0971 25.9056C30.0297 25.973 29.9383 26.0109 29.8429 26.0109Z" fill="#2F3A5A"/>
<path d="M29.8429 27.5961H16.1572C16.0619 27.5961 15.9705 27.5582 15.9031 27.4908C15.8357 27.4234 15.7979 27.332 15.7979 27.2367C15.7979 27.1414 15.8357 27.05 15.9031 26.9826C15.9705 26.9152 16.0619 26.8773 16.1572 26.8773H29.8429C29.9383 26.8773 30.0297 26.9152 30.0971 26.9826C30.1645 27.05 30.2023 27.1414 30.2023 27.2367C30.2023 27.332 30.1645 27.4234 30.0971 27.4908C30.0297 27.5582 29.9383 27.5961 29.8429 27.5961Z" fill="#2F3A5A"/>
<path d="M16.8325 29.8892H29.1677V33.0485H16.8325V29.8892Z" fill="#F0F5F9"/>
<path d="M29.1677 33.4075H16.8325C16.7372 33.4075 16.6458 33.3696 16.5784 33.3022C16.511 33.2349 16.4731 33.1434 16.4731 33.0481V29.8892C16.4731 29.7939 16.511 29.7025 16.5784 29.6351C16.6458 29.5677 16.7372 29.5298 16.8325 29.5298H29.1677C29.263 29.5298 29.3544 29.5677 29.4218 29.6351C29.4892 29.7025 29.5271 29.7939 29.5271 29.8892V33.0481C29.5271 33.1434 29.4892 33.2349 29.4218 33.3022C29.3544 33.3696 29.263 33.4075 29.1677 33.4075ZM17.1919 32.6888H28.8083V30.2486H17.1919V32.6888Z" fill="#2F3A5A"/>
<path d="M41.121 23.1125C41.121 23.1125 32.3123 23.7342 32.0015 28.1905H41.121C41.5946 27.4283 41.8456 26.5488 41.8456 25.6515C41.8456 24.7541 41.5946 23.8747 41.121 23.1125Z" fill="#F0F5F9"/>
<path d="M41.1208 28.5498H32.0009C31.9515 28.55 31.9026 28.5399 31.8573 28.5203C31.812 28.5007 31.7712 28.4719 31.7374 28.4359C31.7037 28.3998 31.6778 28.3571 31.6613 28.3106C31.6448 28.264 31.638 28.2146 31.6415 28.1653C31.9703 23.4518 40.7222 22.7804 41.0931 22.7539C41.1604 22.7497 41.2276 22.7643 41.2872 22.7961C41.3467 22.8278 41.3964 22.8754 41.4305 22.9335C41.935 23.75 42.2023 24.6908 42.2023 25.6506C42.2023 26.6104 41.935 27.5512 41.4305 28.3676C41.3994 28.4225 41.3544 28.4683 41.3001 28.5003C41.2457 28.5322 41.1838 28.5493 41.1208 28.5498ZM32.412 27.8311H40.9084C41.2869 27.171 41.4869 26.4237 41.4887 25.6628C41.4906 24.9018 41.2941 24.1536 40.9188 23.4917C39.611 23.6225 33.1042 24.4422 32.4117 27.8311H32.412Z" fill="#2F3A5A"/>
<path d="M4.87889 23.1125C4.87889 23.1125 13.6875 23.7342 13.9984 28.1905H4.87889C4.40528 27.4283 4.1543 26.5488 4.1543 25.6515C4.1543 24.7541 4.40528 23.8747 4.87889 23.1125Z" fill="#F0F5F9"/>
<path d="M13.9993 28.5498H4.87943C4.81617 28.55 4.75398 28.5335 4.69914 28.5019C4.6443 28.4704 4.59877 28.4249 4.56714 28.3701C4.06263 27.5536 3.79541 26.6128 3.79541 25.6531C3.79541 24.6933 4.06263 23.7525 4.56714 22.936C4.60113 22.8777 4.65071 22.8299 4.71032 22.7982C4.76993 22.7664 4.8372 22.7519 4.90459 22.7563C5.2769 22.7825 14.0288 23.4542 14.3561 28.1678C14.3596 28.217 14.3529 28.2665 14.3364 28.313C14.3199 28.3596 14.2939 28.4022 14.2602 28.4383C14.2265 28.4744 14.1857 28.5032 14.1404 28.5228C14.095 28.5424 14.0462 28.5524 13.9968 28.5523L13.9993 28.5498ZM5.09218 27.831H13.5885C12.896 24.4421 6.38917 23.6224 5.08176 23.4916C4.70636 24.1535 4.50986 24.9017 4.51163 25.6627C4.51339 26.4236 4.71336 27.1709 5.09182 27.831H5.09218Z" fill="#2F3A5A"/>
<path d="M39.2129 27.0268C39.8639 27.0268 40.3917 26.4991 40.3917 25.8481C40.3917 25.1971 39.8639 24.6693 39.2129 24.6693C38.5619 24.6693 38.0342 25.1971 38.0342 25.8481C38.0342 26.4991 38.5619 27.0268 39.2129 27.0268Z" fill="#C1CDD3"/>
<path d="M36.1261 26.9327C36.5703 26.9327 36.9303 26.5726 36.9303 26.1284C36.9303 25.6842 36.5703 25.3241 36.1261 25.3241C35.6819 25.3241 35.3218 25.6842 35.3218 26.1284C35.3218 26.5726 35.6819 26.9327 36.1261 26.9327Z" fill="#C1CDD3"/>
<path d="M6.91068 27.0268C7.56169 27.0268 8.08943 26.4991 8.08943 25.8481C8.08943 25.1971 7.56169 24.6693 6.91068 24.6693C6.25968 24.6693 5.73193 25.1971 5.73193 25.8481C5.73193 26.4991 6.25968 27.0268 6.91068 27.0268Z" fill="#C1CDD3"/>
<path d="M9.99764 26.9327C10.4418 26.9327 10.8019 26.5726 10.8019 26.1284C10.8019 25.6842 10.4418 25.3241 9.99764 25.3241C9.55345 25.3241 9.19336 25.6842 9.19336 26.1284C9.19336 26.5726 9.55345 26.9327 9.99764 26.9327Z" fill="#C1CDD3"/>
</g>
<defs>
<clipPath id="clip0">
<rect fill="white"/>
</clipPath>
</defs>
</svg>
