<svg viewBox="0 0 15 15" fill="none" xmlns="http://www.w3.org/2000/svg">
<g id="Iconly/Bold/Close Square">
<g id="Close Square">
<path id="Close Square_2" fill-rule="evenodd" clip-rule="evenodd" d="M4.79375 1.24951H10.2125C12.3313 1.24951 13.75 2.73701 13.75 4.94951V10.0564C13.75 12.2626 12.3313 13.7495 10.2125 13.7495H4.79375C2.675 13.7495 1.25 12.2626 1.25 10.0564V4.94951C1.25 2.73701 2.675 1.24951 4.79375 1.24951ZM9.38121 9.37452C9.59371 9.16264 9.59371 8.81889 9.38121 8.60639L8.26871 7.49389L9.38121 6.38077C9.59371 6.16889 9.59371 5.81889 9.38121 5.60639C9.16871 5.39327 8.82496 5.39327 8.60621 5.60639L7.49996 6.71827L6.38746 5.60639C6.16871 5.39327 5.82496 5.39327 5.61246 5.60639C5.39996 5.81889 5.39996 6.16889 5.61246 6.38077L6.72496 7.49389L5.61246 8.60014C5.39996 8.81889 5.39996 9.16264 5.61246 9.37452C5.71871 9.48077 5.86246 9.53764 5.99996 9.53764C6.14371 9.53764 6.28121 9.48077 6.38746 9.37452L7.49996 8.26889L8.61246 9.37452C8.71871 9.48764 8.85621 9.53764 8.99371 9.53764C9.13746 9.53764 9.27496 9.48077 9.38121 9.37452Z" fill="#F2F2F2"/>
</g>
</g>
</svg>
