<svg width="46" height="46" viewBox="0 0 46 46" fill="none" xmlns="http://www.w3.org/2000/svg">
<path d="M4.75245 12.5054L13.114 4.91938L20.441 8.01935L29.4059 3.53687L32.9756 7.50221L35.9573 4.57151L42.3362 14.6689L3.97656 14.133L4.75245 12.5054Z" fill="#84879C"/>
<path d="M42.3363 15.0278H42.3313L3.97161 14.492C3.91136 14.4912 3.85228 14.4752 3.79981 14.4456C3.74735 14.4159 3.70317 14.3736 3.67136 14.3224C3.63954 14.2712 3.62111 14.2129 3.61775 14.1527C3.61439 14.0926 3.62621 14.0325 3.65212 13.9781L4.42802 12.3501C4.44814 12.3078 4.47634 12.2699 4.51103 12.2384L12.8726 4.65269C12.9234 4.6066 12.9864 4.57603 13.054 4.56456C13.1216 4.5531 13.1911 4.56123 13.2543 4.588L20.4288 7.62328L29.2454 3.21519C29.3157 3.18008 29.3957 3.16901 29.4729 3.18368C29.5501 3.19835 29.6204 3.23795 29.673 3.2964L32.9908 6.98216L35.7048 4.31451C35.7428 4.27655 35.789 4.24775 35.8398 4.23031C35.8906 4.21288 35.9447 4.20726 35.998 4.21389C36.0513 4.22007 36.1025 4.23809 36.1479 4.26664C36.1933 4.29518 36.2317 4.33352 36.2604 4.37884L42.6393 14.4773C42.6736 14.5316 42.6927 14.5942 42.6947 14.6584C42.6966 14.7227 42.6812 14.7863 42.6502 14.8426C42.6192 14.8989 42.5737 14.9458 42.5183 14.9785C42.463 15.0113 42.3999 15.0285 42.3356 15.0286L42.3363 15.0278ZM4.5423 13.7812L41.6783 14.2997L35.8917 5.13892L33.2276 7.75733C33.193 7.79133 33.1519 7.81798 33.1067 7.83566C33.0615 7.85334 33.0133 7.8617 32.9648 7.86022C32.9163 7.85874 32.8686 7.84746 32.8246 7.82706C32.7806 7.80666 32.7411 7.77756 32.7087 7.74151L29.3219 3.9803L20.602 8.34023C20.5556 8.36344 20.5046 8.37629 20.4527 8.37791C20.4007 8.37952 20.3491 8.36985 20.3013 8.34958L13.1856 5.33909L5.0465 12.7217L4.5423 13.7812Z" fill="#2F3A5A"/>
<path d="M16.6821 36.6357H29.6308V39.4058H16.6821V36.6357Z" fill="#D9E2E9"/>
<path d="M29.6306 39.7657H16.6816C16.5863 39.7657 16.4949 39.7278 16.4275 39.6604C16.3601 39.593 16.3223 39.5016 16.3223 39.4063V36.6362C16.3223 36.5409 16.3601 36.4495 16.4275 36.3821C16.4949 36.3147 16.5863 36.2769 16.6816 36.2769H29.6306C29.726 36.2769 29.8174 36.3147 29.8848 36.3821C29.9522 36.4495 29.99 36.5409 29.99 36.6362V39.4063C29.99 39.5016 29.9522 39.593 29.8848 39.6604C29.8174 39.7278 29.726 39.7657 29.6306 39.7657ZM17.0414 39.0469H29.2713V36.9956H17.041L17.0414 39.0469Z" fill="#2F3A5A"/>
<path d="M39.5744 37.2668H6.42565L3.12012 14.6686H42.8799L39.5744 37.2668Z" fill="#D9E2E9"/>
<path d="M42.8806 14.6699L39.5744 37.2674H6.42562L6.10938 35.104H37.9213L40.9113 14.6699H42.8806Z" fill="#C1CDD3"/>
<path d="M39.5745 37.6267H6.42572C6.33947 37.6266 6.2561 37.5956 6.19085 37.5392C6.1256 37.4827 6.08281 37.4047 6.0703 37.3194L2.76405 14.7215C2.75657 14.6705 2.76017 14.6185 2.77459 14.5689C2.78902 14.5194 2.81394 14.4736 2.84766 14.4345C2.88138 14.3955 2.92311 14.3642 2.97001 14.3427C3.01691 14.3212 3.06789 14.3101 3.11947 14.3101H42.88C42.9316 14.3101 42.9826 14.3212 43.0295 14.3427C43.0764 14.3642 43.1181 14.3955 43.1518 14.4345C43.1855 14.4736 43.2105 14.5194 43.2249 14.5689C43.2393 14.6185 43.2429 14.6705 43.2354 14.7215L39.9292 37.3194C39.9167 37.4046 39.874 37.4825 39.8089 37.5389C39.7438 37.5953 39.6606 37.6265 39.5745 37.6267ZM6.73622 36.9079H39.264L42.4642 15.0288H3.53599L6.73622 36.9079Z" fill="#2F3A5A"/>
<path d="M0.359375 12.5051H45.6406V15.7607H0.359375V12.5051Z" fill="#D9E2E9"/>
<path d="M45.6406 16.1196H0.359375C0.264063 16.1196 0.172654 16.0818 0.105259 16.0144C0.0378626 15.947 0 15.8556 0 15.7602V12.5061C0 12.4108 0.0378626 12.3194 0.105259 12.252C0.172654 12.1846 0.264063 12.1467 0.359375 12.1467H45.6406C45.7359 12.1467 45.8273 12.1846 45.8947 12.252C45.9621 12.3194 46 12.4108 46 12.5061V15.7617C45.9996 15.8567 45.9616 15.9478 45.8942 16.0149C45.8269 16.082 45.7357 16.1196 45.6406 16.1196ZM0.71875 15.4009H45.2812V12.8655H0.71875V15.4009Z" fill="#2F3A5A"/>
<path d="M32.3734 42.4636C34.7666 42.4636 36.7067 40.5235 36.7067 38.1302C36.7067 35.737 34.7666 33.7969 32.3734 33.7969C29.9801 33.7969 28.04 35.737 28.04 38.1302C28.04 40.5235 29.9801 42.4636 32.3734 42.4636Z" fill="#9297AB"/>
<path d="M32.3734 42.8229C31.4453 42.8229 30.538 42.5477 29.7663 42.0321C28.9946 41.5165 28.3931 40.7836 28.0379 39.9261C27.6827 39.0687 27.5898 38.1251 27.7708 37.2148C27.9518 36.3046 28.3988 35.4684 29.055 34.8121C29.7113 34.1558 30.5474 33.7088 31.4577 33.5277C32.3679 33.3466 33.3115 33.4395 34.169 33.7946C35.0264 34.1497 35.7594 34.7512 36.2751 35.5228C36.7907 36.2945 37.066 37.2017 37.0661 38.1299C37.0648 39.3741 36.5699 40.5669 35.6902 41.4468C34.8104 42.3266 33.6176 42.8215 32.3734 42.8229ZM32.3734 34.1563C31.5874 34.1563 30.8191 34.3893 30.1655 34.826C29.512 35.2627 29.0027 35.8834 28.7019 36.6095C28.4011 37.3357 28.3224 38.1347 28.4758 38.9056C28.6292 39.6765 29.0077 40.3846 29.5635 40.9404C30.1193 41.4961 30.8274 41.8746 31.5983 42.0279C32.3692 42.1812 33.1683 42.1024 33.8944 41.8016C34.6205 41.5007 35.2412 40.9913 35.6778 40.3378C36.1144 39.6842 36.3474 38.9159 36.3474 38.1299C36.3462 37.0762 35.9272 36.0661 35.1821 35.3211C34.4371 34.5761 33.427 34.157 32.3734 34.1559V34.1563Z" fill="#2F3A5A"/>
<path d="M32.3733 40.2042C33.5187 40.2042 34.4472 39.2756 34.4472 38.1302C34.4472 36.9848 33.5187 36.0563 32.3733 36.0563C31.2279 36.0563 30.2993 36.9848 30.2993 38.1302C30.2993 39.2756 31.2279 40.2042 32.3733 40.2042Z" fill="#D9E2E9"/>
<path d="M32.3738 40.5631C31.8925 40.5631 31.422 40.4204 31.0219 40.153C30.6217 39.8856 30.3098 39.5056 30.1257 39.0609C29.9415 38.6163 29.8933 38.127 29.9872 37.655C30.0811 37.183 30.3128 36.7494 30.6531 36.4091C30.9934 36.0688 31.427 35.8371 31.899 35.7432C32.3711 35.6493 32.8603 35.6975 33.305 35.8816C33.7496 36.0658 34.1296 36.3777 34.397 36.7779C34.6644 37.178 34.8071 37.6485 34.8071 38.1297C34.8064 38.7749 34.5498 39.3934 34.0936 39.8496C33.6375 40.3058 33.0189 40.5624 32.3738 40.5631ZM32.3738 36.4155C32.0346 36.4155 31.7032 36.5161 31.4212 36.7045C31.1392 36.8929 30.9195 37.1607 30.7897 37.474C30.6599 37.7873 30.626 38.132 30.6921 38.4646C30.7583 38.7972 30.9216 39.1027 31.1614 39.3425C31.4012 39.5823 31.7067 39.7456 32.0393 39.8117C32.3719 39.8779 32.7166 39.8439 33.0299 39.7142C33.3432 39.5844 33.611 39.3646 33.7994 39.0827C33.9878 38.8007 34.0883 38.4692 34.0883 38.1301C34.0879 37.6755 33.9071 37.2397 33.5856 36.9182C33.2642 36.5968 32.8283 36.416 32.3738 36.4155Z" fill="#2F3A5A"/>
<path d="M13.6268 42.4636C16.02 42.4636 17.9601 40.5235 17.9601 38.1302C17.9601 35.737 16.02 33.7969 13.6268 33.7969C11.2336 33.7969 9.29346 35.737 9.29346 38.1302C9.29346 40.5235 11.2336 42.4636 13.6268 42.4636Z" fill="#9297AB"/>
<path d="M13.6264 42.8228C12.6983 42.8227 11.7911 42.5475 11.0194 42.0318C10.2478 41.5161 9.64636 40.7832 9.29123 39.9258C8.93609 39.0683 8.84319 38.1248 9.02427 37.2145C9.20535 36.3042 9.65228 35.4681 10.3086 34.8118C10.9648 34.1556 11.8009 33.7086 12.7112 33.5276C13.6215 33.3465 14.565 33.4394 15.4225 33.7945C16.2799 34.1497 17.0128 34.7511 17.5285 35.5227C18.0442 36.2944 18.3195 37.2016 18.3195 38.1297C18.3182 39.374 17.8233 40.5669 16.9435 41.4468C16.0637 42.3266 14.8707 42.8215 13.6264 42.8228ZM13.6264 34.1561C12.8405 34.1562 12.0722 34.3893 11.4187 34.8261C10.7652 35.2628 10.2559 35.8835 9.9552 36.6097C9.65448 37.3358 9.57586 38.1349 9.72926 38.9057C9.88267 39.6766 10.2612 40.3847 10.817 40.9404C11.3729 41.4961 12.081 41.8745 12.8519 42.0278C13.6228 42.181 14.4218 42.1023 15.1479 41.8014C15.874 41.5006 16.4946 40.9912 16.9312 40.3376C17.3678 39.6841 17.6008 38.9157 17.6008 38.1297C17.5996 37.0761 17.1805 36.0659 16.4354 35.3209C15.6903 34.5758 14.6801 34.1568 13.6264 34.1558V34.1561Z" fill="#2F3A5A"/>
<path d="M13.6267 40.2042C14.7721 40.2042 15.7006 39.2756 15.7006 38.1302C15.7006 36.9848 14.7721 36.0563 13.6267 36.0563C12.4813 36.0563 11.5527 36.9848 11.5527 38.1302C11.5527 39.2756 12.4813 40.2042 13.6267 40.2042Z" fill="#D9E2E9"/>
<path d="M13.6262 40.5631C13.1449 40.5631 12.6745 40.4204 12.2743 40.153C11.8742 39.8856 11.5623 39.5056 11.3781 39.0609C11.1939 38.6163 11.1457 38.127 11.2396 37.655C11.3335 37.183 11.5653 36.7494 11.9056 36.4091C12.2459 36.0688 12.6795 35.8371 13.1515 35.7432C13.6235 35.6493 14.1128 35.6975 14.5574 35.8816C15.002 36.0658 15.3821 36.3777 15.6494 36.7779C15.9168 37.178 16.0595 37.6485 16.0595 38.1297C16.0589 38.7749 15.8023 39.3934 15.3461 39.8496C14.8899 40.3058 14.2714 40.5624 13.6262 40.5631ZM13.6262 36.4155C13.2871 36.4155 12.9556 36.5161 12.6736 36.7045C12.3917 36.8929 12.1719 37.1607 12.0421 37.474C11.9124 37.7873 11.8784 38.132 11.9446 38.4646C12.0107 38.7972 12.174 39.1027 12.4138 39.3425C12.6536 39.5823 12.9591 39.7456 13.2917 39.8117C13.6243 39.8779 13.969 39.8439 14.2823 39.7142C14.5956 39.5844 14.8634 39.3646 15.0518 39.0827C15.2402 38.8007 15.3408 38.4692 15.3408 38.1301C15.3403 37.6755 15.1595 37.2397 14.8381 36.9182C14.5166 36.5968 14.0808 36.416 13.6262 36.4155Z" fill="#2F3A5A"/>
<path d="M29.4059 3.53687L26.4058 9.42702L20.4409 8.01935L29.4059 3.53687Z" fill="#84879C"/>
<path d="M26.4056 9.78626C26.3779 9.78621 26.3503 9.78295 26.3233 9.77656L20.3577 8.36889C20.2858 8.35197 20.2208 8.31332 20.1717 8.25817C20.1225 8.20303 20.0916 8.13408 20.083 8.06071C20.0744 7.98734 20.0887 7.91312 20.1238 7.84814C20.1589 7.78316 20.2132 7.73059 20.2793 7.69757L29.245 3.21545C29.3127 3.18168 29.3892 3.1701 29.4639 3.18238C29.5385 3.19466 29.6073 3.23015 29.6606 3.28382C29.7138 3.33749 29.7488 3.40659 29.7606 3.48129C29.7723 3.55599 29.7601 3.63249 29.7259 3.69989L26.7258 9.5904C26.6956 9.64939 26.6498 9.69889 26.5933 9.73346C26.5368 9.76802 26.4718 9.78629 26.4056 9.78626ZM21.4883 7.89739L26.2133 9.01145L28.5899 4.34568L21.4883 7.89739Z" fill="#2F3A5A"/>
<path d="M36.9855 20.697H9.01465C8.91934 20.697 8.82793 20.6592 8.76053 20.5918C8.69314 20.5244 8.65527 20.433 8.65527 20.3376C8.65527 20.2423 8.69314 20.1509 8.76053 20.0835C8.82793 20.0161 8.91934 19.9783 9.01465 19.9783H36.9852C37.0805 19.9783 37.1719 20.0161 37.2393 20.0835C37.3067 20.1509 37.3445 20.2423 37.3445 20.3376C37.3445 20.433 37.3067 20.5244 37.2393 20.5918C37.1719 20.6592 37.0805 20.697 36.9852 20.697H36.9855Z" fill="#C1CDD3"/>
<path d="M36.9855 25.1376H9.01465C8.91934 25.1376 8.82793 25.0997 8.76053 25.0323C8.69314 24.9649 8.65527 24.8735 8.65527 24.7782C8.65527 24.6829 8.69314 24.5915 8.76053 24.5241C8.82793 24.4567 8.91934 24.4188 9.01465 24.4188H36.9852C37.0805 24.4188 37.1719 24.4567 37.2393 24.5241C37.3067 24.5915 37.3445 24.6829 37.3445 24.7782C37.3445 24.8735 37.3067 24.9649 37.2393 25.0323C37.1719 25.0997 37.0805 25.1376 36.9852 25.1376H36.9855Z" fill="#C1CDD3"/>
<path d="M36.9855 29.5786H9.01465C8.91934 29.5786 8.82793 29.5408 8.76053 29.4734C8.69314 29.406 8.65527 29.3146 8.65527 29.2192C8.65527 29.1239 8.69314 29.0325 8.76053 28.9651C8.82793 28.8977 8.91934 28.8599 9.01465 28.8599H36.9852C37.0805 28.8599 37.1719 28.8977 37.2393 28.9651C37.3067 29.0325 37.3445 29.1239 37.3445 29.2192C37.3445 29.3146 37.3067 29.406 37.2393 29.4734C37.1719 29.5408 37.0805 29.5786 36.9852 29.5786H36.9855Z" fill="#C1CDD3"/>
<path d="M13.114 4.91919L13.6268 9.98925L4.75244 12.5052L13.114 4.91919Z" fill="#84879C"/>
<path d="M4.75262 12.8656C4.68002 12.8657 4.60911 12.8437 4.54924 12.8027C4.48936 12.7616 4.44332 12.7034 4.41717 12.6357C4.39103 12.5679 4.38602 12.4939 4.40279 12.4232C4.41956 12.3526 4.45732 12.2887 4.51112 12.24L12.8727 4.65283C12.922 4.60812 12.9827 4.57797 13.048 4.56572C13.1134 4.55347 13.1809 4.5596 13.243 4.58345C13.3051 4.60729 13.3594 4.6479 13.3998 4.70076C13.4402 4.75362 13.4651 4.81665 13.4718 4.88283L13.9846 9.95254C13.9931 10.0366 13.9718 10.1209 13.9244 10.1907C13.8769 10.2606 13.8064 10.3115 13.7251 10.3346L4.85109 12.8502C4.81914 12.8599 4.786 12.8651 4.75262 12.8656ZM12.8299 5.66375L6.12939 11.7411L13.2389 9.72541L12.8299 5.66375Z" fill="#2F3A5A"/>
</svg>
