<svg width="54" height="53" viewBox="0 0 54 53" fill="none" xmlns="http://www.w3.org/2000/svg">
<g filter="url(#filter0_d)">
<path d="M49.6407 20.5773C49.6407 17.4207 48.3868 14.3934 46.1548 12.1614C43.9228 9.92941 40.8955 8.67547 37.7389 8.67547C37.5179 8.67547 37.3027 8.69668 37.0849 8.70854C36.3582 6.61256 34.9966 4.79507 33.1892 3.50876C31.3819 2.22245 29.2186 1.53125 27.0003 1.53125C24.7819 1.53125 22.6187 2.22245 20.8113 3.50876C19.004 4.79507 17.6423 6.61256 16.9157 8.70854C16.6979 8.69668 16.4823 8.67547 16.2613 8.67547C13.4751 8.674 10.7768 9.65055 8.63701 11.4348C6.49717 13.2191 5.05154 15.6979 4.55222 18.439C4.05291 21.18 4.53159 24.0094 5.90479 26.4336C7.27799 28.8578 9.45858 30.7231 12.0663 31.7042V44.4699H41.9336V31.7042C44.197 30.8528 46.1471 29.3318 47.5241 27.3438C48.901 25.3559 49.6394 22.9955 49.6407 20.5773Z" fill="#F0F5F9"/>
<path d="M49.6407 20.5773C49.6407 17.4207 48.3868 14.3934 46.1548 12.1614C43.9228 9.92941 40.8955 8.67547 37.7389 8.67547C37.5179 8.67547 37.3027 8.69668 37.0849 8.70854C36.3582 6.61256 34.9966 4.79507 33.1892 3.50876C31.3819 2.22245 29.2186 1.53125 27.0003 1.53125C24.7819 1.53125 22.6187 2.22245 20.8113 3.50876C19.004 4.79507 17.6423 6.61256 16.9157 8.70854C16.6979 8.69668 16.4823 8.67547 16.2613 8.67547C13.4751 8.674 10.7768 9.65055 8.63701 11.4348C6.49717 13.2191 5.05154 15.6979 4.55222 18.439C4.05291 21.18 4.53159 24.0094 5.90479 26.4336C7.27799 28.8578 9.45858 30.7231 12.0663 31.7042V44.4699H41.9336V31.7042C44.197 30.8528 46.1471 29.3318 47.5241 27.3438C48.901 25.3559 49.6394 22.9955 49.6407 20.5773Z" fill="#D9E2E9"/>
<path d="M45.2439 20.5776C45.2439 14.0043 40.9932 8.67584 35.7496 8.67584C35.5735 8.67584 35.4017 8.69704 35.2278 8.7089C34.0692 4.53261 30.9095 1.53003 27.1832 1.53003C23.4568 1.53003 20.2976 4.53261 19.1386 8.7089C18.9646 8.69704 18.7929 8.67584 18.6168 8.67584C13.3735 8.67584 9.1228 14.0043 9.1228 20.5776C9.1228 25.6721 11.6808 30.0065 15.2706 31.7042V44.4699H39.0972V31.7046C42.6859 30.008 45.2439 25.6721 45.2439 20.5776Z" fill="#F0F5F9"/>
<g opacity="0.25">
<path opacity="0.25" d="M19.111 24.9506C19.0291 23.6012 19.0165 22.1281 19.0165 20.5778C19.0165 14.0048 21.7575 8.67526 25.1399 8.67526C25.2527 8.67526 25.3624 8.69682 25.4752 8.7076C26.0782 5.33307 26.1911 2.40417 27.9937 1.53088C25.588 1.53088 23.55 4.53166 22.8054 8.7076C22.6926 8.69682 22.583 8.67526 22.4669 8.67526C19.0887 8.67526 16.3467 14.0048 16.3467 20.5778C16.344 22.0461 16.4885 23.5111 16.778 24.9506H19.111Z" fill="white"/>
</g>
<path d="M41.9337 44.8295H12.0661C11.9708 44.8295 11.8794 44.7916 11.812 44.7242C11.7446 44.6568 11.7067 44.5654 11.7067 44.4701V31.9484C9.06263 30.8903 6.86964 28.9443 5.50458 26.4448C4.13952 23.9453 3.68764 21.0484 4.22657 18.2519C4.76551 15.4554 6.26161 12.934 8.4578 11.1208C10.654 9.30764 13.4131 8.316 16.2611 8.31629C16.3984 8.31629 16.5338 8.32383 16.6693 8.33282C17.4578 6.22976 18.8694 4.41745 20.7154 3.13808C22.5614 1.85871 24.7539 1.17322 26.9999 1.17322C29.2459 1.17322 31.4384 1.85871 33.2844 3.13808C35.1304 4.41745 36.542 6.22976 37.3305 8.33282C37.466 8.32383 37.6015 8.31629 37.7388 8.31629C40.5867 8.316 43.3458 9.30764 45.542 11.1208C47.7382 12.934 49.2343 15.4554 49.7732 18.2519C50.3122 21.0484 49.8603 23.9453 48.4952 26.4448C47.1302 28.9443 44.9372 30.8903 42.2931 31.9484V44.4683C42.2933 44.5157 42.2842 44.5626 42.2663 44.6064C42.2483 44.6502 42.2219 44.69 42.1885 44.7236C42.1551 44.7572 42.1154 44.7838 42.0717 44.802C42.028 44.8201 41.9811 44.8295 41.9337 44.8295ZM12.4258 44.1108H41.5744V31.7044C41.5743 31.6314 41.5966 31.56 41.6381 31.4999C41.6797 31.4398 41.7385 31.3938 41.8069 31.368C44.3358 30.4166 46.4505 28.6076 47.7822 26.2567C49.1139 23.9057 49.5781 21.1618 49.0939 18.5036C48.6097 15.8454 47.2077 13.4415 45.1326 11.7111C43.0574 9.98072 40.4407 9.03364 37.7388 9.03504C37.595 9.03504 37.4512 9.0451 37.3075 9.0548L37.1041 9.06774C37.0259 9.07361 36.948 9.05308 36.8828 9.00943C36.8177 8.96577 36.769 8.90152 36.7447 8.82696C36.0426 6.80147 34.7268 5.04509 32.9803 3.80202C31.2337 2.55896 29.1433 1.89099 26.9996 1.89099C24.8558 1.89099 22.7654 2.55896 21.0188 3.80202C19.2723 5.04509 17.9565 6.80147 17.2544 8.82696C17.2292 8.90097 17.1804 8.96465 17.1154 9.00816C17.0505 9.05168 16.973 9.07261 16.895 9.06774L16.6916 9.0548C16.5479 9.0451 16.4059 9.03504 16.2604 9.03504C13.5585 9.03398 10.942 9.9813 8.86713 11.7118C6.79223 13.4423 5.39056 15.8462 4.90653 18.5043C4.4225 21.1625 4.88683 23.9061 6.21855 26.257C7.55027 28.6078 9.66489 30.4166 12.1937 31.368C12.262 31.3938 12.3209 31.4398 12.3624 31.4999C12.404 31.56 12.4262 31.6314 12.4262 31.7044L12.4258 44.1108Z" fill="#2F3A5A"/>
<g opacity="0.5">
<path opacity="0.5" d="M17.2847 31.697C16.5998 35.0137 16.5998 40.3914 17.2847 43.7081C17.9697 40.391 17.9697 35.0133 17.2847 31.697Z" fill="#D9E2E9"/>
<path opacity="0.5" d="M22.1377 31.697C21.4528 35.0137 21.4528 40.3914 22.1377 43.7081C22.8227 40.391 22.8227 35.0133 22.1377 31.697Z" fill="#D9E2E9"/>
<path opacity="0.5" d="M26.9908 31.697C26.3058 35.0137 26.3058 40.3914 26.9908 43.7081C27.6757 40.391 27.6757 35.0133 26.9908 31.697Z" fill="#D9E2E9"/>
<path opacity="0.5" d="M31.8438 31.697C31.1588 35.0137 31.1588 40.3914 31.8438 43.7081C32.5288 40.391 32.5288 35.0133 31.8438 31.697Z" fill="#D9E2E9"/>
<path opacity="0.5" d="M36.6968 31.697C36.0119 35.0137 36.0119 40.3914 36.6968 43.7081C37.3818 40.391 37.3818 35.0133 36.6968 31.697Z" fill="#D9E2E9"/>
</g>
</g>
<defs>
<filter id="filter0_d" x="0" y="0" width="54" height="54" filterUnits="userSpaceOnUse" color-interpolation-filters="sRGB">
<feFlood flood-opacity="0" result="BackgroundImageFix"/>
<feColorMatrix in="SourceAlpha" type="matrix" values="0 0 0 0 0 0 0 0 0 0 0 0 0 0 0 0 0 0 127 0"/>
<feOffset dy="4"/>
<feGaussianBlur stdDeviation="2"/>
<feColorMatrix type="matrix" values="0 0 0 0 0 0 0 0 0 0 0 0 0 0 0 0 0 0 0.25 0"/>
<feBlend mode="normal" in2="BackgroundImageFix" result="effect1_dropShadow"/>
<feBlend mode="normal" in="SourceGraphic" in2="effect1_dropShadow" result="shape"/>
</filter>
</defs>
</svg>
