<svg width="70" height="90" viewBox="0 0 70 70" fill="none" xmlns="http://www.w3.org/2000/svg">
<path d="M0 35C0 15.67 15.67 0 35 0V0C54.33 0 70 15.67 70 35V35C70 54.33 54.33 70 35 70V70C15.67 70 0 54.33 0 35V35Z" fill="#0F1014"/>
<path d="M35 69.5C15.9462 69.5 0.5 54.0538 0.5 35C0.5 15.9462 15.9462 0.5 35 0.5C54.0538 0.5 69.5 15.9462 69.5 35C69.5 54.0538 54.0538 69.5 35 69.5Z" stroke="white" stroke-opacity="0.1"/>
<path d="M21.167 38.4379L16.562 46.2079C16.3641 46.5507 16.2601 46.9397 16.2606 47.3355C16.261 47.7313 16.3659 48.1201 16.5646 48.4624C16.7633 48.8048 17.0489 49.0886 17.3924 49.2854C17.7359 49.4821 18.1252 49.5847 18.521 49.5829H32.917M43.333 49.5829L51.521 49.6879C51.9158 49.6884 52.3036 49.5841 52.6448 49.3857C52.9861 49.1873 53.2686 48.9019 53.4634 48.5586C53.6583 48.2153 53.7585 47.8264 53.7539 47.4317C53.7492 47.0369 53.6399 46.6505 53.437 46.3119L46.396 34.0829M41.438 25.2699L37.083 17.3749C36.8854 17.0333 36.6014 16.7498 36.2596 16.5526C35.9178 16.3555 35.5301 16.2517 35.1355 16.2517C34.7409 16.2517 34.3533 16.3555 34.0114 16.5526C33.6696 16.7498 33.3856 17.0333 33.188 17.3749L25.979 29.8749" stroke="#475569" stroke-width="2" stroke-linecap="round" stroke-linejoin="round"/>
<path d="M29.375 45.417L32.917 49.583L28.75 53.75M44.417 39L46.25 33.854L51.938 35.375M31.292 28.875L25.917 29.855L24.396 24.167" stroke="white" stroke-width="2" stroke-linecap="round" stroke-linejoin="round"/>
</svg>
