<svg viewBox="0 0 46 46" fill="none" xmlns="http://www.w3.org/2000/svg">
<path d="M0.359375 27.5659H29.4918V32.1881H0.359375V27.5659Z" fill="#D9E2E9"/>
<path d="M29.4918 32.5475H0.359375C0.264063 32.5475 0.172654 32.5097 0.105259 32.4423C0.0378626 32.3749 0 32.2835 0 32.1881V27.5662C0 27.4709 0.0378626 27.3795 0.105259 27.3121C0.172654 27.2447 0.264063 27.2068 0.359375 27.2068H29.4918C29.5871 27.2068 29.6785 27.2447 29.7459 27.3121C29.8133 27.3795 29.8511 27.4709 29.8511 27.5662V32.1881C29.8511 32.2835 29.8133 32.3749 29.7459 32.4423C29.6785 32.5097 29.5871 32.5475 29.4918 32.5475ZM0.71875 31.8288H29.1324V27.9256H0.71875V31.8288Z" fill="#2F3A5A"/>
<path d="M28.0474 10.0984H1.80406C1.42097 10.0984 1.05356 10.2506 0.782641 10.5215C0.51172 10.7923 0.35947 11.1597 0.359375 11.5428V27.5659H29.4918V11.5428C29.4918 11.1597 29.3396 10.7923 29.0687 10.5215C28.7979 10.2506 28.4305 10.0984 28.0474 10.0984Z" fill="#9297AB"/>
<path d="M29.4918 27.9256H0.359375C0.264063 27.9256 0.172654 27.8877 0.105259 27.8203C0.0378626 27.753 0 27.6615 0 27.5662V11.5428C0.000570819 11.0645 0.190836 10.606 0.52905 10.2679C0.867264 9.92972 1.3258 9.73955 1.80406 9.73907H28.0474C28.5257 9.73955 28.9843 9.92977 29.3226 10.268C29.6608 10.6062 29.851 11.0648 29.8515 11.5431V27.5662C29.8515 27.6135 29.8422 27.6602 29.8241 27.7038C29.806 27.7475 29.7795 27.7871 29.7461 27.8205C29.7127 27.8538 29.673 27.8803 29.6294 27.8984C29.5857 27.9164 29.539 27.9257 29.4918 27.9256ZM0.71875 27.2069H29.1324V11.5428C29.1321 11.255 29.0177 10.9791 28.8142 10.7757C28.6107 10.5722 28.3348 10.4578 28.0471 10.4575H1.80406C1.51631 10.4578 1.24042 10.5722 1.03695 10.7757C0.833472 10.9791 0.719035 11.255 0.71875 11.5428V27.2069Z" fill="#2F3A5A"/>
<path d="M39.1424 16.0339C38.9372 15.7339 38.6619 15.4885 38.3405 15.3189C38.0191 15.1493 37.6611 15.0607 37.2977 15.0607H29.4917V32.1881H45.6406V25.5321L39.1424 16.0339Z" fill="#F0F5F9"/>
<path d="M45.6406 32.5475H29.4917C29.3964 32.5475 29.305 32.5096 29.2376 32.4422C29.1702 32.3748 29.1323 32.2834 29.1323 32.1881V15.061C29.1323 14.9657 29.1702 14.8743 29.2376 14.8069C29.305 14.7395 29.3964 14.7017 29.4917 14.7017H37.2973C37.7192 14.7016 38.1347 14.8045 38.5079 15.0014C38.881 15.1983 39.2004 15.4832 39.4385 15.8315L45.9367 25.3294C45.9776 25.3891 45.9995 25.4598 45.9996 25.5321V32.1881C45.9996 32.2834 45.9618 32.3747 45.8945 32.4421C45.8271 32.5095 45.7358 32.5474 45.6406 32.5475ZM29.8511 31.8287H45.2812V25.6432L38.8459 16.2369C38.6737 15.9852 38.4427 15.7792 38.1729 15.6369C37.9031 15.4947 37.6027 15.4203 37.2977 15.4204H29.8511V31.8287Z" fill="#2F3A5A"/>
<path d="M39.8811 17.1138H34.148C34.0034 17.1138 33.8602 17.1423 33.7266 17.1976C33.593 17.2529 33.4716 17.334 33.3694 17.4363C33.2671 17.5385 33.186 17.6599 33.1307 17.7935C33.0754 17.9271 33.0469 18.0703 33.0469 18.2149V24.0511C33.0469 24.1964 33.0756 24.3402 33.1314 24.4743C33.1872 24.6084 33.269 24.7301 33.3721 24.8324C33.4751 24.9348 33.5974 25.0157 33.7318 25.0706C33.8663 25.1255 34.0103 25.1533 34.1555 25.1523L45.3274 25.0746L39.8811 17.1138Z" fill="#81DAFC"/>
<path d="M39.8824 17.1127H37.5464C37.9543 17.7098 38.1922 18.4066 38.2345 19.1285C38.2768 19.8504 38.122 20.5703 37.7866 21.2109C37.4512 21.8516 36.9479 22.389 36.3305 22.7655C35.7131 23.1421 35.005 23.3436 34.2818 23.3486L33.0488 23.3572V24.0497C33.0486 24.1949 33.0771 24.3387 33.1326 24.4729C33.1882 24.607 33.2698 24.7288 33.3726 24.8313C33.4755 24.9338 33.5976 25.0149 33.7319 25.07C33.8663 25.1251 34.0102 25.1531 34.1553 25.1523L45.3273 25.0725L39.8824 17.1127Z" fill="#5FC4F8"/>
<path d="M34.1476 25.5117C33.7604 25.5116 33.389 25.3576 33.1151 25.0838C32.8413 24.8099 32.6875 24.4384 32.6875 24.0512V18.2149C32.688 17.8277 32.842 17.4565 33.1158 17.1827C33.3896 16.9089 33.7608 16.7549 34.148 16.7544H39.8811C39.9395 16.7544 39.9971 16.7687 40.0487 16.796C40.1004 16.8233 40.1446 16.8628 40.1776 16.9111L45.6239 24.8716C45.6607 24.9254 45.6821 24.9882 45.6859 25.0532C45.6897 25.1183 45.6758 25.1831 45.6456 25.2409C45.6154 25.2986 45.5701 25.347 45.5145 25.381C45.4589 25.415 45.3951 25.4332 45.3299 25.4337L34.1584 25.5113L34.1476 25.5117ZM34.1476 17.4731C33.951 17.4733 33.7624 17.5515 33.6234 17.6906C33.4843 17.8297 33.4061 18.0182 33.4059 18.2149V24.0512C33.4059 24.149 33.4252 24.2459 33.4629 24.3363C33.5005 24.4266 33.5556 24.5086 33.625 24.5776C33.6945 24.6465 33.7769 24.701 33.8675 24.738C33.9581 24.775 34.0552 24.7936 34.153 24.7929L44.6493 24.721L39.6899 17.4742L34.1476 17.4731Z" fill="#2F3A5A"/>
<path d="M37.9854 35.9016C39.7513 35.9016 41.1828 34.47 41.1828 32.7042C41.1828 30.9383 39.7513 29.5068 37.9854 29.5068C36.2196 29.5068 34.7881 30.9383 34.7881 32.7042C34.7881 34.47 36.2196 35.9016 37.9854 35.9016Z" fill="#9297AB"/>
<path d="M37.9855 36.2609C37.2819 36.2609 36.594 36.0523 36.0089 35.6613C35.4239 35.2704 34.9678 34.7148 34.6986 34.0647C34.4293 33.4145 34.3588 32.6992 34.4961 32.009C34.6334 31.3189 34.9722 30.685 35.4698 30.1874C35.9674 29.6898 36.6013 29.351 37.2915 29.2137C37.9816 29.0764 38.697 29.1469 39.3471 29.4161C39.9972 29.6854 40.5528 30.1414 40.9438 30.7265C41.3347 31.3116 41.5434 31.9995 41.5434 32.7031C41.5425 33.6465 41.1674 34.5509 40.5004 35.2179C39.8333 35.885 38.9289 36.2601 37.9855 36.2609ZM37.9855 29.8659C37.424 29.8659 36.8751 30.0324 36.4083 30.3443C35.9414 30.6563 35.5775 31.0997 35.3626 31.6185C35.1477 32.1372 35.0915 32.7081 35.201 33.2588C35.3106 33.8095 35.581 34.3154 35.978 34.7124C36.3751 35.1095 36.8809 35.3799 37.4317 35.4894C37.9824 35.599 38.5532 35.5428 39.072 35.3279C39.5908 35.113 40.0342 34.7491 40.3461 34.2822C40.6581 33.8153 40.8246 33.2664 40.8246 32.7049C40.8239 31.9522 40.5246 31.2304 39.9923 30.6982C39.4601 30.1659 38.7383 29.8665 37.9855 29.8659Z" fill="#2F3A5A"/>
<path d="M37.9859 34.1021C38.7579 34.1021 39.3838 33.4763 39.3838 32.7042C39.3838 31.9321 38.7579 31.3062 37.9859 31.3062C37.2138 31.3062 36.5879 31.9321 36.5879 32.7042C36.5879 33.4763 37.2138 34.1021 37.9859 34.1021Z" fill="#D9E2E9"/>
<path d="M13.5763 35.9016C15.3421 35.9016 16.7736 34.47 16.7736 32.7042C16.7736 30.9383 15.3421 29.5068 13.5763 29.5068C11.8104 29.5068 10.3789 30.9383 10.3789 32.7042C10.3789 34.47 11.8104 35.9016 13.5763 35.9016Z" fill="#9297AB"/>
<path d="M13.5764 36.2609C12.8727 36.2609 12.1848 36.0523 11.5998 35.6613C11.0147 35.2704 10.5587 34.7148 10.2894 34.0647C10.0201 33.4145 9.94964 32.6992 10.0869 32.009C10.2242 31.3189 10.563 30.685 11.0606 30.1874C11.5582 29.6898 12.1921 29.351 12.8823 29.2137C13.5724 29.0764 14.2878 29.1469 14.9379 29.4161C15.588 29.6854 16.1436 30.1414 16.5346 30.7265C16.9255 31.3116 17.1342 31.9995 17.1342 32.7031C17.1333 33.6465 16.7582 34.5509 16.0912 35.2179C15.4241 35.885 14.5197 36.2601 13.5764 36.2609ZM13.5764 29.8659C13.0149 29.8659 12.466 30.0324 11.9991 30.3443C11.5322 30.6563 11.1683 31.0997 10.9534 31.6185C10.7385 32.1372 10.6823 32.7081 10.7919 33.2588C10.9014 33.8095 11.1718 34.3154 11.5688 34.7124C11.9659 35.1095 12.4718 35.3799 13.0225 35.4894C13.5732 35.599 14.1441 35.5428 14.6628 35.3279C15.1816 35.113 15.625 34.7491 15.937 34.2822C16.2489 33.8153 16.4154 33.2664 16.4154 32.7049C16.4148 31.9522 16.1154 31.2304 15.5832 30.6982C15.0509 30.1659 14.3291 29.8665 13.5764 29.8659Z" fill="#2F3A5A"/>
<path d="M13.5762 34.1021C14.3483 34.1021 14.9742 33.4763 14.9742 32.7042C14.9742 31.9321 14.3483 31.3062 13.5762 31.3062C12.8041 31.3062 12.1782 31.9321 12.1782 32.7042C12.1782 33.4763 12.8041 34.1021 13.5762 34.1021Z" fill="#D9E2E9"/>
<path d="M4.03467 23.984C3.93936 23.984 3.84795 23.9461 3.78055 23.8787C3.71316 23.8113 3.67529 23.7199 3.67529 23.6246V13.2584C3.67529 13.1631 3.71316 13.0717 3.78055 13.0043C3.84795 12.9369 3.93936 12.899 4.03467 12.899C4.12998 12.899 4.22139 12.9369 4.28878 13.0043C4.35618 13.0717 4.39404 13.1631 4.39404 13.2584V23.6246C4.39404 23.7199 4.35618 23.8113 4.28878 23.8787C4.22139 23.9461 4.12998 23.984 4.03467 23.984Z" fill="#84879C"/>
<path d="M7.43115 23.984C7.33584 23.984 7.24443 23.9461 7.17704 23.8787C7.10964 23.8113 7.07178 23.7199 7.07178 23.6246V13.2584C7.07178 13.1631 7.10964 13.0717 7.17704 13.0043C7.24443 12.9369 7.33584 12.899 7.43115 12.899C7.52646 12.899 7.61787 12.9369 7.68527 13.0043C7.75266 13.0717 7.79053 13.1631 7.79053 13.2584V23.6246C7.79053 23.7199 7.75266 23.8113 7.68527 23.8787C7.61787 23.9461 7.52646 23.984 7.43115 23.984Z" fill="#84879C"/>
<path d="M10.8281 23.984C10.7328 23.984 10.6414 23.9461 10.574 23.8787C10.5066 23.8113 10.4688 23.7199 10.4688 23.6246V13.2584C10.4688 13.1631 10.5066 13.0717 10.574 13.0043C10.6414 12.9369 10.7328 12.899 10.8281 12.899C10.9234 12.899 11.0148 12.9369 11.0822 13.0043C11.1496 13.0717 11.1875 13.1631 11.1875 13.2584V23.6246C11.1875 23.7199 11.1496 23.8113 11.0822 23.8787C11.0148 23.9461 10.9234 23.984 10.8281 23.984Z" fill="#84879C"/>
<path d="M14.2246 23.984C14.1293 23.984 14.0379 23.9461 13.9705 23.8787C13.9031 23.8113 13.8652 23.7199 13.8652 23.6246V13.2584C13.8652 13.1631 13.9031 13.0717 13.9705 13.0043C14.0379 12.9369 14.1293 12.899 14.2246 12.899C14.3199 12.899 14.4113 12.9369 14.4787 13.0043C14.5461 13.0717 14.584 13.1631 14.584 13.2584V23.6246C14.584 23.7199 14.5461 23.8113 14.4787 23.8787C14.4113 23.9461 14.3199 23.984 14.2246 23.984Z" fill="#84879C"/>
<path d="M17.6206 23.984C17.5253 23.984 17.4339 23.9461 17.3665 23.8787C17.2991 23.8113 17.2612 23.7199 17.2612 23.6246V13.2584C17.2612 13.1631 17.2991 13.0717 17.3665 13.0043C17.4339 12.9369 17.5253 12.899 17.6206 12.899C17.7159 12.899 17.8073 12.9369 17.8747 13.0043C17.9421 13.0717 17.98 13.1631 17.98 13.2584V23.6246C17.98 23.7199 17.9421 23.8113 17.8747 23.8787C17.8073 23.9461 17.7159 23.984 17.6206 23.984Z" fill="#84879C"/>
<path d="M21.0176 23.984C20.9223 23.984 20.8309 23.9461 20.7635 23.8787C20.6961 23.8113 20.6582 23.7199 20.6582 23.6246V13.2584C20.6582 13.1631 20.6961 13.0717 20.7635 13.0043C20.8309 12.9369 20.9223 12.899 21.0176 12.899C21.1129 12.899 21.2043 12.9369 21.2717 13.0043C21.3391 13.0717 21.377 13.1631 21.377 13.2584V23.6246C21.377 23.7199 21.3391 23.8113 21.2717 23.8787C21.2043 23.9461 21.1129 23.984 21.0176 23.984Z" fill="#84879C"/>
<path d="M24.4141 23.984C24.3188 23.984 24.2273 23.9461 24.1599 23.8787C24.0925 23.8113 24.0547 23.7199 24.0547 23.6246V13.2584C24.0547 13.1631 24.0925 13.0717 24.1599 13.0043C24.2273 12.9369 24.3188 12.899 24.4141 12.899C24.5094 12.899 24.6008 12.9369 24.6682 13.0043C24.7356 13.0717 24.7734 13.1631 24.7734 13.2584V23.6246C24.7734 23.7199 24.7356 23.8113 24.6682 23.8787C24.6008 23.9461 24.5094 23.984 24.4141 23.984Z" fill="#84879C"/>
</svg>
