<svg viewBox="0 0 28 28" fill="none" xmlns="http://www.w3.org/2000/svg">
<g clip-path="url(#clip0)">
<path d="M4.17669 24.7287H20.8122L20.0177 22.1562L21.9182 23.7872L23.66 25.3482L26.8333 28V2.8875C26.754 1.3265 25.41 0 23.744 0L4.18252 0.0035C2.51769 0.0035 1.16669 1.33233 1.16669 2.89333V21.84C1.16669 23.4862 2.51535 24.7287 4.17669 24.7287ZM16.4827 6.63017L16.4442 6.64417L16.4582 6.63017H16.4827ZM7.57985 8.11067C9.71835 6.55433 11.7005 6.629 11.7005 6.629L11.8603 6.7865C9.24352 7.41067 8.05702 8.57967 8.05702 8.57967C8.05702 8.57967 8.37435 8.4245 8.92852 8.18767C12.453 6.80167 16.3018 6.902 19.8648 8.65667C19.8648 8.65667 18.676 7.5635 16.2202 6.8635L16.4372 6.65C16.7767 6.65117 18.5733 6.71417 20.496 8.12C20.496 8.12 22.6473 11.795 22.6473 16.31C22.5762 16.2237 21.3127 18.2537 18.0612 18.3237C18.0612 18.3237 17.5105 17.7007 17.1185 17.157C19.0202 16.611 19.7318 15.519 19.7318 15.519C19.1077 15.9122 18.5383 16.1455 18.0763 16.3788C17.3658 16.6915 16.6542 16.8455 15.9437 17.003C12.579 17.549 10.6902 16.6355 8.90518 15.911L8.29502 15.6007C8.29502 15.6007 9.00552 16.6927 10.8313 17.2387C10.3518 17.7858 9.87702 18.4077 9.87702 18.4077C6.62668 18.3307 5.44135 16.3007 5.44135 16.3007C5.44135 11.7787 7.57985 8.11067 7.57985 8.11067Z" fill="#F2F2F2"/>
<path d="M16.6927 14.8995C17.5222 14.8995 18.1977 14.1995 18.1977 13.3362C18.1977 12.4787 17.5257 11.7787 16.6927 11.7787V11.7822C15.8667 11.7822 15.19 12.4799 15.1877 13.3432C15.1877 14.1995 15.8632 14.8995 16.6927 14.8995Z" fill="#F2F2F2"/>
<path d="M11.305 14.8995C12.1345 14.8995 12.81 14.1995 12.81 13.3362C12.81 12.4787 12.1391 11.7787 11.3097 11.7787L11.305 11.7822C10.4755 11.7822 9.79999 12.4799 9.79999 13.3432C9.79999 14.1995 10.4755 14.8995 11.305 14.8995Z" fill="#F2F2F2"/>
</g>
<defs>
<clipPath id="clip0">
<rect width="28" height="28" fill="white"/>
</clipPath>
</defs>
</svg>
