<svg viewBox="0 0 38 46" fill="none" xmlns="http://www.w3.org/2000/svg">
<path d="M5.98895 41.2083L2.37256 39.4315L16.4565 10.2338L20.4948 12.2179L5.98895 41.2083Z" fill="#FFC943"/>
<path d="M20.4949 12.2189L5.9869 41.2096L2.37158 39.4307L2.40752 39.3553L4.18283 40.2285L18.6513 11.3132L20.4949 12.2189Z" fill="#F7B521"/>
<path d="M5.98869 41.5674C5.93392 41.5678 5.87981 41.5555 5.83056 41.5315L2.21417 39.7547C2.12901 39.7129 2.06384 39.6391 2.03287 39.5495C2.0019 39.4598 2.00765 39.3615 2.04886 39.2761L16.1328 10.0783C16.1534 10.0356 16.1822 9.99734 16.2177 9.96582C16.2531 9.93431 16.2944 9.91012 16.3393 9.89465C16.3841 9.87918 16.4315 9.87274 16.4789 9.8757C16.5262 9.87866 16.5725 9.89095 16.615 9.91188L20.6533 11.8953C20.6959 11.9162 20.7339 11.9453 20.7652 11.9809C20.7965 12.0166 20.8204 12.058 20.8356 12.103C20.8507 12.1479 20.8569 12.1954 20.8536 12.2427C20.8503 12.29 20.8377 12.3362 20.8165 12.3786L6.31033 41.3687C6.28047 41.4284 6.23457 41.4787 6.17775 41.5138C6.12094 41.5489 6.05547 41.5675 5.98869 41.5674ZM2.85134 39.2674L5.82733 40.7297L20.0111 12.3804L16.6226 10.7158L2.85134 39.2674Z" fill="#2F3A5A"/>
<path d="M3.4502 39.9792L4.91018 40.6962L2.69456 45.2078C2.59949 45.4014 2.43139 45.5494 2.22726 45.619C2.02313 45.6887 1.79969 45.6744 1.60608 45.5793C1.41248 45.4843 1.26457 45.3162 1.1949 45.112C1.12523 44.9079 1.13951 44.6845 1.23458 44.4909L3.4502 39.9792Z" fill="#D9E2E9"/>
<path d="M1.96105 45.9998C1.76206 45.9995 1.56641 45.9486 1.39253 45.8519C1.21864 45.7551 1.07224 45.6157 0.967094 45.4468C0.861953 45.2778 0.801534 45.0849 0.791524 44.8862C0.781514 44.6874 0.822243 44.4894 0.909877 44.3107L3.12542 39.8017C3.16743 39.7161 3.24167 39.6508 3.33184 39.62C3.42201 39.5892 3.52072 39.5955 3.60627 39.6374L5.06533 40.3544C5.15086 40.3964 5.2162 40.4706 5.247 40.5608C5.2778 40.651 5.27153 40.7497 5.22956 40.8352L3.01402 45.3447C2.91701 45.5412 2.76701 45.7066 2.58096 45.8224C2.3949 45.9382 2.18018 45.9996 1.96105 45.9998ZM3.61202 40.4403L1.55496 44.627C1.50414 44.7347 1.4977 44.858 1.53701 44.9703C1.57632 45.0827 1.65824 45.1751 1.76508 45.2276C1.87193 45.2801 1.99513 45.2885 2.1081 45.251C2.22108 45.2134 2.31476 45.133 2.36894 45.027L4.426 40.8403L3.61202 40.4403Z" fill="#2F3A5A"/>
<path d="M32.0112 41.2083L35.6276 39.4315L21.5437 10.2338L17.5054 12.2179L32.0112 41.2083Z" fill="#FFC943"/>
<path d="M35.6282 39.4308L32.0129 41.2097L17.5049 12.2189L19.1868 11.3923L33.6732 40.3436L35.6102 39.3912L35.6282 39.4308Z" fill="#F7B521"/>
<path d="M32.0118 41.5677C31.9447 41.568 31.8789 41.5496 31.8217 41.5145C31.7645 41.4794 31.7183 41.4289 31.6884 41.3689L17.1844 12.3785C17.1632 12.3361 17.1506 12.29 17.1473 12.2427C17.1441 12.1955 17.1502 12.148 17.1653 12.1031C17.1804 12.0583 17.2043 12.0168 17.2355 11.9812C17.2667 11.9455 17.3047 11.9164 17.3471 11.8955L21.3854 9.91139C21.428 9.89047 21.4743 9.87817 21.5216 9.87521C21.5689 9.87225 21.6164 9.87869 21.6612 9.89416C21.7061 9.90963 21.7474 9.93382 21.7828 9.96533C21.8183 9.99685 21.8471 10.0351 21.8677 10.0778L35.9516 39.2756C35.9928 39.361 35.9986 39.4593 35.9676 39.549C35.9366 39.6386 35.8715 39.7124 35.7863 39.7543L32.1699 41.531C32.1207 41.5552 32.0666 41.5678 32.0118 41.5677ZM17.9894 12.3807L32.1735 40.7282L35.1495 39.2659L21.3775 10.716L17.9894 12.3807Z" fill="#2F3A5A"/>
<path d="M36.3769 45.5388C36.2811 45.5859 36.1769 45.6136 36.0703 45.6204C35.9637 45.6272 35.8568 45.613 35.7558 45.5785C35.6547 45.544 35.5614 45.4899 35.4812 45.4194C35.401 45.3488 35.3355 45.2632 35.2885 45.1673L33.0728 40.6557L34.5328 39.9387L36.7484 44.4503C36.8435 44.6439 36.8578 44.8674 36.7881 45.0715C36.7185 45.2756 36.5706 45.4437 36.3769 45.5388Z" fill="#D9E2E9"/>
<path d="M36.0391 46.0002C35.8199 45.9999 35.6052 45.9383 35.4191 45.8224C35.233 45.7065 35.0831 45.5409 34.9862 45.3443L32.7706 40.8349C32.7287 40.7493 32.7224 40.6506 32.7532 40.5604C32.784 40.4703 32.8493 40.396 32.9348 40.354L34.3939 39.6371C34.4795 39.5951 34.5782 39.5888 34.6683 39.6196C34.7585 39.6504 34.8327 39.7158 34.8748 39.8013L37.0903 44.3104C37.1777 44.4891 37.2183 44.687 37.2082 44.8857C37.1981 45.0843 37.1376 45.2772 37.0325 45.4461C36.9274 45.6149 36.7811 45.7543 36.6073 45.8511C36.4336 45.9479 36.238 45.999 36.0391 45.9994V46.0002ZM33.5742 40.8406L35.6312 45.0273C35.6854 45.1333 35.7791 45.2138 35.8921 45.2513C36.005 45.2889 36.1282 45.2805 36.2351 45.228C36.3419 45.1755 36.4239 45.0831 36.4632 44.9707C36.5025 44.8583 36.496 44.735 36.4452 44.6274L34.3882 40.4406L33.5742 40.8406Z" fill="#2F3A5A"/>
<path d="M23.3526 9.22986H14.6478C14.4476 9.22986 14.2495 9.26928 14.0646 9.34588C13.8797 9.42248 13.7117 9.53475 13.5702 9.67628C13.4287 9.81781 13.3165 9.98583 13.2399 10.1707C13.1634 10.3557 13.124 10.5538 13.124 10.754V14.6453C13.1244 16.2035 13.7437 17.6978 14.8456 18.7995C15.9475 19.9013 17.4419 20.5202 19.0002 20.5203C20.5585 20.5203 22.053 19.9014 23.155 18.7997C24.257 17.6979 24.8763 16.2036 24.8767 14.6453V10.7536C24.8766 10.3495 24.716 9.96188 24.4301 9.67613C24.1443 9.39038 23.7567 9.22986 23.3526 9.22986Z" fill="#D9E2E9"/>
<path d="M24.8759 10.7523V14.6443C24.8752 15.6381 24.6226 16.6156 24.1417 17.4853C23.6608 18.355 22.9673 19.0887 22.126 19.6177C21.2847 20.1468 20.323 20.454 19.3308 20.5106C18.3386 20.5672 17.3482 20.3714 16.4521 19.9415C16.7129 19.9777 16.9759 19.9957 17.2392 19.9954C18.011 19.9957 18.7754 19.8439 19.4886 19.5488C20.2018 19.2536 20.8499 18.8209 21.3959 18.2753C21.9418 17.7296 22.375 17.0818 22.6706 16.3688C22.9661 15.6557 23.1184 14.8915 23.1186 14.1196V10.2276C23.1172 9.86063 22.9846 9.50628 22.7448 9.22852H23.3521C23.7562 9.22871 24.1437 9.3893 24.4294 9.67502C24.7151 9.96074 24.8757 10.3482 24.8759 10.7523Z" fill="#C8CBD2"/>
<path d="M19 20.8797C17.347 20.8779 15.7621 20.2205 14.5931 19.0518C13.4241 17.883 12.7663 16.2983 12.7642 14.6453V10.7536C12.7646 10.2543 12.9632 9.77554 13.3162 9.42243C13.6693 9.06932 14.148 8.87069 14.6473 8.87012H23.3524C23.8518 8.87069 24.3305 9.06932 24.6835 9.42243C25.0365 9.77554 25.2351 10.2543 25.2356 10.7536V14.6453C25.2334 16.2983 24.5757 17.8829 23.4067 19.0517C22.2378 20.2204 20.653 20.8778 19 20.8797ZM14.6476 9.58923C14.3389 9.58961 14.0429 9.71245 13.8246 9.93081C13.6063 10.1492 13.4836 10.4452 13.4833 10.754V14.6453C13.4715 15.3772 13.6054 16.1041 13.8773 16.7838C14.1493 17.4634 14.5537 18.0821 15.0671 18.6039C15.5805 19.1257 16.1927 19.5401 16.8678 19.8229C17.543 20.1058 18.2677 20.2515 18.9997 20.2515C19.7317 20.2515 20.4564 20.1058 21.1315 19.8229C21.8067 19.5401 22.4188 19.1257 22.9322 18.6039C23.4457 18.0821 23.8501 17.4634 24.122 16.7838C24.3939 16.1041 24.5279 15.3772 24.5161 14.6453V10.7536C24.5158 10.4448 24.393 10.1488 24.1748 9.93045C23.9565 9.71209 23.6605 9.58925 23.3517 9.58887L14.6476 9.58923Z" fill="#2F3A5A"/>
<path d="M19 15.6319C19.8255 15.6319 20.4947 14.9627 20.4947 14.1372C20.4947 13.3118 19.8255 12.6426 19 12.6426C18.1745 12.6426 17.5054 13.3118 17.5054 14.1372C17.5054 14.9627 18.1745 15.6319 19 15.6319Z" fill="#9297AB"/>
<path d="M19.0003 15.9923C18.6337 15.9923 18.2753 15.8835 17.9705 15.6798C17.6657 15.476 17.4282 15.1865 17.288 14.8478C17.1477 14.5091 17.1111 14.1364 17.1826 13.7768C17.2542 13.4173 17.4308 13.087 17.69 12.8278C17.9493 12.5686 18.2796 12.3921 18.6391 12.3206C18.9987 12.2491 19.3714 12.2859 19.7101 12.4262C20.0488 12.5665 20.3383 12.8041 20.5419 13.1089C20.7456 13.4137 20.8543 13.7721 20.8543 14.1387C20.8537 14.6302 20.6582 15.1014 20.3106 15.4489C19.963 15.7964 19.4918 15.9919 19.0003 15.9923ZM19.0003 13.0034C18.7758 13.0035 18.5565 13.0701 18.3699 13.1948C18.1833 13.3196 18.0379 13.4968 17.952 13.7042C17.8662 13.9116 17.8437 14.1397 17.8875 14.3598C17.9314 14.5799 18.0394 14.7821 18.1981 14.9408C18.3568 15.0995 18.559 15.2076 18.7791 15.2514C18.9993 15.2952 19.2274 15.2728 19.4348 15.1869C19.6421 15.1011 19.8194 14.9557 19.9441 14.7691C20.0689 14.5825 20.1355 14.3631 20.1355 14.1387C20.1356 13.8374 20.0161 13.5485 19.8032 13.3353C19.5903 13.1222 19.3015 13.0023 19.0003 13.002V13.0034Z" fill="#2F3A5A"/>
<path d="M19.0002 0.359375C19.2314 0.359375 19.4604 0.404923 19.6741 0.493418C19.8877 0.581914 20.0818 0.711623 20.2454 0.875142C20.4089 1.03866 20.5386 1.23278 20.6271 1.44643C20.7156 1.66008 20.7611 1.88906 20.7611 2.12031V9.22983H17.2393V2.12031C17.2393 1.88906 17.2848 1.66008 17.3733 1.44643C17.4618 1.23278 17.5915 1.03866 17.755 0.875142C17.9185 0.711623 18.1127 0.581914 18.3263 0.493418C18.54 0.404923 18.7689 0.359375 19.0002 0.359375Z" fill="#E1E6E9"/>
<path d="M20.7609 2.12031V9.22875H19.4456V2.12031C19.447 1.76852 19.3425 1.42445 19.1457 1.13283C18.949 0.841216 18.669 0.615542 18.3423 0.485156C18.5519 0.403131 18.7749 0.360489 18.9999 0.359375C19.467 0.359375 19.9149 0.544902 20.2451 0.875142C20.5754 1.20538 20.7609 1.65328 20.7609 2.12031Z" fill="#C8CBD2"/>
<path d="M20.7611 9.5892H17.2393C17.1439 9.5892 17.0525 9.55134 16.9851 9.48394C16.9177 9.41655 16.8799 9.32514 16.8799 9.22983V2.12031C16.8799 1.55797 17.1033 1.01866 17.5009 0.621025C17.8985 0.223389 18.4379 0 19.0002 0C19.5625 0 20.1018 0.223389 20.4995 0.621025C20.8971 1.01866 21.1205 1.55797 21.1205 2.12031V9.22983C21.1205 9.32514 21.0826 9.41655 21.0153 9.48394C20.9479 9.55134 20.8564 9.5892 20.7611 9.5892ZM17.6015 8.87045H20.4018V2.12031C20.4103 1.93111 20.3805 1.74213 20.314 1.56479C20.2475 1.38744 20.1457 1.22542 20.0149 1.08849C19.884 0.951569 19.7268 0.842589 19.5526 0.768132C19.3785 0.693675 19.191 0.655288 19.0016 0.655288C18.8122 0.655288 18.6248 0.693675 18.4507 0.768132C18.2765 0.842589 18.1192 0.951569 17.9884 1.08849C17.8575 1.22542 17.7558 1.38744 17.6893 1.56479C17.6228 1.74213 17.5929 1.93111 17.6015 2.12031V8.87045Z" fill="#2F3A5A"/>
</svg>
