<svg width="13" height="15" viewBox="0 0 13 15" fill="none" xmlns="http://www.w3.org/2000/svg">
<path fill-rule="evenodd" clip-rule="evenodd" d="M3.53208 0.416687H9.46863C11.6567 0.416687 12.875 1.67752 12.875 3.83794V11.155C12.875 13.3509 11.6567 14.5834 9.46863 14.5834H3.53208C1.37875 14.5834 0.125 13.3509 0.125 11.155V3.83794C0.125 1.67752 1.37875 0.416687 3.53208 0.416687ZM3.72332 3.71756V3.71048H5.84052C6.14582 3.71048 6.39373 3.95839 6.39373 4.26227C6.39373 4.57464 6.14582 4.82256 5.84052 4.82256H3.72332C3.41802 4.82256 3.17082 4.57464 3.17082 4.27006C3.17082 3.96548 3.41802 3.71756 3.72332 3.71756ZM3.72332 8.0243H9.27665C9.58123 8.0243 9.82915 7.77639 9.82915 7.4718C9.82915 7.16722 9.58123 6.91859 9.27665 6.91859H3.72332C3.41802 6.91859 3.17082 7.16722 3.17082 7.4718C3.17082 7.77639 3.41802 8.0243 3.72332 8.0243ZM3.72332 11.2613H9.27666C9.55928 11.233 9.77249 10.9914 9.77249 10.7088C9.77249 10.4184 9.55928 10.1776 9.27666 10.1492H3.72332C3.51082 10.128 3.30541 10.2271 3.19207 10.4113C3.07874 10.5884 3.07874 10.8221 3.19207 11.0063C3.30541 11.1834 3.51082 11.2896 3.72332 11.2613Z" fill="#27AE60"/>
</svg>
