<svg width="16" height="17" viewBox="0 0 16 17" fill="none" xmlns="http://www.w3.org/2000/svg">
<path fill-rule="evenodd" clip-rule="evenodd" d="M9.41417 7.98875H11.2594C11.5392 7.98875 11.759 7.75743 11.759 7.47849C11.759 7.19275 11.5392 6.96824 11.2594 6.96824H9.41417C9.13439 6.96824 8.91456 7.19275 8.91456 7.47849C8.91456 7.75743 9.13439 7.98875 9.41417 7.98875ZM13.451 4.45166C13.8574 4.45166 14.1238 4.59454 14.3903 4.90749C14.6568 5.22045 14.7034 5.66947 14.6434 6.077L14.0106 10.54C13.8907 11.3979 13.1712 12.03 12.3252 12.03H5.05757C4.1716 12.03 3.43883 11.3367 3.36556 10.4387L2.7527 3.02227L1.74682 2.84538C1.48036 2.79776 1.29384 2.53243 1.34047 2.26029C1.3871 1.98203 1.6469 1.79766 1.92002 1.83916L3.50878 2.0834C3.73527 2.1249 3.90181 2.31472 3.92179 2.54603L4.04836 4.06999C4.06834 4.28838 4.24154 4.45166 4.45471 4.45166H13.451ZM4.95085 13.1052C4.39129 13.1052 3.93831 13.5679 3.93831 14.1394C3.93831 14.704 4.39129 15.1667 4.95085 15.1667C5.50376 15.1667 5.95674 14.704 5.95674 14.1394C5.95674 13.5679 5.50376 13.1052 4.95085 13.1052ZM12.445 13.1052C11.8854 13.1052 11.4325 13.5679 11.4325 14.1394C11.4325 14.704 11.8854 15.1667 12.445 15.1667C12.9979 15.1667 13.4509 14.704 13.4509 14.1394C13.4509 13.5679 12.9979 13.1052 12.445 13.1052Z" fill="#F2F2F2"/>
</svg>
