<svg width="46" height="36" viewBox="0 0 46 36" fill="none" xmlns="http://www.w3.org/2000/svg">
<path d="M1.47595 4.87157H14.5267V7.10438H1.47595C1.17982 7.10438 0.895812 6.98674 0.686413 6.77734C0.477014 6.56794 0.359375 6.28393 0.359375 5.9878C0.359375 5.69166 0.477014 5.40765 0.686413 5.19825C0.895812 4.98886 1.17982 4.87122 1.47595 4.87122V4.87157Z" fill="#84879C"/>
<path d="M14.5268 7.46388H1.47577C1.08437 7.46388 0.709005 7.3084 0.432244 7.03164C0.155483 6.75488 0 6.37951 0 5.98811C0 5.59671 0.155483 5.22134 0.432244 4.94457C0.709005 4.66781 1.08437 4.51233 1.47577 4.51233H14.5268C14.6221 4.51233 14.7136 4.55019 14.781 4.61759C14.8483 4.68498 14.8862 4.77639 14.8862 4.8717V7.10451C14.8862 7.19982 14.8483 7.29123 14.781 7.35862C14.7136 7.42602 14.6221 7.46388 14.5268 7.46388ZM1.47577 5.23108C1.275 5.23108 1.08245 5.31084 0.940477 5.45281C0.798508 5.59478 0.71875 5.78733 0.71875 5.98811C0.71875 6.18888 0.798508 6.38143 0.940477 6.5234C1.08245 6.66537 1.275 6.74513 1.47577 6.74513H14.1675V5.23108H1.47577Z" fill="#2F3A5A"/>
<path d="M29.1279 16.579V19.1392H32.9664V23.6008H34.948V18.9609L31.8412 16.579H29.1279Z" fill="#84879C"/>
<path d="M34.948 23.9602H32.9661C32.8707 23.9602 32.7793 23.9223 32.7119 23.8549C32.6445 23.7875 32.6067 23.6961 32.6067 23.6008V19.4982H29.1279C29.0326 19.4982 28.9412 19.4603 28.8738 19.3929C28.8064 19.3255 28.7686 19.2341 28.7686 19.1388V16.579C28.7686 16.4837 28.8064 16.3923 28.8738 16.3249C28.9412 16.2575 29.0326 16.2196 29.1279 16.2196H31.8408C31.9199 16.2197 31.9967 16.2458 32.0594 16.294L35.1661 18.6756C35.2099 18.7091 35.2454 18.7522 35.2698 18.8016C35.2942 18.8511 35.307 18.9054 35.307 18.9606V23.6008C35.307 23.696 35.2692 23.7874 35.2019 23.8548C35.1346 23.9222 35.0433 23.9601 34.948 23.9602ZM33.3254 23.2414H34.5886V19.1381L31.7197 16.9384H29.4877V18.7794H32.9664C33.0617 18.7794 33.1531 18.8173 33.2205 18.8847C33.2879 18.9521 33.3258 19.0435 33.3258 19.1388L33.3254 23.2414Z" fill="#2F3A5A"/>
<path d="M41.6791 10.2619C41.6791 10.2619 40.6437 8.50098 41.99 6.32676C43.3362 4.15254 40.4367 3.32346 38.5727 3.11646L37.7443 1.87374C30.5015 0.661573 23.0311 0.678104 15.4422 1.33468C15.0609 1.36883 14.7064 1.54496 14.4489 1.82818C14.1914 2.1114 14.0496 2.48103 14.0518 2.86382L14.082 10.5965C14.0829 10.8263 14.1356 11.0529 14.2361 11.2595L16.4071 15.7197C16.5326 15.9775 16.728 16.1948 16.9711 16.3468C17.2142 16.4988 17.4951 16.5794 17.7817 16.5794H31.8408L34.9476 18.9613V23.6206L37.2261 26.313V30.7574C37.2261 31.0288 37.1182 31.289 36.9264 31.4809L35.8687 32.5385C35.7451 32.661 35.6549 32.813 35.6066 32.9802C35.5583 33.1474 35.5536 33.3241 35.5929 33.4937C35.6322 33.6632 35.7142 33.8198 35.8311 33.9487C35.948 34.0776 36.0959 34.1745 36.2608 34.2301L37.2541 34.593C38.4139 35.0167 39.6519 35.1831 40.8823 35.0808C42.1128 34.9785 43.3063 34.6098 44.3802 34.0004C44.5089 33.9278 44.6203 33.828 44.7065 33.708C44.7928 33.588 44.8519 33.4506 44.8797 33.3054C45.3724 30.7193 47.4284 17.9583 41.6791 10.2619Z" fill="#8AE0A1"/>
<path d="M44.9185 33.0936C44.9041 33.169 44.8897 33.2409 44.879 33.3056C44.852 33.4509 44.7932 33.5884 44.7069 33.7083C44.6205 33.8283 44.5087 33.9276 44.3794 33.9992C43.3056 34.6087 42.112 34.9774 40.8815 35.0798C39.6509 35.1822 38.4129 35.0158 37.253 34.5922L36.2612 34.2292C36.0279 34.1504 35.8312 33.9894 35.7077 33.7764C35.595 33.5806 35.5498 33.3532 35.579 33.1291C35.6082 32.9051 35.7103 32.6969 35.8694 32.5365L36.926 31.48C37.0217 31.3856 37.0976 31.2731 37.1494 31.1491C37.2013 31.0251 37.2279 30.892 37.2279 30.7576V26.3125L34.9494 23.6208V18.9597L31.8408 16.5807H17.7821C17.4949 16.5804 17.2135 16.4993 16.9702 16.3468C16.7268 16.1943 16.5312 15.9765 16.4057 15.7182L14.2351 11.2583C14.1354 11.052 14.0826 10.8262 14.0805 10.5971L14.0518 2.86331C14.05 2.48075 14.1919 2.11147 14.4495 1.8286C14.7071 1.54574 15.0615 1.36992 15.4426 1.33596C15.518 1.32877 15.5935 1.32159 15.669 1.31799C15.6629 1.35963 15.6605 1.40172 15.6618 1.44377L15.6941 9.17393C15.6949 9.40436 15.7477 9.63163 15.8486 9.83878L18.0193 14.2983C18.1448 14.5555 18.34 14.7724 18.5827 14.9242C18.8254 15.0761 19.1058 15.1568 19.3921 15.1572H33.4544L36.5594 17.5398V22.2009L38.8379 24.8926V29.3345C38.8379 29.6076 38.4925 31.8225 38.4925 31.8225C37.552 33.5356 42.9922 33.8558 44.9185 33.0936Z" fill="#6FC682"/>
<path d="M40.1783 35.4701C39.1386 35.4703 38.107 35.2878 37.1305 34.931L36.1371 34.5681C35.9155 34.4917 35.7169 34.3602 35.5602 34.1858C35.4035 34.0115 35.2938 33.8001 35.2415 33.5716C35.1892 33.343 35.196 33.105 35.2612 32.8798C35.3264 32.6546 35.4479 32.4498 35.6143 32.2846L36.6719 31.2273C36.7336 31.1658 36.7825 31.0926 36.8158 31.012C36.8491 30.9315 36.8662 30.8451 36.866 30.758V26.4455L34.6738 23.8537C34.6189 23.7887 34.5889 23.7065 34.589 23.6215V19.1379L31.7201 16.9382H17.7817C17.4279 16.9369 17.0815 16.8368 16.7815 16.6492C16.4815 16.4616 16.24 16.1939 16.084 15.8763L13.9127 11.4164C13.7892 11.1611 13.7243 10.8814 13.7226 10.5978L13.6924 2.86545C13.692 2.39317 13.868 1.93778 14.1859 1.58852C14.5038 1.23925 14.9407 1.02127 15.4109 0.977291C23.9047 0.24201 31.2288 0.419541 37.8032 1.51923C37.8517 1.52735 37.8979 1.54532 37.9391 1.57202C37.9804 1.59872 38.0157 1.63359 38.0429 1.67448L38.7793 2.7792C39.8215 2.91145 41.9238 3.32904 42.5304 4.57607C42.8125 5.15574 42.7335 5.80873 42.2958 6.5167C41.1382 8.38545 41.8954 9.90668 41.9817 10.0666C47.8122 17.897 45.7131 30.8529 45.2329 33.3724C45.1954 33.5688 45.1156 33.7547 44.999 33.9171C44.8824 34.0795 44.7318 34.2146 44.5577 34.3129C43.2227 35.0713 41.7137 35.47 40.1783 35.4701ZM35.3074 23.4893L37.4995 26.0811C37.5544 26.146 37.5844 26.2283 37.5844 26.3132V30.7576C37.5849 30.9392 37.5494 31.119 37.48 31.2868C37.4106 31.4546 37.3087 31.607 37.1801 31.7351L36.1221 32.7928C36.0412 32.8726 35.9822 32.9719 35.9509 33.0812C35.9196 33.1904 35.9169 33.3059 35.9432 33.4164C35.9695 33.527 36.0238 33.6289 36.101 33.7124C36.1782 33.7958 36.2755 33.8579 36.3837 33.8928L37.3766 34.2554C38.4875 34.6623 39.6737 34.8222 40.8526 34.7241C42.0316 34.626 43.175 34.2722 44.2033 33.6872C44.2866 33.6402 44.3587 33.5756 44.4146 33.4979C44.4704 33.4202 44.5087 33.3313 44.5268 33.2373C44.9975 30.7677 47.0589 18.0641 41.3916 10.4774C41.3835 10.4668 41.376 10.4558 41.3693 10.4443C41.3226 10.3649 40.2401 8.4699 41.6841 6.13792C41.9885 5.64665 42.0535 5.23948 41.8843 4.89053C41.489 4.07654 39.8933 3.62517 38.5327 3.47423C38.4806 3.46846 38.4303 3.45135 38.3855 3.4241C38.3407 3.39684 38.3024 3.3601 38.2733 3.31646L37.5315 2.2024C31.057 1.13506 23.8393 0.968666 15.4731 1.69281C15.1821 1.72039 14.912 1.85562 14.7155 2.07201C14.5191 2.28839 14.4105 2.57032 14.4111 2.86257L14.441 10.5945C14.4421 10.7703 14.4823 10.9437 14.5588 11.102L16.7302 15.5622C16.8267 15.7589 16.9763 15.9247 17.162 16.0409C17.3477 16.1571 17.5623 16.2191 17.7814 16.2198H31.8408C31.9199 16.2199 31.9966 16.2461 32.0593 16.2942L35.1661 18.6758C35.2099 18.7093 35.2454 18.7524 35.2698 18.8019C35.2942 18.8513 35.3069 18.9057 35.307 18.9608L35.3074 23.4893Z" fill="#2F3A5A"/>
<path d="M15.4433 1.33532C15.0618 1.36938 14.7071 1.5455 14.4493 1.82879C14.1916 2.11208 14.0497 2.48185 14.0518 2.86482L14.082 10.5964C14.0829 10.8262 14.1356 11.0528 14.2361 11.2595L16.4071 15.7197C16.5326 15.9774 16.728 16.1947 16.9711 16.3467C17.2142 16.4987 17.4951 16.5793 17.7817 16.5793H20.6075V0.994995C18.8928 1.07094 17.1714 1.18439 15.4433 1.33532Z" fill="#D9E2E9"/>
<path d="M20.6068 15.1574V16.5805H17.7821C17.4949 16.5802 17.2135 16.4992 16.9702 16.3467C16.7268 16.1942 16.5312 15.9763 16.4057 15.718L14.2351 11.2581C14.1354 11.0518 14.0826 10.826 14.0805 10.5969L14.0518 2.86674C14.0504 2.58821 14.125 2.31457 14.2674 2.07523C14.4099 1.83589 14.6149 1.63989 14.8604 1.5083L14.8891 9.17377C14.8895 9.40309 14.9423 9.62929 15.0437 9.83502L17.2143 14.2949C17.3394 14.5535 17.5349 14.7716 17.7784 14.9241C18.0218 15.0767 18.3034 15.1575 18.5907 15.1574H20.6068Z" fill="#C1CDD3"/>
<path d="M20.6075 16.9381H17.7817C17.4279 16.9368 17.0815 16.8367 16.7815 16.6491C16.4815 16.4615 16.24 16.1938 16.084 15.8762L13.9127 11.4163C13.7892 11.161 13.7243 10.8813 13.7226 10.5977L13.6924 2.86642C13.692 2.3939 13.8682 1.93829 14.1863 1.58887C14.5044 1.23946 14.9415 1.02144 15.412 0.97755C17.1729 0.825535 18.917 0.710894 20.5913 0.636503C20.6397 0.634628 20.688 0.642435 20.7334 0.659467C20.7787 0.676499 20.8202 0.702413 20.8554 0.735691C20.8905 0.769249 20.9185 0.809575 20.9376 0.854233C20.9567 0.898891 20.9665 0.946954 20.9665 0.995519V16.5787C20.9665 16.674 20.9287 16.7653 20.8614 16.8327C20.794 16.9001 20.7027 16.938 20.6075 16.9381ZM20.2481 1.37178C18.6992 1.44582 17.0957 1.55363 15.4742 1.69522C15.1833 1.72261 14.9131 1.85755 14.7165 2.07364C14.5199 2.28973 14.411 2.5714 14.4111 2.86355L14.441 10.5944C14.4421 10.7702 14.4823 10.9436 14.5588 11.1019L16.7302 15.5621C16.8267 15.7588 16.9763 15.9246 17.162 16.0408C17.3477 16.157 17.5623 16.219 17.7813 16.2197H20.2477L20.2481 1.37178Z" fill="#2F3A5A"/>
<path d="M6.99854 1.98999H12.4096V9.98537H6.99854V1.98999Z" fill="#9297AB"/>
<path d="M12.4093 1.98999V9.98608H6.99707V8.41921H10.7454V1.98999H12.4093Z" fill="#84879C"/>
<path d="M12.4093 10.3452H6.99853C6.90322 10.3452 6.81181 10.3074 6.74442 10.24C6.67702 10.1726 6.63916 10.0812 6.63916 9.98585V1.99048C6.63916 1.89517 6.67702 1.80376 6.74442 1.73636C6.81181 1.66897 6.90322 1.6311 6.99853 1.6311H12.4093C12.5046 1.6311 12.596 1.66897 12.6634 1.73636C12.7308 1.80376 12.7687 1.89517 12.7687 1.99048V9.98585C12.7687 10.0812 12.7308 10.1726 12.6634 10.24C12.596 10.3074 12.5046 10.3452 12.4093 10.3452ZM7.35755 9.62648H12.0499V2.34985H7.35791L7.35755 9.62648Z" fill="#2F3A5A"/>
<path d="M32.0378 4.55371H24.2041C24.1088 4.55371 24.0174 4.51585 23.95 4.44845C23.8826 4.38106 23.8447 4.28965 23.8447 4.19434C23.8447 4.09902 23.8826 4.00762 23.95 3.94022C24.0174 3.87282 24.1088 3.83496 24.2041 3.83496H32.0385C32.1338 3.83496 32.2252 3.87282 32.2926 3.94022C32.36 4.00762 32.3979 4.09902 32.3979 4.19434C32.3979 4.28965 32.36 4.38106 32.2926 4.44845C32.2252 4.51585 32.1338 4.55371 32.0385 4.55371H32.0378Z" fill="#2F3A5A"/>
<path d="M32.0378 6.27759H24.2041C24.1088 6.27759 24.0174 6.23972 23.95 6.17233C23.8826 6.10493 23.8447 6.01353 23.8447 5.91821C23.8447 5.8229 23.8826 5.73149 23.95 5.6641C24.0174 5.5967 24.1088 5.55884 24.2041 5.55884H32.0385C32.1338 5.55884 32.2252 5.5967 32.2926 5.6641C32.36 5.73149 32.3979 5.8229 32.3979 5.91821C32.3979 6.01353 32.36 6.10493 32.2926 6.17233C32.2252 6.23972 32.1338 6.27759 32.0385 6.27759H32.0378Z" fill="#2F3A5A"/>
<path d="M32.0378 8.0011H24.2041C24.1088 8.0011 24.0174 7.96324 23.95 7.89584C23.8826 7.82844 23.8447 7.73704 23.8447 7.64172C23.8447 7.54641 23.8826 7.455 23.95 7.38761C24.0174 7.32021 24.1088 7.28235 24.2041 7.28235H32.0385C32.1338 7.28235 32.2252 7.32021 32.2926 7.38761C32.36 7.455 32.3979 7.54641 32.3979 7.64172C32.3979 7.73704 32.36 7.82844 32.2926 7.89584C32.2252 7.96324 32.1338 8.0011 32.0385 8.0011H32.0378Z" fill="#2F3A5A"/>
<path d="M32.0378 9.72461H24.2041C24.1088 9.72461 24.0174 9.68675 23.95 9.61935C23.8826 9.55196 23.8447 9.46055 23.8447 9.36523C23.8447 9.26992 23.8826 9.17851 23.95 9.11112C24.0174 9.04372 24.1088 9.00586 24.2041 9.00586H32.0385C32.1338 9.00586 32.2252 9.04372 32.2926 9.11112C32.36 9.17851 32.3979 9.26992 32.3979 9.36523C32.3979 9.46055 32.36 9.55196 32.2926 9.61935C32.2252 9.68675 32.1338 9.72461 32.0385 9.72461H32.0378Z" fill="#2F3A5A"/>
<path d="M5.82375 4.8717L4.20117 7.10451L5.82375 4.8717Z" fill="#84879C"/>
<path d="M4.20086 7.46381C4.1346 7.46375 4.06965 7.44538 4.01318 7.41072C3.95671 7.37606 3.91092 7.32646 3.88087 7.26741C3.85083 7.20836 3.83769 7.14214 3.84292 7.07609C3.84814 7.01004 3.87153 6.94672 3.91049 6.89313L5.5345 4.66033C5.56175 4.62091 5.5966 4.58732 5.63702 4.56157C5.67743 4.53581 5.72259 4.5184 5.76983 4.51035C5.81708 4.5023 5.86545 4.50379 5.91212 4.51472C5.95878 4.52565 6.00278 4.5458 6.04154 4.57398C6.0803 4.60217 6.11303 4.63783 6.1378 4.67885C6.16258 4.71988 6.17889 4.76544 6.1858 4.81287C6.1927 4.86029 6.19004 4.90862 6.17799 4.955C6.16594 5.00139 6.14473 5.04489 6.11561 5.08296L4.49232 7.31575C4.4589 7.36171 4.41506 7.3991 4.3644 7.42484C4.31374 7.45058 4.25769 7.46393 4.20086 7.46381Z" fill="#2F3A5A"/>
<path d="M3.41896 4.8717L1.79639 7.10451L3.41896 4.8717Z" fill="#84879C"/>
<path d="M1.79705 7.46382C1.7308 7.46377 1.66584 7.44539 1.60937 7.41073C1.5529 7.37607 1.50711 7.32648 1.47707 7.26742C1.44702 7.20837 1.43388 7.14216 1.43911 7.0761C1.44433 7.01005 1.46772 6.94673 1.50668 6.89314L3.12674 4.66033C3.15399 4.62091 3.18884 4.58732 3.22925 4.56157C3.26967 4.53581 3.31483 4.5184 3.36207 4.51035C3.40932 4.5023 3.45769 4.50379 3.50435 4.51472C3.55102 4.52565 3.59502 4.5458 3.63378 4.57398C3.67254 4.60217 3.70527 4.63783 3.73004 4.67885C3.75481 4.71988 3.77113 4.76544 3.77803 4.81287C3.78494 4.86029 3.78228 4.90862 3.77023 4.955C3.75818 5.00139 3.73697 5.04489 3.70785 5.08296L2.08707 7.31576C2.0538 7.36153 2.01019 7.3988 1.95979 7.42452C1.9094 7.45025 1.85364 7.46372 1.79705 7.46382Z" fill="#2F3A5A"/>
</svg>
