<svg width="46" height="46" viewBox="0 0 46 46" fill="none" xmlns="http://www.w3.org/2000/svg">
<path d="M35.8606 13.6514H42.1601V43.4949H35.8606V13.6514Z" fill="#D9E2E9"/>
<path d="M42.1601 43.8543H35.8606C35.7653 43.8543 35.6739 43.8165 35.6065 43.7491C35.5391 43.6817 35.5012 43.5903 35.5012 43.4949V13.6514C35.5012 13.5561 35.5391 13.4646 35.6065 13.3973C35.6739 13.3299 35.7653 13.292 35.8606 13.292H42.1601C42.2554 13.292 42.3468 13.3299 42.4142 13.3973C42.4816 13.4646 42.5195 13.5561 42.5195 13.6514V43.4949C42.5195 43.5903 42.4816 43.6817 42.4142 43.7491C42.3468 43.8165 42.2554 43.8543 42.1601 43.8543ZM36.22 43.1356H41.8007V14.0107H36.22V43.1356Z" fill="#2F3A5A"/>
<path d="M30.4779 27.3361H27.7219V28.4548L26.4299 30.2797L27.0757 31.2489L28.643 29.1602H30.4779V27.3361Z" fill="#84879C"/>
<path d="M27.0758 31.6081H27.0657C27.0085 31.6063 26.9526 31.5908 26.9026 31.563C26.8526 31.5352 26.8099 31.4958 26.7782 31.4482L26.1313 30.4779C26.0911 30.4175 26.0701 30.3462 26.0711 30.2736C26.0721 30.201 26.0951 30.1304 26.1371 30.0711L27.3629 28.3396V27.3334C27.3629 27.2381 27.4008 27.1467 27.4682 27.0793C27.5355 27.0119 27.627 26.974 27.7223 26.974H30.4783C30.5736 26.974 30.665 27.0119 30.7324 27.0793C30.7998 27.1467 30.8377 27.2381 30.8377 27.3334V29.1579C30.8377 29.2532 30.7998 29.3446 30.7324 29.412C30.665 29.4794 30.5736 29.5173 30.4783 29.5173H28.822L27.3622 31.4622C27.329 31.5071 27.2859 31.5437 27.2362 31.569C27.1865 31.5943 27.1315 31.6077 27.0758 31.6081ZM26.8659 30.2853L27.0934 30.6267L28.3548 28.9448C28.3882 28.9002 28.4317 28.864 28.4816 28.839C28.5315 28.8141 28.5865 28.8011 28.6423 28.8011H30.1175V27.6949H28.0813V28.4546C28.0813 28.529 28.0582 28.6016 28.0152 28.6623L26.8659 30.2853Z" fill="#2F3A5A"/>
<path d="M0.359375 27.3361H3.11578V28.4548L4.40737 30.2797L3.76158 31.2489L2.19434 29.1602H0.359375V27.3361Z" fill="#84879C"/>
<path d="M3.76158 31.6083C3.70579 31.6083 3.65076 31.5953 3.60086 31.5704C3.55096 31.5454 3.50755 31.5092 3.47408 31.4646L2.01466 29.52H0.359375C0.264063 29.52 0.172654 29.4821 0.105259 29.4147C0.0378626 29.3473 0 29.2559 0 29.1606V27.3357C0 27.2404 0.0378626 27.149 0.105259 27.0816C0.172654 27.0142 0.264063 26.9763 0.359375 26.9763H3.11578C3.21109 26.9763 3.3025 27.0142 3.3699 27.0816C3.43729 27.149 3.47516 27.2404 3.47516 27.3357V28.3419L4.70062 30.0731C4.74256 30.1321 4.76568 30.2024 4.76697 30.2748C4.76825 30.3472 4.74763 30.4183 4.70781 30.4788L4.06094 31.4491C4.02921 31.4967 3.98657 31.5361 3.93656 31.5639C3.88656 31.5917 3.83063 31.6072 3.77344 31.609L3.76158 31.6083ZM0.71875 28.8012H2.19434C2.25013 28.8012 2.30516 28.8142 2.35506 28.8392C2.40496 28.8641 2.44837 28.9003 2.48184 28.945L3.74397 30.6272L3.97145 30.2858L2.82145 28.6625C2.77844 28.6018 2.75533 28.5292 2.75533 28.4548V27.6951H0.71875V28.8012Z" fill="#2F3A5A"/>
<path d="M24.127 22.3729H6.77065C6.47873 22.373 6.1964 22.4771 5.97436 22.6666C5.75231 22.8561 5.60511 23.1186 5.5592 23.4068L3.71704 30.0215L27.1982 30.8516L25.3385 23.4068C25.2926 23.1186 25.1454 22.8561 24.9233 22.6666C24.7013 22.4771 24.4189 22.373 24.127 22.3729Z" fill="#81DAFC"/>
<path d="M27.1983 31.2109H27.1857L3.70452 30.3804C3.65023 30.3785 3.59709 30.3643 3.54908 30.3388C3.50108 30.3134 3.45946 30.2774 3.42736 30.2336C3.39526 30.1898 3.37351 30.1392 3.36376 30.0858C3.354 30.0324 3.35648 29.9774 3.37102 29.9251L5.20779 23.3291C5.2702 22.9602 5.46158 22.6254 5.74782 22.3845C6.03406 22.1435 6.39655 22.012 6.77071 22.0134H24.1285C24.5064 22.012 24.8722 22.1461 25.1596 22.3914C25.4469 22.6367 25.6368 22.9769 25.6947 23.3503L27.548 30.7646C27.5612 30.8175 27.5622 30.8728 27.5508 30.9262C27.5395 30.9796 27.5161 31.0297 27.4825 31.0727C27.4489 31.1158 27.406 31.1506 27.3569 31.1745C27.3078 31.1984 27.254 31.2109 27.1994 31.2109H27.1983ZM4.18536 29.6782L26.734 30.4749L24.9899 23.4941C24.9626 23.2843 24.8601 23.0915 24.7015 22.9514C24.543 22.8113 24.339 22.7335 24.1274 22.7322H6.77071C6.56395 22.7312 6.36371 22.8044 6.20646 22.9387C6.0492 23.0729 5.9454 23.2592 5.91396 23.4635C5.91198 23.477 5.9091 23.4903 5.90533 23.5034L4.18536 29.6782Z" fill="#2F3A5A"/>
<path d="M27.9185 38.1365H24.7132C24.2867 38.1365 23.9409 38.4822 23.9409 38.9088V42.114C23.9409 42.5406 24.2867 42.8863 24.7132 42.8863H27.9185C28.345 42.8863 28.6908 42.5406 28.6908 42.114V38.9088C28.6908 38.4822 28.345 38.1365 27.9185 38.1365Z" fill="#9297AB"/>
<path d="M27.9188 43.2458H24.7132C24.4133 43.2455 24.1257 43.1262 23.9135 42.9141C23.7014 42.702 23.582 42.4145 23.5815 42.1145V38.9089C23.582 38.6089 23.7014 38.3214 23.9135 38.1093C24.1257 37.8973 24.4133 37.778 24.7132 37.7776H27.9188C28.2188 37.778 28.5063 37.8973 28.7184 38.1094C28.9305 38.3214 29.0498 38.609 29.0502 38.9089V42.1145C29.0498 42.4145 28.9305 42.702 28.7184 42.9141C28.5063 43.1261 28.2188 43.2455 27.9188 43.2458ZM24.7132 38.496C24.6038 38.4961 24.4989 38.5396 24.4215 38.6169C24.3441 38.6942 24.3005 38.7991 24.3003 38.9085V42.1142C24.3005 42.2236 24.3441 42.3285 24.4215 42.4058C24.4989 42.4831 24.6038 42.5266 24.7132 42.5267H27.9188C28.0282 42.5265 28.133 42.483 28.2104 42.4057C28.2877 42.3284 28.3312 42.2235 28.3314 42.1142V38.9085C28.3312 38.7992 28.2877 38.6944 28.2104 38.617C28.133 38.5397 28.0282 38.4962 27.9188 38.496H24.7132Z" fill="#2F3A5A"/>
<path d="M6.12405 38.1365H2.91878C2.49225 38.1365 2.14648 38.4822 2.14648 38.9088V42.114C2.14648 42.5406 2.49225 42.8863 2.91878 42.8863H6.12405C6.55057 42.8863 6.89634 42.5406 6.89634 42.114V38.9088C6.89634 38.4822 6.55057 38.1365 6.12405 38.1365Z" fill="#9297AB"/>
<path d="M6.12441 43.2458H2.91878C2.61882 43.2455 2.33125 43.1262 2.11912 42.9141C1.90698 42.702 1.78758 42.4145 1.78711 42.1145V38.9089C1.78758 38.6089 1.90698 38.3214 2.11912 38.1093C2.33125 37.8973 2.61882 37.778 2.91878 37.7776H6.12441C6.42433 37.778 6.71187 37.8973 6.92395 38.1094C7.13602 38.3214 7.25534 38.609 7.25572 38.9089V42.1145C7.25534 42.4145 7.13602 42.702 6.92395 42.9141C6.71187 43.1261 6.42433 43.2455 6.12441 43.2458ZM2.91878 38.496C2.80936 38.4961 2.70444 38.5396 2.62703 38.6169C2.54963 38.6942 2.50605 38.7991 2.50586 38.9085V42.1142C2.50605 42.2236 2.54963 42.3285 2.62703 42.4058C2.70444 42.4831 2.80936 42.5266 2.91878 42.5267H6.12441C6.23377 42.5265 6.33859 42.483 6.41592 42.4057C6.49325 42.3284 6.53678 42.2235 6.53697 42.1142V38.9085C6.53678 38.7992 6.49325 38.6944 6.41592 38.617C6.33859 38.5397 6.23377 38.4962 6.12441 38.496H2.91878Z" fill="#2F3A5A"/>
<path d="M26.3353 30.0492H4.50185L3.12149 30.6709C1.59522 31.358 0.61377 33.6843 0.61377 35.3579V37.7233C0.61377 38.2915 0.839506 38.8365 1.24132 39.2383C1.64313 39.6401 2.18811 39.8659 2.75636 39.8659H28.0808C28.649 39.8659 29.194 39.6401 29.5958 39.2383C29.9977 38.8365 30.2234 38.2915 30.2234 37.7233V35.3579C30.2234 33.6843 29.2419 31.358 27.7157 30.6706L26.3353 30.0492Z" fill="#81DAFC"/>
<path d="M30.2233 35.3593V37.724C30.223 38.2922 29.9972 38.837 29.5955 39.2387C29.1937 39.6405 28.6489 39.8663 28.0807 39.8666H2.75451C2.18616 39.8666 1.64107 39.6409 1.23909 39.2391C0.837102 38.8373 0.611126 38.2923 0.61084 37.724V36.7584H25.2604C25.8285 36.7581 26.3733 36.5322 26.7751 36.1305C27.1768 35.7287 27.4027 35.1839 27.403 34.6158V32.2511C27.3925 31.6142 27.2793 30.9831 27.0677 30.3823L27.7127 30.6698C29.2408 31.3584 30.2233 33.6832 30.2233 35.3593Z" fill="#5FC4F8"/>
<path d="M28.0812 40.2253H2.75636C2.09303 40.2245 1.45709 39.9607 0.988045 39.4916C0.518999 39.0226 0.255155 38.3866 0.254395 37.7233V35.3579C0.254395 33.5348 1.29407 31.0993 2.97378 30.3432L4.3545 29.7214C4.40083 29.7006 4.45105 29.6898 4.50185 29.6898H26.3353C26.3862 29.6898 26.4366 29.7006 26.483 29.7214L27.8634 30.3432C29.5431 31.0979 30.5824 33.5348 30.5824 35.3579V37.7233C30.5816 38.3865 30.3179 39.0223 29.849 39.4914C29.3801 39.9604 28.7444 40.2243 28.0812 40.2253ZM4.57804 30.4086L3.27027 30.9983C1.91722 31.6092 0.974582 33.7845 0.974582 35.3579V37.7233C0.975058 38.1961 1.16308 38.6494 1.4974 38.9837C1.83172 39.318 2.28501 39.506 2.7578 39.5065H28.0812C28.5539 39.5059 29.0071 39.3179 29.3413 38.9836C29.6756 38.6493 29.8635 38.196 29.864 37.7233V35.3579C29.864 33.7849 28.9214 31.6074 27.5683 30.9983L26.2581 30.4082L4.57804 30.4086Z" fill="#2F3A5A"/>
<path d="M6.16724 30.0492L7.17421 23.8367H23.7234L24.7379 30.0492H6.16724Z" fill="#D9E2E9"/>
<path d="M24.7372 30.0504H22.7804L21.9643 25.0364H6.9812L7.17454 23.8375H23.7241L24.7372 30.0504Z" fill="#C1CDD3"/>
<path d="M24.7379 30.4086H6.16719C6.11514 30.4086 6.06371 30.3972 6.01646 30.3754C5.96921 30.3536 5.92726 30.3217 5.89353 30.2821C5.8598 30.2424 5.83508 30.1959 5.82109 30.1458C5.8071 30.0956 5.80416 30.0431 5.81249 29.9917L6.81874 23.7792C6.8324 23.6949 6.87558 23.6183 6.94057 23.563C7.00556 23.5077 7.08811 23.4773 7.17344 23.4773H23.7227C23.808 23.4773 23.8905 23.5076 23.9554 23.5629C24.0204 23.6181 24.0636 23.6946 24.0774 23.7788L25.0919 29.9913C25.1003 30.0427 25.0974 30.0954 25.0834 30.1455C25.0694 30.1957 25.0447 30.2423 25.011 30.282C24.9773 30.3216 24.9353 30.3535 24.888 30.3754C24.8407 30.3972 24.7893 30.4086 24.7372 30.4086H24.7379ZM6.58946 29.6898H24.3149L23.4165 24.196H7.47963L6.58946 29.6898Z" fill="#2F3A5A"/>
<path d="M26.1269 37.6034C27.0461 37.6034 27.7912 36.8583 27.7912 35.9392C27.7912 35.02 27.0461 34.2749 26.1269 34.2749C25.2078 34.2749 24.4626 35.02 24.4626 35.9392C24.4626 36.8583 25.2078 37.6034 26.1269 37.6034Z" fill="#F0F5F9"/>
<path d="M26.1266 37.9628C25.7264 37.9627 25.3353 37.844 25.0026 37.6217C24.6699 37.3994 24.4105 37.0834 24.2574 36.7137C24.1042 36.3441 24.0641 35.9373 24.1421 35.5448C24.22 35.1523 24.4126 34.7918 24.6955 34.5087C24.9783 34.2257 25.3387 34.0329 25.7312 33.9546C26.1236 33.8763 26.5304 33.9162 26.9002 34.0691C27.27 34.222 27.5861 34.4811 27.8087 34.8136C28.0312 35.1462 28.1502 35.5372 28.1506 35.9374C28.1504 36.4742 27.9371 36.9891 27.5576 37.3689C27.1781 37.7486 26.6634 37.9622 26.1266 37.9628ZM26.1266 34.6343C25.8684 34.6343 25.6161 34.711 25.4015 34.8545C25.1869 34.998 25.0197 35.2019 24.9211 35.4405C24.8224 35.679 24.7967 35.9415 24.8473 36.1946C24.8978 36.4478 25.0223 36.6802 25.205 36.8626C25.3877 37.045 25.6203 37.1691 25.8736 37.2192C26.1268 37.2693 26.3892 37.2432 26.6276 37.1442C26.866 37.0451 27.0696 36.8776 27.2128 36.6628C27.3559 36.448 27.4322 36.1955 27.4318 35.9374C27.431 35.5917 27.2931 35.2604 27.0484 35.0161C26.8038 34.7719 26.4723 34.6346 26.1266 34.6343Z" fill="#2F3A5A"/>
<path d="M4.77828 37.6034C5.69743 37.6034 6.44254 36.8583 6.44254 35.9392C6.44254 35.02 5.69743 34.2749 4.77828 34.2749C3.85913 34.2749 3.11401 35.02 3.11401 35.9392C3.11401 36.8583 3.85913 37.6034 4.77828 37.6034Z" fill="#F0F5F9"/>
<path d="M4.77972 37.9628C4.37949 37.9631 3.98817 37.8447 3.65524 37.6226C3.3223 37.4005 3.0627 37.0846 2.90926 36.715C2.75583 36.3454 2.71544 35.9385 2.79322 35.5459C2.87099 35.1533 3.06343 34.7926 3.34621 34.5094C3.62898 34.2262 3.98939 34.0331 4.38186 33.9547C4.77433 33.8763 5.18123 33.9161 5.55112 34.0689C5.921 34.2218 6.23726 34.4809 6.4599 34.8134C6.68254 35.146 6.80156 35.5371 6.80192 35.9374C6.80173 36.4739 6.58872 36.9885 6.20962 37.3682C5.83051 37.7479 5.31628 37.9618 4.77972 37.9628ZM4.77972 34.6343C4.5215 34.634 4.269 34.7103 4.05418 34.8536C3.83936 34.9969 3.67189 35.2007 3.57296 35.4392C3.47403 35.6777 3.44809 35.9403 3.49842 36.1935C3.54875 36.4468 3.6731 36.6794 3.85571 36.862C4.03833 37.0446 4.271 37.1688 4.52428 37.2191C4.77756 37.2694 5.04006 37.2433 5.27855 37.1444C5.51704 37.0454 5.7208 36.8778 5.86403 36.663C6.00726 36.4481 6.08353 36.1956 6.08317 35.9374C6.08232 35.592 5.9447 35.261 5.70043 35.0168C5.45616 34.7726 5.12512 34.635 4.77972 34.6343Z" fill="#2F3A5A"/>
<path d="M11.2451 35.3606H19.5923V37.772H11.2451V35.3606Z" fill="#D9E2E9"/>
<path d="M19.5923 38.1296H11.2451C11.1498 38.1296 11.0584 38.0917 10.991 38.0244C10.9236 37.957 10.8857 37.8655 10.8857 37.7702V35.3624C10.8857 35.2671 10.9236 35.1757 10.991 35.1083C11.0584 35.0409 11.1498 35.0031 11.2451 35.0031H19.5923C19.6876 35.0031 19.779 35.0409 19.8464 35.1083C19.9138 35.1757 19.9517 35.2671 19.9517 35.3624V37.7738C19.9507 37.8685 19.9125 37.959 19.8452 38.0256C19.7779 38.0922 19.687 38.1296 19.5923 38.1296ZM11.6045 37.4109H19.2329V35.7218H11.6045V37.4109Z" fill="#2F3A5A"/>
<path d="M31.1531 36.9259H30.2234C30.1281 36.9259 30.0367 36.888 29.9693 36.8206C29.9019 36.7532 29.864 36.6618 29.864 36.5665C29.864 36.4712 29.9019 36.3798 29.9693 36.3124C30.0367 36.245 30.1281 36.2071 30.2234 36.2071H31.1531C31.4751 36.2068 31.7838 36.0787 32.0115 35.8511C32.2392 35.6234 32.3673 35.3148 32.3678 34.9928V21.7948C32.3684 21.2823 32.5722 20.7909 32.9346 20.4285C33.297 20.0661 33.7883 19.8623 34.3009 19.8617H35.8609C35.9562 19.8617 36.0476 19.8996 36.115 19.967C36.1824 20.0343 36.2203 20.1258 36.2203 20.2211C36.2203 20.3164 36.1824 20.4078 36.115 20.4752C36.0476 20.5426 35.9562 20.5804 35.8609 20.5804H34.3005C33.9786 20.5808 33.6699 20.7089 33.4423 20.9365C33.2146 21.1642 33.0866 21.4728 33.0862 21.7948V34.9928C33.0856 35.5053 32.8818 35.9967 32.5194 36.3591C32.157 36.7215 31.6656 36.9253 31.1531 36.9259Z" fill="#2F3A5A"/>
<path d="M33.7454 39.8657H44.2758V43.4951H33.7454V39.8657Z" fill="#D9E2E9"/>
<path d="M44.275 43.8543H33.7454C33.65 43.8543 33.5586 43.8164 33.4912 43.749C33.4238 43.6816 33.386 43.5902 33.386 43.4949V39.8652C33.386 39.7699 33.4238 39.6785 33.4912 39.6111C33.5586 39.5437 33.65 39.5059 33.7454 39.5059H44.275C44.3704 39.5059 44.4618 39.5437 44.5292 39.6111C44.5966 39.6785 44.6344 39.7699 44.6344 39.8652V43.4949C44.6344 43.5902 44.5966 43.6816 44.5292 43.749C44.4618 43.8164 44.3704 43.8543 44.275 43.8543ZM34.1047 43.1355H43.9157V40.2246H34.1047V43.1355Z" fill="#2F3A5A"/>
</svg>
