<svg viewBox="0 0 46 46" fill="none" xmlns="http://www.w3.org/2000/svg">

<path d="M45.6404 8.52454V37.4758L28.523 25.339L23.4961 21.7747L45.6404 8.52454Z" fill="#D9E2E9"/>
<path d="M22.5037 21.7747L17.5235 25.3063L0.359375 37.4758V8.52454L22.5037 21.7747Z" fill="#D9E2E9"/>
<path d="M45.6396 37.4745L23.0453 20.5422L0.450684 37.4745H45.6396Z" fill="#D9E2E9"/>
<path d="M0.359375 8.52428V9.91865L17.5235 24.7968L21.8859 28.5745C22.2077 28.8542 22.6197 29.0082 23.046 29.0082C23.4723 29.0082 23.8843 28.8542 24.2061 28.5745L28.5232 24.8291L45.6406 9.997V8.52356L0.359375 8.52428Z" fill="#C1CDD3"/>
<path d="M45.5506 37.8337C45.4729 37.8337 45.3972 37.8085 45.335 37.7618L23.457 21.3546C23.4094 21.3189 23.3713 21.272 23.3463 21.218C23.3213 21.1641 23.3101 21.1047 23.3136 21.0454C23.3172 20.986 23.3354 20.9284 23.3667 20.8778C23.398 20.8272 23.4414 20.7852 23.4929 20.7555L45.371 8.21331C45.4256 8.18174 45.4877 8.16513 45.5508 8.16516C45.614 8.16519 45.676 8.18186 45.7306 8.21349C45.7853 8.24511 45.8306 8.29058 45.8621 8.34531C45.8936 8.40004 45.9101 8.4621 45.91 8.52525V37.4736C45.91 37.5689 45.8722 37.6603 45.8048 37.7277C45.7374 37.7951 45.646 37.833 45.5506 37.833V37.8337ZM24.3252 21.1073L45.1913 36.7552V9.14625L24.3252 21.1073Z" fill="#2F3A5A"/>
<path d="M0.359375 37.8338C0.264063 37.8338 0.172654 37.7959 0.105259 37.7285C0.0378626 37.6611 5.23092e-10 37.5697 5.23092e-10 37.4744V8.52602C-3.41604e-06 8.46269 0.0167296 8.40048 0.0485044 8.3457C0.0802792 8.29091 0.125967 8.2455 0.180941 8.21405C0.235915 8.18261 0.298223 8.16625 0.361554 8.16663C0.424885 8.16702 0.486989 8.18413 0.541578 8.21624L22.1443 20.9338C22.1953 20.9638 22.238 21.006 22.2688 21.0565C22.2996 21.107 22.3174 21.1643 22.3207 21.2233C22.324 21.2824 22.3127 21.3413 22.2877 21.3949C22.2628 21.4486 22.225 21.4952 22.1778 21.5307L0.576797 37.7615C0.514144 37.8087 0.437789 37.8341 0.359375 37.8338ZM0.71875 9.15565V36.7556L21.3156 21.2799L0.71875 9.15565Z" fill="#2F3A5A"/>
<path d="M45.5504 37.8338H0.359375C0.283948 37.8338 0.210434 37.8101 0.149245 37.766C0.0880556 37.7219 0.0422939 37.6596 0.0184419 37.5881C-0.00541002 37.5165 -0.00614304 37.4393 0.0163467 37.3673C0.0388364 37.2953 0.0834088 37.2322 0.14375 37.1869L22.7402 20.2546C22.8024 20.208 22.878 20.1827 22.9558 20.1827C23.0336 20.1827 23.1092 20.208 23.1714 20.2546L45.766 37.1866C45.8264 37.2318 45.871 37.2949 45.8935 37.3669C45.9159 37.4389 45.9152 37.5162 45.8914 37.5877C45.8675 37.6593 45.8217 37.7215 45.7606 37.7656C45.6994 37.8097 45.6258 37.8335 45.5504 37.8335V37.8338ZM1.44002 37.1151H44.4716L22.9558 20.9913L1.44002 37.1151Z" fill="#2F3A5A"/>
<path d="M0.361328 8.52624L21.8767 26.96C22.1773 27.2176 22.5601 27.3592 22.956 27.3592C23.3518 27.3592 23.7346 27.2176 24.0352 26.96L45.5506 8.52588L0.361328 8.52624Z" fill="#F0F5F9"/>
<path d="M22.9559 27.7219C22.4739 27.7215 22.0081 27.548 21.6431 27.2332L0.127342 8.79901C0.0716211 8.75121 0.0318755 8.68749 0.0134526 8.61643C-0.00497025 8.54536 -0.00118656 8.47036 0.0242947 8.40151C0.0497759 8.33266 0.0957323 8.27327 0.155981 8.23132C0.21623 8.18937 0.287881 8.16688 0.361296 8.16687H45.5505C45.624 8.16688 45.6956 8.18937 45.7559 8.23132C45.8161 8.27327 45.8621 8.33266 45.8875 8.40151C45.913 8.47036 45.9168 8.54536 45.8984 8.61643C45.88 8.68749 45.8402 8.75121 45.7845 8.79901L24.2687 27.2332C23.9038 27.548 23.4379 27.7215 22.9559 27.7219ZM1.33305 8.88562L22.1107 26.6873C22.3455 26.8896 22.6452 27.0009 22.9552 27.0009C23.2652 27.0009 23.5649 26.8896 23.7997 26.6873L44.577 8.88526L1.33305 8.88562Z" fill="#2F3A5A"/>

</svg>
