<svg width="70" height="90" viewBox="0 0 70 70" fill="none" xmlns="http://www.w3.org/2000/svg">
<path d="M0 35C0 15.67 15.67 0 35 0V0C54.33 0 70 15.67 70 35V35C70 54.33 54.33 70 35 70V70C15.67 70 0 54.33 0 35V35Z" fill="#0F1014"/>
<path d="M35 69.5C15.9462 69.5 0.5 54.0538 0.5 35C0.5 15.9462 15.9462 0.5 35 0.5C54.0538 0.5 69.5 15.9462 69.5 35C69.5 54.0538 54.0538 69.5 35 69.5Z" stroke="white" stroke-opacity="0.1"/>
<path d="M24.583 32.917H32.917M24.583 24.583H32.917M32.917 53.75V41.25H24.583V53.75H32.917Z" stroke="white" stroke-width="2" stroke-linecap="round" stroke-linejoin="round"/>
<path d="M41.25 53.75H16.25V18.333C16.25 17.7806 16.4695 17.2507 16.8601 16.8601C17.2507 16.4695 17.7806 16.25 18.333 16.25H39.167C39.7194 16.25 40.2493 16.4695 40.6399 16.8601C41.0305 17.2507 41.25 17.7806 41.25 18.333V53.75ZM41.25 53.75H53.75V28.167C53.7737 27.7126 53.6481 27.2629 53.3922 26.8865C53.1363 26.5102 52.7643 26.228 52.333 26.083L41.25 22.5V53.75Z" stroke="#475569" stroke-width="2" stroke-linecap="round" stroke-linejoin="round"/>
</svg>
