<svg width="46" height="46" viewBox="0 0 46 46" fill="none" xmlns="http://www.w3.org/2000/svg">
<g clip-path="url(#clip0)">
<path d="M0.5009 45.9999C0.429834 45.9999 0.360367 45.9788 0.301282 45.9393C0.242197 45.8999 0.196147 45.8437 0.168953 45.7781C0.141759 45.7124 0.134643 45.6402 0.148503 45.5705C0.162363 45.5008 0.196578 45.4367 0.246822 45.3865L38.8624 6.77092C38.9302 6.70546 39.021 6.66924 39.1152 6.67006C39.2094 6.67088 39.2995 6.70867 39.3662 6.7753C39.4328 6.84193 39.4706 6.93207 39.4714 7.0263C39.4722 7.12052 39.436 7.2113 39.3706 7.27908L0.754619 45.8946C0.687327 45.962 0.59608 45.9998 0.5009 45.9999Z" fill="#2F3A5A"/>
<path d="M21.5201 39.4375C16.8289 35.3639 10.2519 36.2656 6.83032 41.45C11.5216 45.5249 18.0985 44.6232 21.5201 39.4375Z" fill="#FFC943"/>
<path d="M6.83179 41.452C7.20341 40.8832 7.63 40.3522 8.10541 39.8668C9.95364 40.9865 12.1304 41.4373 14.2713 41.1437C16.4122 40.8502 18.3873 39.8301 19.866 38.2543C20.4544 38.5938 21.0081 38.9903 21.5191 39.4381C18.0975 44.622 11.5227 45.5237 6.83179 41.452Z" fill="#F7B521"/>
<path d="M13.3785 44.3633C10.8717 44.3368 8.46035 43.3985 6.59497 41.7237C6.52916 41.6665 6.48635 41.5874 6.47452 41.5011C6.46269 41.4148 6.48263 41.3271 6.53064 41.2543C7.31259 40.0137 8.35379 38.9569 9.58274 38.1567C10.8117 37.3565 12.1993 36.8317 13.6502 36.6184C15.1054 36.4334 16.5834 36.5656 17.9826 37.0061C19.3819 37.4465 20.6691 38.1847 21.7559 39.17C21.8217 39.2271 21.8645 39.3062 21.8764 39.3925C21.8882 39.4789 21.8683 39.5666 21.8202 39.6393C21.0382 40.88 19.997 41.9367 18.7679 42.7369C17.5389 43.5372 16.1513 44.062 14.7003 44.2752C14.2622 44.3345 13.8206 44.3639 13.3785 44.3633ZM7.30976 41.3859C8.30654 42.2367 9.47021 42.8697 10.7261 43.2442C11.9819 43.6188 13.3022 43.7266 14.6022 43.5608C15.8988 43.3704 17.1413 42.9111 18.25 42.2124C19.3587 41.5137 20.3092 40.591 21.0404 39.5035C20.0436 38.6526 18.8798 38.0196 17.6239 37.6451C16.368 37.2705 15.0477 37.1627 13.7476 37.3285C12.4511 37.519 11.2086 37.9783 10.1 38.677C8.99133 39.3757 8.04094 40.2984 7.30976 41.3859Z" fill="#2F3A5A"/>
<path d="M4.33287 42.1671C4.24199 42.167 4.15452 42.1324 4.08808 42.0704C4.02163 42.0084 3.98114 41.9236 3.97476 41.8329C3.96839 41.7423 3.99659 41.6525 4.0537 41.5819C4.11081 41.5112 4.19259 41.4647 4.28256 41.4519L6.7795 41.095C6.87238 41.0845 6.96571 41.1107 7.03966 41.1678C7.11362 41.225 7.16239 41.3087 7.17562 41.4013C7.18886 41.4938 7.16551 41.5879 7.11054 41.6635C7.05557 41.7391 6.97331 41.7903 6.8812 41.8063L4.38426 42.1631C4.36725 42.1656 4.35007 42.167 4.33287 42.1671Z" fill="#2F3A5A"/>
<path d="M29.5129 31.4453C24.822 27.3707 18.2451 28.2724 14.8235 33.4578C19.514 37.5321 26.0906 36.6304 29.5129 31.4453Z" fill="#FFC943"/>
<path d="M14.825 33.4576C15.1971 32.8892 15.6242 32.3588 16.1 31.8739C17.9482 32.9935 20.125 33.4443 22.2659 33.1508C24.4068 32.8573 26.3819 31.8372 27.8606 30.2614C28.449 30.6009 29.0027 30.9974 29.5137 31.4451C26.0906 36.6291 19.5141 37.5304 14.825 33.4576Z" fill="#F7B521"/>
<path d="M21.3712 36.3689C18.8643 36.3423 16.4529 35.4037 14.5876 33.7286C14.5218 33.6715 14.479 33.5924 14.4672 33.506C14.4554 33.4197 14.4753 33.332 14.5233 33.2593C15.2942 32.0086 16.3324 30.9442 17.5635 30.1424C18.7945 29.3406 20.1878 28.8213 21.6433 28.6218C23.0988 28.4222 24.5804 28.5474 25.9818 28.9883C27.3832 29.4293 28.6696 30.175 29.7486 31.172C29.8144 31.2291 29.8572 31.3082 29.8691 31.3946C29.8809 31.4809 29.8609 31.5686 29.8129 31.6414C29.031 32.8821 27.9897 33.9389 26.7607 34.7391C25.5317 35.5393 24.144 36.0641 22.693 36.2773C22.255 36.3379 21.8134 36.3685 21.3712 36.3689ZM15.3028 33.3926C16.2931 34.2541 17.4561 34.8938 18.7139 35.269C19.9717 35.6441 21.2951 35.746 22.5955 35.5677C23.8959 35.3894 25.1431 34.9352 26.2536 34.2353C27.364 33.5355 28.3119 32.6064 29.0338 31.5102C28.0435 30.6487 26.8805 30.0089 25.6227 29.6338C24.3649 29.2587 23.0415 29.1568 21.7411 29.3351C20.4407 29.5133 19.1935 29.9676 18.0831 30.6674C16.9726 31.3672 16.0247 32.2964 15.3028 33.3926Z" fill="#2F3A5A"/>
<path d="M12.3265 34.1746C12.2356 34.1745 12.1482 34.14 12.0817 34.078C12.0153 34.016 11.9748 33.9311 11.9684 33.8404C11.962 33.7498 11.9902 33.6601 12.0474 33.5894C12.1045 33.5187 12.1862 33.4722 12.2762 33.4594L14.7731 33.1029C14.8205 33.0947 14.8691 33.0961 14.9159 33.107C14.9627 33.1179 15.0069 33.1381 15.0458 33.1664C15.0847 33.1946 15.1175 33.2304 15.1423 33.2716C15.1671 33.3128 15.1834 33.3586 15.1902 33.4062C15.197 33.4538 15.1942 33.5022 15.182 33.5487C15.1697 33.5952 15.1482 33.6388 15.1188 33.6768C15.0894 33.7149 15.0526 33.7466 15.0107 33.7702C14.9688 33.7938 14.9226 33.8087 14.8748 33.8141L12.3779 34.1706C12.3609 34.1732 12.3437 34.1745 12.3265 34.1746Z" fill="#2F3A5A"/>
<path d="M37.5062 23.4513C32.8149 19.3778 26.238 20.2794 22.8164 25.4652C27.5077 29.5405 34.0846 28.6371 37.5062 23.4513Z" fill="#FFC943"/>
<path d="M22.8179 25.466C23.1895 24.8972 23.6161 24.3663 24.0915 23.8808C25.9397 25.0005 28.1165 25.4513 30.2574 25.1578C32.3983 24.8642 34.3734 23.8441 35.852 22.2683C36.4405 22.6078 36.9942 23.0043 37.5052 23.4521C34.0836 28.6365 27.5088 29.5378 22.8179 25.466Z" fill="#F7B521"/>
<path d="M29.3645 28.3771C26.8574 28.3504 24.4459 27.4117 22.5806 25.7364C22.5148 25.6793 22.472 25.6002 22.4601 25.5139C22.4483 25.4275 22.4682 25.3398 22.5162 25.2671C23.2872 24.0165 24.3254 22.952 25.5565 22.1502C26.7875 21.3484 28.1808 20.8291 29.6364 20.6296C31.0919 20.43 32.5736 20.5552 33.975 20.9962C35.3764 21.4371 36.6628 22.1828 37.7419 23.1798C37.8077 23.237 37.8505 23.3161 37.8623 23.4024C37.8742 23.4887 37.8542 23.5764 37.8062 23.6492C37.0242 24.8899 35.983 25.9467 34.754 26.747C33.525 27.5472 32.1373 28.0719 30.6863 28.2851C30.2483 28.3458 29.8067 28.3766 29.3645 28.3771ZM23.2957 25.3997C24.286 26.2612 25.449 26.9009 26.7068 27.2761C27.9646 27.6512 29.2881 27.7531 30.5884 27.5748C31.8888 27.3965 33.136 26.9423 34.2465 26.2425C35.3569 25.5426 36.3048 24.6135 37.0267 23.5173C36.0364 22.6559 34.8734 22.0162 33.6156 21.641C32.3578 21.2659 31.0344 21.1641 29.734 21.3424C28.4337 21.5206 27.1865 21.9749 26.076 22.6747C24.9656 23.3744 24.0176 24.3035 23.2957 25.3997Z" fill="#2F3A5A"/>
<path d="M20.319 26.1815C20.2281 26.1814 20.1406 26.1469 20.0742 26.0849C20.0077 26.0229 19.9672 25.938 19.9608 25.8474C19.9545 25.7567 19.9827 25.667 20.0398 25.5963C20.0969 25.5256 20.1787 25.4792 20.2686 25.4664L22.7652 25.1095C22.8126 25.1013 22.8611 25.1027 22.908 25.1136C22.9548 25.1245 22.999 25.1447 23.0379 25.1729C23.0768 25.2012 23.1096 25.237 23.1344 25.2782C23.1592 25.3194 23.1755 25.3651 23.1823 25.4127C23.1891 25.4603 23.1863 25.5088 23.174 25.5553C23.1618 25.6018 23.1403 25.6454 23.1109 25.6834C23.0815 25.7215 23.0447 25.7532 23.0028 25.7768C22.9609 25.8004 22.9147 25.8153 22.8669 25.8207L20.3703 26.1776C20.3533 26.1801 20.3362 26.1814 20.319 26.1815Z" fill="#2F3A5A"/>
<path d="M45.4991 15.4585C40.8079 11.3849 34.2309 12.2866 30.8093 17.471C35.5006 21.5459 42.0775 20.6442 45.4991 15.4585Z" fill="#FFC943"/>
<path d="M30.811 17.4731C31.1827 16.9043 31.6093 16.3733 32.0847 15.8879C33.9327 17.0073 36.1091 17.4579 38.2497 17.1644C40.3903 16.871 42.3652 15.8512 43.8438 14.2758C44.4322 14.6153 44.9859 15.0118 45.4969 15.4595C42.0764 20.6432 35.502 21.5445 30.811 17.4731Z" fill="#F7B521"/>
<path d="M37.3573 20.3839C34.8504 20.3573 32.439 19.4187 30.5737 17.7436C30.5079 17.6865 30.4651 17.6074 30.4533 17.521C30.4414 17.4347 30.4614 17.347 30.5094 17.2743C31.2803 16.0237 32.3185 14.9592 33.5496 14.1574C34.7806 13.3556 36.1739 12.8363 37.6294 12.6368C39.0849 12.4372 40.5665 12.5624 41.9679 13.0034C43.3693 13.4443 44.6557 14.19 45.7347 15.187C45.8005 15.2442 45.8433 15.3233 45.8551 15.4096C45.867 15.4959 45.847 15.5836 45.799 15.6564C45.0171 16.8971 43.9758 17.9539 42.7468 18.7541C41.5178 19.5543 40.1301 20.0791 38.6791 20.2923C38.2411 20.3529 37.7995 20.3835 37.3573 20.3839ZM31.2885 17.4065C32.2787 18.268 33.4417 18.9078 34.6995 19.283C35.9573 19.6582 37.2807 19.7602 38.5811 19.582C39.8815 19.4038 41.1287 18.9495 42.2392 18.2498C43.3496 17.5501 44.2976 16.621 45.0195 15.5248C44.0293 14.6634 42.8662 14.0236 41.6084 13.6485C40.3507 13.2733 39.0272 13.1715 37.7268 13.3497C36.4264 13.528 35.1792 13.9823 34.0688 14.6821C32.9584 15.3819 32.0104 16.311 31.2885 17.4072V17.4065Z" fill="#2F3A5A"/>
<path d="M28.3119 18.1883C28.221 18.1882 28.1335 18.1537 28.0671 18.0917C28.0006 18.0297 27.9601 17.9448 27.9538 17.8542C27.9474 17.7635 27.9756 17.6738 28.0327 17.6031C28.0898 17.5324 28.1716 17.486 28.2616 17.4732L30.7585 17.1167C30.8514 17.1062 30.9447 17.1323 31.0187 17.1894C31.0926 17.2466 31.1414 17.3303 31.1546 17.4229C31.1679 17.5154 31.1445 17.6095 31.0895 17.6851C31.0346 17.7607 30.9523 17.8119 30.8602 17.8279L28.3633 18.1844C28.3462 18.1869 28.3291 18.1882 28.3119 18.1883Z" fill="#2F3A5A"/>
<path d="M45.4422 0.373536C39.2365 0.0677077 34.6214 4.83949 35.1338 11.033C41.3395 11.337 45.9546 6.56521 45.4422 0.373536Z" fill="#FFC943"/>
<path d="M35.1357 11.0305C35.0766 10.3537 35.0842 9.67261 35.1583 8.9972C37.3036 8.73641 39.2943 7.74653 40.7969 6.19328C42.2995 4.64003 43.2229 2.61771 43.4125 0.464923C44.0849 0.368445 44.7653 0.338233 45.4436 0.37472C45.9532 6.56495 41.3396 11.3349 35.1357 11.0305Z" fill="#F7B521"/>
<path d="M35.7006 11.4044C35.507 11.4044 35.3122 11.3996 35.1163 11.39C35.0292 11.3857 34.9467 11.3499 34.8841 11.2893C34.8215 11.2287 34.7831 11.1474 34.7759 11.0605C34.6242 9.60161 34.7901 8.12717 35.2622 6.73847C35.7343 5.34977 36.5014 4.0797 37.5108 3.01553C38.5407 1.971 39.7846 1.16189 41.157 0.64383C42.5294 0.125765 43.9976 -0.0889704 45.4609 0.0143874C45.5479 0.0187145 45.6304 0.0545227 45.693 0.115146C45.7556 0.17577 45.7941 0.257078 45.8012 0.343934C45.9529 1.80282 45.787 3.27726 45.3149 4.66596C44.8429 6.05466 44.0758 7.32473 43.0664 8.3889C42.1076 9.36525 40.9601 10.1361 39.6938 10.6546C38.4274 11.173 37.0688 11.4281 35.7006 11.4044ZM35.4702 10.6835C36.78 10.7373 38.0864 10.5164 39.3057 10.0352C40.525 9.5539 41.6301 8.82285 42.5499 7.88901C43.4521 6.93838 44.1455 5.80969 44.5859 4.57535C45.0262 3.341 45.2037 2.02824 45.1069 0.721278C43.7974 0.669351 42.4915 0.891011 41.2725 1.37211C40.0535 1.85321 38.9483 2.58318 38.0272 3.51542C37.1251 4.46613 36.4316 5.59488 35.9913 6.82929C35.551 8.06369 35.3735 9.3765 35.4702 10.6835Z" fill="#2F3A5A"/>
<path d="M6.72035 24.6389C10.7939 29.3302 9.89219 35.9071 4.70785 39.3287C0.634334 34.6374 1.53601 28.0609 6.72035 24.6389Z" fill="#FFC943"/>
<path d="M4.70772 39.3277C5.27654 38.956 5.80749 38.5295 6.29293 38.0541C5.17334 36.2057 4.72266 34.0289 5.01634 31.888C5.31001 29.7471 6.33022 27.7721 7.90616 26.2935C7.56663 25.705 7.17013 25.1513 6.72238 24.6404C1.53696 28.062 0.635645 34.6368 4.70772 39.3277Z" fill="#F7B521"/>
<path d="M4.70778 39.6885C4.65634 39.6885 4.6055 39.6775 4.55869 39.6562C4.51188 39.6348 4.4702 39.6037 4.43645 39.5649C3.43952 38.4858 2.69384 37.1994 2.25294 35.7981C1.81205 34.3967 1.68688 32.9151 1.88641 31.4596C2.08595 30.0041 2.60524 28.6108 3.40701 27.3798C4.20878 26.1488 5.27315 25.1105 6.5237 24.3396C6.59644 24.2916 6.68413 24.2716 6.77047 24.2835C6.85682 24.2953 6.93591 24.3381 6.99305 24.4039C7.97809 25.4908 8.71619 26.778 9.15663 28.1771C9.59708 29.5763 9.72943 31.0541 9.54461 32.5093C9.33133 33.9603 8.80655 35.3479 8.00632 36.5769C7.20609 37.8059 6.14935 38.8472 4.90867 39.6292C4.84908 39.6685 4.77915 39.6891 4.70778 39.6885ZM6.65631 25.1205C5.56057 25.8424 4.63182 26.7902 3.9323 27.9004C3.23279 29.0106 2.77868 30.2575 2.60043 31.5575C2.42217 32.8575 2.52388 34.1806 2.89873 35.4381C3.27359 36.6956 3.91293 37.8584 4.77391 38.8486C5.86145 38.1174 6.78417 37.167 7.48288 36.0583C8.18159 34.9496 8.64086 33.7071 8.83125 32.4104C8.99646 31.1109 8.88833 29.7911 8.5138 28.5357C8.13926 27.2804 7.50658 26.1171 6.65631 25.1205Z" fill="#2F3A5A"/>
<path d="M4.35168 42.1853C4.33449 42.1853 4.31732 42.1841 4.30029 42.1817C4.206 42.1682 4.12093 42.1178 4.06379 42.0416C4.00665 41.9654 3.9821 41.8696 3.99554 41.7753L4.3524 39.2784C4.3578 39.2306 4.37274 39.1844 4.39632 39.1425C4.41991 39.1006 4.45166 39.0638 4.48971 39.0344C4.52775 39.005 4.57131 38.9835 4.6178 38.9712C4.66429 38.959 4.71277 38.9562 4.76037 38.963C4.80797 38.9698 4.85373 38.9861 4.89492 39.0109C4.93611 39.0357 4.9719 39.0685 5.00017 39.1074C5.02845 39.1463 5.04863 39.1905 5.05953 39.2373C5.07042 39.2841 5.07181 39.3327 5.0636 39.3801L4.70674 41.877C4.69448 41.9625 4.65185 42.0407 4.58665 42.0973C4.52145 42.1539 4.43804 42.1852 4.35168 42.1853Z" fill="#2F3A5A"/>
<path d="M14.715 16.6465C18.7886 21.3378 17.8869 27.9147 12.7026 31.3363C8.6276 26.645 9.52927 20.0681 14.715 16.6465Z" fill="#FFC943"/>
<path d="M12.7002 31.3346C13.269 30.963 13.8 30.5364 14.2854 30.061C13.1657 28.2128 12.7149 26.036 13.0085 23.8951C13.302 21.7542 14.3221 19.7791 15.8979 18.3005C15.5584 17.712 15.1619 17.1583 14.7141 16.6473C9.52978 20.0689 8.62847 26.6437 12.7002 31.3346Z" fill="#F7B521"/>
<path d="M12.7011 31.6969C12.6497 31.6969 12.5988 31.6859 12.552 31.6645C12.5052 31.6432 12.4635 31.6121 12.4298 31.5733C11.4326 30.4941 10.6868 29.2075 10.2458 27.8058C9.80486 26.4042 9.67975 24.9223 9.87947 23.4665C10.0792 22.0108 10.5988 20.6174 11.4009 19.3863C12.203 18.1552 13.2678 17.117 14.5188 16.3462C14.5916 16.2982 14.6793 16.2782 14.7656 16.2901C14.8519 16.3019 14.931 16.3447 14.9882 16.4105C15.9851 17.4897 16.7307 18.7762 17.1715 20.1776C17.6123 21.5791 17.7373 23.0608 17.5376 24.5163C17.3379 25.9718 16.8184 27.365 16.0164 28.596C15.2144 29.8269 14.1499 30.8651 12.8991 31.6358C12.8405 31.6752 12.7717 31.6964 12.7011 31.6969ZM14.6493 17.1271C13.5531 17.849 12.624 18.797 11.9242 19.9074C11.2245 21.0178 10.7702 22.2651 10.592 23.5654C10.4137 24.8658 10.5155 26.1892 10.8906 27.447C11.2657 28.7048 11.9055 29.8678 12.7669 30.8581C13.863 30.1362 14.7921 29.1882 15.4919 28.0778C16.1917 26.9674 16.6459 25.7202 16.8242 24.4198C17.0025 23.1194 16.9006 21.796 16.5255 20.5382C16.1504 19.2804 15.5107 18.1174 14.6493 17.1271Z" fill="#2F3A5A"/>
<path d="M12.345 34.1924C12.3278 34.1924 12.3106 34.1912 12.2936 34.1888C12.2468 34.1822 12.2018 34.1663 12.1611 34.1422C12.1205 34.1181 12.085 34.0862 12.0567 34.0483C12.0284 34.0105 12.0078 33.9674 11.9962 33.9216C11.9845 33.8758 11.982 33.8281 11.9889 33.7813L12.3454 31.2844C12.3613 31.1923 12.4125 31.11 12.4881 31.055C12.5637 31.0001 12.6578 30.9767 12.7503 30.9899C12.8429 31.0032 12.9266 31.052 12.9838 31.1259C13.041 31.1999 13.0671 31.2932 13.0566 31.3861L12.7001 33.883C12.688 33.9687 12.6455 34.0472 12.5803 34.104C12.5151 34.1608 12.4315 34.1922 12.345 34.1924Z" fill="#2F3A5A"/>
<path d="M22.7077 8.65344C26.7812 13.3447 25.8796 19.9216 20.6952 23.3433C16.6203 18.6516 17.5219 12.0751 22.7077 8.65344Z" fill="#FFC943"/>
<path d="M20.6931 23.3412C21.2619 22.9696 21.7929 22.543 22.2783 22.0676C21.1586 20.2194 20.7078 18.0426 21.0014 15.9017C21.2949 13.7608 22.315 11.7857 23.8908 10.3071C23.5513 9.71859 23.1548 9.1649 22.707 8.65393C17.523 12.0748 16.6217 18.6514 20.6931 23.3412Z" fill="#F7B521"/>
<path d="M20.6942 23.7025C20.6427 23.7026 20.5919 23.6915 20.5451 23.6702C20.4983 23.6489 20.4566 23.6177 20.4228 23.5789C19.4378 22.4921 18.6997 21.2048 18.2593 19.8057C17.8188 18.4066 17.6865 16.9287 17.8713 15.4736C18.0845 14.0226 18.6093 12.6349 19.4095 11.4059C20.2098 10.1769 21.2665 9.13564 22.5072 8.35364C22.5799 8.30563 22.6676 8.28569 22.754 8.29752C22.8403 8.30935 22.9194 8.35216 22.9766 8.41796C23.9616 9.50483 24.6997 10.792 25.1401 12.1912C25.5806 13.5903 25.7129 15.0682 25.5281 16.5233C25.3149 17.9743 24.7902 19.362 23.9899 20.591C23.1897 21.82 22.1329 22.8613 20.8922 23.6432C20.8334 23.682 20.7645 23.7026 20.6942 23.7025ZM22.6405 9.13276C21.5533 9.86416 20.6309 10.8147 19.9324 11.9234C19.234 13.0321 18.7749 14.2745 18.5846 15.571C18.4191 16.871 18.5271 18.1913 18.9017 19.4472C19.2763 20.7031 19.9092 21.8668 20.7599 22.8638C21.8474 22.1325 22.7701 21.1821 23.4688 20.0733C24.1675 18.9646 24.6268 17.7222 24.8173 16.4256C24.9827 15.1254 24.8745 13.805 24.4996 12.5491C24.1248 11.2932 23.4915 10.1296 22.6405 9.13276Z" fill="#2F3A5A"/>
<path d="M20.3378 26.1983C20.3206 26.1983 20.3034 26.1971 20.2864 26.1947C20.1921 26.1812 20.107 26.1308 20.0499 26.0546C19.9927 25.9784 19.9682 25.8826 19.9816 25.7883L20.3385 23.2913C20.3544 23.1992 20.4057 23.117 20.4813 23.062C20.5569 23.007 20.6509 22.9837 20.7435 22.9969C20.836 23.0101 20.9197 23.0589 20.9769 23.1329C21.0341 23.2068 21.0602 23.3001 21.0497 23.393L20.6928 25.89C20.6806 25.9755 20.6379 26.0537 20.5727 26.1103C20.5075 26.1669 20.4241 26.1982 20.3378 26.1983Z" fill="#2F3A5A"/>
<path d="M30.701 0.660034C34.7746 5.35132 33.8729 11.9282 28.6885 15.3498C24.6136 10.6586 25.5156 4.08164 30.701 0.660034Z" fill="#FFC943"/>
<path d="M28.6864 15.3487C29.2552 14.977 29.7862 14.5505 30.2716 14.075C29.1519 12.2269 28.701 10.0501 28.9945 7.90921C29.288 5.76831 30.308 3.79319 31.8838 2.3145C31.5442 1.72604 31.1478 1.17234 30.7 0.661377C25.5156 4.08299 24.6147 10.6578 28.6864 15.3487Z" fill="#F7B521"/>
<path d="M28.6871 15.7094C28.6357 15.7094 28.5848 15.6983 28.538 15.677C28.4912 15.6557 28.4495 15.6246 28.4158 15.5857C27.4307 14.4988 26.6926 13.2116 26.2522 11.8124C25.8117 10.4132 25.6794 8.93521 25.8642 7.48003C26.0777 6.02866 26.6028 4.6407 27.4036 3.41154C28.2043 2.18237 29.2617 1.14114 30.503 0.359374C30.5758 0.311366 30.6635 0.291423 30.7498 0.303256C30.8361 0.31509 30.9152 0.357895 30.9724 0.423702C31.9574 1.5106 32.6954 2.79781 33.1359 4.19693C33.5763 5.59605 33.7087 7.07392 33.5239 8.52905C33.3107 9.98003 32.7859 11.3677 31.9857 12.5967C31.1854 13.8257 30.1287 14.867 28.888 15.649C28.8285 15.6886 28.7586 15.7097 28.6871 15.7094ZM30.6353 1.13958C29.5478 1.87083 28.6251 2.82128 27.9264 3.92999C27.2277 5.0387 26.7684 6.28119 26.5779 7.57778C26.4123 8.87782 26.5202 10.1981 26.8948 11.454C27.2693 12.7099 27.9022 13.8736 28.7529 14.8706C29.8405 14.1394 30.7634 13.189 31.4622 12.0803C32.161 10.9716 32.6204 9.72903 32.8109 8.43237C32.9764 7.13229 32.8684 5.81197 32.4937 4.55609C32.119 3.30021 31.486 2.13649 30.6353 1.13958Z" fill="#2F3A5A"/>
<path d="M28.3309 18.2063C28.3137 18.2063 28.2966 18.2051 28.2795 18.2027C28.1852 18.1891 28.1002 18.1387 28.043 18.0625C27.9859 17.9863 27.9613 17.8905 27.9748 17.7962L28.3313 15.2993C28.3472 15.2072 28.3985 15.1249 28.4741 15.0699C28.5497 15.015 28.6437 14.9916 28.7363 15.0048C28.8288 15.0181 28.9125 15.0668 28.9697 15.1408C29.0269 15.2148 29.053 15.3081 29.0425 15.401L28.686 17.8968C28.674 17.9825 28.6314 18.061 28.5662 18.1178C28.501 18.1747 28.4174 18.2061 28.3309 18.2063Z" fill="#2F3A5A"/>
</g>
<defs>
<clipPath id="clip0">
<rect width="46" height="46" fill="white"/>
</clipPath>
</defs>
</svg>
