<svg width="16" height="17" viewBox="0 0 16 17" fill="none" xmlns="http://www.w3.org/2000/svg">
<path fill-rule="evenodd" clip-rule="evenodd" d="M1.33333 8.51002C1.33333 4.99808 4.14 1.83334 8.01333 1.83334C11.8 1.83334 14.6667 4.93799 14.6667 8.48999C14.6667 12.6095 11.3067 15.1667 8 15.1667C6.90666 15.1667 5.69333 14.8729 4.72 14.2987C4.37999 14.0917 4.09333 13.9382 3.72666 14.0583L2.37999 14.4589C2.03999 14.5658 1.73333 14.2987 1.83333 13.9382L2.27999 12.4426C2.35333 12.2356 2.33999 12.0153 2.23333 11.8417C1.65999 10.7868 1.33333 9.6317 1.33333 8.51002ZM7.13333 8.51002C7.13333 8.98406 7.51333 9.36463 7.98666 9.37131C8.45999 9.37131 8.83999 8.98406 8.83999 8.51669C8.83999 8.04265 8.45999 7.66208 7.98666 7.66208C7.51999 7.6554 7.13333 8.04265 7.13333 8.51002ZM10.2067 8.51669C10.2067 8.98406 10.5867 9.37131 11.06 9.37131C11.5333 9.37131 11.9133 8.98406 11.9133 8.51669C11.9133 8.04265 11.5333 7.66208 11.06 7.66208C10.5867 7.66208 10.2067 8.04265 10.2067 8.51669ZM4.91333 9.37131C4.44666 9.37131 4.05999 8.98406 4.05999 8.51669C4.05999 8.04265 4.43999 7.66208 4.91333 7.66208C5.38666 7.66208 5.76666 8.04265 5.76666 8.51669C5.76666 8.98406 5.38666 9.36463 4.91333 9.37131Z" fill="#F2F2F2"/>
</svg>
