<svg viewBox="0 0 46 46" fill="none" xmlns="http://www.w3.org/2000/svg">

<path d="M10.5106 6.09644C10.4152 6.16789 10.313 6.22977 10.2055 6.28116C9.79145 6.48101 9.32695 6.55206 8.87208 6.48511C8.4172 6.41816 7.99287 6.21629 7.65395 5.90561L1.52302 0.359375L0.615234 1.36275L12.7794 12.3668L14.9374 10.1027L10.5106 6.09644Z" fill="#707583"/>
<path d="M12.7796 12.7262C12.6905 12.7262 12.6045 12.6932 12.5384 12.6334L0.374298 1.62939C0.339264 1.59773 0.310811 1.55948 0.290566 1.51682C0.270322 1.47416 0.258682 1.42793 0.256312 1.38077C0.253943 1.33362 0.26089 1.28645 0.276756 1.24198C0.292623 1.19751 0.317098 1.1566 0.348782 1.12159L1.258 0.118214C1.32189 0.0478893 1.41102 0.00572568 1.50591 0.000944112C1.6008 -0.00383745 1.69373 0.0291522 1.76436 0.0926981L7.8953 5.63893C8.18138 5.90006 8.53882 6.06997 8.92194 6.12694C9.30506 6.18391 9.69647 6.12536 10.0462 5.95878C10.1308 5.91834 10.2115 5.87022 10.2873 5.81503C10.3542 5.76273 10.4373 5.73559 10.5222 5.73835C10.6071 5.7411 10.6883 5.77359 10.7516 5.83012L15.1788 9.83464C15.2144 9.86683 15.2432 9.90583 15.2634 9.94933C15.2837 9.99283 15.2951 10.04 15.2969 10.0879C15.2987 10.1359 15.2908 10.1837 15.2738 10.2286C15.2568 10.2735 15.2309 10.3145 15.1978 10.3493L13.0415 12.6133C13.0079 12.649 12.9673 12.6774 12.9222 12.6969C12.8772 12.7163 12.8286 12.7262 12.7796 12.7262ZM1.12324 1.33721L12.7609 11.8651L14.423 10.1203L10.4727 6.54671C10.4397 6.56504 10.4034 6.58265 10.3649 6.60314C9.88581 6.83282 9.34912 6.91446 8.82338 6.83765C8.29765 6.76083 7.80674 6.52904 7.41338 6.17189L1.54874 0.867151L1.12324 1.33721Z" fill="#2F3A5A"/>
<path d="M21.9157 22.3984C20.6484 23.4799 19.163 24.2757 17.5606 24.7316C15.9581 25.1875 14.2763 25.2929 12.6295 25.0405C12.5303 25.027 12.4297 25.0517 12.348 25.1096C12.2663 25.1674 12.2095 25.2541 12.1892 25.3521L11.5718 28.3403C11.5505 28.4424 11.5704 28.5489 11.6272 28.6364C11.684 28.7239 11.7732 28.7854 11.8751 28.8075C13.2975 29.1147 18.5027 29.8856 24.058 26.3278L25.0484 25.231L21.9157 22.3984Z" fill="#9297AB"/>
<path d="M14.8065 29.4558C13.7957 29.462 12.7869 29.3625 11.7968 29.159C11.6025 29.1162 11.4329 28.9987 11.3245 28.832C11.2162 28.6653 11.1777 28.4626 11.2174 28.2677L11.837 25.2792C11.8758 25.092 11.9843 24.9266 12.1403 24.8162C12.2964 24.7059 12.4886 24.6589 12.6779 24.6847C14.2702 24.9254 15.8955 24.823 17.445 24.3844C18.9945 23.9459 20.4324 23.1813 21.6623 22.1418L21.9038 21.9053L25.5522 25.2055L24.2491 26.6297C21.4396 28.4619 18.1606 29.4433 14.8065 29.4558ZM12.5784 25.3963C12.57 25.3961 12.5618 25.3989 12.5552 25.4042C12.5487 25.4094 12.5441 25.4168 12.5425 25.4251L11.9233 28.4133C11.9222 28.4179 11.9221 28.4227 11.9229 28.4274C11.9237 28.432 11.9254 28.4365 11.9279 28.4405C11.9305 28.4445 11.9338 28.448 11.9377 28.4507C11.9415 28.4534 11.9459 28.4554 11.9506 28.4564C13.3712 28.7633 18.4172 29.4939 23.8218 26.0507L24.5406 25.2565L21.9171 22.8818C20.6205 23.9246 19.1213 24.6867 17.5146 25.1197C15.908 25.5528 14.2289 25.6473 12.5838 25.3974L12.5784 25.3963Z" fill="#2F3A5A"/>
<path d="M45.1999 40.9023L38.6686 34.7738C38.6139 34.7226 38.5498 34.6823 38.4799 34.6552L36.595 33.925L33.5763 29.9679L31.3154 32.4674L39.8459 45.3786C39.8913 45.4473 39.9506 45.5056 40.02 45.5497C40.0895 45.5938 40.1675 45.6228 40.2489 45.6348C40.3303 45.6467 40.4133 45.6413 40.4925 45.619C40.5717 45.5967 40.6452 45.5579 40.7084 45.5051L45.1733 41.7773C45.2369 41.7244 45.2885 41.6585 45.3247 41.5841C45.361 41.5097 45.381 41.4285 45.3835 41.3458C45.3861 41.2631 45.371 41.1807 45.3393 41.1043C45.3077 41.0278 45.2601 40.959 45.1999 40.9023Z" fill="#E1B378"/>
<g opacity="0.5">
<path opacity="0.5" d="M45.1734 41.7773L40.7064 45.504C40.6432 45.5567 40.5697 45.5954 40.4905 45.6177C40.4114 45.6401 40.3284 45.6455 40.2471 45.6336C40.1657 45.6218 40.0877 45.5929 40.0183 45.5489C39.9488 45.5049 39.8894 45.4467 39.8439 45.3782L31.3159 32.4659L32.1569 31.5387L40.0775 43.5274C40.1229 43.5961 40.1822 43.6544 40.2517 43.6985C40.3212 43.7426 40.3992 43.7715 40.4806 43.7834C40.562 43.7952 40.645 43.7898 40.7242 43.7674C40.8034 43.7449 40.8769 43.706 40.94 43.6532L44.7458 40.4763L45.1986 40.9004C45.2593 40.957 45.3072 41.0259 45.3392 41.1025C45.3712 41.1791 45.3866 41.2616 45.3842 41.3445C45.3818 41.4275 45.3618 41.509 45.3254 41.5836C45.2891 41.6582 45.2373 41.7243 45.1734 41.7773Z" fill="#BD8D5A"/>
</g>
<path d="M40.3322 46C40.2863 46.0001 40.2406 45.9967 40.1952 45.99C40.0638 45.9706 39.938 45.9238 39.8259 45.8525C39.7138 45.7812 39.618 45.6871 39.5448 45.5763L30.8608 32.4325L33.5986 29.4059L36.8193 33.6264L38.6086 34.3207C38.7214 34.3644 38.8248 34.4294 38.913 34.5122L45.4461 40.6403C45.5436 40.7318 45.6205 40.8429 45.6719 40.9663C45.7232 41.0897 45.7478 41.2226 45.7439 41.3563C45.74 41.4899 45.7078 41.6211 45.6494 41.7414C45.591 41.8616 45.5077 41.9681 45.4051 42.0537L40.937 45.7808C40.7672 45.9223 40.5532 45.9999 40.3322 46ZM31.7686 32.5012L40.1453 45.1799C40.1628 45.2064 40.1856 45.2289 40.2124 45.2459C40.2391 45.2629 40.2692 45.2741 40.3006 45.2787C40.3319 45.2834 40.3639 45.2813 40.3945 45.2727C40.425 45.2641 40.4534 45.2491 40.4777 45.2288L44.9455 41.5014C44.9699 41.4809 44.9896 41.4555 45.0035 41.4268C45.0174 41.3981 45.025 41.3669 45.0259 41.335C45.0269 41.3032 45.021 41.2715 45.0088 41.2421C44.9966 41.2126 44.9783 41.1861 44.9552 41.1643L38.421 35.0362C38.4002 35.0165 38.3758 35.0008 38.3491 34.9902L36.3726 34.2233L33.5515 30.5293L31.7686 32.5012Z" fill="#2F3A5A"/>
<path d="M33.7121 30.5854L33.563 27.6054C33.5567 27.48 33.5009 27.3623 33.4078 27.278L23.4531 18.2714L24.0162 17.6489L20.4487 14.4239L18.9131 16.1216L21.0636 18.0669L18.9648 20.3874L24.533 25.4244L23.2996 26.7878C23.2694 26.8212 23.2461 26.8603 23.2309 26.9027C23.2158 26.9451 23.2092 26.9901 23.2114 27.0351C23.2137 27.0801 23.2248 27.1242 23.2442 27.1649C23.2635 27.2056 23.2906 27.2421 23.3241 27.2723L23.8448 27.7438C23.8776 27.7735 23.9159 27.7964 23.9576 27.8113C23.9992 27.8262 24.0434 27.8327 24.0876 27.8305C24.1318 27.8283 24.1751 27.8174 24.2151 27.7985C24.2551 27.7795 24.2909 27.7529 24.3206 27.7201L25.1019 26.8576C25.1316 26.8247 25.1674 26.7981 25.2074 26.7791C25.2474 26.7602 25.2907 26.7493 25.3349 26.7471C25.3791 26.7449 25.4233 26.7514 25.4649 26.7663C25.5066 26.7812 25.5449 26.8041 25.5777 26.8338L27.6531 28.7112C27.6859 28.7409 27.7125 28.7767 27.7315 28.8167C27.7505 28.8567 27.7613 28.9 27.7635 28.9442C27.7657 28.9884 27.7592 29.0326 27.7443 29.0742C27.7295 29.1159 27.7065 29.1542 27.6768 29.187L27.1816 29.7344C27.1519 29.7671 27.1289 29.8055 27.1141 29.8471C27.0992 29.8888 27.0926 29.933 27.0948 29.9772C27.097 30.0214 27.1079 30.0647 27.1269 30.1047C27.1458 30.1446 27.1725 30.1805 27.2053 30.2102L27.3038 30.2993C27.3582 30.3486 27.395 30.4143 27.4086 30.4864C27.4223 30.5586 27.4119 30.6332 27.3792 30.6989L25.9737 33.525C25.9402 33.593 25.8909 33.6519 25.83 33.6968L25.2816 34.0968C25.2071 34.1512 25.1502 34.2261 25.1177 34.3124L24.9916 34.6452C24.9488 34.7581 24.9507 34.883 24.997 34.9944C25.0432 35.1059 25.1302 35.1955 25.2402 35.245L27.3537 36.1956C27.4663 36.2462 27.5941 36.2508 27.7101 36.2086C27.826 36.1663 27.9209 36.0804 27.9744 35.9692L29.8632 32.0448C29.8951 31.9784 29.9421 31.9204 30.0003 31.8753C30.0586 31.8303 30.1265 31.7994 30.1988 31.7853C30.2711 31.7711 30.3456 31.774 30.4166 31.7937C30.4875 31.8134 30.5529 31.8494 30.6075 31.8989L31.4154 32.6298C31.4615 32.6716 31.5153 32.7038 31.5739 32.7247C31.6325 32.7457 31.6946 32.7548 31.7567 32.7517C31.8188 32.7486 31.8797 32.7333 31.9359 32.7067C31.9921 32.68 32.0425 32.6426 32.0842 32.5964L33.5914 30.93C33.6333 30.8834 33.6656 30.829 33.6863 30.7698C33.7071 30.7106 33.7158 30.6479 33.7121 30.5854Z" fill="#707583"/>
<path d="M27.5494 36.5947C27.4305 36.5945 27.3131 36.569 27.2048 36.52L25.0913 35.5694C24.898 35.4823 24.7451 35.3248 24.6637 35.1289C24.5823 34.933 24.5786 34.7136 24.6532 34.515L24.7794 34.1823C24.8364 34.0312 24.9363 33.9 25.0669 33.8049L25.6156 33.4049C25.6308 33.3943 25.6431 33.3801 25.6516 33.3636L27.0571 30.5375L26.9636 30.4753C26.8958 30.414 26.8407 30.3399 26.8015 30.2574C26.7623 30.1748 26.7398 30.0853 26.7352 29.994C26.7306 29.9027 26.744 29.8113 26.7747 29.7252C26.8054 29.6391 26.8527 29.5599 26.914 29.4921L27.4093 28.9447L25.336 27.0968L24.5871 27.9593C24.463 28.0959 24.2899 28.1778 24.1056 28.187C23.9214 28.1962 23.7409 28.1321 23.6038 28.0086L23.0831 27.5374C22.9453 27.4123 22.8626 27.2377 22.8533 27.0517C22.844 26.8658 22.9088 26.6838 23.0335 26.5455L24.0258 25.4487L18.7235 20.6536C18.6885 20.6219 18.6601 20.5837 18.6398 20.541C18.6196 20.4984 18.6079 20.4521 18.6056 20.405C18.6032 20.3578 18.6101 20.3107 18.626 20.2662C18.6419 20.2217 18.6663 20.1808 18.698 20.1458L20.5564 18.0923L18.6721 16.3875C18.6371 16.3558 18.6087 16.3176 18.5884 16.2749C18.5682 16.2322 18.5565 16.186 18.5542 16.1388C18.5518 16.0917 18.5587 16.0445 18.5746 16.0001C18.5905 15.9556 18.6149 15.9147 18.6466 15.8797L20.1822 14.182C20.2139 14.1469 20.2521 14.1185 20.2948 14.0982C20.3375 14.078 20.3837 14.0664 20.4309 14.064C20.478 14.0616 20.5252 14.0686 20.5696 14.0844C20.6141 14.1003 20.655 14.1248 20.69 14.1565L24.2554 17.3818C24.2904 17.4135 24.3189 17.4518 24.3391 17.4944C24.3594 17.5371 24.371 17.5833 24.3734 17.6305C24.3758 17.6776 24.3688 17.7248 24.3529 17.7693C24.3371 17.8137 24.3126 17.8546 24.2809 17.8896L23.9575 18.2454L33.6484 27.0117C33.7296 27.0847 33.7956 27.1731 33.8425 27.2718C33.8894 27.3705 33.9162 27.4775 33.9215 27.5867L34.0706 30.5662C34.0807 30.7869 34.0032 31.0026 33.855 31.1664L32.3478 32.8328C32.1995 32.9964 31.9924 33.0944 31.7719 33.1055C31.5514 33.1165 31.3355 33.0397 31.1716 32.8917L30.3633 32.1608C30.3501 32.1488 30.3343 32.1401 30.3171 32.1353C30.2999 32.1306 30.2819 32.1299 30.2644 32.1334C30.2469 32.1369 30.2305 32.1445 30.2165 32.1555C30.2025 32.1665 30.1912 32.1806 30.1836 32.1967L28.2948 36.1211C28.228 36.2624 28.1226 36.382 27.9907 36.4658C27.8587 36.5496 27.7057 36.5944 27.5494 36.5947ZM25.3518 26.3853C25.5246 26.3847 25.6912 26.4488 25.819 26.565L27.8944 28.4423C27.9622 28.5037 28.0173 28.5777 28.0564 28.6603C28.0956 28.7429 28.1181 28.8325 28.1227 28.9238C28.1273 29.0151 28.1138 29.1064 28.0831 29.1925C28.0524 29.2786 28.005 29.3578 27.9437 29.4256L27.4474 29.9718L27.5444 30.029C27.6568 30.131 27.7328 30.2669 27.7611 30.416C27.7894 30.5652 27.7683 30.7194 27.7011 30.8555L26.2956 33.6817C26.236 33.8011 26.1488 33.9046 26.0411 33.9835L25.492 34.3839C25.4743 34.3969 25.4607 34.4147 25.4528 34.4353L25.3263 34.7684C25.3164 34.7955 25.317 34.8254 25.3282 34.852C25.3393 34.8787 25.3601 34.9002 25.3863 34.9122L27.4995 35.8656C27.5266 35.878 27.5575 35.8792 27.5854 35.869C27.6134 35.8587 27.6363 35.8379 27.649 35.8109L29.5378 31.8866C29.594 31.7698 29.6765 31.6678 29.779 31.5886C29.8815 31.5094 30.001 31.4551 30.1281 31.4302C30.2553 31.4053 30.3864 31.4104 30.5112 31.4451C30.636 31.4798 30.751 31.5431 30.847 31.63L31.6553 32.3609C31.6664 32.3711 31.6794 32.3789 31.6935 32.384C31.7076 32.389 31.7226 32.3913 31.7376 32.3905C31.7526 32.3898 31.7673 32.3861 31.7809 32.3797C31.7944 32.3732 31.8066 32.3642 31.8166 32.353L33.3239 30.6866C33.3441 30.6641 33.3547 30.6346 33.3533 30.6043L33.2038 27.6244C33.2026 27.5944 33.1897 27.566 33.1679 27.5453L23.2132 18.5387C23.1782 18.507 23.1497 18.4688 23.1295 18.4261C23.1092 18.3835 23.0976 18.3372 23.0952 18.2901C23.0929 18.2429 23.0998 18.1957 23.1157 18.1513C23.1315 18.1068 23.156 18.0659 23.1877 18.0309L23.5111 17.6751L20.4791 14.932L19.4207 16.096L21.3046 17.8002C21.3396 17.8318 21.3681 17.8701 21.3883 17.9127C21.4085 17.9554 21.4202 18.0016 21.4226 18.0488C21.4249 18.0959 21.418 18.1431 21.4021 18.1876C21.3862 18.232 21.3618 18.2729 21.3301 18.308L19.4725 20.3618L24.774 25.1562C24.809 25.1879 24.8375 25.2261 24.8577 25.2688C24.8779 25.3114 24.8896 25.3577 24.892 25.4048C24.8943 25.452 24.8874 25.4991 24.8715 25.5436C24.8556 25.5881 24.8312 25.629 24.7995 25.664L23.5661 27.0285L24.0858 27.4767L24.8351 26.6142C24.8962 26.5462 24.9702 26.4911 25.0528 26.4519C25.1354 26.4127 25.225 26.3903 25.3163 26.386L25.3518 26.3853Z" fill="#2F3A5A"/>
<path d="M18.9126 16.1216L20.4482 14.4239L14.953 9.45157C14.9099 9.41251 14.8595 9.38233 14.8047 9.36277C14.7499 9.3432 14.6918 9.33462 14.6337 9.33753C14.5756 9.34043 14.5186 9.35476 14.4661 9.37969C14.4135 9.40462 14.3664 9.43967 14.3274 9.48283L11.6144 12.4818C11.5357 12.5689 11.4947 12.6838 11.5006 12.8011C11.5064 12.9184 11.5586 13.0286 11.6457 13.1075L16.7316 17.7075L18.964 20.3855L21.0631 18.0654L18.9126 16.1216Z" fill="#9297AB"/>
<path d="M18.9641 20.7464H18.957C18.9053 20.7455 18.8545 20.7335 18.808 20.7113C18.7614 20.689 18.7202 20.657 18.6871 20.6173L16.4708 17.958L11.4036 13.3745C11.2459 13.2317 11.1513 13.0322 11.1407 12.8197C11.13 12.6072 11.2042 12.3992 11.3468 12.2414L14.0594 9.2424C14.2022 9.08462 14.4019 8.99003 14.6144 8.97945C14.827 8.96887 15.0351 9.04316 15.1929 9.18598L20.6895 14.1572C20.7245 14.1889 20.753 14.2271 20.7732 14.2698C20.7935 14.3124 20.8051 14.3587 20.8075 14.4058C20.8099 14.453 20.8029 14.5001 20.7871 14.5446C20.7712 14.5891 20.7467 14.63 20.715 14.665L19.4213 16.096L21.3051 17.8002C21.3402 17.8319 21.3686 17.8701 21.3888 17.9128C21.4091 17.9554 21.4207 18.0017 21.4231 18.0488C21.4255 18.096 21.4185 18.1431 21.4027 18.1876C21.3868 18.2321 21.3623 18.273 21.3306 18.308L19.2308 20.6281C19.1971 20.6654 19.1559 20.6951 19.11 20.7155C19.0641 20.7359 19.0144 20.7464 18.9641 20.7464ZM14.656 9.69737H14.6516C14.6407 9.69777 14.6299 9.7004 14.6199 9.70509C14.61 9.70979 14.6011 9.71645 14.5938 9.72469L11.8809 12.7237C11.8661 12.7401 11.8585 12.7618 11.8596 12.7839C11.8608 12.806 11.8706 12.8267 11.887 12.8415L16.9729 17.4415C16.9857 17.4527 16.9977 17.4647 17.0088 17.4775L18.9746 19.8375L20.5558 18.0906L18.6716 16.3875C18.6366 16.3558 18.6081 16.3176 18.5879 16.2749C18.5676 16.2323 18.556 16.186 18.5536 16.1389C18.5513 16.0917 18.5582 16.0446 18.5741 16.0001C18.5899 15.9556 18.6144 15.9147 18.6461 15.8797L19.9399 14.4487L14.7117 9.71894C14.6965 9.705 14.6766 9.6973 14.656 9.69737Z" fill="#2F3A5A"/>
<path d="M25.4281 31.5531C25.1211 31.554 24.8248 31.4404 24.5969 31.2347L23.3491 30.1059C23.1055 29.8851 22.9594 29.5765 22.943 29.2481C22.9265 28.9196 23.0411 28.5981 23.2614 28.354L24.1315 27.3923C24.1631 27.3573 24.2014 27.3289 24.244 27.3087C24.2867 27.2885 24.3329 27.2768 24.38 27.2745C24.4272 27.2721 24.4743 27.2791 24.5188 27.295C24.5632 27.3108 24.6041 27.3353 24.6391 27.367C24.6741 27.3986 24.7025 27.4369 24.7227 27.4795C24.7429 27.5222 24.7545 27.5684 24.7569 27.6155C24.7592 27.6627 24.7523 27.7098 24.7364 27.7542C24.7206 27.7987 24.6961 27.8396 24.6644 27.8746L23.7944 28.8363C23.7484 28.887 23.7128 28.9462 23.6897 29.0107C23.6666 29.0751 23.6564 29.1435 23.6598 29.2119C23.6631 29.2803 23.6799 29.3473 23.7091 29.4092C23.7384 29.4711 23.7796 29.5266 23.8303 29.5726L25.0781 30.7014C25.1798 30.7928 25.3134 30.8408 25.45 30.835C25.5867 30.8292 25.7157 30.7702 25.8094 30.6705L27.0597 29.33C27.1247 29.2603 27.2147 29.2193 27.31 29.2159C27.4052 29.2126 27.4979 29.2472 27.5676 29.3122C27.6374 29.3773 27.6784 29.4673 27.6817 29.5626C27.6851 29.6578 27.6504 29.7505 27.5854 29.8202L26.3352 31.1603C26.2191 31.2846 26.0786 31.3836 25.9225 31.4512C25.7665 31.5188 25.5982 31.5535 25.4281 31.5531Z" fill="#2F3A5A"/>
<path d="M25.4391 29.6617C25.1926 29.6596 24.9496 29.6035 24.7272 29.4971C24.6841 29.4775 24.6452 29.4495 24.6129 29.4148C24.5806 29.3802 24.5555 29.3394 24.539 29.295C24.5226 29.2506 24.515 29.2033 24.5169 29.1559C24.5187 29.1086 24.5299 29.0621 24.5498 29.019C24.5697 28.976 24.598 28.9374 24.6329 28.9053C24.6678 28.8733 24.7087 28.8484 24.7532 28.8322C24.7978 28.816 24.8451 28.8088 24.8924 28.811C24.9397 28.8132 24.9862 28.8247 25.0291 28.8449C25.9875 29.289 26.6682 28.0212 26.6966 27.9665C26.7415 27.8835 26.8172 27.8214 26.9075 27.7938C26.9977 27.7661 27.0953 27.7751 27.179 27.8188C27.2627 27.8624 27.3258 27.9373 27.3548 28.0271C27.3838 28.117 27.3762 28.2146 27.3337 28.299C27.0538 28.8373 26.3577 29.6617 25.4391 29.6617Z" fill="#2F3A5A"/>

</svg>
