<svg width="16" height="17" viewBox="0 0 16 17" fill="none" xmlns="http://www.w3.org/2000/svg">
<path d="M6.08985 14.3489V12.3104C6.08985 11.79 6.51478 11.3682 7.03896 11.3682H8.95507C9.20679 11.3682 9.4482 11.4675 9.62619 11.6442C9.80418 11.8209 9.90418 12.0605 9.90418 12.3104V14.3489C9.90259 14.5652 9.98804 14.7733 10.1416 14.9268C10.2951 15.0803 10.504 15.1667 10.722 15.1667H12.0292C12.6398 15.1682 13.2258 14.9286 13.6581 14.5005C14.0904 14.0725 14.3333 13.4913 14.3333 12.8852V7.07791C14.3333 6.58831 14.1147 6.1239 13.7364 5.80978L9.28935 2.28392C8.51577 1.66571 7.40741 1.68567 6.65693 2.33132L2.31134 5.80978C1.91516 6.11464 1.67837 6.58043 1.66667 7.07791V12.8793C1.66667 14.1426 2.69826 15.1667 3.97078 15.1667H5.24819C5.70082 15.1667 6.06867 14.8041 6.07195 14.3548L6.08985 14.3489Z" fill="#F2F2F2"/>
</svg>
