<svg viewBox="0 0 16 17" fill="none" xmlns="http://www.w3.org/2000/svg">
<path fill-rule="evenodd" clip-rule="evenodd" d="M5.11328 1.8328H10.8933C13.1533 1.8328 14.6666 3.41947 14.6666 5.77947V11.2268C14.6666 13.5801 13.1533 15.1661 10.8933 15.1661H5.11328C2.85328 15.1661 1.33328 13.5801 1.33328 11.2268V5.77947C1.33328 3.41947 2.85328 1.8328 5.11328 1.8328ZM7.99328 6.54014C7.67995 6.54014 7.41995 6.27947 7.41995 5.96014C7.41995 5.63347 7.67995 5.37347 8.00661 5.37347C8.32661 5.37347 8.58661 5.63347 8.58661 5.96014C8.58661 6.27947 8.32661 6.54014 7.99328 6.54014ZM8.57995 11.0201C8.57995 11.3401 8.31995 11.6001 7.99328 11.6001C7.67328 11.6001 7.41328 11.3401 7.41328 11.0201V8.07347C7.41328 7.7528 7.67328 7.4868 7.99328 7.4868C8.31995 7.4868 8.57995 7.7528 8.57995 8.07347V11.0201Z" fill="#F2F2F2"/>
</svg>
