<svg viewBox="0 0 70 70" fill="none" xmlns="http://www.w3.org/2000/svg">

<path d="M25.3068 3.25655C25.3068 3.25655 20.9744 4.97647 21.5574 15.5487H24.9157C24.9157 15.5487 23.9625 9.7764 26.5093 6.16046C29.0561 2.54452 25.3068 3.25655 25.3068 3.25655Z" fill="#B0B3C1"/>
<path d="M24.916 16.0958H21.5571C21.4172 16.096 21.2824 16.0426 21.1807 15.9464C21.079 15.8503 21.018 15.7188 21.0103 15.579C20.4136 4.73724 24.9128 2.82482 25.1047 2.74826C25.1369 2.73538 25.1702 2.72567 25.2042 2.71927C25.3951 2.68263 27.0877 2.39115 27.7253 3.38318C28.1782 4.08537 27.9266 5.09708 26.9564 6.47521C24.5666 9.86857 25.446 15.4035 25.4553 15.4593C25.4682 15.5376 25.4639 15.6178 25.4428 15.6943C25.4216 15.7708 25.384 15.8418 25.3327 15.9023C25.2813 15.9628 25.2174 16.0114 25.1453 16.0447C25.0733 16.0781 24.9949 16.0953 24.9155 16.0953L24.916 16.0958ZM22.0789 15.0021H24.2942C24.1203 13.3582 23.8972 8.92029 26.0623 5.84576C26.8132 4.7799 26.9324 4.17232 26.8066 3.97654C26.6502 3.73373 25.9431 3.71021 25.4728 3.78294C25.0588 3.99951 21.7108 6.0399 22.0789 15.0021Z" fill="#2F3A5A"/>
<path d="M44.4796 3.25655C44.4796 3.25655 48.8119 4.97647 48.2284 15.5487H44.8701C44.8701 15.5487 45.8233 9.7764 43.2765 6.16046C40.7297 2.54452 44.4796 3.25655 44.4796 3.25655Z" fill="#B0B3C1"/>
<path d="M48.2283 16.0953H44.87C44.7907 16.0953 44.7123 16.078 44.6403 16.0447C44.5683 16.0114 44.5044 15.9629 44.4531 15.9024C44.4017 15.842 44.3641 15.7711 44.3429 15.6946C44.3217 15.6182 44.3174 15.5381 44.3302 15.4598C44.3395 15.4051 45.214 9.86198 42.829 6.47518C41.8589 5.09651 41.6073 4.08534 42.0601 3.38315C42.6978 2.39386 44.3909 2.68315 44.5812 2.71925C44.6153 2.72565 44.6486 2.73535 44.6808 2.74823C44.8727 2.82479 49.3724 4.73721 48.7741 15.5785C48.7664 15.718 48.7056 15.8494 48.6041 15.9455C48.5026 16.0416 48.3681 16.0952 48.2283 16.0953ZM45.494 15.0015H47.7094C48.0752 6.03932 44.7289 3.99948 44.3149 3.78237C43.8446 3.70909 43.1369 3.73261 42.9816 3.97596C42.8558 4.17175 42.9751 4.77932 43.7259 5.84518C45.8888 8.91971 45.664 13.3576 45.4923 15.0015H45.494Z" fill="#2F3A5A"/>
<path d="M55.0057 44.1245L48.2666 69.453H56.7891C57.399 69.4537 58.003 69.3337 58.5662 69.0999C59.1295 68.8661 59.641 68.5231 60.0711 68.0908C60.5013 67.6584 60.8416 67.1452 61.0726 66.5808C61.3035 66.0163 61.4205 65.4117 61.4167 64.8019C61.4036 62.733 61.4342 59.8647 61.5682 55.9857C61.9226 45.699 55.0057 44.1245 55.0057 44.1245Z" fill="#FAC77C"/>
<path d="M56.7886 69.9998H48.2661C48.1824 69.9997 48.0997 69.9804 48.0246 69.9434C47.9494 69.9064 47.8838 69.8526 47.8327 69.7861C47.7817 69.7197 47.7466 69.6424 47.7301 69.5603C47.7137 69.4781 47.7163 69.3933 47.7379 69.3123L54.4775 43.9844C54.5139 43.8476 54.602 43.7302 54.7232 43.657C54.8443 43.5837 54.9892 43.5603 55.1272 43.5917C55.2011 43.6081 62.4805 45.3882 62.1146 56.0058C61.9987 59.3707 61.9473 62.3293 61.9632 64.8001C61.9671 65.4819 61.8362 66.1578 61.5778 66.7888C61.3195 67.4198 60.9389 67.9935 60.458 68.4768C59.977 68.96 59.4052 69.3434 58.7754 69.6048C58.1457 69.8662 57.4705 70.0004 56.7886 69.9998ZM48.9776 68.906H56.7886C57.3264 68.9066 57.8591 68.8008 58.3558 68.5946C58.8525 68.3884 59.3035 68.086 59.6828 67.7047C60.0622 67.3235 60.3623 66.8709 60.5659 66.3732C60.7696 65.8754 60.8727 65.3423 60.8694 64.8045C60.8536 62.3189 60.905 59.3455 61.0214 55.9659C61.3009 47.8645 56.8986 45.4227 55.3853 44.8249L48.9776 68.906Z" fill="#2F3A5A"/>
<path d="M14.9943 44.1245L21.7335 69.453H13.2115C12.6017 69.4537 11.9977 69.3337 11.4344 69.0999C10.8711 68.8661 10.3596 68.5231 9.92949 68.0908C9.49933 67.6584 9.15898 67.1452 8.92803 66.5808C8.69709 66.0163 8.58013 65.4117 8.58388 64.8019C8.59701 62.733 8.56638 59.8647 8.4324 55.9857C8.07747 45.699 14.9943 44.1245 14.9943 44.1245Z" fill="#FAC77C"/>
<path d="M21.7339 69.9998H13.2114C12.5294 70.0004 11.854 69.8661 11.2241 69.6046C10.5942 69.3431 10.0223 68.9595 9.54132 68.476C9.06033 67.9924 8.67977 67.4185 8.42157 66.7873C8.16338 66.156 8.03264 65.4799 8.0369 64.7979C8.05276 62.3277 8.0019 59.3691 7.88541 56.0041C7.51955 45.3904 14.7996 43.6081 14.875 43.5917C15.0131 43.5603 15.1579 43.5837 15.2791 43.657C15.4003 43.7302 15.4883 43.8476 15.5247 43.9844L22.2644 69.3123C22.286 69.3935 22.2886 69.4785 22.272 69.5608C22.2554 69.6431 22.2201 69.7205 22.1688 69.787C22.1176 69.8535 22.0516 69.9072 21.9762 69.9441C21.9008 69.981 21.8179 70.0001 21.7339 69.9998ZM14.6131 44.8195C13.0867 45.4002 8.69643 47.7873 8.98026 55.967C9.09674 59.3466 9.14815 62.32 9.13229 64.805C9.12897 65.3428 9.2321 65.8759 9.43575 66.3737C9.63939 66.8715 9.93953 67.324 10.3189 67.7053C10.6982 68.0865 11.1492 68.389 11.6459 68.5951C12.1426 68.8013 12.6753 68.9072 13.2131 68.9066H21.0224L14.6131 44.8195Z" fill="#2F3A5A"/>
<path d="M34.776 10.2266C31.8878 10.2266 29.0279 10.7955 26.3596 11.9008C23.6913 13.0061 21.2668 14.6261 19.2247 16.6685C17.1825 18.7108 15.5626 21.1354 14.4575 23.8037C13.3524 26.4721 12.7837 29.3321 12.7839 32.2202V66.0893C12.7839 66.9814 13.1383 67.837 13.7692 68.4679C14.4 69.0987 15.2556 69.4531 16.1478 69.4531H53.4036C53.8455 69.4532 54.283 69.3662 54.6912 69.1972C55.0994 69.0281 55.4703 68.7803 55.7828 68.4679C56.0952 68.1555 56.343 67.7845 56.512 67.3763C56.6811 66.9681 56.7681 66.5306 56.768 66.0887V32.2202C56.7682 29.3321 56.1995 26.4721 55.0944 23.8037C53.9893 21.1354 52.3694 18.7108 50.3273 16.6685C48.2851 14.6261 45.8606 13.0061 43.1923 11.9008C40.524 10.7955 37.6641 10.2266 34.776 10.2266Z" fill="#FAC77C"/>
<path d="M56.7658 32.2185V66.0881C56.7655 66.9804 56.4109 67.836 55.7801 68.467C55.1492 69.0979 54.2936 69.4526 53.4014 69.453H16.145C15.5235 69.4524 14.9143 69.28 14.3848 68.9547C13.8552 68.6295 13.4259 68.1641 13.1443 67.6101H50.4007C50.8422 67.6098 51.2793 67.5225 51.687 67.3532C52.0947 67.1839 52.4651 66.9359 52.7769 66.6234C53.0887 66.3109 53.3359 65.9401 53.5044 65.532C53.6728 65.1239 53.7592 64.6866 53.7585 64.2452V30.375C53.7615 26.9088 52.9434 23.4911 51.3714 20.4018C49.7994 17.3126 47.5181 14.6395 44.7143 12.6016C48.3401 14.4379 51.3858 17.2433 53.5133 20.7063C55.6408 24.1693 56.7666 28.1542 56.7658 32.2185Z" fill="#E5AE5C"/>
<path d="M53.4034 70H16.1476C15.1107 69.9988 14.1166 69.5865 13.3834 68.8533C12.6501 68.1202 12.2376 67.1262 12.2363 66.0893V32.2202C12.2426 26.2443 14.6191 20.5149 18.8446 16.2891C23.0701 12.0633 28.7993 9.68635 34.7752 9.67969C40.7509 9.68678 46.4797 12.064 50.7048 16.2897C54.9299 20.5154 57.3063 26.2446 57.3125 32.2202V66.0893C57.3113 67.1258 56.8992 68.1196 56.1664 68.8527C55.4336 69.5858 54.44 69.9984 53.4034 70ZM34.7758 10.7734C29.0897 10.7797 23.6384 13.0413 19.6179 17.062C15.5973 21.0827 13.336 26.5342 13.3301 32.2202V66.0893C13.3309 66.8362 13.6281 67.5523 14.1563 68.0804C14.6845 68.6085 15.4006 68.9055 16.1476 68.9062H53.4034C54.1503 68.9054 54.8663 68.6083 55.3944 68.0802C55.9225 67.5521 56.2195 66.8361 56.2204 66.0893V32.2202C56.2145 26.5344 53.9533 21.0831 49.933 17.0624C45.9127 13.0417 40.4616 10.78 34.7758 10.7734Z" fill="#2F3A5A"/>
<path d="M45.9162 37.9985H23.6344C21.5108 37.9985 19.7893 39.72 19.7893 41.8436V60.8442C19.7893 62.9678 21.5108 64.6893 23.6344 64.6893H45.9162C48.0398 64.6893 49.7613 62.9678 49.7613 60.8442V41.8436C49.7613 39.72 48.0398 37.9985 45.9162 37.9985Z" fill="#DBE2EB"/>
<path d="M49.7659 41.8411V60.8439C49.7655 61.3491 49.6656 61.8493 49.4719 62.3159C49.2782 62.7825 48.9944 63.2064 48.6368 63.5633C48.2792 63.9202 47.8549 64.2032 47.3879 64.3961C46.9209 64.5889 46.4205 64.6879 45.9153 64.6873H23.6323C22.8525 64.6877 22.0911 64.4508 21.4492 64.008C20.8073 63.5651 20.3154 62.9375 20.0388 62.2083C20.3016 62.2658 20.5699 62.2946 20.8389 62.2942H43.1213C43.6265 62.2948 44.1269 62.1958 44.5939 62.0029C45.0609 61.8101 45.4853 61.5271 45.8428 61.1702C46.2004 60.8133 46.4842 60.3894 46.6779 59.9228C46.8716 59.4562 46.9715 58.956 46.9719 58.4508V39.448C46.9738 38.9816 46.8891 38.5189 46.7219 38.0835C47.5828 38.2668 48.3547 38.7399 48.9087 39.4238C49.4627 40.1077 49.7652 40.9609 49.7659 41.8411Z" fill="#BAC2D3"/>
<path d="M45.9162 65.2362H23.6344C22.47 65.2349 21.3536 64.7717 20.5302 63.9484C19.7069 63.125 19.2437 62.0087 19.2424 60.8442V41.8436C19.2437 40.6792 19.7069 39.5628 20.5302 38.7395C21.3536 37.9161 22.47 37.453 23.6344 37.4517H45.9162C47.0807 37.453 48.197 37.9161 49.0204 38.7395C49.8438 39.5628 50.3069 40.6792 50.3082 41.8436V60.8442C50.3069 62.0087 49.8438 63.125 49.0204 63.9484C48.197 64.7717 47.0807 65.2349 45.9162 65.2362ZM23.6344 38.5449C22.76 38.5459 21.9216 38.8937 21.3033 39.512C20.685 40.1303 20.3372 40.9686 20.3362 41.8431V60.8437C20.3372 61.7181 20.685 62.5564 21.3033 63.1748C21.9216 63.7931 22.76 64.1409 23.6344 64.1419H45.9162C46.7907 64.1409 47.629 63.7931 48.2473 63.1748C48.8656 62.5564 49.2134 61.7181 49.2144 60.8437V41.8436C49.2134 40.9692 48.8656 40.1309 48.2473 39.5126C47.629 38.8942 46.7907 38.5464 45.9162 38.5454L23.6344 38.5449Z" fill="#2F3A5A"/>
<path d="M47.0776 21.9663H22.8324C21.251 21.9663 19.969 23.2483 19.969 24.8297V29.8402C19.969 31.4216 21.251 32.7037 22.8324 32.7037H47.0776C48.659 32.7037 49.941 31.4216 49.941 29.8402V24.8297C49.941 23.2483 48.659 21.9663 47.0776 21.9663Z" fill="#DBE2EB"/>
<path d="M49.9432 24.8316V29.8394C49.9431 30.599 49.6412 31.3275 49.104 31.8646C48.5668 32.4016 47.8383 32.7034 47.0787 32.7034H22.8319C22.1585 32.704 21.5065 32.4673 20.9904 32.0348C20.4743 31.6023 20.1272 31.0017 20.01 30.3387C20.1751 30.3674 20.3423 30.3816 20.5099 30.3813H44.7566C45.133 30.3819 45.5057 30.3082 45.8535 30.1645C46.2013 30.0207 46.5173 29.8097 46.7835 29.5436C47.0496 29.2775 47.2605 28.9615 47.4043 28.6137C47.548 28.2659 47.6217 27.8931 47.6212 27.5168V22.5096C47.6213 22.3421 47.6068 22.1748 47.578 22.0098C48.241 22.127 48.8416 22.4742 49.2741 22.9902C49.7067 23.5063 49.9436 24.1583 49.9432 24.8316Z" fill="#BAC2D3"/>
<path d="M46.8984 33.2497H22.6527C21.7486 33.2485 20.8819 32.8888 20.2427 32.2495C19.6035 31.6102 19.2439 30.7434 19.2429 29.8394V24.8278C19.2439 23.9236 19.6036 23.0568 20.2429 22.4175C20.8822 21.7781 21.7491 21.4185 22.6532 21.4175H46.8984C47.8025 21.4185 48.6694 21.7781 49.3087 22.4175C49.9481 23.0568 50.3077 23.9236 50.3087 24.8278V29.8383C50.308 30.7426 49.9485 31.6097 49.3091 32.2493C48.6697 32.8889 47.8027 33.2487 46.8984 33.2497ZM22.6527 22.5129C22.0389 22.5137 21.4505 22.7579 21.0164 23.1918C20.5822 23.6257 20.3378 24.214 20.3367 24.8278V29.8383C20.3371 30.4525 20.5812 31.0415 21.0154 31.476C21.4496 31.9105 22.0384 32.155 22.6527 32.1559H46.8984C47.5125 32.1552 48.1013 31.9109 48.5356 31.4766C48.9699 31.0423 49.2142 30.4535 49.2149 29.8394V24.8278C49.2142 24.2136 48.9699 23.6248 48.5356 23.1905C48.1013 22.7563 47.5125 22.512 46.8984 22.5112L22.6527 22.5129Z" fill="#2F3A5A"/>
<path d="M43.0417 6.74373C37.7489 4.55146 31.8019 4.55146 26.5091 6.74373L24.9155 2.89866C31.2285 0.283782 38.3217 0.283782 44.6347 2.89866L43.0417 6.74373Z" fill="#84879C"/>
<path d="M43.042 6.90158C42.9702 6.90162 42.899 6.8875 42.8326 6.86002C40.2801 5.79452 37.5417 5.24589 34.7758 5.24589C32.0098 5.24589 29.2714 5.79452 26.7189 6.86002C26.6525 6.88749 26.5812 6.90159 26.5093 6.90151C26.4374 6.90142 26.3662 6.88715 26.2998 6.85952C26.2334 6.83189 26.1732 6.79143 26.1224 6.74047C26.0717 6.6895 26.0315 6.62903 26.0042 6.56252L24.4111 2.71744C24.3836 2.65108 24.3694 2.57995 24.3694 2.50812C24.3694 2.43628 24.3835 2.36514 24.411 2.29876C24.4384 2.23239 24.4787 2.17207 24.5295 2.12127C24.5803 2.07047 24.6406 2.03017 24.707 2.00267C27.8968 0.671341 31.319 -0.0141602 34.7755 -0.0141602C38.232 -0.0141602 41.6542 0.671341 44.844 2.00267C44.9104 2.03017 44.9707 2.07047 45.0215 2.12127C45.0722 2.17207 45.1125 2.23239 45.14 2.29876C45.1675 2.36514 45.1816 2.43628 45.1816 2.50812C45.1816 2.57995 45.1674 2.65108 45.1399 2.71744L43.5473 6.56252C43.5059 6.66242 43.4358 6.74781 43.3459 6.80787C43.2559 6.86793 43.1502 6.89997 43.042 6.89994V6.90158ZM34.7755 4.15189C37.5009 4.1542 40.2023 4.66075 42.7434 5.64596L43.9187 2.80932C38.0413 0.504338 31.5102 0.504338 25.6328 2.80932L26.8081 5.6465C29.349 4.66117 32.0502 4.15444 34.7755 4.15189Z" fill="#2F3A5A"/>
<path d="M44.4441 43.5933H24.866C24.7209 43.5933 24.5818 43.5356 24.4793 43.4331C24.3767 43.3305 24.3191 43.1914 24.3191 43.0464C24.3191 42.9013 24.3767 42.7622 24.4793 42.6597C24.5818 42.5571 24.7209 42.4995 24.866 42.4995H44.4441C44.5891 42.4995 44.7282 42.5571 44.8308 42.6597C44.9333 42.7622 44.991 42.9013 44.991 43.0464C44.991 43.1914 44.9333 43.3305 44.8308 43.4331C44.7282 43.5356 44.5891 43.5933 44.4441 43.5933Z" fill="#2F3A5A"/>
<path d="M44.4441 26.5093H24.866C24.7209 26.5093 24.5818 26.4517 24.4793 26.3491C24.3767 26.2465 24.3191 26.1074 24.3191 25.9624C24.3191 25.8174 24.3767 25.6783 24.4793 25.5757C24.5818 25.4731 24.7209 25.4155 24.866 25.4155H44.4441C44.5891 25.4155 44.7282 25.4731 44.8308 25.5757C44.9333 25.6783 44.991 25.8174 44.991 25.9624C44.991 26.1074 44.9333 26.2465 44.8308 26.3491C44.7282 26.4517 44.5891 26.5093 44.4441 26.5093Z" fill="#2F3A5A"/>

</svg>
