<svg viewBox="0 0 70 70" fill="none" xmlns="http://www.w3.org/2000/svg">
<path d="M27.247 11.4724C27.247 11.0243 27.6951 10.5762 28.1432 10.5762H41.7667C42.2148 10.5762 42.6629 11.0243 42.6629 11.4724V15.0576H48.0407V11.4724C48.0407 7.97682 45.2622 5.19849 41.7667 5.19849H28.1432C24.6476 5.19849 21.8693 7.97699 21.8693 11.4724V15.0576H27.247V11.4724Z" fill="#D4E1F4"/>
<path d="M65.5185 14.52H48.041H42.6633H27.2472H21.8695H4.48135C1.97185 14.52 0 16.4919 0 19.0014V60.3202C0 62.8298 1.97185 64.8015 4.48135 64.8015H65.5185C68.0282 64.8015 69.9998 62.8297 69.9998 60.3202V19.0014C70 16.4919 68.0282 14.52 65.5185 14.52Z" fill="#0182F9"/>
</svg>
