<svg width="15" height="15" viewBox="0 0 15 15" fill="none" xmlns="http://www.w3.org/2000/svg">
<g id="Iconly/Light/Heart">
<g id="Heart">
<path id="Path_33961" fill-rule="evenodd" clip-rule="evenodd" d="M7.35063 13.0336C5.994 12.1987 4.73194 11.216 3.58706 10.1032C2.78215 9.30184 2.16938 8.32486 1.79569 7.24712C1.12321 5.15644 1.90871 2.76302 4.10695 2.0547C5.26226 1.68277 6.52403 1.89535 7.49756 2.62592C8.47146 1.89624 9.73279 1.68374 10.8882 2.0547C13.0864 2.76302 13.8776 5.15644 13.2051 7.24712C12.8314 8.32486 12.2186 9.30184 11.4137 10.1032C10.2688 11.216 9.00677 12.1987 7.65013 13.0336L7.50321 13.125L7.35063 13.0336Z" stroke="#F2F2F2" stroke-width="1.5" stroke-linecap="round" stroke-linejoin="round"/>
<path id="Path_33964" d="M9.83708 4.4082C10.5029 4.62089 10.976 5.21864 11.0351 5.92194" stroke="#F2F2F2" stroke-width="1.5" stroke-linecap="round" stroke-linejoin="round"/>
</g>
</g>
</svg>
