<svg viewBox="0 0 136 35" fill="none" xmlns="http://www.w3.org/2000/svg">
<path opacity="0.4" d="M48.212 32.12C47.108 32.12 46.248 31.836 45.632 31.268C45.024 30.7 44.7 29.908 44.66 28.892C44.652 28.66 44.648 28.288 44.648 27.776C44.648 27.264 44.652 26.892 44.66 26.66C44.692 25.668 45.02 24.892 45.644 24.332C46.268 23.764 47.124 23.48 48.212 23.48C48.948 23.48 49.58 23.608 50.108 23.864C50.644 24.112 51.048 24.424 51.32 24.8C51.592 25.168 51.736 25.532 51.752 25.892C51.752 25.964 51.728 26.024 51.68 26.072C51.632 26.12 51.568 26.144 51.488 26.144H50.228C50.148 26.144 50.088 26.128 50.048 26.096C50.008 26.064 49.972 26.012 49.94 25.94C49.828 25.644 49.632 25.392 49.352 25.184C49.072 24.976 48.692 24.872 48.212 24.872C47.652 24.872 47.212 25.024 46.892 25.328C46.58 25.624 46.416 26.088 46.4 26.72C46.392 26.952 46.388 27.304 46.388 27.776C46.388 28.24 46.392 28.592 46.4 28.832C46.416 29.48 46.584 29.96 46.904 30.272C47.224 30.576 47.664 30.728 48.224 30.728C48.792 30.728 49.248 30.576 49.592 30.272C49.936 29.968 50.108 29.512 50.108 28.904V28.532H48.644C48.564 28.532 48.496 28.504 48.44 28.448C48.384 28.392 48.356 28.324 48.356 28.244V27.584C48.356 27.504 48.384 27.436 48.44 27.38C48.496 27.324 48.564 27.296 48.644 27.296H51.524C51.612 27.296 51.684 27.324 51.74 27.38C51.796 27.436 51.824 27.504 51.824 27.584V28.856C51.824 29.52 51.676 30.1 51.38 30.596C51.084 31.084 50.664 31.46 50.12 31.724C49.576 31.988 48.94 32.12 48.212 32.12ZM55.404 32C55.324 32 55.256 31.972 55.2 31.916C55.144 31.86 55.116 31.792 55.116 31.712V25.1H52.896C52.816 25.1 52.748 25.072 52.692 25.016C52.636 24.96 52.608 24.888 52.608 24.8V23.9C52.608 23.812 52.632 23.74 52.68 23.684C52.736 23.628 52.808 23.6 52.896 23.6H59.028C59.116 23.6 59.188 23.628 59.244 23.684C59.3 23.74 59.328 23.812 59.328 23.9V24.8C59.328 24.888 59.3 24.96 59.244 25.016C59.188 25.072 59.116 25.1 59.028 25.1H56.82V31.712C56.82 31.792 56.792 31.86 56.736 31.916C56.688 31.972 56.62 32 56.532 32H55.404ZM59.1505 32C59.0785 32 59.0185 31.976 58.9705 31.928C58.9225 31.88 58.8985 31.82 58.8985 31.748L58.9225 31.64L61.8025 23.9C61.8825 23.7 62.0265 23.6 62.2345 23.6H63.5545C63.7625 23.6 63.9065 23.7 63.9865 23.9L66.8665 31.64L66.8905 31.748C66.8905 31.82 66.8625 31.88 66.8065 31.928C66.7585 31.976 66.7025 32 66.6385 32H65.5705C65.4025 32 65.2865 31.924 65.2225 31.772L64.6705 30.32H61.1185L60.5665 31.772C60.5025 31.924 60.3865 32 60.2185 32H59.1505ZM61.5385 28.928H64.2505L62.8945 25.232L61.5385 28.928ZM73.1606 32.132C72.4966 32.132 71.9206 32.02 71.4326 31.796C70.9526 31.572 70.5886 31.276 70.3406 30.908C70.0926 30.54 69.9606 30.144 69.9446 29.72V29.696C69.9446 29.632 69.9686 29.58 70.0166 29.54C70.0726 29.492 70.1326 29.468 70.1966 29.468H71.3366C71.5206 29.468 71.6366 29.548 71.6846 29.708C71.7966 30.06 71.9806 30.32 72.2366 30.488C72.5006 30.656 72.8086 30.74 73.1606 30.74C73.6086 30.74 73.9766 30.604 74.2646 30.332C74.5606 30.06 74.7086 29.684 74.7086 29.204C74.7086 28.772 74.5606 28.424 74.2646 28.16C73.9766 27.888 73.6086 27.752 73.1606 27.752C72.9206 27.752 72.7246 27.784 72.5726 27.848C72.4206 27.912 72.2726 28 72.1286 28.112C72.1126 28.12 72.0766 28.144 72.0206 28.184C71.9646 28.224 71.9126 28.252 71.8646 28.268C71.8246 28.284 71.7806 28.292 71.7326 28.292H70.6046C70.5326 28.292 70.4686 28.268 70.4126 28.22C70.3646 28.164 70.3406 28.1 70.3406 28.028L70.7486 23.936C70.7566 23.832 70.7926 23.752 70.8566 23.696C70.9286 23.632 71.0126 23.6 71.1086 23.6H75.6206C75.7086 23.6 75.7766 23.628 75.8246 23.684C75.8806 23.732 75.9086 23.8 75.9086 23.888V24.704C75.9086 24.784 75.8806 24.852 75.8246 24.908C75.7766 24.964 75.7086 24.992 75.6206 24.992H72.1526L71.9606 26.936C72.1446 26.816 72.3566 26.72 72.5966 26.648C72.8366 26.568 73.1486 26.528 73.5326 26.528C74.0526 26.528 74.5326 26.64 74.9726 26.864C75.4206 27.08 75.7766 27.396 76.0406 27.812C76.3126 28.22 76.4486 28.696 76.4486 29.24C76.4486 29.824 76.3126 30.336 76.0406 30.776C75.7686 31.208 75.3846 31.544 74.8886 31.784C74.3926 32.016 73.8166 32.132 73.1606 32.132ZM80.8842 32C80.8042 32 80.7362 31.972 80.6802 31.916C80.6242 31.86 80.5962 31.792 80.5962 31.712V23.9C80.5962 23.812 80.6202 23.74 80.6682 23.684C80.7242 23.628 80.7962 23.6 80.8842 23.6H83.9922C84.9762 23.6 85.7442 23.828 86.2962 24.284C86.8562 24.74 87.1362 25.388 87.1362 26.228C87.1362 26.812 86.9962 27.304 86.7162 27.704C86.4362 28.096 86.0442 28.38 85.5402 28.556L87.2802 31.616C87.3042 31.664 87.3162 31.708 87.3162 31.748C87.3162 31.82 87.2882 31.88 87.2322 31.928C87.1842 31.976 87.1282 32 87.0642 32H85.9602C85.8322 32 85.7322 31.972 85.6602 31.916C85.5882 31.852 85.5242 31.772 85.4682 31.676L83.9322 28.832H82.2882V31.712C82.2882 31.792 82.2602 31.86 82.2042 31.916C82.1482 31.972 82.0762 32 81.9882 32H80.8842ZM83.9562 27.464C84.4362 27.464 84.7962 27.36 85.0362 27.152C85.2762 26.936 85.3962 26.624 85.3962 26.216C85.3962 25.808 85.2762 25.496 85.0362 25.28C84.7962 25.056 84.4362 24.944 83.9562 24.944H82.2882V27.464H83.9562ZM91.2398 32.12C90.2958 32.12 89.5678 31.88 89.0558 31.4C88.5438 30.92 88.2678 30.256 88.2278 29.408L88.2158 28.88L88.2278 28.352C88.2678 27.512 88.5478 26.852 89.0678 26.372C89.5878 25.884 90.3118 25.64 91.2398 25.64C92.1598 25.64 92.8798 25.884 93.3998 26.372C93.9198 26.852 94.1998 27.512 94.2398 28.352C94.2478 28.448 94.2518 28.624 94.2518 28.88C94.2518 29.136 94.2478 29.312 94.2398 29.408C94.1998 30.256 93.9238 30.92 93.4118 31.4C92.8998 31.88 92.1758 32.12 91.2398 32.12ZM91.2398 30.908C91.6638 30.908 91.9878 30.776 92.2118 30.512C92.4438 30.248 92.5678 29.86 92.5838 29.348C92.5918 29.268 92.5958 29.112 92.5958 28.88C92.5958 28.648 92.5918 28.492 92.5838 28.412C92.5678 27.9 92.4438 27.512 92.2118 27.248C91.9798 26.976 91.6558 26.84 91.2398 26.84C90.8158 26.84 90.4878 26.976 90.2558 27.248C90.0238 27.512 89.8998 27.9 89.8838 28.412L89.8718 28.88L89.8838 29.348C89.8998 29.86 90.0238 30.248 90.2558 30.512C90.4878 30.776 90.8158 30.908 91.2398 30.908ZM95.8811 32C95.8011 32 95.7331 31.972 95.6771 31.916C95.6211 31.86 95.5931 31.792 95.5931 31.712V23.768C95.5931 23.68 95.6211 23.612 95.6771 23.564C95.7331 23.508 95.8011 23.48 95.8811 23.48H96.8891C96.9771 23.48 97.0451 23.508 97.0931 23.564C97.1491 23.612 97.1771 23.68 97.1771 23.768V31.712C97.1771 31.792 97.1491 31.86 97.0931 31.916C97.0451 31.972 96.9771 32 96.8891 32H95.8811ZM101.469 32.12C100.573 32.12 99.8606 31.864 99.3326 31.352C98.8126 30.84 98.5366 30.112 98.5046 29.168L98.4926 28.868C98.4926 27.868 98.7526 27.08 99.2726 26.504C99.8006 25.928 100.529 25.64 101.457 25.64C102.409 25.64 103.141 25.928 103.653 26.504C104.173 27.08 104.433 27.848 104.433 28.808V29.06C104.433 29.14 104.405 29.208 104.349 29.264C104.293 29.32 104.221 29.348 104.133 29.348H100.149V29.444C100.165 29.892 100.285 30.264 100.509 30.56C100.741 30.848 101.057 30.992 101.457 30.992C101.913 30.992 102.285 30.808 102.573 30.44C102.645 30.352 102.701 30.3 102.741 30.284C102.781 30.26 102.849 30.248 102.945 30.248H104.001C104.073 30.248 104.133 30.268 104.181 30.308C104.237 30.348 104.265 30.404 104.265 30.476C104.265 30.668 104.149 30.896 103.917 31.16C103.693 31.416 103.369 31.64 102.945 31.832C102.521 32.024 102.029 32.12 101.469 32.12ZM102.777 28.328V28.304C102.777 27.832 102.657 27.456 102.417 27.176C102.185 26.888 101.865 26.744 101.457 26.744C101.049 26.744 100.729 26.888 100.497 27.176C100.265 27.456 100.149 27.832 100.149 28.304V28.328H102.777ZM108.869 32C108.789 32 108.721 31.972 108.665 31.916C108.609 31.86 108.581 31.792 108.581 31.712V23.9C108.581 23.812 108.605 23.74 108.653 23.684C108.709 23.628 108.781 23.6 108.869 23.6H112.085C113.053 23.6 113.813 23.828 114.365 24.284C114.917 24.74 115.193 25.404 115.193 26.276C115.193 27.14 114.917 27.796 114.365 28.244C113.813 28.684 113.053 28.904 112.085 28.904H110.321V31.712C110.321 31.8 110.293 31.872 110.237 31.928C110.181 31.976 110.109 32 110.021 32H108.869ZM112.025 27.56C112.489 27.56 112.841 27.452 113.081 27.236C113.329 27.012 113.453 26.688 113.453 26.264C113.453 25.848 113.333 25.524 113.093 25.292C112.861 25.06 112.505 24.944 112.025 24.944H110.297V27.56H112.025ZM116.658 32C116.578 32 116.51 31.972 116.454 31.916C116.398 31.86 116.37 31.792 116.37 31.712V23.768C116.37 23.68 116.398 23.612 116.454 23.564C116.51 23.508 116.578 23.48 116.658 23.48H117.666C117.754 23.48 117.822 23.508 117.87 23.564C117.926 23.612 117.954 23.68 117.954 23.768V31.712C117.954 31.792 117.926 31.86 117.87 31.916C117.822 31.972 117.754 32 117.666 32H116.658ZM121.358 32.12C120.95 32.12 120.574 32.04 120.23 31.88C119.894 31.712 119.626 31.488 119.426 31.208C119.234 30.928 119.138 30.62 119.138 30.284C119.138 29.74 119.358 29.3 119.798 28.964C120.238 28.628 120.842 28.4 121.61 28.28L123.254 28.04V27.788C123.254 27.444 123.166 27.184 122.99 27.008C122.814 26.832 122.534 26.744 122.15 26.744C121.886 26.744 121.674 26.792 121.514 26.888C121.354 26.984 121.222 27.084 121.118 27.188C121.022 27.284 120.958 27.348 120.926 27.38C120.894 27.476 120.834 27.524 120.746 27.524H119.81C119.738 27.524 119.674 27.5 119.618 27.452C119.57 27.404 119.546 27.34 119.546 27.26C119.554 27.06 119.65 26.836 119.834 26.588C120.026 26.332 120.318 26.112 120.71 25.928C121.102 25.736 121.586 25.64 122.162 25.64C123.106 25.64 123.794 25.852 124.226 26.276C124.658 26.7 124.874 27.256 124.874 27.944V31.712C124.874 31.792 124.846 31.86 124.79 31.916C124.742 31.972 124.674 32 124.586 32H123.59C123.51 32 123.442 31.972 123.386 31.916C123.33 31.86 123.302 31.792 123.302 31.712V31.244C123.126 31.5 122.878 31.712 122.558 31.88C122.238 32.04 121.838 32.12 121.358 32.12ZM121.766 30.968C122.206 30.968 122.566 30.824 122.846 30.536C123.126 30.248 123.266 29.832 123.266 29.288V29.048L122.066 29.24C121.146 29.384 120.686 29.692 120.686 30.164C120.686 30.42 120.79 30.62 120.998 30.764C121.214 30.9 121.47 30.968 121.766 30.968ZM127.377 34.28C127.313 34.28 127.253 34.256 127.197 34.208C127.149 34.16 127.125 34.104 127.125 34.04C127.125 33.984 127.141 33.92 127.173 33.848L128.121 31.628L125.817 26.192C125.785 26.12 125.769 26.064 125.769 26.024C125.777 25.952 125.805 25.892 125.853 25.844C125.901 25.788 125.961 25.76 126.033 25.76H127.029C127.173 25.76 127.277 25.836 127.341 25.988L128.937 29.9L130.557 25.988C130.637 25.836 130.749 25.76 130.893 25.76H131.865C131.937 25.76 131.997 25.784 132.045 25.832C132.093 25.88 132.117 25.936 132.117 26C132.117 26.056 132.101 26.12 132.069 26.192L128.673 34.052C128.609 34.204 128.497 34.28 128.337 34.28H127.377Z" fill="#F2F2F2"/>
<path d="M44.522 17C44.426 17 44.336 16.964 44.252 16.892C44.18 16.808 44.144 16.718 44.144 16.622C44.144 16.55 44.15 16.496 44.162 16.46L48.356 4.922C48.476 4.574 48.716 4.4 49.076 4.4H51.884C52.244 4.4 52.484 4.574 52.604 4.922L56.798 16.46C56.81 16.496 56.816 16.55 56.816 16.622C56.816 16.718 56.774 16.808 56.69 16.892C56.618 16.964 56.534 17 56.438 17H54.098C53.81 17 53.606 16.868 53.486 16.604L52.838 14.858H48.122L47.474 16.604C47.354 16.868 47.15 17 46.862 17H44.522ZM48.878 12.158H52.082L50.48 7.568L48.878 12.158ZM60.1359 17C60.0039 17 59.8899 16.958 59.7939 16.874C59.7099 16.79 59.6679 16.682 59.6679 16.55V7.334H56.4999C56.3679 7.334 56.2539 7.292 56.1579 7.208C56.0739 7.124 56.0319 7.016 56.0319 6.884V4.868C56.0319 4.736 56.0739 4.628 56.1579 4.544C56.2539 4.448 56.3679 4.4 56.4999 4.4H66.2739C66.4059 4.4 66.5139 4.448 66.5979 4.544C66.6939 4.628 66.7419 4.736 66.7419 4.868V6.884C66.7419 7.016 66.6939 7.124 66.5979 7.208C66.5139 7.292 66.4059 7.334 66.2739 7.334H63.1059V16.55C63.1059 16.682 63.0579 16.79 62.9619 16.874C62.8779 16.958 62.7699 17 62.6379 17H60.1359ZM68.7897 17C68.6577 17 68.5437 16.958 68.4477 16.874C68.3637 16.79 68.3217 16.682 68.3217 16.55V4.868C68.3217 4.736 68.3637 4.628 68.4477 4.544C68.5437 4.448 68.6577 4.4 68.7897 4.4H70.8237C71.1237 4.4 71.3397 4.532 71.4717 4.796L74.5677 10.34L77.6817 4.796C77.8137 4.532 78.0297 4.4 78.3297 4.4H80.3637C80.4957 4.4 80.6037 4.448 80.6877 4.544C80.7837 4.628 80.8317 4.736 80.8317 4.868V16.55C80.8317 16.682 80.7837 16.79 80.6877 16.874C80.6037 16.958 80.4957 17 80.3637 17H78.0777C77.9577 17 77.8497 16.958 77.7537 16.874C77.6697 16.778 77.6277 16.67 77.6277 16.55V9.998L75.6837 13.562C75.5277 13.838 75.3177 13.976 75.0537 13.976H74.0817C73.8417 13.976 73.6317 13.838 73.4517 13.562L71.5257 9.998V16.55C71.5257 16.682 71.4777 16.79 71.3817 16.874C71.2977 16.958 71.1897 17 71.0577 17H68.7897ZM88.5006 17.18C86.7966 17.18 85.4526 16.766 84.4686 15.938C83.4846 15.11 82.9626 13.892 82.9026 12.284C82.8906 11.948 82.8846 11.432 82.8846 10.736C82.8846 10.04 82.8906 9.518 82.9026 9.17C82.9506 7.586 83.4726 6.368 84.4686 5.516C85.4766 4.652 86.8206 4.22 88.5006 4.22C90.1686 4.22 91.5006 4.652 92.4966 5.516C93.5046 6.368 94.0326 7.586 94.0806 9.17C94.1046 9.866 94.1166 10.388 94.1166 10.736C94.1166 11.096 94.1046 11.612 94.0806 12.284C94.0206 13.892 93.4986 15.11 92.5146 15.938C91.5426 16.766 90.2046 17.18 88.5006 17.18ZM88.5006 14.48C89.1246 14.48 89.6226 14.294 89.9946 13.922C90.3666 13.538 90.5646 12.956 90.5886 12.176C90.6126 11.48 90.6246 10.982 90.6246 10.682C90.6246 10.382 90.6126 9.896 90.5886 9.224C90.5646 8.444 90.3666 7.868 89.9946 7.496C89.6226 7.112 89.1246 6.92 88.5006 6.92C87.8646 6.92 87.3606 7.112 86.9886 7.496C86.6166 7.868 86.4186 8.444 86.3946 9.224C86.3826 9.56 86.3766 10.046 86.3766 10.682C86.3766 11.33 86.3826 11.828 86.3946 12.176C86.4186 12.956 86.6166 13.538 86.9886 13.922C87.3606 14.294 87.8646 14.48 88.5006 14.48ZM100.918 17.18C99.7538 17.18 98.7638 17.012 97.9478 16.676C97.1318 16.34 96.5138 15.896 96.0938 15.344C95.6738 14.792 95.4518 14.192 95.4278 13.544C95.4278 13.436 95.4638 13.346 95.5358 13.274C95.6198 13.202 95.7158 13.166 95.8238 13.166H98.2178C98.3618 13.166 98.4758 13.19 98.5598 13.238C98.6558 13.286 98.7578 13.37 98.8658 13.49C99.0218 13.778 99.2618 14.018 99.5858 14.21C99.9218 14.39 100.366 14.48 100.918 14.48C101.566 14.48 102.064 14.384 102.412 14.192C102.76 13.988 102.934 13.712 102.934 13.364C102.934 13.112 102.844 12.908 102.664 12.752C102.484 12.584 102.196 12.44 101.8 12.32C101.404 12.188 100.834 12.044 100.09 11.888C98.6378 11.6 97.5518 11.162 96.8318 10.574C96.1118 9.986 95.7518 9.146 95.7518 8.054C95.7518 7.31 95.9558 6.65 96.3638 6.074C96.7838 5.486 97.3718 5.03 98.1278 4.706C98.8958 4.382 99.7838 4.22 100.792 4.22C101.848 4.22 102.76 4.406 103.528 4.778C104.308 5.138 104.902 5.594 105.31 6.146C105.73 6.686 105.952 7.22 105.976 7.748C105.976 7.856 105.94 7.952 105.868 8.036C105.796 8.108 105.706 8.144 105.598 8.144H103.078C102.814 8.144 102.61 8.036 102.466 7.82C102.394 7.568 102.208 7.358 101.908 7.19C101.608 7.01 101.236 6.92 100.792 6.92C100.288 6.92 99.8978 7.01 99.6218 7.19C99.3458 7.37 99.2078 7.634 99.2078 7.982C99.2078 8.33 99.3878 8.606 99.7478 8.81C100.108 9.002 100.78 9.2 101.764 9.404C102.892 9.608 103.786 9.866 104.446 10.178C105.118 10.478 105.61 10.874 105.922 11.366C106.246 11.846 106.408 12.458 106.408 13.202C106.408 14.018 106.174 14.726 105.706 15.326C105.238 15.926 104.59 16.388 103.762 16.712C102.934 17.024 101.986 17.18 100.918 17.18ZM112.365 17C112.245 17 112.137 16.958 112.041 16.874C111.957 16.778 111.915 16.67 111.915 16.55V4.868C111.915 4.736 111.957 4.628 112.041 4.544C112.125 4.448 112.233 4.4 112.365 4.4H117.315C118.899 4.4 120.135 4.76 121.023 5.48C121.923 6.2 122.373 7.214 122.373 8.522C122.373 9.362 122.175 10.076 121.779 10.664C121.395 11.252 120.861 11.708 120.177 12.032L122.607 16.424C122.643 16.496 122.661 16.562 122.661 16.622C122.661 16.718 122.625 16.808 122.553 16.892C122.481 16.964 122.391 17 122.283 17H119.745C119.397 17 119.151 16.838 119.007 16.514L117.027 12.608H115.299V16.55C115.299 16.682 115.251 16.79 115.155 16.874C115.071 16.958 114.963 17 114.831 17H112.365ZM117.297 9.962C117.813 9.962 118.203 9.836 118.467 9.584C118.743 9.32 118.881 8.96 118.881 8.504C118.881 8.048 118.743 7.682 118.467 7.406C118.203 7.13 117.813 6.992 117.297 6.992H115.299V9.962H117.297ZM124.881 17C124.761 17 124.653 16.958 124.557 16.874C124.473 16.778 124.431 16.67 124.431 16.55V4.868C124.431 4.736 124.473 4.628 124.557 4.544C124.641 4.448 124.749 4.4 124.881 4.4H129.975C131.535 4.4 132.759 4.754 133.647 5.462C134.535 6.17 134.979 7.208 134.979 8.576C134.979 9.944 134.535 10.97 133.647 11.654C132.759 12.326 131.535 12.662 129.975 12.662H127.923V16.55C127.923 16.67 127.881 16.778 127.797 16.874C127.713 16.958 127.605 17 127.473 17H124.881ZM129.885 10.088C130.377 10.088 130.761 9.962 131.037 9.71C131.325 9.446 131.469 9.062 131.469 8.558C131.469 8.09 131.337 7.712 131.073 7.424C130.821 7.136 130.425 6.992 129.885 6.992H127.869V10.088H129.885Z" fill="#F2F2F2"/>
<rect width="35" height="35" rx="3" fill="url(#paint0_linear)"/>
<path d="M17.5 32C9.51599 32 3 25.4836 3 17.5C3 9.51594 9.51645 3 17.5 3C25.4841 3 32 9.51645 32 17.5C32 25.484 25.4836 32 17.5 32Z" fill="url(#paint1_linear)"/>
<path d="M17.5 4.69922C10.4416 4.69922 4.69922 10.4416 4.69922 17.5C4.69922 24.5584 10.4416 30.3008 17.5 30.3008C24.5584 30.3008 30.3008 24.5584 30.3008 17.5C30.3008 10.4416 24.5584 4.69922 17.5 4.69922Z" fill="url(#paint2_linear)"/>
<path d="M20.5037 20.5037L14.4964 14.4964L14.4969 14.4947C14.421 14.5706 14.3593 14.6612 14.3162 14.762L10.7116 23.1731C10.5746 23.492 10.6459 23.863 10.8917 24.1083C11.1376 24.3547 11.5086 24.4249 11.8269 24.2884L20.238 20.6838C20.3383 20.6413 20.4283 20.5796 20.5042 20.5042L20.5037 20.5037Z" fill="url(#paint3_linear)"/>
<path d="M24.2884 11.8269L20.6838 20.238C20.6413 20.3383 20.5795 20.4283 20.5042 20.5042L20.5036 20.5037L14.4963 14.4964L14.4969 14.4947C14.5728 14.4199 14.6623 14.3587 14.762 14.3162L23.1731 10.7116C23.4926 10.5746 23.863 10.6459 24.1083 10.8917C24.3541 11.137 24.4254 11.508 24.2884 11.8269Z" fill="url(#paint4_linear)"/>
<defs>
<linearGradient id="paint0_linear" x1="17.5" y1="0" x2="17.5" y2="35" gradientUnits="userSpaceOnUse">
<stop stop-color="#0085FF"/>
<stop offset="1" stop-color="#004C92"/>
</linearGradient>
<linearGradient id="paint1_linear" x1="17.5" y1="32" x2="17.5" y2="3" gradientUnits="userSpaceOnUse">
<stop stop-color="#5558FF"/>
<stop offset="1" stop-color="#00C0FF"/>
</linearGradient>
<linearGradient id="paint2_linear" x1="17.5" y1="30.3008" x2="17.5" y2="4.69922" gradientUnits="userSpaceOnUse">
<stop stop-color="#ADDCFF"/>
<stop offset="0.5028" stop-color="#EAF6FF"/>
<stop offset="1" stop-color="#EAF6FF"/>
</linearGradient>
<linearGradient id="paint3_linear" x1="15.5735" y1="24.3571" x2="15.5735" y2="14.4947" gradientUnits="userSpaceOnUse">
<stop stop-color="#5558FF"/>
<stop offset="1" stop-color="#00C0FF"/>
</linearGradient>
<linearGradient id="paint4_linear" x1="19.4268" y1="20.5042" x2="19.4268" y2="10.6427" gradientUnits="userSpaceOnUse">
<stop stop-color="#5558FF"/>
<stop offset="1" stop-color="#00C0FF"/>
</linearGradient>
</defs>
</svg>
