<svg viewBox="0 0 46 46" fill="none" xmlns="http://www.w3.org/2000/svg">

<path d="M25.2261 21.2134L23.655 19.6423L15.749 27.5483L17.3201 29.1204L16.3845 30.0559L13.9284 32.5122L13.1292 33.3113L10.0334 30.2156L22.4638 17.7842L25.798 17.0225L25.9414 17.165L27.3225 18.5471L27.6085 18.832L23.369 23.0715L25.2261 21.2134Z" fill="#666666"/>
<path d="M25.2261 21.2137L23.369 23.0717L23.3569 23.0596L20.0349 26.3816L20.0471 26.3937L17.3201 29.1206L15.749 27.5486L23.655 19.6426L25.2261 21.2137Z" fill="#808080"/>
<path d="M25.4643 25.1672L23.3689 23.0718L20.0469 26.3938L22.1423 28.4892L25.4643 25.1672Z" fill="#808080"/>
<path d="M29.1443 28.8456L25.8223 32.1687L22.1426 28.4891L25.4646 25.167L29.1443 28.8456Z" fill="#4D4D4D"/>
<path d="M18.6417 35.1331L16.5705 36.7052L13.9285 32.5123L16.3846 30.0562C16.2392 30.6492 16.519 31.508 16.9251 32.3517C17.6051 33.7641 18.6417 35.1331 18.6417 35.1331Z" fill="#B3B3B3"/>
<path d="M13.117 33.3237L10.0092 36.4315L11.2832 40.4204L6.46086 45.2427L1.38892 41.7419L11.4621 31.6687L13.117 33.3237Z" fill="#B3B3B3"/>
<path d="M7.65171 37.7171L4.40116 40.9676C4.10521 41.2636 4.10521 41.7433 4.40116 42.0392C4.54904 42.1871 4.7431 42.2612 4.93699 42.2612C5.13087 42.2612 5.32484 42.1873 5.47281 42.0392L8.72336 38.7886C9.01931 38.4927 9.01931 38.0129 8.72336 37.7171C8.42733 37.4211 7.94756 37.4211 7.65171 37.7171Z" fill="#333333"/>
<path d="M45.0781 19.9259L34.9424 11.998L36.0503 10.8901C36.2062 10.7343 36.2865 10.518 36.2701 10.2981L36.1046 8.07301L42.8845 1.29304C43.1805 0.997092 43.1805 0.517416 42.8845 0.221471C42.5886 -0.0744746 42.1088 -0.0744746 41.813 0.221471L39.2053 2.8291L37.7407 1.36446C37.4448 1.06852 36.965 1.06852 36.6691 1.36446C36.3732 1.66041 36.3732 2.14017 36.6691 2.43603L38.1338 3.90066L25.7679 16.2665C25.7217 16.2683 25.6753 16.2729 25.6293 16.2834L22.2953 17.0453C22.1564 17.0771 22.0292 17.1475 21.9284 17.2482L15.3081 23.8685L14.8199 23.3803C14.5239 23.0844 14.0441 23.0844 13.7483 23.3803C13.4523 23.6763 13.4523 24.156 13.7483 24.4519L14.2365 24.9401L9.49743 29.6792C9.20148 29.9751 9.20148 30.4549 9.49743 30.7507L10.4024 31.6557L0.852842 41.2053C0.693819 41.3643 0.613588 41.5858 0.633983 41.8097C0.654377 42.0336 0.773151 42.237 0.958229 42.3647L6.03054 45.8654C6.16108 45.9554 6.3113 45.9995 6.46071 45.9995C6.65621 45.9995 6.85018 45.9241 6.9968 45.7775L11.8191 40.9552C12.0196 40.7547 12.0914 40.4589 12.0051 40.1888L10.8716 36.6399L13.7926 33.7188L15.929 37.1085C16.0423 37.2881 16.2256 37.412 16.4345 37.45C16.4796 37.4582 16.5249 37.4622 16.57 37.4622C16.7342 37.4622 16.8952 37.4089 17.028 37.3082L19.0998 35.7364C19.4332 35.4836 19.4984 35.0086 19.2458 34.6752C18.7706 34.0479 18.3009 33.3255 17.9223 32.6374L19.3308 31.2287C20.1129 30.4466 20.1129 29.174 19.3308 28.3919L19.2252 28.2862L20.0468 27.4646L25.2859 32.7037C25.4338 32.8516 25.6279 32.9257 25.8218 32.9257C26.0156 32.9257 26.2096 32.8517 26.3576 32.7037L29.6796 29.3816C29.9756 29.0857 29.9756 28.6059 29.6796 28.31L24.4405 23.071L28.1435 19.3679C28.349 19.1625 28.4114 18.8684 28.3316 18.6087L33.6094 13.3309L36.9771 19.6299C37.1744 19.999 37.6338 20.1379 38.0026 19.9408C38.3717 19.7435 38.5109 19.2843 38.3135 18.9153L36.1484 14.8656L44.144 21.1197C44.2827 21.2281 44.4472 21.2806 44.6104 21.2806C44.8356 21.2806 45.0583 21.1807 45.2079 20.9896C45.4659 20.66 45.4078 20.1838 45.0781 19.9259ZM34.733 10.0642L27.3224 17.4748L27.0125 17.1649L34.6901 9.48742L34.733 10.0642ZM9.47353 35.8948C9.273 36.0954 9.20121 36.3911 9.28755 36.6612L10.421 40.2101L6.37176 44.2595L2.56751 41.634L11.4621 32.7394L12.0455 33.3229L9.47353 35.8948ZM16.7705 35.6012L14.8916 32.62L15.8298 31.6818C16.0134 32.2303 16.3016 32.8485 16.6978 33.5434C17.0157 34.1012 17.3451 34.6052 17.5978 34.9738L16.7705 35.6012ZM17.3203 28.0481L16.8201 27.5479L23.6547 20.7132L24.1549 21.2134L17.3203 28.0481ZM18.2594 29.4635C18.3521 29.5561 18.4031 29.6793 18.4031 29.8103C18.4031 29.9414 18.3521 30.0645 18.2594 30.1572L17.2499 31.1668C17.1511 30.8709 17.0971 30.6133 17.0997 30.4119L18.1537 29.358L18.2594 29.4635ZM25.8219 31.0963L23.2142 28.4886L25.4646 26.2382L28.0723 28.846L25.8219 31.0963ZM24.3931 25.1666L22.1427 27.417L21.1187 26.393L23.3691 24.1426L24.3931 25.1666ZM25.2265 20.1417L24.1906 19.1058C24.0486 18.9637 23.8558 18.8838 23.6548 18.8838C23.4538 18.8838 23.2611 18.9636 23.119 19.1058L15.2127 27.0122C14.9167 27.3081 14.9167 27.7879 15.2127 28.0837L16.2486 29.1196L13.1289 32.2393L11.1046 30.215L22.8457 18.4741L25.5586 17.8541L26.5364 18.8319L25.2265 20.1417Z" fill="black"/>

</svg>
