<svg width="42" height="42" viewBox="0 0 42 42" fill="none" xmlns="http://www.w3.org/2000/svg">
<g clip-path="url(#clip0)">
<path d="M42 27.4517V32.2336C42 33.8576 37.6692 35.2111 32.3459 35.2111C27.0227 35.2111 22.7821 33.9028 22.7821 32.2788V31.7375L22.6919 27.948H22.737C23.4588 29.3465 27.4287 30.4292 32.2106 30.4292C36.9924 30.4292 41.9098 29.0759 41.9098 27.4517H42V27.4517Z" fill="#E2A63B"/>
<path d="M32.0752 9.67725V14.414H31.985C31.985 16.0832 27.5189 17.3915 22.2407 17.3915C20.2107 17.4366 18.1355 17.211 16.1505 16.7148L16.0603 16.805C15.0678 15.993 13.94 15.3614 12.722 14.9554V14.8652L12.5867 9.85771C12.9025 11.3915 17.0979 12.6095 22.1957 12.6095C27.2934 12.6095 31.985 11.3013 31.985 9.67725H32.0752Z" fill="#F4B844"/>
<path d="M32.0753 9.76761C32.0753 11.3916 27.6092 12.6999 22.2859 12.6999C16.9626 12.6999 12.9476 11.4819 12.6318 9.94807C12.6318 9.903 12.5868 9.81277 12.5868 9.76761C12.5868 8.14358 16.9176 6.79016 22.286 6.79016C27.6542 6.74508 32.0753 8.09842 32.0753 9.76761Z" fill="#FEDB41"/>
<path d="M22.737 27.9482L22.6919 26.9557L22.6017 22.8956C22.9174 24.4294 27.1129 25.6475 32.2106 25.6475C37.3084 25.6475 41.8196 24.3392 41.9549 22.7603H42V27.452H41.9098C41.9098 29.076 37.5338 30.4294 32.2106 30.4294C26.8874 30.4293 23.4588 29.3467 22.737 27.9482Z" fill="#F4B844"/>
<path d="M16.2859 30.9707C17.5039 29.8429 18.4514 28.3992 18.9475 26.8203H19.1731C20.1655 26.9105 21.158 26.9556 22.2407 26.9556H22.6918V27.9481L22.782 31.7376H22.2858C20.3008 31.7827 18.361 31.5571 16.4212 31.1061L16.2859 30.9707Z" fill="#E2A63B"/>
<path d="M22.737 22.5341V22.7597L22.8272 26.9552H22.376C21.2482 26.9552 20.2106 26.9101 19.2182 26.8199H18.9927C19.3084 25.8725 19.4437 24.88 19.4437 23.8876C19.4437 23.2109 19.3535 22.5793 19.2182 21.9478H19.4437C20.3911 22.038 21.3385 22.0831 22.376 22.0831L22.782 22.3086C22.737 22.3987 22.737 22.489 22.737 22.5341Z" fill="#F4B844"/>
<path d="M16.1506 16.7143C18.1356 17.2106 20.2107 17.4361 22.2408 17.391C27.5189 17.391 31.9851 16.0828 31.9851 14.4136H32.0753V19.7368C27.1581 19.7368 23.1431 20.9098 22.6468 22.3984L22.2408 22.1729C21.2483 22.1729 20.301 22.1278 19.3988 22.0376H19.1732C18.7672 19.9624 17.6845 18.1128 16.0605 16.7594L16.1506 16.7143Z" fill="#E2A63B"/>
<path d="M19.2634 22.0382C18.8123 19.963 17.6844 18.0684 16.0604 16.6699C15.0679 15.7676 13.8949 15.1361 12.6318 14.7752C11.7296 14.4594 10.7371 14.3241 9.78978 14.3241C4.42136 14.2788 0.0454183 18.5645 0.000344673 23.9329C-0.044729 29.3012 4.24089 33.6771 9.60932 33.7222C12.0905 33.7222 14.4363 32.82 16.2859 31.1508C17.5491 29.9778 18.4964 28.4892 18.9927 26.8651C19.3084 25.9178 19.4437 24.9703 19.4437 23.9779C19.4438 23.3465 19.2634 22.6698 19.2634 22.0382Z" fill="#FEDB41"/>
<path d="M41.9549 22.6695V22.7597C41.8196 24.3387 37.4437 25.647 32.2107 25.647C26.9776 25.647 22.9175 24.4289 22.6017 22.8951V22.6696C22.6017 22.5794 22.6017 22.4891 22.6468 22.3989C23.143 20.9102 27.158 19.7373 32.0753 19.7373H32.2106C37.5339 19.7372 41.9549 21.0455 41.9549 22.6695Z" fill="#FEDB41"/>
<path d="M9.78979 22.8047C8.97777 22.8047 8.30106 22.128 8.30106 21.316C8.30106 20.504 8.97777 19.8273 9.78979 19.8273C10.6018 19.8273 11.2785 20.504 11.2785 21.316C11.2785 21.8123 11.6845 22.2183 12.1808 22.2183C12.677 22.2183 13.083 21.8123 13.083 21.316C13.083 19.8725 12.0905 18.5642 10.692 18.1582V17.7973C10.692 17.301 10.286 16.895 9.78979 16.895C9.29355 16.895 8.88754 17.301 8.88754 17.7973V18.1582C7.44397 18.5191 6.45149 19.8274 6.49656 21.316C6.49656 23.1205 7.98529 24.6092 9.78979 24.6092C10.6018 24.6092 11.2785 25.286 11.2785 26.098C11.2785 26.91 10.6018 27.5867 9.78979 27.5867C8.97777 27.5867 8.30106 26.91 8.30106 26.098C8.30106 25.6017 7.89505 25.1957 7.39881 25.1957C6.90257 25.1957 6.49656 25.6017 6.49656 26.098C6.49656 27.5867 7.48905 28.8498 8.88754 29.2558V29.9776C8.88754 30.4738 9.29355 30.8798 9.78979 30.8798C10.286 30.8798 10.692 30.4738 10.692 29.9776V29.2558C12.4514 28.7596 13.4439 26.91 12.9025 25.1506C12.4965 23.7972 11.2334 22.8047 9.78979 22.8047Z" fill="#E2A63B"/>
</g>
<defs>
<clipPath id="clip0">
<rect width="42" height="42" fill="white"/>
</clipPath>
</defs>
</svg>
