<svg viewBox="0 0 16 17" fill="none" xmlns="http://www.w3.org/2000/svg">
<path fill-rule="evenodd" clip-rule="evenodd" d="M5.20667 1.83334H10.794C12.8533 1.83334 14 3.02 14 5.05334V11.94C14 14.0067 12.8533 15.1667 10.794 15.1667H5.20667C3.18 15.1667 2 14.0067 2 11.94V5.05334C2 3.02 3.18 1.83334 5.20667 1.83334ZM5.38667 4.94V4.93334H7.37933C7.66667 4.93334 7.9 5.16667 7.9 5.45267C7.9 5.74667 7.66667 5.98 7.37933 5.98H5.38667C5.09933 5.98 4.86667 5.74667 4.86667 5.46C4.86667 5.17334 5.09933 4.94 5.38667 4.94ZM5.38667 8.99334H10.6133C10.9 8.99334 11.1333 8.76 11.1333 8.47334C11.1333 8.18667 10.9 7.95267 10.6133 7.95267H5.38667C5.09933 7.95267 4.86667 8.18667 4.86667 8.47334C4.86667 8.76 5.09933 8.99334 5.38667 8.99334ZM5.38666 12.04H10.6133C10.8793 12.0133 11.08 11.786 11.08 11.52C11.08 11.2467 10.8793 11.02 10.6133 10.9933H5.38666C5.18666 10.9733 4.99333 11.0667 4.88666 11.24C4.78 11.4067 4.78 11.6267 4.88666 11.8C4.99333 11.9667 5.18666 12.0667 5.38666 12.04Z" fill="#F2F2F2"/>
</svg>
