<svg viewBox="0 0 46 46" fill="none" xmlns="http://www.w3.org/2000/svg">
<path d="M39.8692 43.8208C28.6382 44.6524 17.3611 44.6524 6.13002 43.8208C5.45536 29.9626 5.45536 16.1044 6.13002 2.24619C17.3611 1.41468 28.6382 1.41468 39.8692 2.24619C40.5441 16.1042 40.5441 29.9624 39.8692 43.8208Z" fill="#9297AB"/>
<path d="M39.8692 43.8208C28.6382 44.6524 17.3611 44.6524 6.13002 43.8208C5.45536 29.9626 5.45536 16.1044 6.13002 2.24619C17.3611 1.41468 28.6382 1.41468 39.8692 2.24619C40.5441 16.1042 40.5441 29.9624 39.8692 43.8208Z" fill="#9297AB"/>
<path d="M39.8692 43.8208C28.6382 44.6524 17.3611 44.6524 6.13002 43.8208C5.45536 29.9626 5.45536 16.1044 6.13002 2.24619C17.3611 1.41468 28.6382 1.41468 39.8692 2.24619C40.5441 16.1042 40.5441 29.9624 39.8692 43.8208Z" fill="#9297AB"/>
<path d="M39.8707 2.2456C38.4095 2.13778 36.9483 2.04147 35.4824 1.96277C35.9029 12.5447 35.9314 23.1252 35.5679 33.7042C35.5068 35.3879 34.8149 36.987 33.6295 38.1843C32.4441 39.3815 30.8519 40.0893 29.1689 40.1672C21.4367 40.5306 13.691 40.4995 5.96191 40.0741C6.01295 41.3219 6.06973 42.5743 6.12902 43.822C17.3609 44.6524 28.6388 44.6524 39.8707 43.822C40.5435 29.9617 40.5435 16.1029 39.8707 2.2456Z" fill="#707583"/>
<path d="M23.0001 44.801C17.355 44.801 11.7096 44.5937 6.10371 44.1793C6.01628 44.1728 5.93423 44.1346 5.87301 44.0719C5.81178 44.0091 5.77561 43.9262 5.77129 43.8386C5.09962 30.0332 5.09962 16.0338 5.77165 2.22839C5.77598 2.14077 5.8122 2.05776 5.8735 1.995C5.9348 1.93225 6.01694 1.89408 6.10443 1.8877C17.3531 1.05876 28.6475 1.05876 39.8961 1.8877C39.9836 1.89408 40.0657 1.93225 40.127 1.995C40.1883 2.05776 40.2246 2.14077 40.2289 2.22839C40.9006 16.0338 40.9006 30.0332 40.2289 43.8383C40.2246 43.9258 40.1884 44.0088 40.1272 44.0715C40.0659 44.1343 39.9839 44.1725 39.8965 44.1789C34.2906 44.5937 28.6451 44.801 23.0001 44.801ZM6.47422 43.4846C17.4772 44.2799 28.5233 44.2799 39.5263 43.4846C40.1768 29.9118 40.1768 16.1531 39.5263 2.58021C28.5233 1.78495 17.4772 1.78495 6.47422 2.58021C5.82376 16.1542 5.82376 29.9128 6.47422 43.4846Z" fill="#2F3A5A"/>
<path d="M40.4957 43.1147H5.50405C4.80661 43.1147 4.24121 43.6801 4.24121 44.3776C4.24121 45.075 4.80661 45.6404 5.50405 45.6404H40.4957C41.1931 45.6404 41.7585 45.075 41.7585 44.3776C41.7585 43.6801 41.1931 43.1147 40.4957 43.1147Z" fill="#9297AB"/>
<path d="M40.4964 45.9998H5.50405C5.07382 45.9998 4.6612 45.8289 4.35697 45.5247C4.05275 45.2204 3.88184 44.8078 3.88184 44.3776C3.88184 43.9474 4.05275 43.5347 4.35697 43.2305C4.6612 42.9263 5.07382 42.7554 5.50405 42.7554H40.496C40.9263 42.7554 41.3389 42.9263 41.6431 43.2305C41.9473 43.5347 42.1183 43.9474 42.1183 44.3776C42.1183 44.8078 41.9473 45.2204 41.6431 45.5247C41.3389 45.8289 40.9263 45.9998 40.496 45.9998H40.4964ZM5.50441 43.4741C5.2648 43.4741 5.035 43.5693 4.86557 43.7387C4.69613 43.9082 4.60095 44.138 4.60095 44.3776C4.60095 44.6172 4.69613 44.847 4.86557 45.0164C5.035 45.1859 5.2648 45.2811 5.50441 45.2811H40.4964C40.736 45.2811 40.9658 45.1859 41.1352 45.0164C41.3047 44.847 41.3999 44.6172 41.3999 44.3776C41.3999 44.138 41.3047 43.9082 41.1352 43.7387C40.9658 43.5693 40.736 43.4741 40.4964 43.4741H5.50441Z" fill="#2F3A5A"/>
<path d="M40.4957 0.359375H5.50405C4.80661 0.359375 4.24121 0.924769 4.24121 1.62222C4.24121 2.31967 4.80661 2.88506 5.50405 2.88506H40.4957C41.1931 2.88506 41.7585 2.31967 41.7585 1.62222C41.7585 0.924769 41.1931 0.359375 40.4957 0.359375Z" fill="#9297AB"/>
<path d="M40.4964 3.24444H5.50405C5.07382 3.24444 4.6612 3.07353 4.35697 2.7693C4.05275 2.46508 3.88184 2.05246 3.88184 1.62222C3.88184 1.19198 4.05275 0.779362 4.35697 0.475137C4.6612 0.170912 5.07382 6.41106e-09 5.50405 0L40.496 0C40.9263 6.41106e-09 41.3389 0.170912 41.6431 0.475137C41.9473 0.779362 42.1183 1.19198 42.1183 1.62222C42.1183 2.05246 41.9473 2.46508 41.6431 2.7693C41.3389 3.07353 40.9263 3.24444 40.496 3.24444H40.4964ZM5.50405 0.71875C5.26444 0.71875 5.03464 0.813937 4.86521 0.98337C4.69577 1.1528 4.60059 1.3826 4.60059 1.62222C4.60059 1.86183 4.69577 2.09163 4.86521 2.26107C5.03464 2.4305 5.26444 2.52569 5.50405 2.52569H40.496C40.7357 2.52569 40.9655 2.4305 41.1349 2.26107C41.3043 2.09163 41.3995 1.86183 41.3995 1.62222C41.3995 1.3826 41.3043 1.1528 41.1349 0.98337C40.9655 0.813937 40.7357 0.71875 40.496 0.71875H5.50405Z" fill="#2F3A5A"/>
<path d="M40.4957 13.325H5.50405C4.80661 13.325 4.24121 13.8903 4.24121 14.5878C4.24121 15.2852 4.80661 15.8506 5.50405 15.8506H40.4957C41.1931 15.8506 41.7585 15.2852 41.7585 14.5878C41.7585 13.8903 41.1931 13.325 40.4957 13.325Z" fill="#9297AB"/>
<path d="M40.4964 16.2095H5.50405C5.07382 16.2095 4.6612 16.0386 4.35697 15.7344C4.05275 15.4302 3.88184 15.0175 3.88184 14.5873C3.88184 14.1571 4.05275 13.7445 4.35697 13.4402C4.6612 13.136 5.07382 12.9651 5.50405 12.9651H40.496C40.9263 12.9651 41.3389 13.136 41.6431 13.4402C41.9473 13.7445 42.1183 14.1571 42.1183 14.5873C42.1183 15.0175 41.9473 15.4302 41.6431 15.7344C41.3389 16.0386 40.9263 16.2095 40.496 16.2095H40.4964ZM5.50405 13.6842C5.26444 13.6842 5.03464 13.7794 4.86521 13.9488C4.69577 14.1183 4.60059 14.3481 4.60059 14.5877C4.60059 14.8273 4.69577 15.0571 4.86521 15.2265C5.03464 15.3959 5.26444 15.4911 5.50405 15.4911H40.496C40.7357 15.4911 40.9655 15.3959 41.1349 15.2265C41.3043 15.0571 41.3995 14.8273 41.3995 14.5877C41.3995 14.3481 41.3043 14.1183 41.1349 13.9488C40.9655 13.7794 40.7357 13.6842 40.496 13.6842H5.50405Z" fill="#2F3A5A"/>
<path d="M40.4957 30.2159H5.50405C4.80661 30.2159 4.24121 30.7813 4.24121 31.4788C4.24121 32.1762 4.80661 32.7416 5.50405 32.7416H40.4957C41.1931 32.7416 41.7585 32.1762 41.7585 31.4788C41.7585 30.7813 41.1931 30.2159 40.4957 30.2159Z" fill="#9297AB"/>
<path d="M40.4964 33.101H5.50405C5.07382 33.101 4.6612 32.9301 4.35697 32.6259C4.05275 32.3216 3.88184 31.909 3.88184 31.4788C3.88184 31.0485 4.05275 30.6359 4.35697 30.3317C4.6612 30.0275 5.07382 29.8566 5.50405 29.8566H40.496C40.9263 29.8566 41.3389 30.0275 41.6431 30.3317C41.9473 30.6359 42.1183 31.0485 42.1183 31.4788C42.1183 31.909 41.9473 32.3216 41.6431 32.6259C41.3389 32.9301 40.9263 33.101 40.496 33.101H40.4964ZM5.50405 30.5753C5.26444 30.5753 5.03464 30.6705 4.86521 30.8399C4.69577 31.0094 4.60059 31.2392 4.60059 31.4788C4.60059 31.7184 4.69577 31.9482 4.86521 32.1176C5.03464 32.2871 5.26444 32.3823 5.50405 32.3823H40.496C40.7357 32.3823 40.9655 32.2871 41.1349 32.1176C41.3043 31.9482 41.3995 31.7184 41.3995 31.4788C41.3995 31.2392 41.3043 31.0094 41.1349 30.8399C40.9655 30.6705 40.7357 30.5753 40.496 30.5753H5.50405Z" fill="#2F3A5A"/>
<path d="M22.9999 28.8914C26.2351 28.8914 28.8577 26.2688 28.8577 23.0336C28.8577 19.7984 26.2351 17.1758 22.9999 17.1758C19.7647 17.1758 17.1421 19.7984 17.1421 23.0336C17.1421 26.2688 19.7647 28.8914 22.9999 28.8914Z" fill="#D9E2E9"/>
<path d="M23 19.1981C23 19.1981 20.3457 22.7484 20.3457 24.2143C20.3457 24.5629 20.4144 24.9081 20.5478 25.2301C20.6812 25.5522 20.8767 25.8448 21.1232 26.0913C21.3697 26.3378 21.6623 26.5333 21.9844 26.6668C22.3064 26.8002 22.6516 26.8688 23.0002 26.8688C23.3488 26.8688 23.694 26.8002 24.0161 26.6668C24.3381 26.5333 24.6308 26.3378 24.8773 26.0913C25.1238 25.8448 25.3193 25.5522 25.4527 25.2301C25.5861 24.9081 25.6548 24.5629 25.6548 24.2143C25.6544 22.7484 23 19.1981 23 19.1981Z" fill="#3DBCE9"/>
</svg>
