<svg viewBox="0 0 70 70" fill="none" xmlns="http://www.w3.org/2000/svg">
<path d="M34.8531 30.4827C29.5645 30.4827 25.3043 34.7429 25.3043 40.0314V40.2517C25.3043 45.5402 29.5645 49.8005 34.8531 49.8005H35.0734C40.3619 49.8005 44.6221 45.5402 44.6221 40.2517V40.0314C44.6221 34.7429 40.3619 30.4827 35.0734 30.4827C35.0734 30.4827 34.8531 30.4827 34.8531 30.4827Z" fill="#D4E1F4"/>
<path d="M42.4186 50.6821C41.831 50.6821 41.1699 50.829 40.7293 51.2698C39.1133 52.8122 37.1301 53.6202 35 53.6202C32.7965 53.6202 30.8132 52.8122 29.2707 51.2698C28.83 50.829 28.1689 50.6087 27.5814 50.6821C21.7787 51.1229 17.1511 56.0442 17.1511 61.9204V67.7965C17.1511 69.0453 18.106 70 19.3546 70H50.6452C51.894 70 52.8488 69.0451 52.8488 67.7965V61.9204C52.8489 55.9706 48.2948 51.0493 42.4186 50.6821Z" fill="#D4E1F4"/>
<path d="M62.5446 43.1897V43.0428C62.5446 38.5623 58.9454 34.9631 54.4649 34.9631H54.3179C49.8374 34.9631 46.2383 38.5623 46.2383 43.0428V43.2631C46.2383 47.7437 49.8374 51.3428 54.3179 51.3428H54.4649C58.9454 51.343 62.5446 47.6703 62.5446 43.1897Z" fill="#D4E1F4"/>
<path d="M60.341 52.1511H59.6066C59.0189 52.1511 58.4314 52.3714 58.0642 52.8122C57.0359 53.8405 55.8606 54.3546 54.3916 54.3546V66.9884H66.2909C67.5396 66.9884 68.4944 66.0335 68.4944 64.7849V60.3043C68.4943 55.8237 64.8216 52.1511 60.341 52.1511Z" fill="#0182F9"/>
<path d="M23.7618 43.2634V43.0431C23.7618 38.5625 20.1626 34.9634 15.6821 34.9634H15.5352C11.0546 34.9634 7.45547 38.5625 7.45547 43.0431V43.19C7.45547 47.6705 11.0546 51.3432 15.5352 51.3432H15.6821C20.1626 51.3432 23.7618 47.744 23.7618 43.2634Z" fill="#D4E1F4"/>
<path d="M11.936 52.8122C11.4952 52.3714 10.9811 52.1511 10.3936 52.1511H9.65911C5.17858 52.1511 1.50589 55.8237 1.50589 60.3043V64.7849C1.50589 66.0336 2.46079 66.9884 3.70939 66.9884H15.6087V54.3546C14.2864 54.3546 13.0378 53.8405 11.936 52.8122Z" fill="#0182F9"/>
<path d="M9.87925 25.9286H15.5351L20.0892 31.8048C20.53 32.3189 21.1175 32.6861 21.8521 32.6861H21.9255C22.6599 32.6861 23.3211 32.3189 23.6884 31.6578L27.4344 25.9286H44.8426C46.0913 25.9286 47.0461 24.9737 47.0461 23.7251V2.2035C47.0462 0.954902 46.0913 0 44.8426 0H9.87925C8.63051 0 7.67575 0.954902 7.67575 2.2035V23.7251C7.67575 24.9738 8.63065 25.9286 9.87925 25.9286Z" fill="#D4E1F4"/>
<path d="M18.106 11.8257H33.0168C34.2655 11.8257 35.2203 10.8708 35.2203 9.6222C35.2203 8.3736 34.2654 7.4187 33.0168 7.4187H18.106C16.8573 7.4187 15.9025 8.3736 15.9025 9.6222C15.9025 10.8708 16.8573 11.8257 18.106 11.8257Z" fill="#0182F9"/>
<path d="M28.5361 16.3063C28.5361 15.0575 27.5812 14.1028 26.3326 14.1028H18.106C16.8573 14.1028 15.9025 15.0577 15.9025 16.3063C15.9025 17.5549 16.8574 18.5098 18.106 18.5098H26.3326C27.5813 18.5098 28.5361 17.5549 28.5361 16.3063Z" fill="#0182F9"/>
</svg>
