<svg width="70" height="70" viewBox="0 0 70 70" fill="none" xmlns="http://www.w3.org/2000/svg">
<g clip-path="url(#clip0)">
<path d="M32.4889 7.84756V2.35419C32.4889 1.02021 31.4687 0 30.1345 0H13.6547C12.3206 0 11.3005 1.02021 11.3005 2.35419V7.84741H32.4889V7.84756Z" fill="#01519B"/>
<path d="M64.1929 23.6997H40.3364V67.6459C40.3364 68.823 39.4732 69.8432 38.296 70H64.1929C65.527 70 66.5471 68.9798 66.5471 67.6459V26.0539C66.5472 24.7198 65.527 23.6997 64.1929 23.6997Z" fill="#D4E1F4"/>
<path d="M40.3364 67.6459V23.6998V9.57416C40.3364 8.24003 39.3162 7.21997 37.9822 7.21997H32.489H11.3005H5.80713C4.473 7.21997 3.45294 8.24018 3.45294 9.57416V67.6459C3.45294 68.9801 4.47315 70.0001 5.80713 70.0001H37.982C38.0605 70.0001 38.2174 70.0001 38.296 70.0001C39.4731 69.8433 40.3364 68.8231 40.3364 67.6459Z" fill="#0182F9"/>
<path d="M28.879 38.6101H24.1705V46.4577H28.879V38.6101Z" fill="#01519B"/>
<path d="M19.4619 38.6101H14.7534V46.4577H19.4619V38.6101Z" fill="#01519B"/>
<path d="M28.8789 65.2916V52.7355C28.8789 51.4014 27.8587 50.3813 26.5247 50.3813H17.1077C15.7735 50.3813 14.7535 51.4016 14.7535 52.7355V65.2916H28.8789Z" fill="#D4E1F4"/>
<path d="M28.879 26.8386H24.1705V34.6862H28.879V26.8386Z" fill="#01519B"/>
<path d="M19.4619 26.8386H14.7534V34.6862H19.4619V26.8386Z" fill="#01519B"/>
<path d="M28.879 15.0671H24.1705V22.9147H28.879V15.0671Z" fill="#01519B"/>
<path d="M19.4619 15.0671H14.7534V22.9147H19.4619V15.0671Z" fill="#01519B"/>
<path d="M58.3858 55.0896H53.6772V62.9372H58.3858V55.0896Z" fill="#2B2D35"/>
<path d="M48.9687 55.0896H44.2601V62.9372H48.9687V55.0896Z" fill="#2B2D35"/>
<path d="M58.3858 43.3186H53.6772V51.1662H58.3858V43.3186Z" fill="#2B2D35"/>
<path d="M48.9687 43.3186H44.2601V51.1662H48.9687V43.3186Z" fill="#2B2D35"/>
<path d="M58.3858 31.5471H53.6772V39.3947H58.3858V31.5471Z" fill="#2B2D35"/>
<path d="M48.9687 31.5471H44.2601V39.3947H48.9687V31.5471Z" fill="#2B2D35"/>
</g>
<defs>
<clipPath id="clip0">
<rect width="70" height="70" fill="white"/>
</clipPath>
</defs>
</svg>
