<svg width="46" height="46" viewBox="0 0 46 46" fill="none" xmlns="http://www.w3.org/2000/svg">
<path d="M12.4434 3.95312H44.5625V34.2934H12.4434V3.95312Z" fill="#E1B378"/>
<path d="M44.5535 3.95312V5.44453H13.5574V34.2844H12.4434V3.95312H44.5535Z" fill="#FFC78A"/>
<path d="M44.5535 34.6437H12.4434C12.2457 34.6437 12.084 34.482 12.084 34.2844V3.95312C12.084 3.75547 12.2457 3.59375 12.4434 3.59375H44.5625C44.7602 3.59375 44.9219 3.75547 44.9219 3.95312V34.2934C44.9129 34.482 44.7512 34.6437 44.5535 34.6437ZM12.8027 33.925H44.2031V4.3125H12.8027V33.925Z" fill="#2F3A5A"/>
<path d="M45.2363 34.2484C44.7602 33.7004 43.9965 33.5207 43.3227 33.7992L29.873 37.4828L21.0504 34.7516L31.4543 35.7937C32.4156 35.9016 33.368 35.5242 33.9789 34.7785C35.1828 33.2602 33.5836 31.9664 33.0266 31.8766C32.3348 31.7598 27.609 31.8766 20.0082 29.0195C12.4074 26.1625 7.68164 32.3437 7.68164 32.3437V40.8699L26.1805 42.0199C28.5613 42.1637 30.9422 41.8223 33.1793 41.0137L44.7242 36.8359C45.5508 36.4227 45.8742 35.4164 45.4609 34.5898C45.398 34.4641 45.3262 34.3562 45.2363 34.2484Z" fill="#E8C79C"/>
<path d="M27.2766 42.4062C26.9082 42.4062 26.5309 42.3973 26.1625 42.3703L7.32227 41.2023V32.218L7.39414 32.1191C7.43906 32.0562 12.3715 25.7582 20.134 28.6781C26.5668 31.0949 30.8613 31.3644 32.4785 31.4723C32.766 31.4902 32.9637 31.4992 33.0805 31.5262C33.7902 31.7418 34.3652 32.2719 34.6438 32.9637C34.9133 33.6645 34.7605 34.4461 34.2574 35.0031C33.5656 35.8477 32.4965 36.2879 31.4094 36.1531L24.5543 35.4703L29.8641 37.1145L43.1879 33.4578C43.9965 33.1254 44.9219 33.35 45.4879 34.0148C46.2246 34.8594 46.1258 36.1441 45.2813 36.8719C45.1555 36.9797 45.0207 37.0695 44.868 37.1504L44.832 37.1684L33.2871 41.3461C31.3734 42.0559 29.334 42.4152 27.2766 42.4062ZM8.04102 40.5285L26.2074 41.6605C28.5344 41.8043 30.8703 41.4719 33.0625 40.6723L44.5805 36.5035C45.2184 36.1621 45.4609 35.3715 45.1195 34.7336C44.8051 34.1406 44.0863 33.8801 43.4664 34.1406L43.4215 34.1586L29.873 37.8691L17.5375 34.0508L31.4992 35.4434C32.3348 35.5422 33.1703 35.2098 33.7094 34.5629C34.0418 34.2035 34.1496 33.6914 33.9879 33.2242C33.7992 32.766 33.4398 32.4066 32.9727 32.2359C32.8918 32.218 32.6941 32.209 32.4426 32.191C30.7984 32.0832 26.4141 31.8137 19.8824 29.352C13.1082 26.8094 8.65195 31.7238 8.04102 32.4605V40.5285Z" fill="#2F3A5A"/>
<path d="M44.7242 36.8268L33.1793 41.0045C30.9422 41.8131 28.5613 42.1545 26.1805 42.0108L7.68164 40.8698V39.7827L25.8121 40.9057C28.193 41.0495 30.5738 40.7081 32.8109 39.8995L44.3559 35.7217C44.9039 35.4522 45.2543 34.9042 45.2633 34.2932C45.8473 35.003 45.7484 36.0541 45.0387 36.6381C44.9398 36.71 44.832 36.7729 44.7242 36.8268Z" fill="#D0AA79"/>
<path d="M27.2766 42.2266C26.9082 42.2266 26.5398 42.2176 26.1715 42.1906L7.67266 41.0406C7.57383 41.0316 7.50195 40.9598 7.50195 40.8609V32.3437C7.50195 32.3078 7.51094 32.2629 7.53789 32.2359C7.58281 32.173 12.4344 25.9828 20.0711 28.8578C26.5219 31.2836 30.8434 31.5531 32.4695 31.6609C32.757 31.6789 32.9457 31.6879 33.0535 31.7058C33.7004 31.9125 34.2305 32.3976 34.482 33.0355C34.7246 33.6734 34.5809 34.3922 34.1227 34.9043C33.4668 35.6949 32.4605 36.1082 31.4363 35.9914L22.8113 35.1289L29.882 37.3121L43.2777 33.6375C44.0145 33.332 44.859 33.5387 45.3711 34.1406C46.0359 34.9133 45.9551 36.0812 45.1824 36.7461C45.0656 36.8449 44.9398 36.9258 44.8051 36.9976L33.2422 41.1844C31.3285 41.8762 29.307 42.2355 27.2766 42.2266ZM7.86133 40.6992L26.1895 41.8402C28.5434 41.993 30.8973 41.6516 33.1164 40.843L44.6613 36.6652C45.3891 36.2789 45.6676 35.3805 45.2902 34.6527C45.2363 34.5539 45.1734 34.4551 45.1016 34.3742C44.6793 33.8891 43.9875 33.7273 43.3945 33.9789L29.927 37.6715C29.891 37.6805 29.8551 37.6805 29.8281 37.6715L21.0055 34.9402C20.9066 34.9133 20.8617 34.8144 20.8887 34.7156C20.9156 34.6348 20.9965 34.5808 21.0773 34.5898L31.4813 35.632C32.3797 35.7309 33.2691 35.3805 33.8531 34.6797C34.2305 34.2754 34.3473 33.6914 34.1586 33.1703C33.952 32.6582 33.5297 32.2539 33.0086 32.0652C32.9188 32.0473 32.7211 32.0383 32.4605 32.0203C30.8164 31.9125 26.459 31.643 19.9543 29.1992C12.9105 26.5488 8.31953 31.8586 7.87031 32.4156L7.86133 40.6992Z" fill="#2F3A5A"/>
<path d="M0.359375 28.8669H9.18203V42.047H0.359375V28.8669Z" fill="#9297AB"/>
<path d="M0.359375 39.1091H9.18203V42.056H0.359375V39.1091Z" fill="#84879C"/>
<path d="M24.5991 3.95312H32.6132V13.4316H24.5991V3.95312Z" fill="#F0F5F9"/>
<path d="M32.6044 13.782H24.5903C24.3927 13.782 24.231 13.6203 24.231 13.4227V3.95312C24.231 3.75547 24.3927 3.59375 24.5903 3.59375H32.6044C32.8021 3.59375 32.9638 3.75547 32.9638 3.95312V13.4316C32.9638 13.6203 32.8021 13.782 32.6044 13.782ZM24.9587 13.0633H32.254V4.3125H24.9587V13.0633Z" fill="#2F3A5A"/>
<path d="M34.5449 29.7022C34.3473 29.7022 34.1855 29.5405 34.1855 29.3428V20.8616C34.1855 20.6639 34.3473 20.5022 34.5449 20.5022C34.7426 20.5022 34.9043 20.6639 34.9043 20.8616V29.3428C34.9043 29.5405 34.7426 29.7022 34.5449 29.7022Z" fill="#2F3A5A"/>
<path d="M36.2341 23.3684C36.1173 23.3684 36.0095 23.3145 35.9376 23.2157L34.5361 21.2391L33.1345 23.2157C33.0177 23.3774 32.7931 23.4134 32.6314 23.2966C32.4697 23.1798 32.4337 22.9552 32.5505 22.7934L34.2486 20.4036C34.3115 20.3048 34.4282 20.2509 34.545 20.2509C34.6618 20.2509 34.7697 20.3048 34.8415 20.4036L36.5396 22.7934C36.6564 22.9552 36.6204 23.1798 36.4497 23.2966C36.3779 23.3415 36.306 23.3684 36.2341 23.3684Z" fill="#2F3A5A"/>
<path d="M39.8276 29.7022C39.63 29.7022 39.4683 29.5405 39.4683 29.3428V20.8616C39.4683 20.6639 39.63 20.5022 39.8276 20.5022C40.0253 20.5022 40.187 20.6639 40.187 20.8616V29.3428C40.187 29.5405 40.0253 29.7022 39.8276 29.7022Z" fill="#2F3A5A"/>
<path d="M41.5256 23.3684C41.4088 23.3684 41.301 23.3145 41.2291 23.2157L39.8276 21.2391L38.426 23.2157C38.3092 23.3774 38.0846 23.4134 37.9229 23.2966C37.7612 23.1798 37.7252 22.9552 37.842 22.7934L39.5401 20.4036C39.603 20.3048 39.7198 20.2509 39.8365 20.2509C39.9533 20.2509 40.0612 20.3048 40.133 20.4036L41.8311 22.7934C41.9479 22.9552 41.9119 23.1798 41.7412 23.2966C41.6694 23.3415 41.5975 23.3684 41.5256 23.3684Z" fill="#2F3A5A"/>
<path d="M9.18203 42.4064H0.359375C0.161719 42.4064 0 42.2447 0 42.047V28.8669C0 28.6693 0.161719 28.5076 0.359375 28.5076H9.18203C9.37969 28.5076 9.54141 28.6693 9.54141 28.8669V42.047C9.54141 42.2537 9.38867 42.4064 9.18203 42.4064ZM0.71875 41.6876H8.82266V29.2263H0.71875V41.6876Z" fill="#2F3A5A"/>
</svg>
