<svg width="46" height="46" viewBox="0 0 46 46" fill="none" xmlns="http://www.w3.org/2000/svg">
<g clip-path="url(#clip0)">
<path d="M24.2043 22.1443C24.2043 22.1443 24.4153 24.6849 26.5212 25.7897C28.6272 26.8945 27.695 27.1706 27.695 27.1706L25.1169 28.488L23.3872 27.792L22.3784 25.9968L22.7927 23.8218L24.2043 22.1443Z" fill="#4D4D4D"/>
<path d="M8.715 28.2729C8.12876 29.8203 8.27898 31.5913 9.18938 33.0371L9.08372 33.0641C8.3204 33.2132 7.50012 32.9895 6.90868 32.3982C5.96208 31.4515 5.96208 29.9166 6.90868 28.97C7.39752 28.4811 8.04386 28.2449 8.68391 28.2605L8.715 28.2729Z" fill="#666666"/>
<path d="M39.7998 5.29252L32.9807 12.1117L32.786 12.1604C32.0206 11.1185 32.1086 9.64566 33.0511 8.70319L38.1312 3.62402L39.7998 5.29252Z" fill="#666666"/>
<path d="M27.2139 27.6025L27.216 27.6046L26.8006 28.021C25.3495 29.4709 25.1321 31.7464 26.2818 33.445L30.2143 39.2585C30.6027 39.8322 30.5292 40.6008 30.0393 41.0907L26.6048 44.5252C25.5536 45.5754 23.8084 45.42 22.9612 44.1989L17.3415 36.1048C16.4455 34.8153 15.0142 34.1296 13.5611 34.1296C12.602 34.1296 11.6346 34.4279 10.8061 35.0494L9.61503 33.6222C9.45861 33.4347 9.31674 33.239 9.18934 33.037C8.27895 31.5912 8.12873 29.8201 8.71497 28.2728C8.87345 27.8544 9.08467 27.4535 9.3499 27.0786C9.52392 26.832 9.72176 26.597 9.94125 26.3774L34.5074 1.81023L35.4033 0.914307L38.1313 3.62374L33.0512 8.70291C32.1087 9.64537 32.0207 11.1182 32.786 12.1601C32.8658 12.2678 32.9539 12.3714 33.0512 12.4687L33.4582 12.8747L30.0289 16.304L29.8683 16.4655L26.726 19.6151L24.204 22.1443L23.65 22.6995C22.1709 24.1785 22.0529 26.4581 23.3869 27.7921C23.853 28.2582 24.4744 28.4881 25.1166 28.4881C25.852 28.4881 26.6142 28.1878 27.2066 27.5954L27.2139 27.6025Z" fill="#808080"/>
<path d="M40.5771 5.29246C40.5771 5.08644 40.4952 4.88888 40.3496 4.74324L38.6806 3.0742L38.6805 3.07429C38.6799 3.07366 38.6793 3.07294 38.6786 3.07231L35.9509 0.3636C35.6472 0.0619925 35.157 0.062891 34.8542 0.365576L34.5078 0.711926L34.0234 0.227486C33.7202 -0.0759184 33.2283 -0.0757387 32.925 0.227486C32.6217 0.53089 32.6217 1.0227 32.9251 1.3261L33.4093 1.81036L10.0464 25.1734L9.56537 24.6924C9.26187 24.3889 8.77015 24.3889 8.46675 24.6924C8.16335 24.9958 8.16335 25.4875 8.46675 25.7909L8.97105 26.2952C8.66468 26.6712 8.40584 27.0796 8.19785 27.5121C7.50658 27.6054 6.85638 27.9231 6.35918 28.4203C5.11107 29.6685 5.11107 31.6994 6.35918 32.9476C6.9659 33.5544 7.78007 33.8857 8.61948 33.8857C8.68866 33.8857 8.7582 33.8825 8.82765 33.878C8.88947 33.9601 8.95317 34.0412 9.01947 34.1205L10.2104 35.547C10.4752 35.8643 10.9421 35.9185 11.2728 35.6705C12.1102 35.0422 13.1411 34.7882 14.1746 34.9553C15.2081 35.1222 16.1063 35.6879 16.7035 36.5478L22.3237 44.6419C22.8593 45.4132 23.7027 45.9035 24.638 45.9872C24.733 45.9958 24.8277 46 24.922 46C25.7568 46 26.5578 45.6707 27.1544 45.0742L30.5887 41.6397C31.3403 40.888 31.4536 39.7036 30.858 38.8233L26.9252 33.0098C25.9864 31.6218 26.1648 29.7544 27.3498 28.5696L29.829 26.0903C31.3116 24.6077 31.6694 22.3558 30.719 20.4867L30.0751 19.2204C29.7031 18.4888 29.8385 17.6093 30.4098 17.0228L34.0075 13.4235C34.1531 13.2778 34.235 13.0803 34.235 12.8743C34.235 12.6683 34.1531 12.4707 34.0074 12.3251L33.9368 12.2545L40.3499 5.8414C40.4952 5.69604 40.5771 5.49847 40.5771 5.29246ZM7.45771 31.8493C6.81523 31.2068 6.81523 30.1614 7.45771 29.519C7.51647 29.4602 7.57972 29.4084 7.64494 29.3599C7.62105 29.539 7.60424 29.7198 7.59607 29.9021C7.56103 30.6823 7.6745 31.4519 7.92283 32.1755C7.75267 32.0954 7.59481 31.9863 7.45771 31.8493ZM23.7553 23.7957C24.29 25.1777 25.4436 26.3691 26.7933 26.929C26.7933 26.929 26.6042 27.0978 26.577 27.1226C26.1898 27.4763 25.7106 27.6834 25.2161 27.7089C24.7195 27.7344 24.2629 27.5691 23.9366 27.2428C23.0574 26.3636 23.0162 24.9277 23.7553 23.7957ZM28.7303 24.9921L28.0382 25.6842C26.5731 25.447 25.1688 23.9478 25.0067 22.4391L27.2724 20.1679L27.2774 20.1728C27.6435 19.8114 27.9842 19.6269 28.2341 19.6528C28.5113 19.6816 28.7108 19.9723 28.7127 19.9753L28.7063 19.9652C28.7063 19.9652 28.7074 19.9638 28.7088 19.9618L29.3338 21.191C29.9786 22.4589 29.736 23.9864 28.7303 24.9921ZM23.1003 22.1504C21.3211 23.9297 21.2036 26.7069 22.838 28.3414C23.4338 28.9372 24.2297 29.261 25.0965 29.2648C24.5344 30.7624 24.6966 32.4885 25.6382 33.8805L29.5711 39.6941C29.7501 39.959 29.7161 40.3152 29.49 40.5413L26.0557 43.9756C25.7181 44.3132 25.2513 44.4821 24.7762 44.4398C24.3007 44.3973 23.8719 44.1479 23.5995 43.7559L17.9793 35.6617C17.1394 34.452 15.876 33.6564 14.4221 33.4214C14.1478 33.3771 13.8739 33.3548 13.6019 33.3521L17.7212 29.2327C18.0247 28.9294 18.0247 28.4375 17.7212 28.1343C17.4178 27.8309 16.926 27.8309 16.6226 28.1343L10.8581 33.8988L10.2119 33.1247C9.05864 31.7433 8.83915 29.8967 9.51883 28.3451L11.2562 30.0825C11.408 30.2342 11.6068 30.31 11.8055 30.31C12.0043 30.31 12.2032 30.2342 12.3549 30.0825C12.6583 29.7792 12.6583 29.2873 12.3549 28.984L10.3961 27.0252C10.4272 26.9922 10.4579 26.9589 10.4902 26.9265L11.155 26.2618L13.116 28.2228C13.2678 28.3745 13.4666 28.4504 13.6653 28.4504C13.8641 28.4504 14.063 28.3745 14.2146 28.2228C14.518 27.9195 14.518 27.4276 14.2146 27.1243L12.2536 25.1633L13.0148 24.4022L14.9757 26.3632C15.1274 26.5149 15.3262 26.5908 15.525 26.5908C15.7237 26.5908 15.9227 26.5149 16.0742 26.3632C16.3777 26.0598 16.3777 25.568 16.0743 25.2646L14.1133 23.3035L14.8744 22.5424L16.8355 24.5033C16.9872 24.6551 17.186 24.7309 17.3848 24.7309C17.5835 24.7309 17.7824 24.6551 17.9341 24.5033C18.2375 24.1999 18.2375 23.7081 17.9341 23.4048L15.9731 21.4438L35.4056 2.01143L37.0308 3.6254L32.5025 8.15373C31.853 8.8033 31.4951 9.66715 31.4951 10.5858C31.4951 11.4367 31.8021 12.2406 32.3635 12.8707L23.1003 22.1504ZM33.0788 10.9155C33.0598 10.8075 33.0487 10.6976 33.0487 10.5858C33.0487 10.0821 33.245 9.60849 33.6011 9.25225L38.1313 4.72203L38.7019 5.29255L33.0788 10.9155Z" fill="black"/>
<path d="M19.4548 36.1343C19.6065 36.286 19.8054 36.3618 20.0041 36.3618C20.2028 36.3618 20.4017 36.286 20.5534 36.1343L23.6684 33.0193C23.9718 32.716 23.9718 32.2242 23.6684 31.9208C23.3649 31.6175 22.8732 31.6175 22.5698 31.9208L19.4548 35.0358C19.1515 35.3391 19.1515 35.8309 19.4548 36.1343Z" fill="#333333"/>
<path d="M21.1193 38.3631C21.2711 38.5149 21.4699 38.5907 21.6686 38.5907C21.8674 38.5907 22.0663 38.5149 22.2179 38.3631L25.0993 35.4818C25.4027 35.1783 25.4027 34.6866 25.0993 34.3833C24.7958 34.0799 24.3041 34.0799 24.0007 34.3833L21.1193 37.2647C20.816 37.568 20.816 38.0598 21.1193 38.3631Z" fill="#333333"/>
<path d="M22.823 40.5533C22.9748 40.705 23.1736 40.7809 23.3723 40.7809C23.5711 40.7809 23.77 40.705 23.9216 40.5533L26.4915 37.9834C26.7949 37.6801 26.7949 37.1882 26.4915 36.885C26.188 36.5816 25.6963 36.5816 25.3929 36.885L22.823 39.4549C22.5196 39.7582 22.5196 40.2501 22.823 40.5533Z" fill="#333333"/>
<path d="M24.3708 42.8994C24.5225 43.0511 24.7213 43.127 24.9201 43.127C25.1188 43.127 25.3178 43.0511 25.4694 42.8994L28.0393 40.3295C28.3427 40.0262 28.3427 39.5343 28.0393 39.2309C27.736 38.9276 27.2442 38.9276 26.9407 39.2309L24.3708 41.8008C24.0675 42.1043 24.0675 42.5962 24.3708 42.8994Z" fill="#333333"/>
<path d="M20.447 26.5075C20.7504 26.2041 20.7504 25.7123 20.4469 25.4088C20.1437 25.1055 19.6518 25.1056 19.3484 25.4088L18.4917 26.2655C18.1883 26.5689 18.1883 27.0607 18.4918 27.3641C18.6434 27.5158 18.8423 27.5917 19.041 27.5917C19.2397 27.5917 19.4387 27.5159 19.5903 27.3641L20.447 26.5075Z" fill="#333333"/>
</g>
<defs>
<clipPath id="clip0">
<rect width="46" height="46" fill="white"/>
</clipPath>
</defs>
</svg>
