<svg width="40" height="39" viewBox="0 0 40 39" fill="none" xmlns="http://www.w3.org/2000/svg">
<path d="M16.72 38.624C16.24 38.624 15.808 38.456 15.424 38.12C15.088 37.736 14.92 37.304 14.92 36.824V23.792H2.248C1.768 23.792 1.336 23.624 0.952 23.288C0.616 22.904 0.448 22.472 0.448 21.992V16.448C0.448 15.92 0.616 15.488 0.952 15.152C1.288 14.768 1.72 14.576 2.248 14.576H14.92V1.976C14.92 1.448 15.088 1.016 15.424 0.68C15.808 0.343998 16.24 0.175998 16.72 0.175998H22.912C23.44 0.175998 23.872 0.343998 24.208 0.68C24.592 1.016 24.784 1.448 24.784 1.976V14.576H37.312C37.84 14.576 38.272 14.768 38.608 15.152C38.992 15.488 39.184 15.92 39.184 16.448V21.992C39.184 22.52 38.992 22.952 38.608 23.288C38.272 23.624 37.84 23.792 37.312 23.792H24.784V36.824C24.784 37.352 24.592 37.784 24.208 38.12C23.872 38.456 23.44 38.624 22.912 38.624H16.72Z" fill="#F2F2F2"/>
</svg>
