<svg viewBox="0 0 46 46" fill="none" xmlns="http://www.w3.org/2000/svg">
<g clip-path="url(#clip0)">
<path d="M17.5033 0.780518H26.9028L16.1302 16.7504L9.67041 12.3926L17.5033 0.780518Z" fill="#6FC682"/>
<path d="M16.1301 17.1098C16.0585 17.1098 15.9886 17.0884 15.9292 17.0483L9.46945 12.6906C9.39045 12.6373 9.33585 12.5548 9.31765 12.4612C9.29945 12.3677 9.31915 12.2708 9.37242 12.1918L17.2068 0.579627C17.2397 0.53084 17.284 0.490875 17.336 0.463242C17.3879 0.435609 17.4459 0.421152 17.5047 0.421143H26.9027C26.9679 0.421154 27.0319 0.438902 27.0878 0.472486C27.1437 0.50607 27.1894 0.554224 27.22 0.611791C27.2506 0.669358 27.265 0.734168 27.2615 0.799278C27.2581 0.864389 27.2371 0.927347 27.2006 0.981408L16.428 16.9513C16.3747 17.0303 16.2923 17.0848 16.1987 17.103C16.1761 17.1075 16.1532 17.1098 16.1301 17.1098ZM10.1702 12.2956L16.0331 16.2516L26.2267 1.13989H17.6945L10.1702 12.2956Z" fill="#2F3A5A"/>
<path d="M26.913 0.780518H17.5132L28.2862 16.7504L34.7459 12.3926L26.913 0.780518Z" fill="#8AE0A1"/>
<path d="M28.2862 17.1098C28.2632 17.1098 28.2402 17.1075 28.2176 17.103C28.1241 17.0848 28.0416 17.0303 27.9883 16.9513L17.2142 0.981408C17.1778 0.927347 17.1567 0.864389 17.1533 0.799278C17.1499 0.734168 17.1643 0.669358 17.1949 0.611791C17.2255 0.554224 17.2712 0.50607 17.3271 0.472486C17.383 0.438902 17.4469 0.421154 17.5121 0.421143H26.913C26.9719 0.421152 27.0298 0.435609 27.0817 0.463242C27.1337 0.490875 27.1781 0.53084 27.211 0.579627L35.0453 12.1918C35.0986 12.2708 35.1183 12.3677 35.1001 12.4612C35.0819 12.5548 35.0273 12.6373 34.9483 12.6906L28.4871 17.0483C28.4277 17.0884 28.3578 17.1098 28.2862 17.1098ZM18.1892 1.13989L28.3832 16.2516L34.2486 12.2956L26.7218 1.13989H18.1892Z" fill="#2F3A5A"/>
<path d="M22.6372 15.269L34.2846 18.7762L35.8457 6.77124L22.6372 15.269Z" fill="#8AE0A1"/>
<path d="M34.2843 19.1351C34.2493 19.1352 34.2144 19.1301 34.1808 19.12L22.5328 15.6129C22.4669 15.5932 22.408 15.555 22.3632 15.5028C22.3184 15.4507 22.2894 15.3867 22.2799 15.3186C22.2703 15.2505 22.2805 15.1811 22.3092 15.1186C22.3379 15.0561 22.3839 15.0031 22.4418 14.966L35.6499 6.4686C35.7076 6.4315 35.7746 6.41165 35.8431 6.41138C35.9116 6.41111 35.9788 6.43043 36.0367 6.46706C36.0946 6.5037 36.1408 6.55612 36.1699 6.61816C36.199 6.68019 36.2097 6.74925 36.2009 6.81719L34.6397 18.8203C34.6285 18.9069 34.5861 18.9864 34.5205 19.044C34.4549 19.1016 34.3705 19.1334 34.2832 19.1333L34.2843 19.1351ZM23.4873 15.1493L33.9832 18.3093L35.3901 7.4921L23.4873 15.1493Z" fill="#2F3A5A"/>
<path d="M45.6405 31.9348L41.1691 40.2025L32.2466 23.1301L39.1527 19.5205L45.6405 31.9348Z" fill="#6FC682"/>
<path d="M41.1691 40.562H41.1666C41.1014 40.5615 41.0376 40.5433 40.9819 40.5093C40.9263 40.4753 40.8809 40.4268 40.8507 40.369L31.9282 23.2966C31.9063 23.2547 31.8928 23.209 31.8886 23.162C31.8844 23.115 31.8895 23.0676 31.9036 23.0225C31.9178 22.9774 31.9406 22.9356 31.9709 22.8994C32.0012 22.8632 32.0383 22.8333 32.0802 22.8114L38.9863 19.2022C39.0281 19.1803 39.0739 19.1669 39.1209 19.1627C39.1679 19.1585 39.2153 19.1636 39.2604 19.1777C39.3054 19.1918 39.3473 19.2147 39.3835 19.245C39.4197 19.2753 39.4496 19.3124 39.4715 19.3542L45.9589 31.7688C45.9861 31.821 46.0001 31.879 45.9997 31.9379C45.9993 31.9967 45.9844 32.0546 45.9564 32.1063L41.485 40.3744C41.4541 40.4312 41.4085 40.4786 41.3529 40.5117C41.2973 40.5447 41.2338 40.5621 41.1691 40.562ZM32.7317 23.2822L41.1749 39.4375L45.2337 31.932L39.0007 20.0058L32.7317 23.2822Z" fill="#2F3A5A"/>
<path d="M41.1646 40.2111L45.6359 31.943L26.4644 33.8225L27.2244 41.5775L41.1646 40.2111Z" fill="#8AE0A1"/>
<path d="M27.224 41.937C27.135 41.9369 27.0491 41.9038 26.9831 41.8441C26.9171 41.7843 26.8757 41.7022 26.8668 41.6136L26.1067 33.8583C26.1021 33.8112 26.1068 33.7637 26.1206 33.7185C26.1343 33.6733 26.1569 33.6313 26.1869 33.5948C26.217 33.5583 26.2539 33.5281 26.2957 33.5059C26.3374 33.4837 26.3831 33.47 26.4301 33.4655L45.6017 31.5863C45.6666 31.58 45.732 31.5914 45.7909 31.6194C45.8498 31.6473 45.9 31.6908 45.9361 31.7451C45.9722 31.7995 45.9928 31.8626 45.9957 31.9277C45.9987 31.9929 45.9838 32.0576 45.9528 32.1149L41.4818 40.3831C41.4539 40.4349 41.4136 40.479 41.3646 40.5116C41.3156 40.5442 41.2594 40.5642 41.2008 40.57L27.2603 41.9356C27.2482 41.9367 27.2361 41.9372 27.224 41.937ZM26.8567 34.1451L27.5467 41.1849L40.9392 39.8721L44.998 32.3665L26.8567 34.1451Z" fill="#2F3A5A"/>
<path d="M30.4545 29.5586L21.8291 38.1358L31.6461 45.2194L30.4545 29.5586Z" fill="#8AE0A1"/>
<path d="M31.6461 45.5785C31.5706 45.5785 31.4971 45.5548 31.4359 45.5106L21.6188 38.427C21.5765 38.3965 21.5414 38.3571 21.5159 38.3117C21.4903 38.2662 21.4749 38.2158 21.4708 38.1638C21.4667 38.1119 21.474 38.0596 21.4921 38.0107C21.5102 37.9618 21.5387 37.9175 21.5757 37.8807L30.2007 29.3035C30.2494 29.2554 30.3109 29.2221 30.3779 29.2077C30.4449 29.1933 30.5146 29.1984 30.5788 29.2223C30.643 29.2462 30.699 29.288 30.7403 29.3427C30.7815 29.3974 30.8063 29.4627 30.8116 29.531L32.0033 45.1918C32.0071 45.2413 32.0006 45.291 31.9842 45.3378C31.9679 45.3846 31.942 45.4275 31.9082 45.4638C31.8745 45.5001 31.8336 45.5291 31.7881 45.5488C31.7426 45.5686 31.6935 45.5787 31.644 45.5785H31.6461ZM22.3825 38.0935L31.2296 44.4749L30.1551 30.3626L22.3825 38.0935Z" fill="#2F3A5A"/>
<path d="M5.28877 41.1252L0.364258 33.119L19.6109 33.9283L19.2836 41.7138L5.28877 41.1252Z" fill="#6FC682"/>
<path d="M19.2842 42.073H19.2691L5.2743 41.4847C5.21552 41.4823 5.15823 41.4654 5.10747 41.4357C5.05672 41.4059 5.01405 41.3641 4.98321 41.314L0.0586938 33.3071C0.0245135 33.2516 0.00608797 33.1878 0.00539159 33.1226C0.00469521 33.0574 0.0217542 32.9932 0.0547407 32.937C0.0880206 32.8813 0.135538 32.8356 0.192393 32.8045C0.249247 32.7733 0.313381 32.7579 0.378178 32.7598L19.6263 33.5691C19.7215 33.5731 19.8112 33.6148 19.8757 33.685C19.9402 33.7551 19.9742 33.848 19.9702 33.9432L19.6428 41.7287C19.6389 41.8213 19.5995 41.9087 19.5326 41.9729C19.4658 42.037 19.3768 42.0729 19.2842 42.073ZM5.49532 40.7742L18.9392 41.3395L19.2364 34.2721L1.02505 33.5062L5.49532 40.7742Z" fill="#2F3A5A"/>
<path d="M0.359375 33.1106L5.28389 41.1168L13.2426 23.5743L6.14639 20.355L0.359375 33.1106Z" fill="#8AE0A1"/>
<path d="M5.28193 41.4764C5.22054 41.4764 5.16016 41.4607 5.10656 41.4307C5.05295 41.4008 5.00792 41.3576 4.97575 41.3053L0.0523096 33.2992C0.0214843 33.2491 0.00343073 33.1922 -0.000266177 33.1334C-0.00396309 33.0747 0.00680972 33.016 0.0311065 32.9624L5.81704 20.2064C5.83646 20.1634 5.86418 20.1245 5.89861 20.0922C5.93303 20.0599 5.9735 20.0346 6.0177 20.0179C6.06189 20.0012 6.10894 19.9934 6.15615 19.9949C6.20337 19.9964 6.24982 20.0073 6.29286 20.0267L13.3891 23.246C13.4321 23.2654 13.471 23.2931 13.5033 23.3276C13.5356 23.362 13.5609 23.4025 13.5776 23.4467C13.5943 23.4909 13.6021 23.5379 13.6006 23.5851C13.599 23.6323 13.5882 23.6788 13.5688 23.7218L5.6104 41.2654C5.58347 41.3248 5.54087 41.3758 5.48718 41.4128C5.4335 41.4498 5.37075 41.4716 5.30565 41.4757L5.28193 41.4764ZM0.764591 33.0853L5.23486 40.353L12.7659 23.7549L6.32412 20.8307L0.764591 33.0853Z" fill="#2F3A5A"/>
<path d="M14.94 29.1618L11.825 17.4034L0.781738 22.3632L14.94 29.1618Z" fill="#8AE0A1"/>
<path d="M14.9399 29.5214C14.8859 29.5212 14.8328 29.5089 14.7842 29.4854L0.625944 22.6875C0.564263 22.6578 0.512339 22.6111 0.476279 22.553C0.440219 22.4948 0.421524 22.4275 0.422392 22.3591C0.42326 22.2906 0.443656 22.2239 0.48118 22.1666C0.518704 22.1094 0.571796 22.064 0.634209 22.0359L11.6774 17.0765C11.725 17.0552 11.7766 17.0445 11.8287 17.0451C11.8808 17.0457 11.9322 17.0576 11.9792 17.08C12.0263 17.1025 12.0679 17.1348 12.1012 17.1749C12.1344 17.2151 12.1586 17.2619 12.1719 17.3123L15.287 29.0703C15.3011 29.1235 15.3028 29.1793 15.2919 29.2332C15.2811 29.2872 15.2579 29.338 15.2244 29.3816C15.1908 29.4252 15.1476 29.4605 15.0982 29.4848C15.0489 29.5091 14.9945 29.5217 14.9395 29.5217L14.9399 29.5214ZM1.63435 22.3745L14.3922 28.5004L11.5858 17.9049L1.63435 22.3745Z" fill="#2F3A5A"/>
</g>
<defs>
<clipPath id="clip0">
<rect fill="white"/>
</clipPath>
</defs>
</svg>
