<svg width="70" height="70" viewBox="0 0 70 70" fill="none" xmlns="http://www.w3.org/2000/svg">
<path d="M47.6992 67.1349H8.75004C3.87161 67.1349 0 63.1858 0 58.3849V52.7322H10.2987H39.4911V58.3849C39.4911 63.1084 43.1305 66.8251 47.6992 67.1349Z" fill="#D4E1F4"/>
<path d="M70 9.36946V19.7455H56.9912V9.36946C56.9912 5.73009 59.9337 2.86499 63.4957 2.86499C65.2766 2.86499 66.9028 3.56189 68.1417 4.8008C69.3031 5.96249 70 7.58853 70 9.36946Z" fill="#01519B"/>
<path d="M16.803 2.86499H63.4955C59.9335 2.86499 56.9911 5.73009 56.9911 9.36946V19.7455V58.3849C56.9911 60.7854 56.0619 62.9536 54.4357 64.5796C52.8871 66.1283 50.6415 67.1349 48.241 67.1349C48.0861 67.1349 47.8539 67.1349 47.699 67.1349C43.1305 66.8252 39.491 63.1084 39.491 58.3849V52.7322H10.2987V52.6549L10.6085 8.98232C10.6085 5.57506 13.3961 2.86499 16.803 2.86499Z" fill="#0182F9"/>
<path d="M20.2101 18.1195H32.2124C33.5288 18.1195 34.5353 17.1128 34.5353 15.7966C34.5353 14.4803 33.5287 13.4736 32.2124 13.4736H20.2101C18.8937 13.4736 17.8872 14.4803 17.8872 15.7966C17.8872 17.1128 18.8939 18.1195 20.2101 18.1195Z" fill="#01519B"/>
<path d="M20.2101 27.4115H46.1503C47.4668 27.4115 48.4733 26.4048 48.4733 25.0886C48.4733 23.7721 47.4666 22.7656 46.1503 22.7656H20.2101C18.8937 22.7656 17.8872 23.7723 17.8872 25.0886C17.8872 26.4048 18.8939 27.4115 20.2101 27.4115Z" fill="#01519B"/>
<path d="M46.1505 32.0576H20.2103C18.8938 32.0576 17.8873 33.0643 17.8873 34.3806C17.8873 35.697 18.894 36.7035 20.2103 36.7035H46.1505C47.4669 36.7035 48.4734 35.6968 48.4734 34.3806C48.4734 33.0643 47.4668 32.0576 46.1505 32.0576Z" fill="#01519B"/>
<path d="M46.1505 41.3496H20.2103C18.8938 41.3496 17.8873 42.3563 17.8873 43.6725C17.8873 44.989 18.894 45.9955 20.2103 45.9955H46.1505C47.4669 45.9955 48.4734 44.9888 48.4734 43.6725C48.4734 42.3563 47.4668 41.3496 46.1505 41.3496Z" fill="#01519B"/>
</svg>
