<svg width="70" height="90" viewBox="0 0 70 70" fill="none" xmlns="http://www.w3.org/2000/svg">
<path d="M0 35C0 15.67 15.67 0 35 0V0C54.33 0 70 15.67 70 35V35C70 54.33 54.33 70 35 70V70C15.67 70 0 54.33 0 35V35Z" fill="#0F1014"/>
<path d="M35 69.5C15.9462 69.5 0.5 54.0538 0.5 35C0.5 15.9462 15.9462 0.5 35 0.5C54.0538 0.5 69.5 15.9462 69.5 35C69.5 54.0538 54.0538 69.5 35 69.5Z" stroke="white" stroke-opacity="0.1"/>
<path d="M40.604 16.8539L37.688 19.7709C37.3064 20.1603 37.0927 20.6837 37.0927 21.2289C37.0927 21.7741 37.3064 22.2975 37.688 22.6869L47.917 32.9169H53.75V27.0829L43.52 16.8539C43.1306 16.4723 42.6072 16.2585 42.062 16.2585C41.5168 16.2585 40.9934 16.4723 40.604 16.8539Z" stroke="white" stroke-width="2" stroke-linecap="round" stroke-linejoin="round"/>
<path d="M49.583 53.75H16.25V20.417L49.583 53.75Z" stroke="#475569" stroke-width="2" stroke-linecap="round" stroke-linejoin="round"/>
</svg>
