<svg width="46" height="46" viewBox="0 0 46 46" fill="none" xmlns="http://www.w3.org/2000/svg">
<g clip-path="url(#clip0)">
<path d="M25.6824 33.2782C25.1816 32.8069 24.5903 32.4423 23.9444 32.2065L21.261 31.017L19.8332 31.2265L15.9595 31.928C17.5416 34.7258 19.7601 37.112 22.4354 38.8934C22.9332 39.2576 23.4935 39.5275 24.0885 39.6898C24.3865 39.7686 24.6985 39.7789 25.001 39.7199C25.3036 39.661 25.5888 39.5343 25.8355 39.3494C26.5208 38.7744 26.5779 37.7585 26.5815 36.8636C26.5844 35.6004 26.5405 34.2053 25.6824 33.2782Z" fill="#B0B3C1"/>
<path d="M24.6249 40.1095C24.4174 40.1092 24.2106 40.086 24.0082 40.0405C23.3706 39.8687 22.77 39.5814 22.2361 39.1927C19.5138 37.3797 17.2563 34.9515 15.6463 32.1044L15.3979 31.6642L19.769 30.8736L21.3115 30.6472L24.0901 31.8766C24.7817 32.1313 25.4137 32.5251 25.947 33.0338C26.8728 34.0343 26.945 35.475 26.9396 36.8654C26.936 37.8487 26.8649 38.9541 26.0653 39.6251C25.6566 39.9501 25.1469 40.1216 24.6249 40.1095ZM16.5275 32.1903C18.0628 34.7513 20.1487 36.9387 22.634 38.594C23.0941 38.9346 23.6133 39.1872 24.1653 39.339C24.4093 39.4062 24.6654 39.4172 24.9144 39.3714C25.1633 39.3255 25.3987 39.2239 25.6028 39.0741C26.1666 38.6012 26.2169 37.6844 26.2202 36.8625C26.2252 35.5641 26.1677 34.3315 25.4188 33.5204C24.9503 33.0862 24.3995 32.7504 23.7991 32.5328L21.2116 31.386L19.8865 31.5805L16.5275 32.1903Z" fill="#2F3A5A"/>
<path d="M18.009 32.2564C19.1426 34.3331 20.9327 35.9754 23.0992 36.9261C20.8144 36.1134 18.8636 34.5659 17.5522 32.5259L18.009 32.2564Z" fill="#9297AB"/>
<path d="M19.8518 31.998C20.9969 33.7041 22.5559 35.0918 24.3832 36.0313C22.4421 35.2309 20.7357 33.9512 19.4238 32.3118L19.8518 31.998Z" fill="#9297AB"/>
<path d="M21.5416 31.5244C22.4383 32.5102 23.4745 33.3595 24.6171 34.0454C23.3714 33.5042 22.2115 32.7837 21.1743 31.9067L21.5416 31.5244Z" fill="#9297AB"/>
<path d="M45.4727 30.052L41.0024 24.7462C40.8461 24.5605 40.7577 24.3271 40.752 24.0844C40.7462 23.8417 40.8234 23.6044 40.9708 23.4115L45.3695 17.6565C45.4506 17.5494 45.4997 17.4216 45.5113 17.2879C45.5229 17.1541 45.4964 17.0198 45.435 16.9004C45.3736 16.781 45.2798 16.6814 45.1642 16.6131C45.0487 16.5447 44.9162 16.5104 44.782 16.514C38.2054 16.6117 32.7016 21.4464 32.7016 21.4464C32.7016 21.4464 25.3297 24.8145 30.6643 28.3256C34.8968 31.1565 40.0798 32.1921 45.0752 31.2049C45.1956 31.1799 45.3075 31.1241 45.3998 31.0428C45.4921 30.9616 45.5617 30.8578 45.6018 30.7415C45.6419 30.6252 45.6511 30.5006 45.6284 30.3797C45.6058 30.2588 45.5521 30.1459 45.4727 30.052Z" fill="#B0B3C1"/>
<path d="M41.3972 31.9269C37.5076 31.9286 33.7044 30.7801 30.466 28.6256C28.9894 27.6553 28.2857 26.5772 28.3741 25.4272C28.5538 23.0866 32.029 21.3663 32.5033 21.1409C33.0539 20.6676 38.3629 16.2491 44.7764 16.1539C44.9797 16.1506 45.1798 16.2046 45.3539 16.3097C45.528 16.4149 45.6689 16.5668 45.7607 16.7483C45.8511 16.9269 45.8889 17.1275 45.8698 17.3267C45.8507 17.5259 45.7755 17.7157 45.6529 17.8739L41.2563 23.6296C41.1594 23.7578 41.1087 23.915 41.1126 24.0757C41.1164 24.2364 41.1746 24.391 41.2775 24.5144L45.7485 29.8202C45.8681 29.9617 45.9488 30.1319 45.9828 30.314C46.0168 30.4961 46.0029 30.6839 45.9424 30.859C45.8819 31.0341 45.7769 31.1905 45.6378 31.3128C45.4986 31.4351 45.3301 31.5192 45.1487 31.5567C43.9139 31.8067 42.657 31.9307 41.3972 31.9269ZM44.7929 16.8734H44.7868C38.4172 16.9679 32.9906 21.6703 32.9382 21.7163L32.8505 21.7731C32.8145 21.7896 29.2467 23.4463 29.0907 25.484C29.0242 26.3533 29.6201 27.209 30.8613 28.0255C35.0166 30.7973 40.0993 31.8138 45.001 30.8534C45.0605 30.8412 45.1158 30.8137 45.1615 30.7736C45.2071 30.7335 45.2416 30.6822 45.2614 30.6248C45.2813 30.5674 45.2858 30.5057 45.2746 30.446C45.2634 30.3863 45.2368 30.3305 45.1975 30.2842L40.7276 24.9766C40.5171 24.7291 40.3979 24.4168 40.3902 24.0919C40.3825 23.7671 40.4866 23.4494 40.6852 23.1923L45.084 17.4369C45.1248 17.3859 45.1499 17.3242 45.1563 17.2593C45.1627 17.1943 45.15 17.1289 45.1199 17.071C45.0898 17.0104 45.043 16.9597 44.9851 16.9247C44.9272 16.8897 44.8605 16.8719 44.7929 16.8734Z" fill="#2F3A5A"/>
<path d="M34.0332 21.9815C36.0649 20.7592 38.322 19.9584 40.6698 19.6269C38.3883 20.1244 36.2303 21.076 34.3243 22.425L34.0332 21.9815Z" fill="#9297AB"/>
<path d="M35.0669 22.8009L40.0259 22.0397L35.1751 23.3202L35.0669 22.8009Z" fill="#9297AB"/>
<path d="M36.4341 24.0918L39.8453 24.357L36.4341 24.6222V24.0918Z" fill="#9297AB"/>
<path d="M35.4011 25.0714C35.8451 25.018 36.2932 25.1309 36.6589 25.3884C36.9982 25.5954 37.3083 25.7891 37.6526 25.9605C38.3363 26.3065 39.0581 26.5711 39.8035 26.749C39.0324 26.656 38.275 26.4729 37.5466 26.2035C37.1825 26.0726 36.8156 25.8991 36.4774 25.7424C36.0602 25.5692 35.6045 25.5097 35.1567 25.5699L35.4011 25.0714Z" fill="#9297AB"/>
<path d="M34.2047 25.9351C35.7479 27.0423 37.45 27.909 39.2532 28.5057C37.3764 28.0706 35.5766 27.3533 33.915 26.3782L34.2047 25.9351Z" fill="#9297AB"/>
<path d="M32.1281 26.9561C33.8747 28.0526 35.7919 28.8503 37.8008 29.3164C35.7306 29.0173 33.7247 28.3752 31.8657 27.4164L32.1281 26.9561Z" fill="#9297AB"/>
<path d="M13.9743 14.2313C13.9743 14.2313 12.0965 8.76877 14.0123 7.19398C15.9282 5.6192 18.0269 6.18234 19.159 7.63997C20.291 9.09759 23.6019 10.6303 26.0884 12.295C28.5749 13.9596 31.129 17.0387 28.6421 19.3409C26.1553 21.643 13.9743 14.2313 13.9743 14.2313Z" fill="#B0B3C1"/>
<path d="M27.1756 20.1275C23.1103 20.1275 14.8663 15.1955 13.7878 14.5396L13.6767 14.4721L13.6343 14.3495C13.5542 14.117 11.6998 8.63149 13.7842 6.91763C14.197 6.55115 14.6804 6.27286 15.2046 6.09983C15.7288 5.9268 16.2829 5.86267 16.8328 5.91138C17.3471 5.97414 17.8434 6.1402 18.2919 6.39957C18.7405 6.65895 19.132 7.00629 19.4429 7.42076C20.1491 8.33069 21.8148 9.3064 23.5782 10.3392C24.4925 10.8747 25.4376 11.4281 26.2883 11.9974C27.9878 13.1352 29.8572 15.0345 30.0082 16.9535C30.0441 17.4528 29.9612 17.9535 29.7661 18.4146C29.5711 18.8756 29.2695 19.2838 28.8862 19.6057C28.4016 19.988 27.791 20.1742 27.1756 20.1275ZM14.274 13.9934C17.6845 16.054 26.5431 20.7938 28.3974 19.0782C28.6991 18.8285 28.9373 18.5109 29.0926 18.1514C29.2479 17.7919 29.3158 17.4007 29.2909 17.01C29.1604 15.3468 27.4476 13.6387 25.8879 12.5947C25.056 12.0391 24.1205 11.4892 23.2156 10.961C21.3907 9.89182 19.6668 8.88233 18.8755 7.86315C18.6233 7.52525 18.3055 7.24172 17.9412 7.02954C17.5769 6.81736 17.1735 6.6809 16.7551 6.62833C16.3009 6.59157 15.8439 6.64761 15.412 6.79305C14.9801 6.93848 14.5823 7.17027 14.2427 7.4743C12.8656 8.60238 13.7641 12.4477 14.2729 13.9934H14.274Z" fill="#2F3A5A"/>
<path d="M15.2732 13.8798C14.8569 12.8868 14.696 11.8052 14.8052 10.734C14.9145 9.6628 15.2903 8.63601 15.8985 7.74744C15.3833 8.64128 15.1 9.64988 15.0744 10.6813C15.0489 11.7127 15.2819 12.7341 15.7522 13.6523L15.2732 13.8798Z" fill="#C8CBD2"/>
<path d="M17.2114 13.9286C16.9558 12.2277 16.9379 10.4994 17.1582 8.79352C17.1144 10.4687 17.3053 12.1418 17.7253 13.764L17.2114 13.9286Z" fill="#C8CBD2"/>
<path d="M18.9872 14.1615C18.5736 12.5699 18.5687 10.8997 18.9728 9.30566C18.7483 10.8638 18.9233 12.4534 19.4813 13.9254L18.9872 14.1615Z" fill="#C8CBD2"/>
<path d="M20.4292 14.5906C20.5564 14.3247 20.6081 14.029 20.5787 13.7357C20.5787 13.3802 20.5924 13.0234 20.6146 12.6698C20.6614 11.9666 20.7525 11.267 20.8874 10.5753C20.841 11.2731 20.8384 11.9731 20.8799 12.6712C20.9007 13.0183 20.9323 13.3626 20.9744 13.7069C21.0564 14.1062 21.0242 14.5206 20.8817 14.9025L20.4292 14.5906Z" fill="#C8CBD2"/>
<path d="M22.0586 15.3608C22.2314 14.738 22.3405 14.0992 22.3842 13.4543L22.5639 11.4695L22.6501 13.4629C22.6938 14.1439 22.6682 14.8276 22.5736 15.5035L22.0586 15.3608Z" fill="#C8CBD2"/>
<path d="M23.5991 16.1C23.9236 15.1597 24.1171 14.1792 24.1741 13.1862C24.2935 14.1979 24.2731 15.2213 24.1134 16.2275L23.5991 16.1Z" fill="#C8CBD2"/>
<path d="M25.4473 16.4073C25.5411 16.441 25.6931 16.3088 25.7502 16.1025C25.8073 15.8356 25.821 15.5612 25.7908 15.29L25.6898 13.4406L26.0578 15.2785C26.1395 15.6088 26.1692 15.9499 26.1459 16.2894C26.1459 16.4721 26.0885 16.6501 25.9819 16.7984C25.8752 16.9467 25.7247 17.0578 25.5515 17.1159L25.4473 16.4073Z" fill="#C8CBD2"/>
<path d="M26.9778 17.5375C27.0777 17.5849 27.2456 17.5015 27.3634 17.3175C27.4893 17.099 27.5631 16.8544 27.5791 16.6027C27.615 16.3206 27.6211 16.0148 27.6696 15.7126C27.7009 15.4207 27.8073 15.1419 27.9783 14.9033C27.8522 15.16 27.7915 15.4439 27.8015 15.7298C27.7983 16.0173 27.8349 16.3088 27.8443 16.6196C27.8678 16.9538 27.8174 17.289 27.6966 17.6014C27.6442 17.7678 27.5441 17.9152 27.4087 18.0252C27.2733 18.1352 27.1086 18.203 26.9351 18.2203L26.9778 17.5375Z" fill="#C8CBD2"/>
<path d="M36.4569 23.7906L35.3385 22.6945C32.0761 19.9787 21.159 13.2149 16.2999 13.225C12.8514 13.1915 9.48859 14.2997 6.7355 16.3767C4.03871 18.4535 1.92595 21.1935 0.603121 24.3297C-0.151566 25.5602 1.04875 25.7991 1.42968 26.759C1.81062 27.7189 7.62028 29.8198 7.62028 29.8198C8.51153 30.3133 9.41715 30.7693 10.3257 31.1725C13.7695 32.7031 17.1477 33.1559 20.0025 32.6312C23.0263 32.0749 33.5725 26.8981 36.3541 24.9816C36.4485 24.917 36.5273 24.8322 36.585 24.7335C36.6426 24.6347 36.6776 24.5244 36.6875 24.4104C36.6973 24.2965 36.6817 24.1818 36.6418 24.0746C36.602 23.9674 36.5388 23.8704 36.4569 23.7906Z" fill="#C8CBD2"/>
<g opacity="0.5">
<path opacity="0.5" d="M36.3542 24.9802C33.5727 26.8956 23.025 32.0742 20.0027 32.6313C17.1492 33.1559 13.7675 32.7031 10.3247 31.1722C9.41909 30.7697 8.51346 30.3133 7.62221 29.8173C7.62221 29.8173 1.81112 27.7114 1.43018 26.7591C1.12112 25.9792 0.269401 25.6738 0.370026 24.9263C1.82549 25.972 6.10206 27.5209 6.10206 27.5209C6.99331 28.0133 7.89893 28.4697 8.80815 28.8722C12.251 30.4067 15.6291 30.8559 18.4825 30.3313C21.5085 29.7742 32.0525 24.5992 34.8377 22.6802C34.9223 22.622 34.9944 22.5475 35.0497 22.4609C35.1503 22.54 35.2474 22.6191 35.3372 22.6945L36.4549 23.7906C36.5368 23.8702 36.6001 23.9669 36.6401 24.0739C36.6801 24.1809 36.6958 24.2954 36.6862 24.4092C36.6766 24.523 36.6418 24.6333 36.5844 24.732C36.527 24.8307 36.4484 24.9155 36.3542 24.9802Z" fill="#B0B3C1"/>
</g>
<path d="M10.3861 31.1398C9.47366 30.7474 8.5666 30.2964 7.66996 29.8084C7.66996 29.8084 1.84521 27.7502 1.45277 26.8007C1.39404 26.6566 1.31646 26.5209 1.22205 26.3972C1.12646 26.2699 1.02044 26.1531 0.919818 26.0417C0.488568 25.5907 0.102959 25.2152 0.606802 24.376C1.90458 21.2296 3.99604 18.4735 6.67701 16.3767C7.97651 16.8328 11.6364 18.5146 12.4752 23.0553C13.0958 26.4238 11.6263 29.3519 10.3861 31.1398Z" fill="#B0B3C1"/>
<path d="M0.921387 26.0421C1.02201 26.1535 1.12839 26.2703 1.22362 26.3975C3.9024 26.2178 6.15173 24.1802 6.30016 24.0475C4.64558 25.0384 2.82197 25.7146 0.921387 26.0421Z" fill="#9297AB"/>
<path d="M3.61063 23.786C4.14474 23.786 4.57771 23.353 4.57771 22.8189C4.57771 22.2848 4.14474 21.8518 3.61063 21.8518C3.07653 21.8518 2.64355 22.2848 2.64355 22.8189C2.64355 23.353 3.07653 23.786 3.61063 23.786Z" fill="#9297AB"/>
<path d="M3.61042 23.2774C3.86368 23.2774 4.06898 23.0721 4.06898 22.8189C4.06898 22.5656 3.86368 22.3603 3.61042 22.3603C3.35716 22.3603 3.15186 22.5656 3.15186 22.8189C3.15186 23.0721 3.35716 23.2774 3.61042 23.2774Z" fill="#2F3A5A"/>
<path d="M13.9296 19.1101C13.8584 19.138 13.7841 19.1575 13.7083 19.1679C13.8824 19.0449 14.01 18.8667 14.0705 18.6622C14.131 18.4577 14.1208 18.2388 14.0416 18.0408C13.9624 17.8428 13.8189 17.6773 13.634 17.5709C13.4492 17.4645 13.2339 17.4235 13.0229 17.4544C13.0852 17.4098 13.1525 17.3726 13.2235 17.3438C13.457 17.2536 13.7166 17.2591 13.9461 17.3591C14.1756 17.4591 14.3564 17.6455 14.4493 17.8779C14.5423 18.1103 14.5399 18.37 14.4427 18.6006C14.3455 18.8313 14.1613 19.0143 13.93 19.1101H13.9296Z" fill="#B0B3C1"/>
<path d="M14.9282 23.0031C14.8569 23.0311 14.7826 23.0505 14.7068 23.061C14.8814 22.9381 15.0094 22.7599 15.0701 22.5552C15.1308 22.3505 15.1208 22.1313 15.0415 21.9331C14.9623 21.7348 14.8185 21.5691 14.6334 21.4627C14.4483 21.3563 14.2327 21.3155 14.0215 21.3468C14.0837 21.3021 14.151 21.2649 14.222 21.2361C14.4555 21.1459 14.7152 21.1514 14.9446 21.2514C15.1741 21.3514 15.3549 21.5378 15.4479 21.7702C15.5408 22.0026 15.5385 22.2623 15.4412 22.493C15.344 22.7236 15.1598 22.9067 14.9285 23.0024L14.9282 23.0031Z" fill="#B0B3C1"/>
<path d="M17.0408 31.1132C16.966 31.095 16.8936 31.068 16.8252 31.0327C17.0384 31.033 17.2456 30.9613 17.4131 30.8294C17.5807 30.6975 17.6989 30.513 17.7487 30.3057C17.7986 30.0983 17.7771 29.8802 17.6878 29.6866C17.5985 29.493 17.4465 29.3351 17.2564 29.2384C17.333 29.2379 17.4094 29.2464 17.4839 29.2639C17.7252 29.3265 17.9322 29.4813 18.0605 29.695C18.1888 29.9087 18.2281 30.1642 18.1699 30.4066C18.1118 30.6489 17.9608 30.8588 17.7495 30.991C17.5382 31.1232 17.2835 31.1672 17.0401 31.1136L17.0408 31.1132Z" fill="#B0B3C1"/>
<path d="M18.9461 28.5124C18.8713 28.4942 18.7989 28.4672 18.7305 28.4319C18.9437 28.4321 19.1508 28.3605 19.3184 28.2286C19.4859 28.0967 19.6042 27.9122 19.654 27.7049C19.7038 27.4975 19.6824 27.2794 19.593 27.0858C19.5037 26.8921 19.3518 26.7342 19.1617 26.6375C19.2383 26.637 19.3146 26.6456 19.3892 26.663C19.6304 26.7257 19.8375 26.8805 19.9658 27.0942C20.094 27.3079 20.1333 27.5634 20.0752 27.8057C20.017 28.0481 19.8661 28.258 19.6548 28.3902C19.4435 28.5224 19.1888 28.5664 18.9454 28.5128L18.9461 28.5124Z" fill="#B0B3C1"/>
<path d="M26.0999 26.1467C26.0251 26.1285 25.9527 26.1015 25.8843 26.0662C26.0975 26.0664 26.3046 25.9948 26.4722 25.8629C26.6397 25.731 26.758 25.5465 26.8078 25.3391C26.8576 25.1318 26.8362 24.9137 26.7469 24.7201C26.6575 24.5264 26.5056 24.3685 26.3155 24.2718C26.3921 24.2713 26.4685 24.2799 26.543 24.2973C26.7843 24.36 26.9913 24.5148 27.1196 24.7285C27.2478 24.9422 27.2871 25.1977 27.229 25.44C27.1708 25.6824 27.0199 25.8922 26.8086 26.0245C26.5973 26.1567 26.3426 26.2007 26.0992 26.147L26.0999 26.1467Z" fill="#B0B3C1"/>
<path d="M23.9437 29.2218C23.8688 29.2036 23.7965 29.1766 23.728 29.1413C23.9413 29.1415 24.1484 29.0699 24.3159 28.938C24.4835 28.8061 24.6017 28.6216 24.6516 28.4143C24.7014 28.2069 24.6799 27.9888 24.5906 27.7952C24.5013 27.6015 24.3493 27.4436 24.1593 27.3469C24.2358 27.3464 24.3122 27.355 24.3868 27.3725C24.628 27.4351 24.835 27.5899 24.9633 27.8036C25.0916 28.0173 25.1309 28.2728 25.0727 28.5152C25.0146 28.7575 24.8636 28.9674 24.6523 29.0996C24.4411 29.2318 24.1863 29.2758 23.9429 29.2222L23.9437 29.2218Z" fill="#B0B3C1"/>
<path d="M29.8733 24.9672C29.7985 24.949 29.7261 24.922 29.6577 24.8867C29.871 24.8869 30.0781 24.8153 30.2456 24.6834C30.4132 24.5515 30.5314 24.367 30.5812 24.1596C30.6311 23.9523 30.6096 23.7342 30.5203 23.5406C30.431 23.3469 30.279 23.189 30.089 23.0923C30.1655 23.0918 30.2419 23.1004 30.3164 23.1178C30.5577 23.1805 30.7647 23.3353 30.893 23.549C31.0213 23.7627 31.0606 24.0182 31.0024 24.2605C30.9443 24.5029 30.7933 24.7127 30.582 24.845C30.3708 24.9772 30.116 25.0212 29.8726 24.9675L29.8733 24.9672Z" fill="#B0B3C1"/>
<path d="M27.6697 21.7278C27.5949 21.7096 27.5225 21.6826 27.4541 21.6473C27.6673 21.6475 27.8745 21.5759 28.042 21.444C28.2096 21.3121 28.3278 21.1276 28.3776 20.9202C28.4275 20.7129 28.406 20.4948 28.3167 20.3012C28.2274 20.1075 28.0754 19.9496 27.8854 19.8529C27.9619 19.8524 28.0383 19.861 28.1128 19.8784C28.3541 19.9411 28.5611 20.0959 28.6894 20.3096C28.8177 20.5233 28.857 20.7788 28.7988 21.0211C28.7407 21.2635 28.5897 21.4734 28.3784 21.6056C28.1671 21.7378 27.9124 21.7818 27.669 21.7281L27.6697 21.7278Z" fill="#B0B3C1"/>
<path d="M10.519 17.1156C10.4478 17.1435 10.3734 17.1629 10.2976 17.1734C10.4718 17.0504 10.5994 16.8722 10.6599 16.6677C10.7204 16.4632 10.7102 16.2443 10.631 16.0463C10.5518 15.8483 10.4082 15.6828 10.2234 15.5764C10.0386 15.47 9.8233 15.429 9.6123 15.4599C9.67454 15.4153 9.74186 15.3781 9.81284 15.3493C10.0463 15.2591 10.306 15.2646 10.5355 15.3646C10.7649 15.4646 10.9457 15.651 11.0387 15.8834C11.1317 16.1158 11.1293 16.3755 11.0321 16.6061C10.9349 16.8368 10.7506 17.0198 10.5194 17.1156H10.519Z" fill="#B0B3C1"/>
<path d="M16.4648 16.7386C16.3936 16.7665 16.3192 16.7859 16.2434 16.7964C16.4176 16.6733 16.5452 16.4952 16.6057 16.2907C16.6662 16.0862 16.656 15.8673 16.5768 15.6693C16.4976 15.4713 16.354 15.3057 16.1692 15.1994C15.9844 15.093 15.7691 15.052 15.5581 15.0829C15.6203 15.0382 15.6877 15.0011 15.7586 14.9722C15.9921 14.8821 16.2518 14.8876 16.4812 14.9876C16.7107 15.0876 16.8915 15.274 16.9845 15.5064C17.0775 15.7388 17.0751 15.9984 16.9779 16.2291C16.8806 16.4598 16.6964 16.6428 16.4652 16.7386H16.4648Z" fill="#B0B3C1"/>
<path d="M18.1618 22.6305C18.0857 22.622 18.0109 22.6045 17.939 22.5784C18.1505 22.5509 18.3466 22.453 18.4956 22.3004C18.6446 22.1478 18.7378 21.9494 18.7602 21.7373C18.7827 21.5252 18.733 21.3117 18.6192 21.1313C18.5054 20.9509 18.3341 20.8142 18.133 20.7431C18.2089 20.7326 18.2857 20.7311 18.3619 20.7387C18.6097 20.769 18.8356 20.8955 18.9909 21.0908C19.1463 21.2861 19.2187 21.5347 19.1925 21.7829C19.1662 22.0311 19.0435 22.259 18.8508 22.4176C18.6581 22.5761 18.4107 22.6526 18.1621 22.6305H18.1618Z" fill="#B0B3C1"/>
<path d="M21.1105 24.9844C21.0346 24.995 20.9578 24.9965 20.8815 24.9891C21.0795 24.91 21.2451 24.7666 21.3516 24.5819C21.4581 24.3972 21.4993 24.182 21.4685 23.971C21.4377 23.7601 21.3368 23.5656 21.182 23.4191C21.0272 23.2725 20.8276 23.1823 20.6152 23.1631C20.6861 23.1342 20.7602 23.1138 20.8359 23.1023C21.0836 23.0699 21.3342 23.1363 21.5334 23.2871C21.7326 23.4379 21.8645 23.661 21.9006 23.9083C21.9367 24.1555 21.874 24.407 21.7261 24.6084C21.5783 24.8099 21.3571 24.945 21.1105 24.9847V24.9844Z" fill="#B0B3C1"/>
<path d="M14.7775 28.2975C14.7009 28.298 14.6245 28.2894 14.55 28.272C14.7568 28.2199 14.94 28.0996 15.0701 27.9306C15.2001 27.7615 15.2695 27.5536 15.2668 27.3403C15.2642 27.1271 15.1898 26.9209 15.0557 26.7551C14.9215 26.5894 14.7354 26.4736 14.5273 26.4266C14.6014 26.4073 14.6776 26.3968 14.7541 26.3953C15.0039 26.396 15.2434 26.495 15.4209 26.6708C15.5984 26.8466 15.6996 27.0851 15.7027 27.3349C15.7057 27.5847 15.6104 27.8257 15.4373 28.0058C15.2642 28.1859 15.0272 28.2907 14.7775 28.2975Z" fill="#B0B3C1"/>
<path d="M19.58 18.3974C19.5088 18.4254 19.4345 18.4448 19.3587 18.4553C19.5328 18.3322 19.6604 18.1541 19.7209 17.9496C19.7814 17.7451 19.7712 17.5262 19.692 17.3282C19.6128 17.1302 19.4692 16.9646 19.2844 16.8582C19.0996 16.7518 18.8843 16.7108 18.6733 16.7418C18.7356 16.6971 18.8029 16.66 18.8739 16.6311C19.1074 16.541 19.367 16.5465 19.5965 16.6464C19.826 16.7464 20.0068 16.9328 20.0997 17.1652C20.1927 17.3976 20.1903 17.6573 20.0931 17.888C19.9959 18.1186 19.8117 18.3017 19.5804 18.3974H19.58Z" fill="#B0B3C1"/>
<path d="M23.2589 19.049C23.1824 19.0497 23.106 19.0414 23.0314 19.0242C23.2381 18.9715 23.421 18.8507 23.5506 18.6812C23.6802 18.5118 23.749 18.3037 23.7457 18.0904C23.7425 17.8771 23.6675 17.6712 23.5328 17.5058C23.3981 17.3404 23.2116 17.2252 23.0034 17.1788C23.0775 17.1592 23.1536 17.1485 23.2302 17.1468C23.4787 17.1487 23.7166 17.2479 23.8929 17.4229C24.0693 17.598 24.1701 17.8352 24.1739 18.0836C24.1776 18.3321 24.084 18.5722 23.913 18.7525C23.742 18.9329 23.5073 19.0391 23.2589 19.0486V19.049Z" fill="#B0B3C1"/>
<path d="M24.1859 23.0625C24.1096 23.0688 24.0327 23.066 23.957 23.0542C24.1592 22.9865 24.3327 22.8528 24.4495 22.6744C24.5663 22.4961 24.6197 22.2836 24.601 22.0712C24.5822 21.8588 24.4925 21.6589 24.3463 21.5038C24.2001 21.3486 24.0058 21.2473 23.7949 21.216C23.8674 21.1912 23.9425 21.175 24.0188 21.1679C24.2681 21.1495 24.5146 21.2299 24.705 21.3918C24.8954 21.5537 25.0145 21.784 25.0365 22.033C25.0584 22.282 24.9815 22.5296 24.8223 22.7223C24.6632 22.915 24.4346 23.0373 24.1859 23.0628V23.0625Z" fill="#B0B3C1"/>
<path d="M17.6072 33.203C15.0397 33.1605 12.5098 32.5803 10.1803 31.5C9.29589 31.1068 8.38344 30.6515 7.47207 30.1469C6.04283 29.628 1.50428 27.9098 1.09675 26.8913C0.9759 26.6332 0.807817 26.3999 0.601175 26.2035C0.185019 25.7536 -0.3332 25.1944 0.277738 24.1701C1.62045 20.9794 3.77202 18.194 6.52008 16.0889C9.33512 13.9655 12.7731 12.8323 16.299 12.8656H16.3109C20.4365 12.8656 28.7305 17.5666 33.3032 20.7295C33.342 20.7563 33.3752 20.7906 33.4008 20.8302C33.4264 20.8699 33.4439 20.9142 33.4523 20.9607C33.4608 21.0071 33.46 21.0547 33.4501 21.1009C33.4401 21.147 33.4212 21.1907 33.3943 21.2296C33.3675 21.2684 33.3332 21.3015 33.2936 21.3271C33.2539 21.3527 33.2096 21.3702 33.1632 21.3787C33.1167 21.3871 33.0691 21.3864 33.0229 21.3764C32.9768 21.3665 32.9331 21.3475 32.8943 21.3207C28.3967 18.2099 20.273 13.5844 16.3116 13.5844H16.3005C12.9295 13.5519 9.64233 14.6347 6.95061 16.6642C4.31425 18.7048 2.24468 21.3868 0.939347 24.4544C0.931356 24.4758 0.92137 24.4964 0.909519 24.5159C0.555175 25.0952 0.734863 25.2896 1.12874 25.7155C1.39677 25.9753 1.61257 26.284 1.76447 26.625C1.97614 27.1282 5.03478 28.4981 7.74375 29.481C7.76161 29.4874 7.77892 29.4952 7.7955 29.5044C8.69825 30.0042 9.59885 30.4549 10.4728 30.8434C13.7744 32.3136 17.0494 32.8092 19.9377 32.2773C21.7867 31.937 26.5502 29.807 30.4527 27.8469C30.4948 27.8257 30.5408 27.813 30.5879 27.8095C30.6349 27.806 30.6822 27.8118 30.7271 27.8266C30.7719 27.8414 30.8134 27.8649 30.8492 27.8957C30.8849 27.9266 30.9142 27.9641 30.9355 28.0063C30.9567 28.0485 30.9694 28.0944 30.9729 28.1415C30.9764 28.1886 30.9706 28.2359 30.9558 28.2807C30.941 28.3256 30.9175 28.367 30.8867 28.4028C30.8558 28.4385 30.8183 28.4679 30.7761 28.4891C26.8276 30.4722 21.9861 32.6313 20.0674 32.9838C19.2557 33.1315 18.4322 33.2048 17.6072 33.203Z" fill="#2F3A5A"/>
</g>
<defs>
<clipPath id="clip0">
<rect width="46" height="46" fill="white"/>
</clipPath>
</defs>
</svg>
