<svg viewBox="0 0 46 46" fill="none" xmlns="http://www.w3.org/2000/svg">
<g clip-path="url(#clip0)">
<path d="M3.5496 39.6596C3.20742 40.0015 3.20742 40.556 3.5496 40.8981L7.70172 45.0503C8.10672 45.4553 8.78581 45.3686 9.07605 44.8744L16.9697 31.2743L17.0939 26.115L3.5496 39.6596Z" fill="#B57F5F"/>
<path d="M17.0809 26.6594L16.4218 27.7948L6.88184 44.2305L7.70166 45.0504C8.10666 45.4554 8.78575 45.3687 9.07564 44.8742L16.9696 31.2744L17.0809 26.6594Z" fill="#9F6E50"/>
<path d="M42.5542 3.13127L40.697 1.27368L25.6411 16.3295L28.1178 18.8058L42.5542 4.36943C42.8964 4.0276 42.8964 3.4731 42.5542 3.13127Z" fill="#5D5360"/>
<path d="M28 16.4602L29.2318 17.6917L42.5547 4.36923C42.8965 4.0274 42.8965 3.4729 42.5547 3.13107L41.9419 2.51831L28 16.4602Z" fill="#4B3F4E"/>
<path d="M19.7218 37.7272V31.1289C19.7218 30.2003 20.091 29.3092 20.7476 28.6526L29.553 19.8472C30.237 19.1636 30.237 18.0546 29.553 17.3709L27.5856 15.4035C27.3045 15.1223 26.8486 15.1223 26.5671 15.4035L18.5717 23.3989C16.9296 25.041 16.0073 27.2681 16.0073 29.5904V37.7268C16.0073 38.7527 16.8387 39.5844 17.8646 39.5844C18.8904 39.5844 19.7218 38.753 19.7218 37.7272Z" fill="#C38C66"/>
<path d="M20.6192 26.0469C18.9771 27.689 18.1436 30.0049 18.1436 32.3272V39.5568C19.036 39.4213 19.7218 38.6576 19.7218 37.7276V31.1294C19.7218 30.2007 20.091 29.3097 20.7476 28.653L29.553 19.848C30.2367 19.164 30.2367 18.0553 29.553 17.3713L29.4239 17.2422L20.6192 26.0469Z" fill="#B57F5F"/>
<path d="M4.91902 38.29L3.5496 39.6595C3.20742 40.0013 3.20742 40.5558 3.5496 40.898L7.70172 45.0501C8.10672 45.4551 8.78581 45.3684 9.07605 44.8743L9.96746 43.3385L4.91902 38.29Z" fill="#5D5360"/>
<path d="M9.07564 44.8742L9.96706 43.3384L8.3425 41.7139L6.88184 44.2302L7.70166 45.05C8.10666 45.455 8.78575 45.3683 9.07564 44.8742Z" fill="#4B3F4E"/>
<path d="M43.0165 2.67479L40.5401 0.198124C40.2769 -0.0647392 39.8502 -0.0647392 39.5873 0.198124C39.3241 0.461338 39.3241 0.888096 39.5873 1.15096L39.7298 1.2938L18.0806 22.943C17.7044 23.3192 17.364 23.7221 17.0607 24.1467H15.9173C15.5453 24.1467 15.2435 24.4486 15.2435 24.8206C15.2435 25.1929 15.5453 25.4944 15.9173 25.4944H16.2599C16.1205 25.7818 15.9956 26.0756 15.8865 26.3756L3.05846 39.2033C2.45447 39.8076 2.45447 40.7907 3.05846 41.3946L7.21058 45.5468C7.50467 45.8409 7.89423 46.0009 8.30274 46.0009C8.36907 46.0009 8.43575 45.9967 8.50313 45.9883C8.98253 45.9268 9.39771 45.6524 9.64232 45.2358L15.319 35.5664V37.7475C15.319 39.1433 16.4543 40.2786 17.85 40.2786C19.2458 40.2786 20.3815 39.1433 20.3815 37.7475V31.4757L20.6138 31.7084C21.0132 32.1077 21.5442 32.3274 22.1088 32.3274C22.6735 32.3274 23.2045 32.1077 23.6039 31.7084L25.2815 30.0305C25.6808 29.6311 25.9009 29.1001 25.9009 28.5354C25.9009 27.9707 25.6808 27.4397 25.2818 27.0403L24.8421 26.601C24.6508 26.4097 24.4311 26.2647 24.197 26.1623L30.0151 20.3442C30.4731 19.8862 30.7251 19.2773 30.7251 18.6294C30.7251 18.2128 30.6205 17.8128 30.4243 17.4583L31.2536 16.629C31.5168 16.3658 31.5168 15.9394 31.2536 15.6762C30.9904 15.413 30.5636 15.413 30.3008 15.6762L29.5385 16.4381L28.015 14.9146L40.683 2.24663L42.064 3.62763C42.1426 3.70624 42.1426 3.83434 42.064 3.91295L32.2124 13.7642C31.9492 14.0274 31.9492 14.4542 32.2124 14.717C32.344 14.8486 32.5163 14.9146 32.689 14.9146C32.8613 14.9146 33.0336 14.8486 33.1652 14.717L43.0165 4.86579C43.3092 4.57309 43.4702 4.18424 43.4702 3.77047C43.4702 3.35634 43.3092 2.96749 43.0165 2.67479ZM8.48032 44.5532C8.43645 44.6276 8.36872 44.6466 8.33187 44.6511C8.29537 44.656 8.22448 44.6546 8.16341 44.5936L4.0113 40.4415C3.93268 40.3628 3.93268 40.2347 4.0113 40.1561L4.90447 39.2633L9.11414 43.4733L8.48032 44.5532ZM9.8192 42.2724L5.8573 38.3105L15.3523 28.8155C15.3306 29.0783 15.3186 29.3436 15.3186 29.6107V32.9041L9.8192 42.2724ZM19.0338 37.7472C19.0338 38.4 18.5028 38.931 17.85 38.931C17.1973 38.931 16.6663 38.4 16.6663 37.7472V29.6107C16.6663 27.452 17.5072 25.4225 19.0338 23.8958L20.8707 22.0589L23.6323 24.8206C23.6323 24.8206 20.0572 28.4059 20.0049 28.4726C19.3763 29.2226 19.0338 30.1593 19.0338 31.1493V37.7472ZM23.347 27.3299C23.5435 27.3299 23.7397 27.4046 23.8892 27.5538L24.3286 27.9935C24.4736 28.1381 24.5532 28.3308 24.5532 28.5354C24.5532 28.7404 24.4736 28.9327 24.3286 29.0776L22.6507 30.7552C22.5061 30.9001 22.3134 30.9798 22.1088 30.9798C21.9039 30.9798 21.7116 30.9001 21.5666 30.7552L21.1272 30.3158C20.87 30.0585 20.8349 29.6634 21.0202 29.3675L21.7456 29.736C21.8432 29.7855 21.9474 29.8094 22.0502 29.8094C22.2959 29.8094 22.5324 29.6746 22.6514 29.4405C22.8199 29.1089 22.6879 28.7032 22.3559 28.5344L22.0036 28.3554L22.8051 27.5538C22.9546 27.4046 23.1508 27.3299 23.347 27.3299ZM29.0619 19.3913L24.5852 23.8677L23.6976 22.9802L26.0809 20.5965C26.3441 20.3333 26.3441 19.9065 26.0809 19.6437C25.8181 19.3805 25.3913 19.3805 25.1281 19.6437L22.7448 22.027L21.8235 21.1061L27.0618 15.8678L29.0619 17.8679C29.482 18.2876 29.482 18.9713 29.0619 19.3913Z" fill="black"/>
</g>
<defs>
<clipPath id="clip0">
<rect fill="white"/>
</clipPath>
</defs>
</svg>
