<svg width="44" height="46" viewBox="0 0 44 46" fill="none" xmlns="http://www.w3.org/2000/svg">
<path d="M43.0706 0.217597C42.7812 -0.0718814 42.3119 -0.0718814 42.0224 0.217597L38.2835 3.95647L37.6196 3.29252C37.3301 3.00304 36.8607 3.00313 36.5713 3.29252C36.2819 3.582 36.2819 4.05135 36.5713 4.34083L37.2353 5.00478L32.4256 9.81424L30.252 9.37957C30.0088 9.33087 29.7577 9.40697 29.5824 9.58226L18.5365 20.6283L17.7487 20.2978L18.5364 19.5101C18.5746 19.516 18.6129 19.5198 18.6514 19.5198C18.8411 19.5198 19.0308 19.4474 19.1756 19.3026C19.465 19.0131 19.465 18.5439 19.1756 18.2544L17.2063 16.2851C16.9168 15.9956 16.4474 15.9956 16.1581 16.2851C15.9839 16.4592 15.9153 16.6983 15.9507 16.9243L8.27986 24.5951C8.05391 24.5597 7.81474 24.6283 7.64071 24.8024C7.35123 25.0919 7.35123 25.5612 7.64071 25.8507L9.61001 27.82C9.75466 27.9648 9.9445 28.0371 10.1342 28.0371C10.3238 28.0371 10.5136 27.9648 10.6583 27.82C10.8324 27.6458 10.9011 27.4068 10.8657 27.1808L13.1124 24.9341L13.4429 25.7219L10.9747 28.1901C10.3661 28.7986 10.0996 29.6557 10.2214 30.4809L0.92906 39.7732C0.765274 39.937 0.687378 40.168 0.718734 40.3974C0.75 40.6269 0.886743 40.8287 1.08844 40.9426C3.09431 42.0764 4.84547 43.6786 6.15244 45.5759L6.22395 45.6798C6.36231 45.8806 6.59052 46.0005 6.83436 46.0005C6.83454 46.0005 6.83472 46.0005 6.83499 46.0005C7.079 46.0003 7.3073 45.88 7.44548 45.6788L13.2462 37.2299L13.7803 38.3744C13.8698 38.5662 14.0369 38.7104 14.2396 38.7712C14.3093 38.792 14.3808 38.8023 14.452 38.8023C14.5881 38.8023 14.7231 38.7649 14.8413 38.6919L17.3356 37.1528C18.1008 36.6808 18.4017 35.7056 18.0356 34.8845L17.1128 32.8144L19.1693 30.7579C19.3678 30.5593 19.4371 30.2657 19.3483 29.9993L18.6196 27.8132L19.2042 27.2286L20.7068 28.7312C20.9963 29.0206 21.4656 29.0206 21.755 28.7312L24.76 25.726C25.0495 25.4365 25.0495 24.9672 24.76 24.6777L23.2575 23.1752L30.2484 15.2031C30.502 14.9091 30.4857 14.4693 30.2113 14.1948L30.1763 14.1598L43.0706 1.26581C43.3601 0.976333 43.3601 0.507076 43.0706 0.217597ZM15.0546 20.8956L14.5654 20.4064L16.8982 18.0735L17.3874 18.5627L15.0546 20.8956ZM13.517 21.4547L14.0062 21.9439L9.91809 26.032L9.42888 25.5428L13.517 21.4547ZM14.2448 23.8018L16.6161 21.4305L17.4039 21.7609L14.5753 24.5896L14.2448 23.8018ZM6.81702 43.9751C5.65587 42.4799 4.23677 41.1795 2.64599 40.153L10.8034 31.9956L12.5185 35.6708L6.81702 43.9751ZM16.5572 35.8911L14.7716 36.993L13.0751 33.3579L14.9128 31.5203L16.6817 35.4883C16.7467 35.6341 16.6933 35.8073 16.5572 35.8911ZM17.7971 30.0336L16.4664 31.3643L16.0355 30.3975L17.4478 28.9852L17.7971 30.0336ZM12.4081 31.9284L11.7843 30.5917C11.5722 30.1372 11.668 29.5935 12.0227 29.2388L20.9515 20.3099L22.4891 21.8475L12.4081 31.9284ZM21.231 27.1588L20.2525 26.1804L22.2093 24.2236L23.1878 25.2021L21.231 27.1588ZM23.4973 20.7591L21.9998 19.2616L27.5909 13.6706L28.604 14.6838C28.6041 14.6839 28.6041 14.684 28.6042 14.684C28.6043 14.6841 28.6044 14.6841 28.6044 14.6842L28.6764 14.7561L23.4973 20.7591ZM28.639 12.6224L30.3502 10.9111L31.1657 11.0742L29.1283 13.1116L28.639 12.6224Z" fill="black"/>
</svg>
