<svg viewBox="0 0 44 44" fill="none" xmlns="http://www.w3.org/2000/svg">
<g id="Iconly/Bold/Play">
<g id="Play">
<path id="Play_2" fill-rule="evenodd" clip-rule="evenodd" d="M3.66666 22.0108C3.66666 11.8916 11.8954 3.66681 22 3.66681C32.1046 3.66681 40.3333 11.8916 40.3333 22.0108C40.3333 32.1087 32.1046 40.3335 22 40.3335C11.8954 40.3335 3.66666 32.1087 3.66666 22.0108ZM28.7246 23.8662C28.9192 23.6716 29.167 23.3709 29.22 23.3002C29.5032 22.9287 29.6448 22.4689 29.6448 22.0108C29.6448 21.496 29.4855 21.0185 29.1847 20.6293C29.16 20.6047 29.1117 20.5522 29.0488 20.4837C28.9311 20.3556 28.7621 20.1716 28.6007 20.0103C27.1496 18.4537 23.3626 15.9067 21.3806 15.1285C21.0798 15.0064 20.3188 14.7393 19.9118 14.7216C19.5225 14.7216 19.1509 14.8101 18.7969 14.987C18.3545 15.2346 18.0006 15.6237 17.806 16.0836C17.6821 16.402 17.4874 17.3571 17.4874 17.3748C17.2928 18.4184 17.1866 20.1164 17.1866 21.9913C17.1866 23.7795 17.2928 25.405 17.452 26.4663C17.4564 26.4707 17.4716 26.5466 17.4953 26.6645C17.5672 27.023 17.7169 27.7698 17.8767 28.0759C18.2661 28.8188 19.027 29.2786 19.841 29.2786H19.9118C20.4427 29.261 21.5576 28.8011 21.5576 28.7834C23.4334 28.0051 27.1319 25.5819 28.6184 23.9723L28.7246 23.8662Z" fill="#F2F2F2"/>
</g>
</g>
</svg>
