<svg viewBox="0 0 20 20" fill="none" xmlns="http://www.w3.org/2000/svg">
<path d="M9.9827 0C4.72034 0 0.409399 4.04728 0 9.19027L5.36904 11.4045C5.82384 11.0939 6.37379 10.9129 6.96483 10.9129C7.01816 10.9129 7.07078 10.9143 7.12268 10.9172L9.5106 7.46478V7.41633C9.5106 5.3389 11.2051 3.64832 13.2882 3.64832C15.3712 3.64832 17.0657 5.3389 17.0657 7.41633C17.0657 9.49376 15.3712 11.1851 13.2882 11.1851C13.2593 11.1851 13.2312 11.1843 13.2024 11.1836L9.79674 13.6066C9.7989 13.6515 9.80035 13.6963 9.80035 13.7405C9.80035 15.3007 8.52818 16.5696 6.96483 16.5696C5.59248 16.5696 4.44428 15.5921 4.18481 14.2983L0.344529 12.7146C1.5338 16.9087 5.39715 19.9835 9.9827 19.9835C15.5154 19.9835 20 15.5095 20 9.99174C20 4.47331 15.5154 0 9.9827 0ZM6.2775 15.1608L5.04714 14.6536C5.26481 15.1067 5.6425 15.4857 6.14343 15.6937C7.22603 16.144 8.47441 15.6317 8.92562 14.551C9.14401 14.0281 9.14545 13.451 8.92922 12.9266C8.71299 12.4023 8.30431 11.9934 7.78031 11.7754C7.25919 11.5595 6.70131 11.5673 6.21119 11.7519L7.48263 12.2762C8.28125 12.6082 8.65893 13.5229 8.32593 14.3194C7.99366 15.1159 7.07611 15.4928 6.2775 15.1608ZM15.8054 7.4164C15.8054 6.03216 14.6759 4.90511 13.2885 4.90511C11.9002 4.90511 10.7708 6.03216 10.7708 7.4164C10.7708 8.80064 11.9002 9.92698 13.2885 9.92698C14.6759 9.92698 15.8054 8.80064 15.8054 7.4164ZM11.4015 7.41213C11.4015 6.37057 12.2484 5.52634 13.2921 5.52634C14.3365 5.52634 15.1834 6.37057 15.1834 7.41213C15.1834 8.45369 14.3365 9.29791 13.2921 9.29791C12.2484 9.29791 11.4015 8.45369 11.4015 7.41213Z" fill="#F2F2F2"/>
</svg>
