<svg width="46" height="46" viewBox="0 0 46 46" fill="none" xmlns="http://www.w3.org/2000/svg">
<g clip-path="url(#clip0)">
<path d="M42.8495 36.945H3.1001L4.8118 22.4978H41.1378L42.8495 36.945Z" fill="#EBF0F3"/>
<path d="M42.8491 37.3032H3.10009C3.04932 37.3032 2.99912 37.2924 2.95281 37.2716C2.9065 37.2508 2.86512 37.2204 2.8314 37.1825C2.79769 37.1445 2.7724 37.0998 2.7572 37.0514C2.742 37.003 2.73724 36.9518 2.74323 36.9014L4.45494 22.4545C4.46532 22.3672 4.50738 22.2867 4.57315 22.2283C4.63892 22.1698 4.72383 22.1376 4.8118 22.1376H41.1381C41.2261 22.1376 41.311 22.1698 41.3768 22.2283C41.4426 22.2867 41.4846 22.3672 41.495 22.4545L43.2063 36.9014C43.2123 36.9518 43.2076 37.003 43.1924 37.0514C43.1772 37.0998 43.1519 37.1445 43.1182 37.1825C43.0844 37.2204 43.0431 37.2508 42.9968 37.2716C42.9504 37.2924 42.9002 37.3032 42.8495 37.3032H42.8491ZM3.50439 36.5845H42.4448L40.8186 22.8563H5.13272L3.50439 36.5845Z" fill="#2F3A5A"/>
<path d="M37.8355 22.9049H8.16406V13.4408C8.16539 12.2784 8.62775 11.164 9.44969 10.342C10.2716 9.52008 11.386 9.05773 12.5484 9.0564H33.4508C34.6132 9.05773 35.7276 9.52008 36.5495 10.342C37.3714 11.164 37.8338 12.2784 37.8351 13.4408L37.8355 22.9049ZM11.8527 19.2174H34.1479V13.4408C34.1478 13.256 34.0742 13.0788 33.9435 12.9481C33.8128 12.8175 33.6356 12.744 33.4508 12.7439H12.5488C12.364 12.744 12.1868 12.8175 12.056 12.9481C11.9253 13.0788 11.8518 13.256 11.8516 13.4408L11.8527 19.2174Z" fill="#81DAFC"/>
<path d="M38.1946 23.2643H7.80518V13.4408C7.8066 12.1831 8.30685 10.9773 9.19616 10.088C10.0855 9.19869 11.2912 8.69845 12.5489 8.69702H33.4509C34.7086 8.69845 35.9143 9.19869 36.8036 10.088C37.693 10.9773 38.1932 12.1831 38.1946 13.4408V23.2643ZM8.52393 22.5455H37.4762V13.4408C37.4751 12.3736 37.0507 11.3505 36.2961 10.5959C35.5415 9.84134 34.5184 9.41691 33.4512 9.41577H12.5489C11.4818 9.41691 10.4587 9.84134 9.70408 10.5959C8.94949 11.3505 8.52507 12.3736 8.52393 13.4408V22.5455ZM34.5067 19.5767H11.4924V13.4408C11.4927 13.1607 11.6042 12.8922 11.8023 12.6942C12.0003 12.4962 12.2689 12.3848 12.5489 12.3846H33.4509C33.731 12.3848 33.9995 12.4962 34.1975 12.6942C34.3956 12.8922 34.5071 13.1607 34.5075 13.4408L34.5067 19.5767ZM12.21 18.858H33.7887V13.4408C33.7885 13.3513 33.7528 13.2655 33.6895 13.2022C33.6262 13.139 33.5404 13.1034 33.4509 13.1033H12.5489C12.4594 13.1034 12.3736 13.139 12.3103 13.2022C12.247 13.2655 12.2113 13.3513 12.2111 13.4408L12.21 18.858Z" fill="#2F3A5A"/>
<path d="M43.8136 18.2445H2.18644C1.17738 18.2445 0.359375 19.0625 0.359375 20.0716V26.1393C0.359375 27.1483 1.17738 27.9663 2.18644 27.9663H43.8136C44.8226 27.9663 45.6406 27.1483 45.6406 26.1393V20.0716C45.6406 19.0625 44.8226 18.2445 43.8136 18.2445Z" fill="#81DAFC"/>
<path d="M45.6406 20.0716V26.1407C45.6407 26.3807 45.5935 26.6184 45.5017 26.8401C45.4099 27.0619 45.2753 27.2634 45.1056 27.4331C44.9359 27.6028 44.7344 27.7374 44.5126 27.8292C44.2909 27.921 44.0532 27.9682 43.8132 27.9681H2.1868C1.70228 27.9676 1.23774 27.775 0.89514 27.4324C0.552535 27.0897 0.359851 26.6252 0.359375 26.1407V24.0782H41.2688C41.5089 24.0786 41.7467 24.0316 41.9686 23.9399C42.1905 23.8482 42.3921 23.7136 42.5619 23.5438C42.7316 23.3741 42.8662 23.1725 42.9579 22.9506C43.0496 22.7287 43.0966 22.4909 43.0962 22.2508V18.2445H43.8125C44.0525 18.2443 44.2902 18.2914 44.5121 18.3832C44.7339 18.4749 44.9354 18.6095 45.1052 18.7792C45.275 18.9488 45.4097 19.1503 45.5015 19.3721C45.5934 19.5938 45.6407 19.8315 45.6406 20.0716Z" fill="#3DBCE9"/>
<path d="M43.8136 28.3258H2.18644C1.6067 28.3252 1.0509 28.0946 0.641001 27.6846C0.231099 27.2746 0.000570694 26.7188 0 26.139L0 20.0721C0.000665802 19.4924 0.231236 18.9366 0.641128 18.5267C1.05102 18.1169 1.60676 17.8863 2.18644 17.8856H43.8136C44.3932 17.8863 44.949 18.1169 45.3589 18.5267C45.7688 18.9366 45.9993 19.4924 46 20.0721V26.139C45.9994 26.7188 45.7689 27.2746 45.359 27.6846C44.9491 28.0946 44.3933 28.3252 43.8136 28.3258ZM2.18644 18.604C1.79727 18.6045 1.42418 18.7593 1.14902 19.0345C0.873872 19.3098 0.71913 19.6829 0.71875 20.0721V26.139C0.719226 26.5281 0.874009 26.9012 1.14915 27.1763C1.42429 27.4515 1.79733 27.6062 2.18644 27.6067H43.8136C44.2027 27.6062 44.5757 27.4515 44.8508 27.1763C45.126 26.9012 45.2808 26.5281 45.2812 26.139V20.0721C45.2808 19.683 45.126 19.3099 44.8508 19.0348C44.5757 18.7596 44.2027 18.6048 43.8136 18.6044L2.18644 18.604Z" fill="#2F3A5A"/>
<path d="M7.54884 30.2178L6.93359 36.9453H8.16409L7.54884 30.2178Z" fill="#E1E6E9"/>
<path d="M8.55806 37.303H6.54053L7.19207 30.1831H7.90615L8.55806 37.303ZM7.3272 36.5843H7.77031L7.54893 34.1614L7.3272 36.5843Z" fill="#2F3A5A"/>
<path d="M11.8521 30.2178L11.2368 36.9453H12.4673L11.8521 30.2178Z" fill="#E1E6E9"/>
<path d="M12.861 37.303H10.8428L11.494 30.1831H12.2098L12.861 37.303ZM11.6302 36.5843H12.0751L11.8533 34.161L11.6302 36.5843Z" fill="#2F3A5A"/>
<path d="M16.1547 30.2178L15.5391 36.9453H16.7699L16.1547 30.2178Z" fill="#E1E6E9"/>
<path d="M17.1634 37.303H15.1455L15.7967 30.1831H16.5126L17.1634 37.303ZM15.9329 36.5843H16.3756L16.1543 34.1625L15.9329 36.5843Z" fill="#2F3A5A"/>
<path d="M20.457 30.2178L19.8418 36.9453H21.0723L20.457 30.2178Z" fill="#E1E6E9"/>
<path d="M21.4656 37.303H19.4478L20.0989 30.1831H20.8148L21.4656 37.303ZM20.2351 36.5843H20.6783L20.4569 34.1625L20.2351 36.5843Z" fill="#2F3A5A"/>
<path d="M24.7598 30.2178L24.1445 36.9453H25.375L24.7598 30.2178Z" fill="#E1E6E9"/>
<path d="M25.7674 37.303H23.751L24.4018 30.1848H25.1177L25.7674 37.303ZM24.5369 36.5842H24.9797L24.7612 34.1638L24.5369 36.5842Z" fill="#2F3A5A"/>
<path d="M29.0625 30.2178L28.4473 36.9453H29.6778L29.0625 30.2178Z" fill="#E1E6E9"/>
<path d="M30.0716 37.303H28.0537L28.7049 30.1831H29.4208L30.0716 37.303ZM28.8411 36.5843H29.2839L29.0625 34.1625L28.8411 36.5843Z" fill="#2F3A5A"/>
<path d="M33.3653 30.2178L32.75 36.9453H33.9805L33.3653 30.2178Z" fill="#E1E6E9"/>
<path d="M34.3738 37.303H32.356L33.0071 30.1831H33.723L34.3738 37.303ZM33.1433 36.5843H33.5861L33.3647 34.1625L33.1433 36.5843Z" fill="#2F3A5A"/>
<path d="M37.6675 30.2178L37.0522 36.9453H38.2827L37.6675 30.2178Z" fill="#E1E6E9"/>
<path d="M38.6766 37.303H36.6587L37.3099 30.1831H38.0258L38.6766 37.303ZM37.4461 36.5843H37.8888L37.6675 34.1625L37.4461 36.5843Z" fill="#2F3A5A"/>
</g>
<defs>
<clipPath id="clip0">
<rect width="46" height="46" fill="white"/>
</clipPath>
</defs>
</svg>
