<svg viewBox="0 0 46 46" fill="none" xmlns="http://www.w3.org/2000/svg">
<path d="M28.1304 7.47501C28.0478 7.1775 27.8701 6.91524 27.6243 6.72838C27.3785 6.54152 27.0782 6.44036 26.7695 6.44037H19.2305C18.9217 6.44036 18.6215 6.54152 18.3757 6.72838C18.1299 6.91524 17.9521 7.1775 17.8695 7.47501L16.96 10.7547H29.04L28.1304 7.47501Z" fill="#D9E2E9"/>
<path d="M29.0396 11.1137H16.9596C16.9042 11.1137 16.8495 11.1009 16.7999 11.0763C16.7503 11.0517 16.707 11.016 16.6735 10.9719C16.6399 10.9278 16.617 10.8766 16.6066 10.8222C16.5961 10.7678 16.5984 10.7117 16.6131 10.6584L17.5227 7.37906C17.627 7.00622 17.8503 6.67765 18.1585 6.44334C18.4667 6.20902 18.843 6.08179 19.2301 6.08099H26.7687C27.1559 6.08179 27.5322 6.20902 27.8404 6.44334C28.1486 6.67765 28.3718 7.00622 28.4761 7.37906L29.3857 10.6584C29.4005 10.7117 29.4027 10.7678 29.3923 10.8222C29.3818 10.8766 29.3589 10.9278 29.3254 10.9719C29.2918 11.016 29.2486 11.0517 29.1989 11.0763C29.1493 11.1009 29.0947 11.1137 29.0393 11.1137H29.0396ZM17.4318 10.3949H28.5667L27.7832 7.57096C27.7212 7.34945 27.5886 7.15425 27.4055 7.01504C27.2223 6.87583 26.9988 6.80023 26.7687 6.79974H19.2305C19.0004 6.80023 18.7769 6.87583 18.5937 7.01504C18.4106 7.15425 18.278 7.34945 18.216 7.57096L17.4318 10.3949Z" fill="#2F3A5A"/>
<path d="M44.935 17.043H42.3461C41.9565 17.043 41.6406 17.3589 41.6406 17.7485V19.1069C41.6406 19.4965 41.9565 19.8124 42.3461 19.8124H44.935C45.3246 19.8124 45.6405 19.4965 45.6405 19.1069V17.7485C45.6405 17.3589 45.3246 17.043 44.935 17.043Z" fill="#707583"/>
<path d="M44.935 20.1717H42.3475C42.0652 20.1713 41.7946 20.059 41.595 19.8594C41.3954 19.6598 41.2831 19.3892 41.2827 19.1069V17.7488C41.2831 17.4665 41.3954 17.1959 41.595 16.9963C41.7946 16.7966 42.0652 16.6843 42.3475 16.684H44.935C45.2173 16.6843 45.4879 16.7966 45.6875 16.9963C45.8872 17.1959 45.9995 17.4665 45.9998 17.7488V19.1069C45.9995 19.3892 45.8872 19.6598 45.6875 19.8594C45.4879 20.059 45.2173 20.1713 44.935 20.1717ZM42.3475 17.4024C42.2558 17.4024 42.1678 17.4389 42.1029 17.5038C42.038 17.5687 42.0016 17.6567 42.0015 17.7484V19.1065C42.0016 19.1983 42.038 19.2862 42.1029 19.3511C42.1678 19.416 42.2558 19.4525 42.3475 19.4526H44.935C45.0268 19.4525 45.1147 19.416 45.1796 19.3511C45.2445 19.2862 45.281 19.1983 45.2811 19.1065V17.7488C45.281 17.657 45.2445 17.5691 45.1796 17.5042C45.1147 17.4393 45.0268 17.4028 44.935 17.4027L42.3475 17.4024Z" fill="#2F3A5A"/>
<path d="M38.6805 22.1922C38.6041 22.1922 38.5296 22.1679 38.468 22.1228C38.4063 22.0777 38.3607 22.0141 38.3376 21.9413C38.3145 21.8685 38.3152 21.7902 38.3397 21.7178C38.3641 21.6455 38.411 21.5828 38.4735 21.5388L41.6388 19.3139C41.6774 19.2859 41.7211 19.2658 41.7675 19.2549C41.8139 19.2439 41.8621 19.2423 41.9091 19.2501C41.9561 19.2579 42.0011 19.275 42.0415 19.3004C42.0818 19.3258 42.1167 19.3589 42.1441 19.3979C42.1716 19.4369 42.1909 19.481 42.2012 19.5276C42.2114 19.5741 42.2122 19.6223 42.2037 19.6692C42.1951 19.7161 42.1773 19.7608 42.1513 19.8007C42.1253 19.8407 42.0915 19.8751 42.0521 19.9019L38.8867 22.1267C38.8263 22.1692 38.7543 22.1921 38.6805 22.1922Z" fill="#2F3A5A"/>
<path d="M1.06498 19.8123H3.65392C4.04353 19.8123 4.35938 19.4965 4.35938 19.1069V17.7484C4.35938 17.3588 4.04353 17.043 3.65392 17.043H1.06498C0.675374 17.043 0.359531 17.3588 0.359531 17.7484V19.1069C0.359531 19.4965 0.675374 19.8123 1.06498 19.8123Z" fill="#707583"/>
<path d="M3.65377 20.1717H1.06627C0.783723 20.1717 0.512732 20.0596 0.31281 19.8599C0.112887 19.6602 0.000380913 19.3894 0 19.1069L0 17.7488C0.000380321 17.4665 0.112689 17.1959 0.312301 16.9963C0.511913 16.7966 0.782535 16.6843 1.06483 16.684H3.65233C3.93462 16.6843 4.20524 16.7966 4.40486 16.9963C4.60447 17.1959 4.71678 17.4665 4.71716 17.7488V19.1069C4.71678 19.3889 4.60467 19.6593 4.40536 19.8589C4.20606 20.0585 3.93581 20.1709 3.65377 20.1717ZM1.06627 17.4024C1.02068 17.4022 0.975515 17.4111 0.933359 17.4284C0.891202 17.4458 0.852884 17.4713 0.8206 17.5034C0.788316 17.5356 0.762701 17.5739 0.745224 17.616C0.727746 17.6581 0.71875 17.7032 0.71875 17.7488V19.1069C0.718845 19.1986 0.755337 19.2866 0.820219 19.3515C0.885101 19.4164 0.973072 19.4529 1.06483 19.4529H3.65233C3.74408 19.4529 3.83206 19.4164 3.89694 19.3515C3.96182 19.2866 3.99831 19.1986 3.99841 19.1069V17.7488C3.99831 17.657 3.96182 17.5691 3.89694 17.5042C3.83206 17.4393 3.74408 17.4028 3.65233 17.4027L1.06627 17.4024Z" fill="#2F3A5A"/>
<path d="M7.31958 22.1922C7.24573 22.1921 7.1737 22.1692 7.11329 22.1267L3.94792 19.9019C3.90849 19.8751 3.87478 19.8407 3.84877 19.8007C3.82275 19.7608 3.80494 19.7161 3.79637 19.6692C3.78781 19.6223 3.78866 19.5741 3.79888 19.5276C3.8091 19.481 3.82848 19.4369 3.8559 19.3979C3.88331 19.3589 3.91821 19.3258 3.95857 19.3004C3.99892 19.275 4.04392 19.2579 4.09095 19.2501C4.13798 19.2423 4.18609 19.2439 4.23249 19.2549C4.27888 19.2658 4.32264 19.2859 4.3612 19.3139L7.52658 21.5388C7.58906 21.5828 7.63592 21.6455 7.66036 21.7178C7.68479 21.7902 7.68552 21.8685 7.66245 21.9413C7.63938 22.0141 7.5937 22.0777 7.53204 22.1228C7.47039 22.1679 7.39597 22.1922 7.31958 22.1922Z" fill="#2F3A5A"/>
<path d="M40.9437 33.3472L37.0851 33.3549C36.3494 33.3564 35.7541 33.954 35.7556 34.6897L35.7709 42.352C35.7724 43.0877 36.37 43.683 37.1058 43.6815L40.9644 43.6738C41.7001 43.6723 42.2954 43.0747 42.2939 42.3389L42.2786 34.6767C42.2771 33.9409 41.6795 33.3457 40.9437 33.3472Z" fill="#3A556A"/>
<path d="M37.0875 44.0536C36.6393 44.0535 36.2095 43.8756 35.8925 43.5589C35.5754 43.2423 35.3969 42.8127 35.3962 42.3646L35.3833 34.7023C35.3831 34.2538 35.5608 33.8235 35.8775 33.5059C36.1941 33.1882 36.6238 33.0091 37.0724 33.0079L40.9306 33.0014H40.9335C41.3816 33.0019 41.8112 33.1799 42.1283 33.4965C42.4454 33.813 42.6242 34.2424 42.6254 34.6905L42.638 42.3527C42.6384 42.5749 42.595 42.7949 42.5103 43.0003C42.4256 43.2057 42.3013 43.3924 42.1445 43.5498C41.9876 43.7071 41.8013 43.8321 41.5962 43.9174C41.391 44.0027 41.1711 44.0468 40.9489 44.0472L37.0907 44.0536H37.0875ZM40.9328 33.7205L37.0745 33.727C36.8168 33.728 36.5699 33.8312 36.388 34.0139C36.2062 34.1965 36.1041 34.4438 36.1042 34.7016L36.1171 42.3638C36.1178 42.6214 36.2206 42.8682 36.403 43.0501C36.5853 43.232 36.8324 43.3342 37.09 43.3342L40.9482 43.3277C41.206 43.327 41.4531 43.224 41.635 43.0414C41.8169 42.8587 41.9189 42.6112 41.9185 42.3534L41.906 34.6912C41.9049 34.4337 41.802 34.187 41.6196 34.0052C41.4372 33.8234 41.1903 33.7212 40.9328 33.7209V33.7205Z" fill="#2F3A5A"/>
<path d="M8.9203 33.358L5.0617 33.3657C4.32594 33.3672 3.73069 33.9649 3.73216 34.7006L3.74748 42.3628C3.74895 43.0986 4.34659 43.6939 5.08235 43.6924L8.94096 43.6847C9.67671 43.6832 10.272 43.0856 10.2705 42.3498L10.2552 34.6876C10.2537 33.9518 9.65606 33.3566 8.9203 33.358Z" fill="#3A556A"/>
<path d="M5.06728 44.0536C4.61923 44.053 4.18964 43.875 3.87255 43.5584C3.55545 43.2419 3.37668 42.8126 3.37535 42.3646L3.36133 34.7027C3.36095 34.4805 3.40434 34.2604 3.48903 34.055C3.57371 33.8496 3.69803 33.6629 3.85488 33.5056C4.01172 33.3482 4.19803 33.2233 4.40316 33.138C4.60829 33.0526 4.82822 33.0085 5.05039 33.0082L8.90864 33.0017C9.131 32.9987 9.35167 33.0407 9.55735 33.1253C9.76303 33.2098 9.94945 33.3352 10.1054 33.4937C10.2632 33.6505 10.3884 33.837 10.4736 34.0425C10.5588 34.248 10.6023 34.4684 10.6017 34.6908L10.6146 42.353C10.6148 42.8016 10.4371 43.2319 10.1204 43.5495C9.80377 43.8672 9.37406 44.0463 8.92553 44.0475L5.06728 44.054V44.0536ZM8.9126 33.7205L5.05435 33.727C4.79652 33.7276 4.54951 33.8306 4.36757 34.0133C4.18563 34.196 4.08365 34.4434 4.08403 34.7012L4.09661 42.3635C4.09766 42.621 4.20062 42.8676 4.38298 43.0494C4.56534 43.2313 4.81228 43.3335 5.0698 43.3338L8.92805 43.3273C9.18582 43.3263 9.43267 43.2231 9.61453 43.0404C9.7964 42.8578 9.89846 42.6105 9.89836 42.3527L9.88291 34.6919C9.88224 34.4343 9.77946 34.1875 9.59709 34.0056C9.41472 33.8237 9.16766 33.7216 8.91008 33.7216L8.9126 33.7205Z" fill="#2F3A5A"/>
<path d="M44.2387 31.1172C44.1519 33.0689 43.8578 35.0058 43.3615 36.8952C43.1927 37.5275 42.8196 38.0862 42.3004 38.4845C41.7812 38.8828 41.1448 39.0983 40.4904 39.0975L23.037 39.1205H22.9978L5.53437 39.1532C4.88111 39.1575 4.24485 38.9451 3.7252 38.5492C3.20556 38.1533 2.83186 37.5963 2.66261 36.9653C2.14283 35.0138 1.83889 33.0111 1.75626 30.9932C1.72033 30.0427 1.74441 29.2096 1.78645 28.5135C1.87343 27.2279 2.2365 25.9762 2.85092 24.8436L5.04311 20.7467C5.04311 20.7467 8.91322 11.8342 10.5527 11.1176C11.348 10.7683 14.2693 10.5358 17.0933 10.3913C19.9065 10.2476 22.6115 10.18 22.9447 10.1714H22.9838C23.6602 10.184 33.792 10.3845 35.3769 11.0677C37.0199 11.79 40.9213 20.6856 40.9213 20.6856L43.1282 24.7717C43.7464 25.9067 44.1121 27.1619 44.2002 28.4514C44.2651 29.3385 44.2779 30.2286 44.2387 31.1172Z" fill="#FFC943"/>
<path d="M5.52444 39.5122C4.793 39.5156 4.08109 39.2763 3.50019 38.8318C2.91928 38.3873 2.50216 37.7628 2.31414 37.0559C1.78822 35.0789 1.48103 33.0502 1.39809 31.0062C1.36683 30.1667 1.37689 29.3441 1.42864 28.4905C1.52076 27.1536 1.89805 25.8519 2.53515 24.6729L4.72734 20.576C5.11654 19.6776 8.69017 11.5403 10.4098 10.7874C11.1192 10.4758 13.3617 10.2214 17.0755 10.0327C19.5688 9.90439 21.9888 9.83647 22.9135 9.81311L22.9649 10.1725V9.81311C24.8045 9.84905 33.9301 10.0535 35.5197 10.7385C37.2447 11.4964 40.846 19.6183 41.2513 20.5419L43.4435 24.6028C44.0874 25.783 44.4675 27.0888 44.5576 28.4302C44.6232 29.3298 44.6358 30.2326 44.5953 31.1338C44.5076 33.1108 44.2097 35.0729 43.7066 36.9869C43.5182 37.6961 43.1004 38.3231 42.5184 38.7701C41.9364 39.2172 41.2229 39.4591 40.4891 39.4583L23.035 39.4813H22.9937L5.5327 39.5137L5.52444 39.5122ZM22.9455 10.1703L22.9322 10.5297C22.0104 10.5527 19.5976 10.6206 17.1128 10.7486C12.3576 10.9922 11.0534 11.2894 10.6991 11.445C9.59831 11.927 6.84909 17.493 5.37458 20.8883L3.16801 25.0125C2.57946 26.1008 2.23083 27.3026 2.14559 28.5369C2.09528 29.3635 2.08558 30.1631 2.11576 30.9807C2.19705 32.972 2.49664 34.9484 3.00917 36.8744C3.15694 37.4277 3.48406 37.9163 3.9393 38.2637C4.39453 38.6111 4.95215 38.7977 5.52479 38.7942H5.5345L22.9983 38.7618H23.04L40.4916 38.7388C41.0666 38.7401 41.6258 38.5511 42.0822 38.2014C42.5385 37.8517 42.8664 37.3609 43.0148 36.8054C43.5049 34.9408 43.7953 33.0293 43.8809 31.1032C43.9204 30.2288 43.9084 29.3528 43.8449 28.4798C43.7613 27.2392 43.409 26.0316 42.8125 24.9406L40.6059 20.8549C39.1062 17.439 36.3362 11.8802 35.2329 11.3954C34.0168 10.8715 26.6848 10.5998 22.9782 10.5297L22.9455 10.1703Z" fill="#2F3A5A"/>
<path d="M37.8174 20.0621L23.0604 20.0869H23.0245L18.942 20.092L17.0272 20.097H15.8183L14.8164 20.102H14.8113L8.26855 20.1121L11.3736 13.1973C11.4536 13.0224 11.5811 12.8734 11.7415 12.7673C11.902 12.6612 12.089 12.6023 12.2813 12.5972L20.1876 12.374H20.1926L21.2046 12.3442L22.4398 12.3083L23.0299 12.2935H23.0446L24.3441 12.3233L33.7809 12.5569C33.9739 12.562 34.1615 12.6215 34.3222 12.7285C34.4828 12.8356 34.6099 12.9859 34.6887 13.1621L37.8174 20.0621Z" fill="#3DBCE9"/>
<g opacity="0.75">
<path opacity="0.75" d="M21.2059 12.3438L15.8188 20.0966L14.8169 20.1016L20.1888 12.3733H20.1939L21.2059 12.3438Z" fill="white"/>
<path opacity="0.75" d="M26.0475 12.3237L21.206 20.0915L17.0293 20.0966L22.4411 12.3089L23.0312 12.2942H23.0463L26.0475 12.3237Z" fill="white"/>
</g>
<path d="M8.26559 20.4707C8.20559 20.4707 8.14655 20.4557 8.09384 20.427C8.04114 20.3983 7.99646 20.3569 7.96387 20.3065C7.93128 20.2561 7.91183 20.1984 7.90728 20.1386C7.90274 20.0787 7.91324 20.0187 7.93784 19.964L11.0472 13.0511C11.1545 12.8147 11.3258 12.613 11.5417 12.4689C11.7576 12.3248 12.0096 12.244 12.269 12.2356L23.0187 11.933C23.0306 11.9324 23.0426 11.9324 23.0546 11.933L33.7884 12.1993C34.048 12.2068 34.3004 12.2867 34.517 12.4301C34.7336 12.5735 34.9057 12.7747 35.0139 13.0108L38.1451 19.9137C38.1699 19.9684 38.1806 20.0284 38.1762 20.0883C38.1719 20.1482 38.1525 20.206 38.1201 20.2565C38.0876 20.307 38.0429 20.3486 37.9902 20.3774C37.9376 20.4062 37.8785 20.4214 37.8184 20.4215L8.26703 20.4703L8.26559 20.4707ZM23.0316 12.6518L12.2906 12.954C12.1659 12.9579 12.0447 12.9967 11.9409 13.066C11.837 13.1352 11.7546 13.2321 11.703 13.3457L8.82298 19.7512L37.2614 19.7042L34.3602 13.3073C34.3083 13.1938 34.2256 13.0971 34.1216 13.0282C34.0175 12.9593 33.8963 12.9209 33.7715 12.9174L23.0381 12.6511L23.0316 12.6518Z" fill="#2F3A5A"/>
<path d="M16.8325 33.3611H29.1677V37.0753H16.8325V33.3611Z" fill="#F0F5F9"/>
<path d="M29.1677 37.435H16.8325C16.7372 37.435 16.6458 37.3972 16.5784 37.3298C16.511 37.2624 16.4731 37.171 16.4731 37.0757V33.3615C16.4731 33.2662 16.511 33.1748 16.5784 33.1074C16.6458 33.04 16.7372 33.0021 16.8325 33.0021H29.1677C29.263 33.0021 29.3544 33.04 29.4218 33.1074C29.4892 33.1748 29.5271 33.2662 29.5271 33.3615V37.0757C29.5271 37.171 29.4892 37.2624 29.4218 37.3298C29.3544 37.3972 29.263 37.435 29.1677 37.435ZM17.1919 36.7163H28.8083V33.7209H17.1919V36.7163Z" fill="#2F3A5A"/>
<path d="M41.5159 27.8734C41.4209 27.629 41.2466 27.4235 41.021 27.2898C40.7953 27.1562 40.5314 27.1021 40.2714 27.1364C38.5083 27.3656 34.4729 28.1067 32.7712 30.2155C32.6337 30.3889 32.5479 30.5976 32.5237 30.8175C32.4994 31.0375 32.5377 31.2598 32.6341 31.459C32.7305 31.6582 32.8812 31.8262 33.0687 31.9436C33.2563 32.0611 33.4731 32.1233 33.6944 32.123H40.3864C40.6227 32.1221 40.8534 32.0506 41.0488 31.9177C41.2443 31.7848 41.3955 31.5965 41.4832 31.377C41.9535 30.2587 41.9653 29.0003 41.5159 27.8734Z" fill="#F0F5F9"/>
<path d="M33.6952 32.4828C33.4041 32.484 33.1187 32.402 32.8726 32.2465C32.6265 32.0911 32.4299 31.8686 32.3058 31.6052C32.18 31.3462 32.1307 31.0566 32.1638 30.7705C32.1969 30.4844 32.311 30.2137 32.4927 29.9902C34.286 27.7671 38.4982 27.0049 40.2261 26.7803C40.5661 26.7346 40.9116 26.805 41.2067 26.9801C41.5018 27.1551 41.7293 27.4245 41.8523 27.7448C42.3329 28.957 42.32 30.3091 41.8163 31.5118C41.7026 31.7982 41.5055 32.0437 41.2505 32.2168C40.9955 32.3898 40.6945 32.4822 40.3864 32.4821L33.6952 32.4828ZM40.4259 27.4875C40.3899 27.4876 40.3538 27.49 40.3181 27.4947C38.6765 27.7082 34.6817 28.4226 33.0515 30.4416C32.9547 30.5594 32.894 30.7026 32.8767 30.8541C32.8594 31.0056 32.8863 31.1589 32.9541 31.2955C33.0194 31.4365 33.1241 31.5557 33.2556 31.6386C33.3871 31.7215 33.5397 31.7646 33.6952 31.7626H40.3875C40.5523 31.7623 40.7132 31.7125 40.8493 31.6196C40.9854 31.5266 41.0905 31.3949 41.1508 31.2415C41.5898 30.2081 41.6007 29.0426 41.181 28.0011C41.122 27.8489 41.0182 27.7181 40.8833 27.6262C40.7484 27.5342 40.5888 27.4854 40.4256 27.4861L40.4259 27.4875Z" fill="#2F3A5A"/>
<path d="M5.72824 27.1368C5.46822 27.1026 5.20425 27.1566 4.9786 27.2903C4.75295 27.4239 4.57869 27.6294 4.48372 27.8739C4.0342 29.0007 4.04582 30.2591 4.51607 31.3774C4.60373 31.5969 4.75498 31.7852 4.95041 31.9181C5.14584 32.0511 5.37653 32.1226 5.61288 32.1235H12.3052C12.5265 32.1237 12.7433 32.0615 12.9309 31.9441C13.1184 31.8266 13.2691 31.6586 13.3655 31.4595C13.4619 31.2603 13.5002 31.0379 13.4759 30.8179C13.4517 30.598 13.3659 30.3893 13.2284 30.2159C11.5271 28.1071 7.49133 27.3661 5.72824 27.1368Z" fill="#F0F5F9"/>
<path d="M12.305 32.4828H5.61267C5.30455 32.4829 5.00351 32.3905 4.74855 32.2175C4.49359 32.0444 4.29646 31.7989 4.18272 31.5125C3.67905 30.3098 3.66615 28.9577 4.14678 27.7455C4.26974 27.4252 4.49717 27.1557 4.79227 26.9807C5.08737 26.8057 5.4329 26.7353 5.77295 26.781C7.50083 27.0056 11.7127 27.7678 13.5063 29.9909C13.688 30.2144 13.8021 30.4851 13.8352 30.7712C13.8683 31.0573 13.8191 31.3469 13.6932 31.6059C13.5692 31.869 13.3727 32.0912 13.1268 32.2465C12.8809 32.4018 12.5958 32.4838 12.305 32.4828ZM5.57422 27.4875C5.41089 27.4871 5.25128 27.5363 5.11652 27.6285C4.98176 27.7208 4.87819 27.8519 4.81953 28.0043C4.39984 29.0458 4.4107 30.2113 4.84972 31.2448C4.91009 31.3981 5.01515 31.5297 5.15127 31.6226C5.28738 31.7154 5.44826 31.7652 5.61303 31.7655H12.305C12.4604 31.7674 12.6131 31.7244 12.7445 31.6415C12.876 31.5586 12.9807 31.4394 13.046 31.2983C13.1138 31.1618 13.1407 31.0085 13.1234 30.857C13.1062 30.7055 13.0454 30.5622 12.9486 30.4444C11.3185 28.424 7.32401 27.7096 5.68203 27.4976C5.6465 27.4914 5.61061 27.4875 5.57458 27.4861L5.57422 27.4875Z" fill="#2F3A5A"/>
<path d="M39.2129 30.9594C39.8639 30.9594 40.3917 30.4317 40.3917 29.7807C40.3917 29.1297 39.8639 28.6019 39.2129 28.6019C38.5619 28.6019 38.0342 29.1297 38.0342 29.7807C38.0342 30.4317 38.5619 30.9594 39.2129 30.9594Z" fill="#C1CDD3"/>
<path d="M36.1256 30.8656C36.5698 30.8656 36.9299 30.5056 36.9299 30.0614C36.9299 29.6172 36.5698 29.2571 36.1256 29.2571C35.6814 29.2571 35.3213 29.6172 35.3213 30.0614C35.3213 30.5056 35.6814 30.8656 36.1256 30.8656Z" fill="#C1CDD3"/>
<path d="M6.91068 30.9594C7.56169 30.9594 8.08943 30.4317 8.08943 29.7807C8.08943 29.1297 7.56169 28.6019 6.91068 28.6019C6.25968 28.6019 5.73193 29.1297 5.73193 29.7807C5.73193 30.4317 6.25968 30.9594 6.91068 30.9594Z" fill="#C1CDD3"/>
<path d="M9.99715 30.8656C10.4413 30.8656 10.8014 30.5056 10.8014 30.0614C10.8014 29.6172 10.4413 29.2571 9.99715 29.2571C9.55296 29.2571 9.19287 29.6172 9.19287 30.0614C9.19287 30.5056 9.55296 30.8656 9.99715 30.8656Z" fill="#C1CDD3"/>
<path d="M20.5928 7.48291H21.5555V8.44568H20.5928V7.48291Z" fill="#2F3A5A"/>
<path d="M21.5557 8.44568H22.5184V9.40844H21.5557V8.44568Z" fill="#2F3A5A"/>
<path d="M22.5181 7.48291H23.4808V8.44568H22.5181V7.48291Z" fill="#2F3A5A"/>
<path d="M23.4814 8.44568H24.4442V9.40844H23.4814V8.44568Z" fill="#2F3A5A"/>
<path d="M24.4438 7.48291H25.4066V8.44568H24.4438V7.48291Z" fill="#2F3A5A"/>
<path d="M23.4812 30.4207H17.029C16.9756 30.4207 16.923 30.4087 16.8748 30.3858C16.8266 30.3629 16.7841 30.3295 16.7505 30.2881C12.7151 25.3287 6.50829 25.024 6.4454 25.0211C6.38584 25.0187 6.32782 25.0015 6.27657 24.9711C6.22531 24.9407 6.18242 24.898 6.15176 24.8469C6.12111 24.7957 6.10365 24.7378 6.10095 24.6783C6.09826 24.6187 6.11042 24.5594 6.13634 24.5058L7.50448 21.676C7.52417 21.6322 7.55245 21.5928 7.58763 21.5601C7.62282 21.5274 7.66421 21.5021 7.70935 21.4857C7.75449 21.4692 7.80246 21.462 7.85043 21.4644C7.89841 21.4669 7.94541 21.4789 7.98866 21.4998C8.03191 21.5207 8.07053 21.5501 8.10223 21.5862C8.13394 21.6222 8.15809 21.6643 8.17326 21.7099C8.18843 21.7555 8.1943 21.8036 8.19054 21.8515C8.18678 21.8994 8.17345 21.946 8.15135 21.9887L7.01106 24.3473C8.64873 24.527 13.6236 25.415 17.1986 29.702H23.4812C23.5765 29.702 23.6679 29.7398 23.7353 29.8072C23.8027 29.8746 23.8406 29.966 23.8406 30.0613C23.8406 30.1567 23.8027 30.2481 23.7353 30.3155C23.6679 30.3829 23.5765 30.4207 23.4812 30.4207Z" fill="#F7B521"/>
<path d="M28.9708 30.4208H22.5186C22.4232 30.4208 22.3318 30.3829 22.2644 30.3155C22.197 30.2481 22.1592 30.1567 22.1592 30.0614C22.1592 29.9661 22.197 29.8747 22.2644 29.8073C22.3318 29.7399 22.4232 29.702 22.5186 29.702H28.8015C32.3762 25.4151 37.3514 24.527 38.9891 24.3473L37.8488 21.9891C37.8267 21.9465 37.8133 21.8998 37.8096 21.8519C37.8058 21.8041 37.8117 21.7559 37.8269 21.7103C37.842 21.6647 37.8662 21.6227 37.8979 21.5866C37.9296 21.5505 37.9682 21.5211 38.0115 21.5002C38.0547 21.4793 38.1017 21.4673 38.1497 21.4649C38.1977 21.4624 38.2456 21.4697 38.2908 21.4861C38.3359 21.5025 38.3773 21.5278 38.4125 21.5605C38.4477 21.5932 38.4759 21.6327 38.4956 21.6765L39.8638 24.5062C39.8897 24.5599 39.9019 24.6191 39.8992 24.6787C39.8965 24.7382 39.879 24.7962 39.8484 24.8473C39.8177 24.8984 39.7748 24.9411 39.7235 24.9715C39.6723 25.0019 39.6143 25.0191 39.5547 25.0215C39.4922 25.0241 33.2851 25.3302 29.2496 30.2885C29.2159 30.3299 29.1734 30.3633 29.1251 30.3861C29.0769 30.409 29.0242 30.4208 28.9708 30.4208Z" fill="#F7B521"/>
</svg>
