<svg width="46" height="46" viewBox="0 0 46 46" fill="none" xmlns="http://www.w3.org/2000/svg">
<g clip-path="url(#clip0)">
<path d="M28.4053 4.56798L25.3911 7.58223L24.3359 6.52702L26.5209 2.68359L28.4053 4.56798Z" fill="#B3B3B3"/>
<path d="M30.5423 35.9466L28.1313 38.3587C26.2618 36.4892 24.8922 34.415 23.9521 32.7011C22.7104 30.4351 20.3623 28.9973 17.7798 28.911L20.6437 26.0481L30.5423 35.9466Z" fill="#4D4D4D"/>
<path d="M36.0932 0.799316L38.5798 3.287L33.9828 7.88404L33.3796 7.28074L31.4951 5.39635L36.0932 0.799316Z" fill="#B3B3B3"/>
<path d="M18.0043 22.6553L21.9233 18.7363L19.587 16.4L15.668 20.319L18.0043 22.6553Z" fill="#CCCCCC"/>
<path d="M17.7797 28.9109L12.4281 34.2626L11.0062 32.8407L5.56934 27.4038L8.57928 24.3939L16.0456 24.6155L18.0046 22.6555L21.9238 18.7363L33.3038 7.35626L33.3796 7.28052L33.9828 7.88382L36.3948 10.2959L29.6874 17.0032H29.6863L26.7478 19.9428L25.165 21.5256L20.6426 26.047L20.6437 26.0481L17.7797 28.9109Z" fill="#666666"/>
<path d="M33.3794 7.28093L33.3037 7.35666L21.9236 18.7367L19.5872 16.4003L15.6681 20.3195L18.0044 22.6559L16.0454 24.6159L8.5791 24.3943L13.0301 19.9432L25.3908 7.58262L28.405 4.56836L29.5359 3.4375L31.4949 5.39654L33.3794 7.28093Z" fill="#999999"/>
<path d="M39.796 45.2006L43.2407 41.7559L33.9873 32.5025L30.5426 35.9472L39.796 45.2006Z" fill="#4D4D4D"/>
<path d="M35.0646 31.4256L33.987 32.5021L30.5421 35.9469L20.6436 26.0483L25.1649 21.5259L28.4807 24.8417L35.0646 31.4256Z" fill="#808080"/>
<path d="M43.8058 41.1903L35.1177 32.5022L35.6296 31.9903C35.9418 31.6781 35.9418 31.172 35.6296 30.8598L29.6111 24.8414L33.5679 20.8847C33.8801 20.5725 33.8801 20.0664 33.5679 19.7543L30.8169 17.0033L36.9594 10.8609C37.2716 10.5487 37.2716 10.0426 36.9594 9.73048L35.1129 7.88402L39.1451 3.85183C39.295 3.70197 39.3791 3.49856 39.3791 3.28662C39.3791 3.07459 39.295 2.87127 39.1451 2.72141L36.6579 0.233911C36.3456 -0.0782959 35.8396 -0.0782959 35.5274 0.233911L31.4953 4.26601L30.1011 2.87181C29.9511 2.72186 29.7478 2.63768 29.5358 2.63768C29.3237 2.63768 29.1205 2.72186 28.9705 2.87181L28.4053 3.43702L27.0863 2.11811C26.9101 1.94175 26.6609 1.85775 26.4141 1.89117C26.167 1.9245 25.9495 2.0714 25.8261 2.28819L23.6404 6.13188C23.4625 6.44472 23.5156 6.83779 23.77 7.09222L24.2599 7.58205L12.952 18.8901C12.5202 18.6481 12.0316 18.5186 11.523 18.5186C10.74 18.5186 10.0039 18.8235 9.45029 19.3771L2.81802 26.0094C2.26449 26.563 1.95947 27.2991 1.95947 28.0821C1.95947 28.865 2.2644 29.601 2.81802 30.1546L8.21152 35.5479L11.4045 39.9328C11.5419 40.1217 11.7553 40.2411 11.9885 40.2593C12.0092 40.2609 12.0301 40.2617 12.0507 40.2617C12.2619 40.2617 12.4655 40.1781 12.616 40.0276L15.4045 37.239C15.7167 36.9268 15.7167 36.4207 15.4045 36.1086L13.558 34.2621L18.0892 29.731C20.2496 29.9165 22.206 31.1786 23.2515 33.0853C24.4794 35.3248 25.9307 37.2893 27.5654 38.924C27.7215 39.0802 27.9261 39.1582 28.1307 39.1582C28.3353 39.1582 28.5398 39.0802 28.6959 38.924L30.5425 37.0776L39.2305 45.7656C39.3867 45.9218 39.5913 45.9998 39.7958 45.9998C40.0004 45.9998 40.205 45.9218 40.3611 45.7656L43.8059 42.3209C43.9558 42.171 44.04 41.9676 44.04 41.7556C44.0399 41.5435 43.9557 41.3402 43.8058 41.1903ZM30.5423 34.8164L21.7729 26.0471L25.1411 22.6789L25.1645 22.6556L33.9339 31.4249L30.5423 34.8164ZM28.4805 23.7107L26.2949 21.5251L26.747 21.073L27.5383 21.8642C27.6944 22.0204 27.899 22.0984 28.1036 22.0984C28.3081 22.0984 28.5127 22.0204 28.6688 21.8642C28.9811 21.552 28.9811 21.0459 28.6689 20.7337L27.8774 19.9423L29.6863 18.1336L31.8719 20.3192L28.4805 23.7107ZM36.0927 1.92971L37.4494 3.28635L33.9825 6.75324L32.6258 5.3966L36.0927 1.92971ZM32.2489 7.28072L21.9237 17.606L20.1526 15.8349C19.8403 15.5227 19.3342 15.5227 19.0221 15.8349L15.1029 19.7541C14.953 19.9039 14.8689 20.1073 14.8689 20.3193C14.8689 20.5313 14.953 20.7346 15.1029 20.8845L16.8742 22.6556L15.7239 23.8059L10.4539 23.6493L29.5357 4.56752L32.2489 7.28072ZM18.0047 21.5252L16.7988 20.3193L19.5874 17.5307L20.7932 18.7366L18.0047 21.5252ZM25.3314 6.39261L26.6974 3.99028L27.2747 4.56752L25.3905 6.45164L25.3314 6.39261ZM3.55842 28.0821C3.55842 27.7262 3.69705 27.3916 3.9487 27.14L10.581 20.5077C10.8325 20.256 11.1672 20.1175 11.5231 20.1175C11.5864 20.1175 11.6487 20.1233 11.7102 20.132L5.00374 26.8385C4.69153 27.1507 4.69153 27.6568 5.00374 27.9689L9.87588 32.8411L8.82075 33.8962L3.9487 29.0242C3.69696 28.7725 3.55842 28.4379 3.55842 28.0821ZM12.1465 38.2361L9.86932 35.1086L11.0064 33.9716L13.7087 36.6739L12.1465 38.2361ZM6.69945 27.4037L8.90044 25.2027L16.0213 25.4142C16.0292 25.4144 16.0371 25.4146 16.0451 25.4146C16.2568 25.4146 16.4603 25.3306 16.6104 25.1805L33.3795 8.41122L33.4172 8.44886C33.4172 8.44895 33.4173 8.44895 33.4173 8.44895L35.2637 10.2953L12.4274 33.1316L6.69945 27.4037ZM28.1414 37.2174C26.8378 35.8101 25.6665 34.1651 24.653 32.3167C23.5561 30.3159 21.6545 28.8852 19.4746 28.3453L20.6422 27.1777L29.4116 35.9471L28.1414 37.2174ZM39.7957 44.0698L31.6728 35.947L33.9871 33.6327L42.11 41.7556L39.7957 44.0698Z" fill="black"/>
<path d="M33.1529 11.4721C33.5945 11.4721 33.9524 11.1142 33.9524 10.6727C33.9524 10.2312 33.5945 9.87329 33.1529 9.87329C32.7114 9.87329 32.3535 10.2312 32.3535 10.6727C32.3535 11.1142 32.7114 11.4721 33.1529 11.4721Z" fill="#333333"/>
</g>
<defs>
<clipPath id="clip0">
<rect width="46" height="46" fill="white"/>
</clipPath>
</defs>
</svg>
