<svg width="70" height="90" viewBox="0 0 70 70" fill="none" xmlns="http://www.w3.org/2000/svg">
<path d="M0 35C0 15.67 15.67 0 35 0V0C54.33 0 70 15.67 70 35V35C70 54.33 54.33 70 35 70V70C15.67 70 0 54.33 0 35V35Z" fill="#0F1014"/>
<path d="M35 69.5C15.9462 69.5 0.5 54.0538 0.5 35C0.5 15.9462 15.9462 0.5 35 0.5C54.0538 0.5 69.5 15.9462 69.5 35C69.5 54.0538 54.0538 69.5 35 69.5Z" stroke="white" stroke-opacity="0.1"/>
<path d="M41.25 45.417V22.5C41.25 21.9475 41.0305 21.4177 40.6399 21.0271C40.2493 20.6365 39.7194 20.417 39.167 20.417H18.333C17.7806 20.417 17.2507 20.6365 16.8601 21.0271C16.4695 21.4177 16.25 21.9475 16.25 22.5V43.333C16.2499 43.6066 16.3037 43.8776 16.4083 44.1304C16.5129 44.3833 16.6663 44.613 16.8597 44.8065C17.0532 45.0001 17.2829 45.1536 17.5356 45.2583C17.7884 45.3631 18.0594 45.417 18.333 45.417H22.5C22.5169 44.3231 22.9634 43.2798 23.7429 42.5123C24.5224 41.7448 25.5725 41.3145 26.6665 41.3145C27.7605 41.3145 28.8106 41.7448 29.5901 42.5123C30.3696 43.2798 30.8161 44.3231 30.833 45.417H41.25ZM41.25 45.417V26.667H48.458C48.8047 26.665 49.1464 26.7496 49.452 26.9133C49.7576 27.0769 50.0175 27.3143 50.208 27.604L53.396 32.396C53.6229 32.7355 53.7459 33.1337 53.75 33.542V45.417H51.667C51.667 44.3118 51.228 43.2519 50.4465 42.4705C49.6651 41.689 48.6052 41.25 47.5 41.25C46.3948 41.25 45.3349 41.689 44.5535 42.4705C43.772 43.2519 43.333 44.3118 43.333 45.417H41.25Z" stroke="#475569" stroke-width="2" stroke-linecap="round" stroke-linejoin="round"/>
<path d="M30.833 45.417C30.8416 45.9695 30.7402 46.5181 30.5347 47.031C30.3292 47.5439 30.0237 48.0107 29.6361 48.4044C29.2484 48.7981 28.7863 49.1108 28.2767 49.3242C27.767 49.5376 27.22 49.6475 26.6675 49.6475C26.115 49.6475 25.568 49.5376 25.0584 49.3242C24.5487 49.1108 24.0866 48.7981 23.699 48.4044C23.3113 48.0107 23.0059 47.5439 22.8004 47.031C22.5949 46.5181 22.4935 45.9695 22.502 45.417C22.519 44.3234 22.9653 43.2804 23.7446 42.513C24.524 41.7456 25.5738 41.3155 26.6675 41.3155C27.7612 41.3155 28.8111 41.7456 29.5904 42.513C30.3698 43.2804 30.8161 44.3234 30.833 45.417ZM47.5 41.25C46.3949 41.25 45.335 41.689 44.5535 42.4705C43.772 43.2519 43.333 44.3118 43.333 45.417C43.333 46.5222 43.772 47.582 44.5535 48.3635C45.335 49.145 46.3949 49.584 47.5 49.584C48.6052 49.584 49.6651 49.145 50.4465 48.3635C51.228 47.582 51.667 46.5222 51.667 45.417C51.667 44.3118 51.228 43.2519 50.4465 42.4705C49.6651 41.689 48.6052 41.25 47.5 41.25Z" stroke="white" stroke-width="2" stroke-linecap="round" stroke-linejoin="round"/>
</svg>
