<svg width="70" height="70" viewBox="0 0 70 70" fill="none" xmlns="http://www.w3.org/2000/svg">
<g clip-path="url(#clip0)">
<path d="M64.525 31.0894H60.9272L54.9048 20.609C53.9663 18.8102 52.1673 17.7151 50.1339 17.7151H46.5361H31.3631H28.7039C27.1397 17.7151 25.6536 18.419 24.6369 19.5922L14.0001 31.0894H8.60329C3.8324 31.0894 0 34.9218 0 39.6929V47.9834C0 50.1734 1.72069 51.894 3.91054 51.894H10.1675C10.0111 51.19 9.93295 50.4861 9.93295 49.7822V49.5477C9.93295 49.5477 9.93295 49.5477 9.93295 49.4695C10.0111 44.8551 13.9218 41.1008 18.6145 41.1008C22.5251 41.1008 25.81 43.6818 26.9051 47.2014H43.9554C45.0503 43.6818 48.3352 41.1008 52.2459 41.1008C56.8604 41.1008 60.6928 44.7768 60.9275 49.4695V49.5477V49.7822C60.9275 50.4861 60.8494 51.19 60.6929 51.894H66.0896C68.2796 51.894 70.0001 50.1733 70.0001 47.9834V36.5644C70 33.514 67.5754 31.0894 64.525 31.0894Z" fill="#0182F9"/>
<path d="M43.5642 49.5472C43.5642 48.6869 43.7207 47.9048 43.9552 47.2009H26.905C27.1396 47.9048 27.296 48.687 27.296 49.4691V49.5472V49.7818C27.296 50.4857 27.2178 51.1896 27.0614 51.8935H43.8771C43.7207 51.1896 43.6425 50.4857 43.6425 49.7818L43.5642 49.5472Z" fill="#01519B"/>
<path d="M46.5363 17.9497V17.4023C46.5363 13.8827 43.7988 11.1453 40.2793 11.1453H37.6201C34.1006 11.1453 31.3631 13.8827 31.3631 17.4023V17.9497H46.5363Z" fill="#2B2D35"/>
<path d="M35.8212 31.0893V22.4077H28.7039C28.4693 22.4077 28.3129 22.4859 28.0781 22.7206L20.3352 31.0893H35.8212Z" fill="#D4E1F4"/>
<path d="M40.514 22.408V31.0895H55.5307L50.838 22.8773C50.6815 22.6427 50.5251 22.408 50.1341 22.408H40.514Z" fill="#D4E1F4"/>
<path d="M18.6145 40.7097C13.6872 40.7097 9.62008 44.6203 9.54193 49.4694V49.7823C9.54193 50.4862 9.62008 51.2684 9.77652 51.9723C10.7933 56.0393 14.391 58.8551 18.6145 58.8551C22.6815 58.8551 26.3575 56.0395 27.4526 51.9723C27.609 51.2684 27.6872 50.4862 27.6872 49.7823V49.4694C27.6872 48.6874 27.5307 47.9052 27.2961 47.1231C26.1229 43.2906 22.6034 40.7097 18.6145 40.7097Z" fill="#D4E1F4"/>
<path d="M61.3184 49.4694C61.0838 44.5421 57.0949 40.7097 52.2458 40.7097C48.2569 40.7097 44.7374 43.2907 43.5642 47.0449C43.3296 47.8269 43.1732 48.6872 43.1732 49.5476V49.7822C43.1732 50.4861 43.2513 51.2683 43.4077 51.9722C44.4245 56.0392 48.0222 58.8549 52.2458 58.8549C56.3128 58.8549 59.9887 56.0393 61.0838 51.9722C61.2402 51.2683 61.3184 50.4861 61.3184 49.7822V49.4694Z" fill="#D4E1F4"/>
</g>
<defs>
<clipPath id="clip0">
<rect width="70" height="70" fill="white"/>
</clipPath>
</defs>
</svg>
