<svg width="70" height="90" viewBox="0 0 70 70" fill="none" xmlns="http://www.w3.org/2000/svg">
<path d="M0 35C0 15.67 15.67 0 35 0V0C54.33 0 70 15.67 70 35V35C70 54.33 54.33 70 35 70V70C15.67 70 0 54.33 0 35V35Z" fill="#0F1014"/>
<path d="M35 69.5C15.9462 69.5 0.5 54.0538 0.5 35C0.5 15.9462 15.9462 0.5 35 0.5C54.0538 0.5 69.5 15.9462 69.5 35C69.5 54.0538 54.0538 69.5 35 69.5Z" stroke="white" stroke-opacity="0.1"/>
<path d="M43.333 28.75H48.188C48.6875 28.7429 49.1728 28.9159 49.5553 29.2372C49.9377 29.5585 50.1918 30.0068 50.271 30.5L53.75 51.333C53.799 51.6331 53.7816 51.9404 53.699 52.2331C53.6165 52.5259 53.4708 52.7969 53.2723 53.0273C53.0737 53.2577 52.8271 53.4418 52.5498 53.5667C52.2724 53.6915 51.9711 53.7541 51.667 53.75H18.333C18.0289 53.7541 17.7276 53.6915 17.4502 53.5667C17.1729 53.4418 16.9263 53.2577 16.7277 53.0273C16.5292 52.7969 16.3835 52.5259 16.301 52.2331C16.2184 51.9404 16.201 51.6331 16.25 51.333L19.73 30.5C19.8092 30.0069 20.0631 29.5588 20.4453 29.2375C20.8276 28.9162 21.3127 28.7432 21.812 28.75H26.667" stroke="#475569" stroke-width="2" stroke-linecap="round" stroke-linejoin="round"/>
<path d="M43.333 24.583C43.333 22.373 42.4551 20.2534 40.8923 18.6907C39.3296 17.1279 37.21 16.25 35 16.25C32.7899 16.25 30.6704 17.1279 29.1077 18.6907C27.5449 20.2534 26.667 22.373 26.667 24.583C26.667 32.917 35 41.25 35 41.25C35 41.25 43.333 32.917 43.333 24.583Z" stroke="white" stroke-width="2" stroke-linecap="round" stroke-linejoin="round"/>
</svg>
